<svg width="52" height="52" viewBox="0 0 52 52" fill="none" xmlns="http://www.w3.org/2000/svg">
<path d="M29.9447 21.7543H9.18937V13.8081C9.19163 11.795 9.99231 9.86507 11.4158 8.44163C12.8392 7.01819 14.7691 6.21751 16.7822 6.21525C20.865 6.13075 24.4575 9.73012 24.3746 13.8081V16.9321C24.3745 17.0255 24.3929 17.118 24.4286 17.2043C24.4643 17.2905 24.5167 17.3689 24.5827 17.435C24.6487 17.501 24.7271 17.5533 24.8134 17.5891C24.8997 17.6248 24.9922 17.6431 25.0855 17.6431H28.3355C28.5241 17.6431 28.7049 17.5682 28.8382 17.4348C28.9716 17.3015 29.0465 17.1207 29.0465 16.9321V13.8081C29.1797 7.21584 23.3813 1.40687 16.7822 1.54337C13.5305 1.54703 10.4131 2.84037 8.11378 5.13966C5.8145 7.43894 4.52116 10.5564 4.5175 13.8081V21.7543H3.61969C2.66002 21.7554 1.73996 22.1371 1.06137 22.8157C0.38278 23.4943 0.00107526 24.4143 0 25.374V45.2112C0.00107526 46.1709 0.38278 47.0909 1.06137 47.7695C1.73996 48.4481 2.66002 48.8298 3.61969 48.8309H29.9447C30.9044 48.8298 31.8244 48.4481 32.503 47.7695C33.1816 47.0909 33.5633 46.1709 33.5644 45.2112V25.374C33.5633 24.4143 33.1816 23.4943 32.503 22.8157C31.8244 22.1371 30.9044 21.7554 29.9447 21.7543ZM5.93937 13.8081C5.9426 10.9334 7.086 8.17732 9.11872 6.1446C11.1514 4.11187 13.9075 2.96847 16.7822 2.96525C22.6159 2.84337 27.7428 7.98 27.6246 13.8081V16.2212H25.7965V13.8081C25.8944 8.96516 21.6304 4.69303 16.7822 4.79337C14.3922 4.79606 12.1008 5.74668 10.4108 7.43668C8.72081 9.12668 7.77019 11.418 7.7675 13.8081V21.7543H5.93937V13.8081ZM32.1425 45.2112C32.1419 45.7939 31.9101 46.3525 31.4981 46.7646C31.086 47.1766 30.5274 47.4084 29.9447 47.409H3.61969C3.03699 47.4084 2.47834 47.1766 2.06631 46.7646C1.65428 46.3525 1.42252 45.7939 1.42188 45.2112V25.374C1.42252 24.7913 1.65428 24.2327 2.06631 23.8206C2.47834 23.4086 3.03699 23.1768 3.61969 23.1762H5.22844C6.52234 23.1782 27.9407 23.1762 29.9447 23.1762C30.5274 23.1768 31.086 23.4086 31.4981 23.8206C31.9101 24.2327 32.1419 24.7913 32.1425 25.374V45.2112Z" fill="url(#paint0_linear_259_3868)"/>
<path d="M35.5345 15.8711H31.6934C31.5048 15.8711 31.324 15.946 31.1907 16.0793C31.0573 16.2126 30.9824 16.3935 30.9824 16.582C30.9824 16.7706 31.0573 16.9514 31.1907 17.0847C31.324 17.2181 31.5048 17.293 31.6934 17.293H35.5345C35.723 17.293 35.9038 17.2181 36.0372 17.0847C36.1705 16.9514 36.2454 16.7706 36.2454 16.582C36.2454 16.3935 36.1705 16.2126 36.0372 16.0793C35.9038 15.946 35.723 15.8711 35.5345 15.8711Z" fill="url(#paint1_linear_259_3868)"/>
<path d="M31.6947 14.8555C31.7881 14.8556 31.8806 14.8373 31.9669 14.8016C32.0532 14.7659 32.1316 14.7135 32.1976 14.6475L34.9134 11.9313C35.0429 11.7972 35.1145 11.6176 35.1129 11.4312C35.1112 11.2448 35.0364 11.0665 34.9046 10.9347C34.7727 10.8029 34.5944 10.7282 34.408 10.7266C34.2216 10.725 34.042 10.7967 33.9079 10.9262L31.1922 13.642C31.0949 13.7422 31.0292 13.8687 31.0029 14.0059C30.9767 14.143 30.9912 14.2849 31.0447 14.4139C31.0981 14.5429 31.1881 14.6535 31.3036 14.7319C31.4191 14.8104 31.5551 14.8533 31.6947 14.8555Z" fill="url(#paint2_linear_259_3868)"/>
<path d="M32.1961 18.5168C32.1301 18.4508 32.0517 18.3984 31.9655 18.3627C31.8792 18.327 31.7868 18.3086 31.6934 18.3086C31.5048 18.3086 31.324 18.3835 31.1907 18.5168C31.0573 18.6502 30.9824 18.831 30.9824 19.0196C30.9824 19.2081 31.0573 19.389 31.1907 19.5223L33.9064 22.2381C33.972 22.306 34.0504 22.3602 34.1372 22.3975C34.2239 22.4347 34.3172 22.4544 34.4116 22.4552C34.506 22.456 34.5996 22.4381 34.687 22.4023C34.7744 22.3666 34.8538 22.3138 34.9205 22.2471C34.9873 22.1804 35.0401 22.101 35.0759 22.0136C35.1116 21.9263 35.1296 21.8327 35.1288 21.7383C35.128 21.6439 35.1084 21.5506 35.0712 21.4638C35.0339 21.3771 34.9798 21.2986 34.9119 21.233L32.1961 18.5168Z" fill="url(#paint3_linear_259_3868)"/>
<path d="M16.7826 27.4531C11.8195 27.5173 10.2773 34.0852 14.6498 36.3732V41.0016C14.6498 41.5672 14.8745 42.1097 15.2745 42.5097C15.6745 42.9097 16.217 43.1344 16.7826 43.1344C17.3483 43.1344 17.8908 42.9097 18.2908 42.5097C18.6907 42.1097 18.9154 41.5672 18.9154 41.0016V36.3732C23.2875 34.0876 21.745 27.5153 16.7826 27.4531ZM17.9526 35.2466C17.8175 35.2978 17.7011 35.3889 17.6191 35.5079C17.5371 35.6268 17.4933 35.768 17.4936 35.9125V41.0028C17.4936 41.1913 17.4187 41.3722 17.2853 41.5055C17.152 41.6388 16.9712 41.7137 16.7826 41.7137C16.5941 41.7137 16.4132 41.6388 16.2799 41.5055C16.1466 41.3722 16.0717 41.1913 16.0717 41.0028V35.9125C16.0717 35.7682 16.0278 35.6273 15.9458 35.5086C15.8638 35.3899 15.7476 35.2989 15.6126 35.2478C14.8916 34.9749 14.2892 34.4577 13.9104 33.7862C13.5316 33.1148 13.4003 32.3317 13.5395 31.5734C13.6788 30.8152 14.0796 30.1298 14.6722 29.6367C15.2648 29.1436 16.0117 28.874 16.7826 28.875C20.4308 28.9225 21.3326 33.9105 17.9526 35.2466Z" fill="url(#paint4_linear_259_3868)"/>
<defs>
<linearGradient id="paint0_linear_259_3868" x1="0" y1="25.1859" x2="33.5644" y2="25.1859" gradientUnits="userSpaceOnUse">
<stop stop-color="#0452FF"/>
<stop offset="1" stop-color="#4E8FFF"/>
</linearGradient>
<linearGradient id="paint1_linear_259_3868" x1="30.9824" y1="16.582" x2="36.2454" y2="16.582" gradientUnits="userSpaceOnUse">
<stop stop-color="#0452FF"/>
<stop offset="1" stop-color="#4E8FFF"/>
</linearGradient>
<linearGradient id="paint2_linear_259_3868" x1="30.9902" y1="12.791" x2="35.1129" y2="12.791" gradientUnits="userSpaceOnUse">
<stop stop-color="#0452FF"/>
<stop offset="1" stop-color="#4E8FFF"/>
</linearGradient>
<linearGradient id="paint3_linear_259_3868" x1="30.9824" y1="20.3819" x2="35.1288" y2="20.3819" gradientUnits="userSpaceOnUse">
<stop stop-color="#0452FF"/>
<stop offset="1" stop-color="#4E8FFF"/>
</linearGradient>
<linearGradient id="paint4_linear_259_3868" x1="12.082" y1="35.2937" x2="21.4828" y2="35.2937" gradientUnits="userSpaceOnUse">
<stop stop-color="#0452FF"/>
<stop offset="1" stop-color="#4E8FFF"/>
</linearGradient>
</defs>
</svg>
