<svg width="52" height="52" viewBox="0 0 52 52" fill="none" xmlns="http://www.w3.org/2000/svg">
<path d="M36.3103 46.7553C35.2134 46.7553 34.1165 46.5765 33.0522 46.219L24.1553 43.1721C23.3265 42.8878 22.5303 42.4978 21.799 42.0021L12.5528 35.819C11.7322 35.2747 11.204 34.3972 11.1065 33.414C11.009 32.4309 11.3584 31.464 12.0572 30.7653C12.8859 29.9284 14.1128 29.6034 15.2503 29.9203C15.2909 29.9284 15.3315 29.9447 15.3722 29.9609L20.239 32.1953C20.2797 32.2034 20.3284 32.1872 20.369 32.114C20.4259 32.0084 20.369 31.9515 20.3447 31.9272L8.86403 20.4465C7.32028 18.9028 7.31216 16.3921 8.85591 14.8484C9.61153 14.0928 10.6028 13.6784 11.659 13.6784C12.7153 13.6784 13.7065 14.0928 14.4622 14.8484L19.2803 19.6665C19.4103 18.8946 19.7678 18.1553 20.3609 17.5621C21.5715 16.3515 23.3997 16.1078 24.854 16.8471C24.9434 15.994 25.309 15.1571 25.9672 14.499C27.129 13.3371 28.8597 13.069 30.2815 13.6946C30.3547 12.7765 30.7447 11.9234 31.4028 11.2653C32.914 9.75402 35.3759 9.75402 36.8872 11.2653L45.199 19.5771C46.1172 20.4953 46.8484 21.5759 47.3603 22.7703L49.8059 28.4903C51.439 32.3253 50.594 36.7046 47.6447 39.654L43.5172 43.7815C41.5915 45.7153 38.9672 46.7553 36.3103 46.7553ZM14.3809 31.4315C13.9422 31.4315 13.5197 31.6021 13.2028 31.919C12.8534 32.2684 12.6747 32.764 12.7234 33.2597C12.7722 33.7553 13.0403 34.2022 13.4547 34.4784L22.7009 40.6615C23.3184 41.0759 23.9847 41.4009 24.6834 41.6447L33.5803 44.6915C36.6353 45.7397 40.0884 44.9353 42.3715 42.6521L46.499 38.5247C48.9772 36.0465 49.684 32.3659 48.3109 29.1484L45.8653 23.4284C45.4347 22.4209 44.8253 21.519 44.0534 20.7471L35.7415 12.419C34.864 11.5415 33.434 11.5415 32.5565 12.419C32.134 12.8415 31.8984 13.4103 31.8984 14.0115C31.8984 14.6046 32.1259 15.1653 32.5403 15.5878L35.3272 18.3746C35.644 18.6915 35.644 19.2034 35.3272 19.5203C35.0103 19.8371 34.4984 19.8371 34.1815 19.5203L31.419 16.7578C31.4109 16.7496 31.4028 16.7415 31.3947 16.7334L30.314 15.6528C29.4365 14.7753 28.0065 14.7753 27.129 15.6528C26.2515 16.5303 26.2515 17.9603 27.129 18.8378L29.7453 21.454C29.9078 21.6165 29.9809 21.8196 29.9809 22.0309C29.9809 22.2421 29.8997 22.4453 29.7453 22.6078C29.4284 22.9247 28.9165 22.9247 28.5997 22.6078L24.7159 18.724C23.8384 17.8465 22.4084 17.8465 21.5309 18.724C20.6534 19.6015 20.6534 21.0315 21.5309 21.909L24.1553 24.5334C24.4478 24.8259 24.4722 25.2971 24.2122 25.6222C23.944 25.9472 23.4809 26.0122 23.1315 25.7847C23.0909 25.7522 23.0422 25.7196 23.0015 25.679L13.3328 16.0103C12.439 15.1165 10.9197 15.1165 10.0259 16.0103C9.11591 16.9203 9.12403 18.399 10.034 19.309L21.5147 30.7896C22.0915 31.3665 22.2053 32.2359 21.7909 32.9428C21.3765 33.6497 20.5722 33.9828 19.7759 33.7634C19.7353 33.7553 19.6947 33.739 19.654 33.7228L14.7709 31.4803C14.6328 31.4396 14.5109 31.4315 14.3809 31.4315Z" fill="url(#paint0_linear_259_3850)"/>
<path d="M7.01234 13.8245C6.80109 13.8245 6.59797 13.7433 6.43547 13.5889L3.52672 10.6802C3.20984 10.3633 3.20984 9.85141 3.52672 9.53453C3.84359 9.21766 4.35547 9.21766 4.67234 9.53453L7.58109 12.4433C7.89797 12.7602 7.89797 13.272 7.58109 13.5889C7.42672 13.7433 7.21547 13.8245 7.01234 13.8245Z" fill="url(#paint1_linear_259_3850)"/>
<path d="M17.087 13.8245C16.8757 13.8245 16.6726 13.7433 16.5101 13.5889C16.1932 13.272 16.1932 12.7602 16.5101 12.4433L19.4189 9.53453C19.7357 9.21766 20.2476 9.21766 20.5645 9.53453C20.8814 9.85141 20.8814 10.3633 20.5645 10.6802L17.6557 13.5889C17.5014 13.7433 17.2901 13.8245 17.087 13.8245Z" fill="url(#paint2_linear_259_3850)"/>
<path d="M4.10359 26.8001C3.89234 26.8001 3.68922 26.7189 3.52672 26.5645C3.20984 26.2476 3.20984 25.7357 3.52672 25.4189L6.43547 22.5101C6.75234 22.1932 7.26422 22.1932 7.58109 22.5101C7.89797 22.827 7.89797 23.3389 7.58109 23.6557L4.67234 26.5645C4.51797 26.727 4.30672 26.8001 4.10359 26.8001Z" fill="url(#paint3_linear_259_3850)"/>
<path d="M12.0498 11.7362C11.6029 11.7362 11.2373 11.3706 11.2373 10.9237V6.8125C11.2373 6.36562 11.6029 6 12.0498 6C12.4967 6 12.8623 6.36562 12.8623 6.8125V10.9237C12.8623 11.3706 12.4967 11.7362 12.0498 11.7362Z" fill="url(#paint4_linear_259_3850)"/>
<path d="M4.92375 18.8623H0.8125C0.365625 18.8623 0 18.4967 0 18.0498C0 17.6029 0.365625 17.2373 0.8125 17.2373H4.92375C5.37063 17.2373 5.73625 17.6029 5.73625 18.0498C5.73625 18.4967 5.37063 18.8623 4.92375 18.8623Z" fill="url(#paint5_linear_259_3850)"/>
<defs>
<linearGradient id="paint0_linear_259_3850" x1="7.70215" y1="28.4436" x2="50.627" y2="28.4436" gradientUnits="userSpaceOnUse">
<stop stop-color="#0452FF"/>
<stop offset="1" stop-color="#4E8FFF"/>
</linearGradient>
<linearGradient id="paint1_linear_259_3850" x1="3.28906" y1="11.5607" x2="7.81875" y2="11.5607" gradientUnits="userSpaceOnUse">
<stop stop-color="#0452FF"/>
<stop offset="1" stop-color="#4E8FFF"/>
</linearGradient>
<linearGradient id="paint2_linear_259_3850" x1="16.2725" y1="11.5607" x2="20.8021" y2="11.5607" gradientUnits="userSpaceOnUse">
<stop stop-color="#0452FF"/>
<stop offset="1" stop-color="#4E8FFF"/>
</linearGradient>
<linearGradient id="paint3_linear_259_3850" x1="3.28906" y1="24.5363" x2="7.81875" y2="24.5363" gradientUnits="userSpaceOnUse">
<stop stop-color="#0452FF"/>
<stop offset="1" stop-color="#4E8FFF"/>
</linearGradient>
<linearGradient id="paint4_linear_259_3850" x1="11.2373" y1="8.86812" x2="12.8623" y2="8.86812" gradientUnits="userSpaceOnUse">
<stop stop-color="#0452FF"/>
<stop offset="1" stop-color="#4E8FFF"/>
</linearGradient>
<linearGradient id="paint5_linear_259_3850" x1="0" y1="18.0498" x2="5.73625" y2="18.0498" gradientUnits="userSpaceOnUse">
<stop stop-color="#0452FF"/>
<stop offset="1" stop-color="#4E8FFF"/>
</linearGradient>
</defs>
</svg>
