<svg viewBox="0 0 52 52" fill="none" xmlns="http://www.w3.org/2000/svg">
<path d="M50.805 23.7911L42.5869 10.9093C42.302 10.4646 41.8525 10.1508 41.3367 10.0368C40.821 9.92282 40.2811 10.0178 39.8352 10.3011L35.8008 12.8747C35.4273 13.1139 35.1441 13.4709 34.9962 13.8891C34.8483 14.3074 34.844 14.763 34.9841 15.1839C34.8043 15.1863 34.6181 15.1823 34.4255 15.1721C33.5332 15.1234 32.978 14.8515 32.3904 14.5637C30.8974 13.8324 29.6472 13.4791 26.4676 15.1986C25.2863 13.665 23.3329 14.1492 21.588 14.5826C20.2453 14.916 18.8642 15.2589 17.5939 14.9419C17.7653 14.511 17.7813 14.0339 17.6392 13.5926C17.4972 13.1512 17.206 12.773 16.8156 12.5229L12.781 9.94906C12.3352 9.66548 11.7952 9.57028 11.2794 9.68432C10.7635 9.79837 10.3139 10.1124 10.0293 10.5574L1.81123 23.4393C1.52806 23.8851 1.43307 24.425 1.54707 24.9407C1.66107 25.4565 1.97477 25.906 2.41949 26.1909L6.45396 28.7646C6.89961 29.0485 7.4397 29.1439 7.95562 29.0298C8.47154 28.9158 8.92111 28.6016 9.20559 28.1564L9.73148 27.3321C9.7696 27.3698 9.80765 27.4057 9.84564 27.4399C8.9983 28.3851 8.22511 29.4702 8.3478 30.8948C8.43524 31.9104 8.80259 32.6625 9.43959 33.1299C10.0103 33.5485 10.7743 33.7125 11.7176 33.6193C11.8465 34.4443 12.1695 35.1043 12.6825 35.5876C13.276 36.1473 14.106 36.4503 15.1554 36.4915C15.3545 37.212 15.7255 37.7633 16.2631 38.1351C16.9701 38.6244 17.9031 38.7731 19.102 38.5849C19.6229 39.858 20.656 40.5228 22.1274 40.5228C22.1797 40.5228 22.2327 40.522 22.2861 40.5203C23.0778 40.4953 23.8648 39.9088 24.4505 39.3336C26.1073 40.4745 27.5459 41.0491 28.7456 41.0491C29.106 41.0519 29.4643 40.9943 29.8057 40.8788C30.6954 40.5721 31.3689 39.8814 31.8142 38.8213C32.8287 39.1442 33.7143 39.1224 34.4548 38.7547C35.2566 38.3564 35.8504 37.5675 36.2251 36.4056C37.2001 36.5059 37.9984 36.3253 38.6046 35.8658C39.1794 35.4303 39.5576 34.7629 39.7338 33.8762C41.1105 34.0253 42.2705 33.6796 43.1891 32.8449C43.2318 32.8062 43.2697 32.7623 43.3017 32.7144C43.9758 31.7081 44.2182 30.7271 44.0228 29.7986C43.9415 29.425 43.795 29.0686 43.59 28.7458C43.9035 29.1052 44.3356 29.3403 44.8077 29.4083C45.2798 29.4763 45.7606 29.3727 46.1629 29.1164L50.1973 26.5427C50.6421 26.2578 50.9558 25.8083 51.0698 25.2925C51.1838 24.7768 51.0882 24.237 50.805 23.7911ZM31.7651 15.8405C32.3898 16.1465 33.1673 16.5274 34.348 16.5921C34.8276 16.6207 35.3088 16.609 35.7865 16.5572L42.3568 26.8566C42.2558 26.9895 42.1242 27.0961 41.9732 27.1674C41.913 27.1267 41.8526 27.0867 41.7898 27.047C41.2247 26.6953 40.3745 26.0896 39.3902 25.3883C34.2221 21.7064 30.4385 19.2061 28.8155 20.5754C24.9164 23.8646 22.5408 24.6481 21.6917 24.3201C21.5556 24.2673 21.4106 24.1696 21.3667 23.8433C21.2042 22.6205 22.7232 19.6144 26.609 16.748C29.829 14.8922 30.6418 15.2902 31.7651 15.8405ZM8.00726 27.3914C7.9257 27.5189 7.7969 27.6089 7.64911 27.6415C7.50132 27.6742 7.34661 27.6469 7.21893 27.5656L3.18456 24.992C3.05704 24.9105 2.96707 24.7817 2.93439 24.6339C2.90172 24.4861 2.92901 24.3314 3.01028 24.2037L11.228 11.3218C11.3095 11.1943 11.4383 11.1043 11.5861 11.0716C11.7339 11.0389 11.8886 11.0662 12.0163 11.1475L16.0503 13.7211C16.1772 13.8032 16.2666 13.9319 16.2992 14.0794C16.3318 14.227 16.305 14.3814 16.2246 14.5093L8.00726 27.3914ZM10.2809 31.9832C9.98904 31.7691 9.81537 31.3617 9.76469 30.7725C9.67156 29.6904 10.5125 28.7967 11.4028 27.8506C11.5792 27.6631 11.7616 27.4692 11.9332 27.2764C12.101 27.0828 12.3191 26.9393 12.5634 26.8619C12.8077 26.7845 13.0686 26.7762 13.3173 26.8379C13.6034 26.9085 13.8672 27.0495 14.0848 27.2482C14.3023 27.4469 14.4667 27.6969 14.5628 27.9754C14.3202 28.7218 13.6774 30.1241 11.9818 32.1466C11.2075 32.2885 10.622 32.2334 10.2809 31.9832ZM13.0857 33.0425C14.9958 30.7594 15.6968 29.1324 15.9519 28.2972C16.6378 27.5826 17.822 27.2715 18.6674 27.6048C19.2635 27.8399 19.5663 28.358 19.57 29.145L15.3634 35.0746C14.5921 35.0687 14.0194 34.8941 13.6578 34.5531C13.3192 34.2339 13.1279 33.7255 13.0857 33.0425ZM17.072 36.9656C16.7797 36.7635 16.5878 36.4282 16.4869 35.9479L20.6893 30.0246C21.6445 29.8671 22.3912 30.0166 22.76 30.4482C23.1546 30.9098 23.1691 31.7409 22.8055 32.7381C21.758 34.0093 20.9296 35.0153 20.3202 35.756C19.7921 36.398 19.3937 36.8815 19.1945 37.1227C18.2357 37.3184 17.5047 37.2649 17.072 36.9656ZM22.2415 39.0984C21.2486 39.1308 20.6743 38.7751 20.3737 37.9273C20.5604 37.7011 20.8777 37.3158 21.4182 36.6591C21.9858 35.9695 22.7432 35.0497 23.6905 33.8996C24.5697 34.1627 25.0779 34.5373 25.2025 35.0168C25.3055 35.4129 24.9768 36.4201 24.1646 37.5051C23.4013 38.5255 22.6043 39.087 22.2415 39.0984ZM42.169 31.848C41.4705 32.4454 40.5634 32.6207 39.4044 32.3851L31.6533 27.1477C31.576 27.0948 31.489 27.0577 31.3973 27.0386C31.3055 27.0195 31.211 27.0187 31.1189 27.0362C31.0269 27.0538 30.9393 27.0893 30.861 27.1409C30.7828 27.1924 30.7155 27.2589 30.6631 27.3365C30.6106 27.4142 30.574 27.5014 30.5554 27.5932C30.5368 27.685 30.5365 27.7796 30.5545 27.8715C30.5726 27.9635 30.6086 28.0509 30.6606 28.1289C30.7125 28.2068 30.7794 28.2738 30.8573 28.3258L38.372 33.4045C38.2796 34.0405 38.0698 34.4869 37.7454 34.7326C37.3696 35.017 36.7733 35.0821 35.977 34.931L30.0011 31.0318L29.2242 32.2226L34.8876 35.9179C34.637 36.7281 34.2798 37.2538 33.8212 37.4814C33.3215 37.7296 32.6197 37.6588 31.7353 37.2724L28.2085 34.7654C28.0548 34.6575 27.8647 34.6148 27.6796 34.6467C27.4945 34.6785 27.3295 34.7823 27.2207 34.9353C27.1119 35.0884 27.0681 35.2783 27.0988 35.4636C27.1295 35.6488 27.2323 35.8144 27.3847 35.9242L30.5433 38.1692C30.2573 38.8988 29.8547 39.3575 29.3421 39.5348C28.446 39.8439 27.0834 39.3978 25.383 38.2483C25.8379 37.6186 26.9134 35.9485 26.5782 34.6592C26.3357 33.7275 25.5815 33.0416 24.3324 32.6143C24.6537 31.3597 24.4865 30.2805 23.8407 29.5248C23.2099 28.7866 22.1997 28.4545 20.9474 28.56C20.7827 27.4778 20.1677 26.6686 19.1887 26.2825C18.0384 25.8291 16.6145 26.0553 15.5419 26.7904C15.1005 26.1168 14.4177 25.6381 13.6341 25.4527C13.1371 25.3342 12.6172 25.3533 12.1303 25.5082C11.6433 25.6631 11.2078 25.9477 10.8706 26.3316C10.8517 26.3528 10.8314 26.3745 10.8122 26.3957C10.7079 26.302 10.6114 26.2001 10.5235 26.091L16.8334 16.1992C18.5726 16.7957 20.3468 16.3554 21.9305 15.9621C23.7759 15.5038 24.6958 15.3589 25.2679 15.9816C21.8373 18.658 19.6743 21.9083 19.9573 24.0306C20.061 24.8078 20.4948 25.3814 21.1789 25.6454C22.8978 26.3098 25.8552 24.9319 29.732 21.6614C29.7369 21.6573 30.2552 21.2653 33.0006 22.8351C34.8067 23.8681 36.8904 25.3526 38.5648 26.5455C39.5685 27.2606 40.4354 27.8782 41.0333 28.2503C41.9592 28.8368 42.4967 29.4564 42.6306 30.0916C42.7418 30.6192 42.591 31.1937 42.169 31.848ZM43.1058 28.1164C43.1179 28.1064 43.1299 28.0962 43.1418 28.0859L43.3171 28.3607C43.2509 28.2794 43.1803 28.1971 43.1058 28.1164ZM49.6808 24.985C49.6651 25.0582 49.635 25.1276 49.5922 25.1891C49.5495 25.2506 49.495 25.303 49.4319 25.3433L45.3975 27.917C45.2698 27.9983 45.1151 28.0255 44.9673 27.9929C44.8195 27.9602 44.6907 27.8702 44.6092 27.7427L36.3912 14.8617C36.31 14.734 36.2828 14.5792 36.3156 14.4315C36.3483 14.2837 36.4384 14.1549 36.5659 14.0734L40.6002 11.4998C40.7281 11.4194 40.8825 11.3925 41.0301 11.4251C41.1776 11.4577 41.3064 11.5472 41.3885 11.674L49.6062 24.5559C49.6464 24.6191 49.6737 24.6896 49.6865 24.7634C49.6992 24.8372 49.6974 24.912 49.6808 24.985ZM15.2808 3.76858C15.188 3.60538 15.1635 3.4121 15.2127 3.23092C15.2619 3.04974 15.3807 2.89538 15.5433 2.80151C15.7059 2.70764 15.899 2.68189 16.0805 2.72987C16.262 2.77786 16.4172 2.89568 16.5121 3.05764L19.7012 8.58162C19.7486 8.66251 19.7795 8.75197 19.7922 8.84487C19.8049 8.93776 19.7991 9.03225 19.7752 9.12289C19.7512 9.21354 19.7095 9.29855 19.6526 9.37303C19.5956 9.4475 19.5245 9.50998 19.4433 9.55686C19.3621 9.60374 19.2725 9.6341 19.1795 9.64618C19.0865 9.65827 18.9921 9.65184 18.9016 9.62728C18.8111 9.60271 18.7264 9.56049 18.6523 9.50305C18.5782 9.4456 18.5162 9.37407 18.4698 9.29256L15.2808 3.76858ZM26.9698 8.00373V1.625C26.9698 1.43645 27.0447 1.25562 27.178 1.12229C27.3113 0.988965 27.4922 0.914063 27.6807 0.914062C27.8693 0.914062 28.0501 0.988965 28.1834 1.12229C28.3168 1.25562 28.3917 1.43645 28.3917 1.625V8.00363C28.3917 8.19219 28.3168 8.37301 28.1834 8.50634C28.0501 8.63967 27.8693 8.71457 27.6807 8.71457C27.4922 8.71457 27.3113 8.63967 27.178 8.50634C27.0447 8.37301 26.9698 8.19229 26.9698 8.00373ZM35.5322 7.88298L38.7213 2.35899C38.7676 2.27749 38.8296 2.20595 38.9037 2.14851C38.9778 2.09106 39.0625 2.04884 39.153 2.02428C39.2435 1.99971 39.338 1.99328 39.4309 2.00537C39.5239 2.01745 39.6136 2.04781 39.6948 2.09469C39.776 2.14157 39.8471 2.20405 39.9041 2.27853C39.961 2.35301 40.0027 2.43802 40.0266 2.52866C40.0506 2.6193 40.0564 2.71379 40.0437 2.80669C40.031 2.89958 40 2.98905 39.9526 3.06993L36.7636 8.59391C36.6686 8.75587 36.5135 8.8737 36.332 8.92168C36.1505 8.96967 35.9573 8.94392 35.7948 8.85005C35.6322 8.75618 35.5133 8.60181 35.4641 8.42063C35.415 8.23946 35.4394 8.04618 35.5322 7.88298ZM39.9529 48.2315C40.0003 48.3124 40.0313 48.4019 40.044 48.4948C40.0567 48.5877 40.0509 48.6821 40.0269 48.7728C40.003 48.8634 39.9613 48.9484 39.9044 49.0229C39.8474 49.0974 39.7763 49.1599 39.6951 49.2068C39.6139 49.2536 39.5242 49.284 39.4312 49.2961C39.3383 49.3082 39.2438 49.3017 39.1533 49.2772C39.0629 49.2526 38.9781 49.2104 38.904 49.1529C38.8299 49.0955 38.7679 49.024 38.7216 48.9425L35.5325 43.4185C35.4851 43.3376 35.4542 43.2481 35.4414 43.1552C35.4287 43.0623 35.4345 42.9678 35.4585 42.8772C35.4825 42.7866 35.5241 42.7016 35.5811 42.6271C35.638 42.5526 35.7092 42.4901 35.7904 42.4432C35.8716 42.3964 35.9612 42.366 36.0542 42.3539C36.1472 42.3418 36.2416 42.3483 36.3321 42.3728C36.4226 42.3974 36.5073 42.4396 36.5814 42.4971C36.6555 42.5545 36.7175 42.626 36.7639 42.7075L39.9529 48.2315ZM28.2638 43.9969V50.375C28.2638 50.5636 28.1889 50.7444 28.0556 50.8777C27.9222 51.011 27.7414 51.0859 27.5529 51.0859C27.3643 51.0859 27.1835 51.011 27.0501 50.8777C26.9168 50.7444 26.8419 50.5636 26.8419 50.375V43.9969C26.8419 43.8083 26.9168 43.6275 27.0501 43.4942C27.1835 43.3608 27.3643 43.2859 27.5529 43.2859C27.7414 43.2859 27.9222 43.3608 28.0556 43.4942C28.1889 43.6275 28.2638 43.8083 28.2638 43.9969ZM19.7014 44.1176L16.5123 49.6416C16.4174 49.8036 16.2622 49.9214 16.0807 49.9694C15.8992 50.0174 15.7061 49.9916 15.5435 49.8978C15.3809 49.8039 15.2621 49.6495 15.2129 49.4683C15.1637 49.2872 15.1882 49.0939 15.281 48.9307L18.47 43.4067C18.565 43.2447 18.7201 43.1269 18.9016 43.0789C19.0831 43.0309 19.2762 43.0567 19.4388 43.1506C19.6014 43.2444 19.7202 43.3988 19.7694 43.58C19.8186 43.7612 19.7942 43.9544 19.7014 44.1176Z" fill="url(#paint0_linear_259_3838)"/>
<defs>
<linearGradient id="paint0_linear_259_3838" x1="1.5" y1="26" x2="51.1169" y2="26" gradientUnits="userSpaceOnUse">
<stop stop-color="#0452FF"/>
<stop offset="1" stop-color="#4E8FFF"/>
</linearGradient>
</defs>
</svg>
