<svg width="52" height="52" viewBox="0 0 52 52" fill="none" xmlns="http://www.w3.org/2000/svg">
<path d="M25.5859 11.9198C22.3642 11.9234 19.2755 13.2049 16.9974 15.483C14.7193 17.7611 13.4378 20.8498 13.4342 24.0716C13.4342 28.4039 14.829 29.9562 16.178 31.4574C17.5572 32.9923 18.9834 34.5794 18.9834 39.8284C18.9834 40.0169 19.0583 40.1977 19.1916 40.3311C19.3249 40.4644 19.5057 40.5393 19.6943 40.5393H31.8887C32.0773 40.5393 32.2581 40.4644 32.3914 40.3311C32.5247 40.1977 32.5996 40.0169 32.5996 39.8284C32.5996 34.4936 33.9585 32.7881 35.2728 31.1388C36.4846 29.618 37.7377 28.0455 37.7377 24.0716C37.734 20.8498 36.4526 17.7611 34.1745 15.483C31.8964 13.2049 28.8077 11.9235 25.5859 11.9198ZM27.29 39.1174H25.0463V30.0276H27.29V39.1174ZM34.1609 30.2526C32.8209 31.9342 31.3097 33.8304 31.1859 39.1174H28.7118V29.9315H30.3507C30.9561 29.9315 31.5479 29.752 32.0512 29.4157C32.5546 29.0793 32.9469 28.6013 33.1786 28.042C33.4102 27.4827 33.4708 26.8673 33.3527 26.2736C33.2346 25.6798 32.9431 25.1344 32.515 24.7064C32.0869 24.2783 31.5416 23.9868 30.9478 23.8687C30.3541 23.7506 29.7386 23.8113 29.1794 24.0429C28.6201 24.2746 28.142 24.667 27.8057 25.1703C27.4694 25.6737 27.2899 26.2654 27.29 26.8708V28.6059H25.0462V26.8708C25.0453 26.0593 24.7226 25.2813 24.1488 24.7075C23.575 24.1337 22.797 23.8109 21.9855 23.81C21.1768 23.8147 20.4028 24.1392 19.8326 24.7127C19.2624 25.2862 18.9424 26.0621 18.9424 26.8708C18.9424 27.6795 19.2624 28.4553 19.8326 29.0288C20.4028 29.6023 21.1768 29.9269 21.9855 29.9315H23.6246V39.1174H20.3961C20.2641 33.8768 18.6585 32.0909 17.2353 30.5071C15.9584 29.0861 14.8558 27.8589 14.8558 24.0716C14.8558 21.2258 15.9862 18.4965 17.9985 16.4842C20.0108 14.472 22.74 13.3415 25.5858 13.3415C28.4316 13.3415 31.1609 14.472 33.1731 16.4842C35.1854 18.4965 36.3159 21.2258 36.3159 24.0716C36.3158 27.5482 35.3171 28.8015 34.1609 30.2526ZM28.7118 28.5096V26.8708C28.7123 26.4363 28.8851 26.0198 29.1924 25.7125C29.4996 25.4053 29.9161 25.2324 30.3506 25.2319C30.7831 25.2353 31.1966 25.4095 31.5012 25.7165C31.8057 26.0234 31.9767 26.4383 31.9767 26.8708C31.9767 27.3032 31.8057 27.7181 31.5012 28.0251C31.1966 28.3321 30.7831 28.5062 30.3506 28.5096H28.7118ZM23.6244 26.8708V28.5096H21.9854C21.6613 28.5096 21.3444 28.4135 21.0749 28.2334C20.8054 28.0533 20.5953 27.7974 20.4713 27.4979C20.3472 27.1984 20.3148 26.8689 20.378 26.5509C20.4413 26.233 20.5974 25.941 20.8266 25.7118C21.0558 25.4826 21.3478 25.3265 21.6658 25.2633C21.9837 25.2001 22.3132 25.2325 22.6127 25.3566C22.9122 25.4806 23.1681 25.6907 23.3482 25.9603C23.5283 26.2298 23.6244 26.5467 23.6244 26.8708ZM24.9728 6.45991V3.30273C24.9728 3.11418 25.0477 2.93335 25.181 2.80003C25.3144 2.6667 25.4952 2.5918 25.6837 2.5918C25.8723 2.5918 26.0531 2.6667 26.1865 2.80003C26.3198 2.93335 26.3947 3.11418 26.3947 3.30273V6.45991C26.3947 6.64846 26.3198 6.82929 26.1865 6.96262C26.0531 7.09594 25.8723 7.17084 25.6837 7.17084C25.4952 7.17084 25.3144 7.09594 25.181 6.96262C25.0477 6.82929 24.9728 6.64846 24.9728 6.45991ZM39.383 3.84071L36.2258 9.30904C36.1309 9.471 35.9757 9.58882 35.7942 9.63681C35.6127 9.68479 35.4196 9.65904 35.257 9.56517C35.0945 9.4713 34.9756 9.31694 34.9264 9.13576C34.8772 8.95458 34.9017 8.7613 34.9945 8.5981L38.1517 3.12977C38.198 3.04827 38.26 2.97673 38.3341 2.91929C38.4082 2.86184 38.4929 2.81962 38.5834 2.79506C38.6739 2.77049 38.7683 2.76407 38.8613 2.77615C38.9543 2.78824 39.044 2.81859 39.1252 2.86547C39.2064 2.91235 39.2775 2.97483 39.3344 3.04931C39.3914 3.12379 39.433 3.2088 39.457 3.29944C39.481 3.39009 39.4868 3.48457 39.4741 3.57747C39.4614 3.67036 39.4304 3.75983 39.383 3.84071ZM45.3511 15.1135L42.617 16.692C42.4538 16.7848 42.2605 16.8093 42.0793 16.7601C41.8981 16.7109 41.7438 16.5921 41.6499 16.4295C41.556 16.2669 41.5303 16.0738 41.5782 15.8923C41.6262 15.7108 41.7441 15.5556 41.906 15.4607L44.6402 13.8821C44.8035 13.7878 44.9975 13.7623 45.1797 13.8111C45.3618 13.8599 45.5171 13.979 45.6114 14.1423C45.7056 14.3056 45.7312 14.4997 45.6824 14.6818C45.6336 14.864 45.5144 15.0193 45.3511 15.1135ZM50.6719 25.9197C50.6719 26.1082 50.597 26.2891 50.4636 26.4224C50.3303 26.5557 50.1495 26.6306 49.9609 26.6306H43.6466C43.458 26.6306 43.2772 26.5557 43.1439 26.4224C43.0106 26.2891 42.9357 26.1082 42.9357 25.9197C42.9357 25.7311 43.0106 25.5503 43.1439 25.417C43.2772 25.2837 43.458 25.2087 43.6466 25.2087H49.9609C50.1495 25.2087 50.3303 25.2837 50.4636 25.417C50.597 25.5503 50.6719 25.7311 50.6719 25.9197ZM15.8812 9.30904L12.7241 3.84071C12.6313 3.67751 12.6068 3.48423 12.656 3.30305C12.7052 3.12188 12.824 2.96751 12.9866 2.87364C13.1492 2.77977 13.3423 2.75402 13.5238 2.802C13.7053 2.84999 13.8605 2.96782 13.9554 3.12977L17.1126 8.5981C17.16 8.67899 17.1909 8.76845 17.2036 8.86134C17.2163 8.95424 17.2106 9.04873 17.1866 9.13937C17.1626 9.23002 17.121 9.31502 17.064 9.3895C17.0071 9.46398 16.9359 9.52646 16.8547 9.57334C16.7735 9.62022 16.6839 9.65058 16.5909 9.66266C16.4979 9.67475 16.4035 9.66832 16.313 9.64376C16.2225 9.61919 16.1378 9.57697 16.0637 9.51952C15.9896 9.46208 15.9276 9.39055 15.8812 9.30904ZM9.76301 16.4318C9.66873 16.5951 9.51345 16.7142 9.33133 16.763C9.1492 16.8118 8.95515 16.7863 8.79187 16.692L6.0576 15.1135C5.8943 15.0193 5.77514 14.864 5.72633 14.6818C5.67753 14.4997 5.70307 14.3056 5.79735 14.1423C5.89162 13.979 6.04691 13.8599 6.22904 13.8111C6.41118 13.7623 6.60524 13.7878 6.76854 13.8821L9.5028 15.4607C9.66609 15.555 9.78523 15.7102 9.83403 15.8924C9.88283 16.0745 9.85728 16.2685 9.76301 16.4318ZM8.23622 25.9197C8.23622 26.1082 8.16132 26.2891 8.02799 26.4224C7.89466 26.5557 7.71383 26.6306 7.52528 26.6306H1.21094C1.02239 26.6306 0.841555 26.5557 0.708229 26.4224C0.574902 26.2891 0.5 26.1082 0.5 25.9197C0.5 25.7311 0.574902 25.5503 0.708229 25.417C0.841555 25.2837 1.02239 25.2087 1.21094 25.2087H7.52528C7.71383 25.2087 7.89466 25.2837 8.02799 25.417C8.16132 25.5503 8.23622 25.7311 8.23622 25.9197ZM31.1609 42.8621C31.1609 43.0507 31.086 43.2315 30.9527 43.3648C30.8193 43.4982 30.6385 43.5731 30.45 43.5731H20.7218C20.5333 43.5731 20.3524 43.4982 20.2191 43.3648C20.0858 43.2315 20.0109 43.0507 20.0109 42.8621C20.0109 42.6736 20.0858 42.4928 20.2191 42.3594C20.3524 42.2261 20.5333 42.1512 20.7218 42.1512H30.45C30.6385 42.1512 30.8193 42.2261 30.9527 42.3594C31.086 42.4928 31.1609 42.6736 31.1609 42.8621ZM29.8192 45.7794C29.8192 45.968 29.7443 46.1488 29.6109 46.2821C29.4776 46.4155 29.2968 46.4904 29.1082 46.4904H22.0636C21.9703 46.4904 21.8778 46.472 21.7916 46.4362C21.7053 46.4005 21.627 46.3481 21.5609 46.2821C21.4949 46.2161 21.4426 46.1377 21.4068 46.0515C21.3711 45.9652 21.3527 45.8728 21.3527 45.7794C21.3527 45.6861 21.3711 45.5936 21.4068 45.5074C21.4426 45.4211 21.4949 45.3427 21.5609 45.2767C21.627 45.2107 21.7053 45.1583 21.7916 45.1226C21.8778 45.0869 21.9703 45.0685 22.0636 45.0685H29.1082C29.2968 45.0685 29.4776 45.1434 29.6109 45.2767C29.7443 45.41 29.8192 45.5909 29.8192 45.7794ZM28.1434 48.6967C28.1434 48.8853 28.0685 49.0661 27.9352 49.1994C27.8018 49.3327 27.621 49.4076 27.4324 49.4076H23.7394C23.5509 49.4076 23.37 49.3327 23.2367 49.1994C23.1034 49.0661 23.0285 48.8853 23.0285 48.6967C23.0285 48.5081 23.1034 48.3273 23.2367 48.194C23.37 48.0607 23.5509 47.9858 23.7394 47.9858H27.4324C27.621 47.9858 27.8018 48.0607 27.9352 48.194C28.0685 48.3273 28.1434 48.5081 28.1434 48.6967Z" fill="url(#paint0_linear_259_3844)"/>
<defs>
<linearGradient id="paint0_linear_259_3844" x1="0.5" y1="25.9997" x2="50.6719" y2="25.9997" gradientUnits="userSpaceOnUse">
<stop stop-color="#0452FF"/>
<stop offset="1" stop-color="#4E8FFF"/>
</linearGradient>
</defs>
</svg>
