<svg width="40" height="40" viewBox="0 0 40 40" fill="none" xmlns="http://www.w3.org/2000/svg">
<rect width="40" height="40" rx="20" fill="white"/>
<path d="M9.87481 30.403C10.047 30.5008 10.2509 30.5265 10.442 30.4745C10.6331 30.4225 10.7959 30.297 10.8948 30.1255C11.3748 29.2855 11.9373 28.3105 12.5748 27.2605C14.1774 27.565 15.8037 27.7281 17.4348 27.748C20.3148 27.748 22.5948 27.1255 24.3423 25.888C27.7173 23.4805 28.3398 19.2205 28.8423 15.793C29.1498 13.6855 29.4348 11.698 30.2898 10.843C30.3898 10.7424 30.4592 10.6156 30.49 10.4772C30.5208 10.3387 30.5117 10.1944 30.4638 10.061C30.4159 9.92751 30.3312 9.81036 30.2194 9.7231C30.1076 9.63584 29.9734 9.58206 29.8323 9.56798C29.3748 9.50048 18.9123 8.62298 13.7673 14.4205C11.2398 17.278 10.4673 21.2305 11.4798 26.1805C10.7298 27.3505 10.1298 28.4305 9.59731 29.383C9.49953 29.5552 9.47383 29.7591 9.52582 29.9502C9.57781 30.1413 9.70326 30.304 9.87481 30.403ZM14.8848 15.403C18.4998 11.308 25.5123 11.0005 28.3923 11.0005C27.8407 12.4717 27.4901 14.0106 27.3498 15.5755C26.8698 18.883 26.3223 22.6255 23.4723 24.6655C21.2748 26.2255 17.9748 26.623 13.4373 25.8805C16.0473 21.7855 19.6623 17.128 24.0123 15.5005C24.1875 15.4232 24.3265 15.2818 24.4008 15.1054C24.4751 14.9289 24.4791 14.7307 24.412 14.5513C24.3449 14.372 24.2117 14.2252 24.0398 14.1409C23.8678 14.0566 23.6702 14.0412 23.4873 14.098C18.9873 15.7705 15.3723 20.203 12.6873 24.2755C12.2298 20.5705 12.9648 17.6005 14.8923 15.418L14.8848 15.403Z" fill="url(#paint0_linear_10046_3098)"/>
<defs>
<linearGradient id="paint0_linear_10046_3098" x1="9.49951" y1="19.9916" x2="30.5079" y2="19.9916" gradientUnits="userSpaceOnUse">
<stop stop-color="#0452FF"/>
<stop offset="1" stop-color="#4E8FFF"/>
</linearGradient>
</defs>
</svg>
