<svg width="16" height="16" viewBox="0 0 16 16" fill="none" xmlns="http://www.w3.org/2000/svg">
<path fill-rule="evenodd" clip-rule="evenodd" d="M0.833496 8.00065C0.833496 11.9587 4.04216 15.1673 8.00016 15.1673C11.9582 15.1673 15.1668 11.9587 15.1668 8.00065C15.1668 4.04265 11.9582 0.833984 8.00016 0.833984C4.04216 0.833984 0.833496 4.04265 0.833496 8.00065ZM11.1175 5.50931C11.3888 5.75798 11.4068 6.17997 11.1582 6.4513L7.4915 10.4513C7.36884 10.5853 7.19616 10.6633 7.01483 10.6673C6.83283 10.6713 6.65749 10.6007 6.52883 10.472L4.86216 8.80534C4.60149 8.54534 4.60149 8.12263 4.86216 7.86263C5.12216 7.60196 5.54483 7.60196 5.80483 7.86263L6.97949 9.03665L10.1755 5.55C10.4242 5.27867 10.8462 5.26064 11.1175 5.50931Z" fill="url(#paint0_linear_271_4325)"/>
<defs>
<linearGradient id="paint0_linear_271_4325" x1="0.833496" y1="8.00065" x2="15.1668" y2="8.00065" gradientUnits="userSpaceOnUse">
<stop stop-color="#0452FF"/>
<stop offset="1" stop-color="#4E8FFF"/>
</linearGradient>
</defs>
</svg>
