<svg width="40" height="40" viewBox="0 0 40 40" fill="none" xmlns="http://www.w3.org/2000/svg">
<rect width="40" height="40" rx="20" fill="white"/>
<path d="M30.8052 15.6864L27.3053 10.7821C27.2348 10.6835 27.1212 10.625 27.0001 10.625H12.9998C12.8787 10.625 12.7651 10.6835 12.6946 10.7821L9.19471 15.6864C9.09721 15.8232 9.10246 16.0078 9.20746 16.139L19.7075 29.2347C19.7787 29.3232 19.8863 29.375 20 29.375C20.1136 29.375 20.2212 29.3232 20.2925 29.2347L30.7925 16.139C30.8975 16.0078 30.9027 15.8232 30.8052 15.6864ZM20 11.6431L22.769 15.5H17.2306L20 11.6431ZM16.4997 15.2319L13.7307 11.375H19.2687L16.4997 15.2319ZM20.7308 11.375H26.2692L23.4998 15.2319L20.7308 11.375ZM23.012 16.25L20 27.5446L16.988 16.25H23.012ZM19.1787 27.3762L10.2578 16.25H16.2117L19.1787 27.3762ZM23.7878 16.25H29.7421L20.8208 27.3766L23.7878 16.25ZM24.2307 15.5L26.9993 11.6443L29.7507 15.5H24.2307ZM13.001 11.6443L15.7688 15.5H10.2492L13.001 11.6443Z" fill="url(#paint0_linear_10048_3278)" stroke="url(#paint1_linear_10048_3278)" stroke-width="0.3"/>
<defs>
<linearGradient id="paint0_linear_10048_3278" x1="9.125" y1="20" x2="30.8749" y2="20" gradientUnits="userSpaceOnUse">
<stop stop-color="#0452FF"/>
<stop offset="1" stop-color="#4E8FFF"/>
</linearGradient>
<linearGradient id="paint1_linear_10048_3278" x1="9.125" y1="20" x2="30.8749" y2="20" gradientUnits="userSpaceOnUse">
<stop stop-color="#0452FF"/>
<stop offset="1" stop-color="#4E8FFF"/>
</linearGradient>
</defs>
</svg>
