<svg width="40" height="40" viewBox="0 0 40 40" fill="none" xmlns="http://www.w3.org/2000/svg">
<rect width="40" height="40" rx="20" fill="white"/>
<path d="M16.968 30.7502C16.881 30.7502 16.792 30.7352 16.707 30.7032C13.752 29.6042 11.6681 27.5002 10.9881 24.9312C10.3341 22.4572 11.0381 19.8252 12.9711 17.5182C13.6111 16.7542 14.1841 16.1062 14.6901 15.5342C16.4901 13.4982 17.482 12.3762 18.202 9.79818C18.265 9.57318 18.43 9.38916 18.647 9.30316C18.865 9.21616 19.11 9.23717 19.311 9.35717C22.108 11.0402 24.764 13.5162 26.599 16.1512C28.623 19.0582 29.537 21.9912 29.17 24.4072C28.842 26.5722 27.338 29.4272 22.036 30.7282C21.718 30.8062 21.385 30.6682 21.216 30.3882C21.046 30.1082 21.078 29.7492 21.295 29.5042C23.244 27.2922 24.097 25.3402 23.903 23.5372C23.768 22.2832 23.1101 21.0602 21.9401 19.8862C21.9521 21.6192 21.302 23.0912 20.583 23.9752C20.4 24.2002 20.1031 24.2992 19.8211 24.2292C19.5391 24.1592 19.323 23.9332 19.266 23.6482C18.995 22.2912 18.192 21.6582 17.383 21.2382C17.332 22.3642 16.854 23.1672 16.476 23.8002C16.363 23.9902 16.256 24.1682 16.172 24.3362C15.143 26.3952 16.179 27.8982 17.328 29.2612C17.408 29.3562 17.483 29.4452 17.549 29.5262C17.763 29.7882 17.774 30.1612 17.577 30.4372C17.433 30.6382 17.2041 30.7502 16.9671 30.7502H16.968ZM20.879 17.2502C21.035 17.2502 21.1911 17.2992 21.3231 17.3962C23.7921 19.2112 25.1621 21.2232 25.3941 23.3762C25.5721 25.0292 25.092 26.7272 23.932 28.5232C26.137 27.5502 27.397 26.0962 27.687 24.1822C27.996 22.1462 27.172 19.5992 25.368 17.0082C23.828 14.7962 21.668 12.7032 19.349 11.1572C18.559 13.4232 17.478 14.6462 15.814 16.5282C15.315 17.0932 14.7491 17.7332 14.1211 18.4822C12.5101 20.4042 11.9121 22.5592 12.4381 24.5482C12.7691 25.7992 13.527 26.9222 14.616 27.8202C14.162 26.6862 14.022 25.2822 14.83 23.6652C14.939 23.4472 15.065 23.2362 15.187 23.0312C15.658 22.2422 16.1021 21.4972 15.7731 20.1822C15.7021 19.8972 15.804 19.5962 16.034 19.4132C16.264 19.2302 16.5801 19.1982 16.8421 19.3322C16.9671 19.3962 17.126 19.4662 17.295 19.5412C18.112 19.9022 19.3391 20.4442 20.1211 21.7322C20.4501 20.8152 20.607 19.5872 20.166 18.2322C20.065 17.9222 20.1761 17.5832 20.4401 17.3922C20.5711 17.2972 20.725 17.2502 20.879 17.2502Z" fill="url(#paint0_linear_10048_3271)"/>
<defs>
<linearGradient id="paint0_linear_10048_3271" x1="10.75" y1="20.0001" x2="29.2494" y2="20.0001" gradientUnits="userSpaceOnUse">
<stop stop-color="#0452FF"/>
<stop offset="1" stop-color="#4E8FFF"/>
</linearGradient>
</defs>
</svg>
