<svg width="32" height="32" viewBox="0 0 32 32" fill="none" xmlns="http://www.w3.org/2000/svg">
<rect x="0.5" y="0.5" width="31" height="31" rx="15.5" fill="white"/>
<rect x="0.5" y="0.5" width="31" height="31" rx="15.5" stroke="white"/>
<path d="M16.6834 9.33203C17.4337 9.33327 17.8139 9.33724 18.1424 9.34702L18.2718 9.35125C18.4213 9.35656 18.5688 9.36323 18.7466 9.37156C19.456 9.40434 19.9399 9.51656 20.3649 9.68156C20.8043 9.85101 21.1754 10.0799 21.546 10.4505C21.916 10.821 22.1449 11.1932 22.3149 11.6316C22.4793 12.056 22.5916 12.5405 22.6249 13.2499C22.6328 13.4277 22.6392 13.5751 22.6445 13.7246L22.6487 13.854C22.6584 14.1825 22.6629 14.5628 22.6643 15.3131L22.6648 15.8101C22.6649 15.8709 22.6649 15.9335 22.6649 15.9982L22.6648 16.1863L22.6644 16.6834C22.6632 17.4337 22.6592 17.8139 22.6494 18.1424L22.6452 18.2718C22.6399 18.4213 22.6332 18.5688 22.6249 18.7465C22.5921 19.456 22.4793 19.9399 22.3149 20.3649C22.1454 20.8043 21.916 21.1755 21.546 21.546C21.1754 21.916 20.8026 22.1449 20.3649 22.3149C19.9399 22.4793 19.456 22.5915 18.7466 22.6249C18.5688 22.6328 18.4213 22.6393 18.2718 22.6445L18.1424 22.6487C17.8139 22.6585 17.4337 22.6629 16.6834 22.6643L16.1863 22.6649C16.1256 22.6649 16.0629 22.6649 15.9982 22.6649H15.8102L15.313 22.6644C14.5628 22.6632 14.1825 22.6592 13.854 22.6494L13.7246 22.6452C13.5751 22.6399 13.4277 22.6332 13.2499 22.6249C12.5405 22.5921 12.0571 22.4793 11.6316 22.3149C11.1927 22.1455 10.821 21.916 10.4505 21.546C10.0799 21.1755 9.85156 20.8027 9.68156 20.3649C9.51656 19.9399 9.4049 19.456 9.37156 18.7465C9.36364 18.5688 9.35718 18.4213 9.35195 18.2718L9.34776 18.1424C9.338 17.8139 9.33356 17.4337 9.33212 16.6834L9.33203 15.3131C9.33327 14.5628 9.33724 14.1825 9.34702 13.854L9.35125 13.7246C9.35656 13.5751 9.36323 13.4277 9.37156 13.2499C9.40434 12.5399 9.51656 12.0566 9.68156 11.6316C9.851 11.1927 10.0799 10.821 10.4505 10.4505C10.821 10.0799 11.1932 9.85156 11.6316 9.68156C12.0566 9.51656 12.5399 9.4049 13.2499 9.37156C13.4277 9.36365 13.5751 9.35719 13.7246 9.35196L13.854 9.34776C14.1825 9.338 14.5628 9.33356 15.313 9.33212L16.6834 9.33203ZM15.9982 12.6649C14.1563 12.6649 12.6649 14.1579 12.6649 15.9982C12.6649 17.8401 14.1579 19.3315 15.9982 19.3315C17.8402 19.3315 19.3316 17.8385 19.3316 15.9982C19.3316 14.1563 17.8385 12.6649 15.9982 12.6649ZM15.9982 13.9982C17.1028 13.9982 17.9982 14.8933 17.9982 15.9982C17.9982 17.1028 17.1031 17.9982 15.9982 17.9982C14.8936 17.9982 13.9982 17.1031 13.9982 15.9982C13.9982 14.8936 14.8933 13.9982 15.9982 13.9982ZM19.4982 11.6649C19.0387 11.6649 18.6649 12.0382 18.6649 12.4977C18.6649 12.9572 19.0382 13.331 19.4982 13.331C19.9577 13.331 20.3316 12.9577 20.3316 12.4977C20.3316 12.0382 19.9571 11.6643 19.4982 11.6649Z" fill="#002156"/>
</svg>
