<svg width="32" height="32" viewBox="0 0 32 32" fill="none" xmlns="http://www.w3.org/2000/svg">
<rect x="0.5" y="0.5" width="31" height="31" rx="15.5" stroke="#D4D3D3"/>
<path d="M18.6667 13.4956V18.332C18.6667 20.7253 16.7266 22.6654 14.3333 22.6654C11.9401 22.6654 10 20.7253 10 18.332C10 15.9388 11.9401 13.9987 14.3333 13.9987C14.6775 13.9987 15.0123 14.0388 15.3333 14.1147V16.2232C15.0303 16.0792 14.6912 15.9987 14.3333 15.9987C13.0447 15.9987 12 17.0434 12 18.332C12 19.6207 13.0447 20.6654 14.3333 20.6654C15.622 20.6654 16.6667 19.6207 16.6667 18.332V9.33203H18.6667C18.6667 11.173 20.1591 12.6654 22 12.6654V14.6654C20.7387 14.6654 19.5797 14.2276 18.6667 13.4956Z" fill="#D4D3D3"/>
</svg>
