<svg width="16" height="16" viewBox="0 0 16 16" fill="none" xmlns="http://www.w3.org/2000/svg">
<path d="M6.05359 1.85852C7.35559 1.82581 8.64515 1.8258 9.94715 1.85852L9.98523 1.85949C11.0016 1.88502 11.82 1.90553 12.4755 2.01965C13.1618 2.13918 13.72 2.36888 14.1913 2.84192C14.6604 3.31292 14.8885 3.8631 15.0057 4.53821C15.1173 5.18097 15.1341 5.97874 15.1552 6.96692L15.1561 7.00598C15.1703 7.67021 15.1703 8.33101 15.1561 8.99524L15.1552 9.0343C15.1341 10.0229 15.1174 10.8211 15.0057 11.464C14.8885 12.1391 14.6605 12.6892 14.1913 13.1603C13.7201 13.6332 13.1618 13.862 12.4755 13.9816C11.82 14.0957 11.0017 14.1162 9.98523 14.1417L9.94715 14.1427C8.64515 14.1754 7.35559 14.1754 6.05359 14.1427L6.01453 14.1417C4.99808 14.1162 4.1798 14.0957 3.5243 13.9816C2.83827 13.862 2.28055 13.633 1.80945 13.1603C1.34022 12.6893 1.11226 12.1391 0.994999 11.464C0.883352 10.8211 0.865673 10.0229 0.844608 9.0343V8.99524C0.830443 8.33101 0.830443 7.67021 0.844608 7.00598V6.96692C0.865665 5.9787 0.883428 5.18098 0.994999 4.53821C1.11225 3.86301 1.3402 3.31296 1.80945 2.84192C2.28062 2.36895 2.8381 2.13919 3.5243 2.01965C4.1798 1.90549 4.99807 1.88502 6.01453 1.85949L6.05359 1.85852ZM10.3046 7.04504C9.44273 7.53332 8.74226 7.8311 8.00086 7.83117C7.25926 7.83117 6.55826 7.53349 5.69617 7.04504L1.94715 4.92102C1.87792 5.4492 1.86305 6.11703 1.84363 7.02746C1.82977 7.67744 1.82977 8.32378 1.84363 8.97375C1.86575 10.0108 1.88315 10.7334 1.98035 11.2931C2.07341 11.8287 2.23277 12.1684 2.51746 12.4542C2.80028 12.7381 3.14455 12.9001 3.69617 12.9962C4.27033 13.0962 5.01454 13.1169 6.07898 13.1437C7.36414 13.176 8.63659 13.176 9.92176 13.1437C10.9862 13.1169 11.7304 13.0962 12.3046 12.9962C12.8558 12.9001 13.1996 12.7379 13.4823 12.4542C13.7671 12.1684 13.9273 11.8288 14.0204 11.2931C14.1176 10.7334 14.134 10.0108 14.1561 8.97375C14.17 8.32378 14.17 7.67744 14.1561 7.02746C14.1367 6.11699 14.1219 5.44921 14.0526 4.92102L10.3046 7.04504ZM9.92176 2.85852C8.63659 2.82623 7.36415 2.82624 6.07898 2.85852C5.01454 2.88526 4.27033 2.90501 3.69617 3.005C3.14457 3.10107 2.80028 3.26314 2.51746 3.54699C2.4019 3.66299 2.30768 3.78856 2.22937 3.93176L6.18933 6.17492C7.026 6.64896 7.53412 6.83117 8.00086 6.83117C8.46758 6.8311 8.97569 6.649 9.81238 6.17492L13.7704 3.93176C13.6921 3.78867 13.5978 3.66292 13.4823 3.54699C13.1996 3.2634 12.8558 3.10104 12.3046 3.005C11.7304 2.90501 10.9862 2.88526 9.92176 2.85852Z" fill="#D4D3D3"/>
</svg>
