<svg width="52" height="52" viewBox="0 0 52 52" fill="none" xmlns="http://www.w3.org/2000/svg">
<g clip-path="url(#clip0_10116_3384)">
<path d="M47.1787 32.9343C46.3843 32.9182 45.6278 32.5917 45.071 32.0248C44.5143 31.4579 44.2016 30.6955 44.2 29.9009V29.0343C44.2016 28.673 44.0971 28.3192 43.8994 28.0167C43.7017 27.7143 43.4196 27.4766 43.0881 27.333C42.7514 27.1844 42.3784 27.1386 42.0158 27.2015C41.6532 27.2645 41.3174 27.4332 41.0505 27.6866C40.4097 28.2711 39.9185 29.0007 39.6179 29.8143C35.8046 40.0808 32.0103 45.2955 28.3279 45.312H28.3088C27.8635 45.3185 27.4198 45.2568 26.9932 45.1291C24.2467 44.2555 23.3194 41.7717 23.0256 39.8425C23.0021 39.6875 22.9369 39.5418 22.8371 39.4209C22.7373 39.3 22.6066 39.2085 22.4589 39.156C22.3111 39.1035 22.152 39.0921 21.9983 39.1229C21.8446 39.1538 21.7021 39.2257 21.5861 39.3311C20.3909 40.5227 18.7863 41.2139 17.0993 41.2638C16.5083 41.2631 15.9219 41.1602 15.366 40.9596C11.2216 39.4741 11.9375 33.6293 12.8379 29.3575C13.0633 28.2595 13.3493 27.0834 13.7115 25.76C13.7597 25.5843 13.7665 25.3998 13.7315 25.2211C13.6965 25.0423 13.6206 24.8741 13.5097 24.7295C13.3988 24.585 13.256 24.4681 13.0924 24.3879C12.9288 24.3078 12.7488 24.2666 12.5667 24.2676C11.303 24.2692 10.0915 24.7719 9.1979 25.6655C8.30432 26.5591 7.80161 27.7706 7.8 29.0343V29.9009C7.78563 30.716 7.44956 31.4923 6.86508 32.0605C6.2806 32.6288 5.49513 32.9429 4.68 32.9343C3.43153 32.959 2.24241 33.4718 1.36757 34.3629C0.492734 35.2539 0.0017956 36.4522 0 37.7009L0 48.5343C0 49.4537 0.365237 50.3354 1.01536 50.9856C1.66549 51.6357 2.54725 52.0009 3.46667 52.0009H48.5333C49.4528 52.0009 50.3345 51.6357 50.9846 50.9856C51.6348 50.3354 52 49.4537 52 48.5343V37.7009C51.9886 36.4308 51.4752 35.2168 50.572 34.3238C49.6687 33.4307 48.4489 32.9312 47.1787 32.9343ZM50.2667 48.5343C50.2667 48.994 50.084 49.4349 49.759 49.7599C49.4339 50.085 48.993 50.2676 48.5333 50.2676H3.46667C3.00696 50.2676 2.56608 50.085 2.24101 49.7599C1.91595 49.4349 1.73333 48.994 1.73333 48.5343V37.7009C1.73499 36.9061 2.04789 36.1434 2.60499 35.5765C3.16208 35.0095 3.91908 34.6832 4.7138 34.6676C5.98367 34.6702 7.20303 34.1705 8.1059 33.2775C9.00878 32.3845 9.5219 31.1707 9.53333 29.9009V29.0343C9.53418 28.3588 9.75999 27.7029 10.1751 27.1701C10.5902 26.6373 11.171 26.2579 11.8257 26.0919C11.5509 27.138 11.3247 28.0965 11.1384 29.0031C10.543 31.8275 8.73167 40.424 14.7784 42.5907C15.5229 42.8585 16.3081 42.9957 17.0993 42.9963C18.723 42.9823 20.3023 42.4645 21.619 41.5143C21.9102 42.7328 22.5088 43.8564 23.3576 44.7778C24.2065 45.6992 25.2774 46.3877 26.468 46.7775C27.065 46.9578 27.6861 47.0454 28.3097 47.0375H28.3339C30.004 47.0297 35.0853 47.0063 41.2473 30.4097C41.4577 29.8446 41.8021 29.339 42.2509 28.9363C42.2684 28.9172 42.2919 28.9045 42.3175 28.9003C42.3431 28.896 42.3694 28.9005 42.3921 28.9129C42.416 28.9224 42.4362 28.9393 42.4496 28.9612C42.463 28.9831 42.469 29.0087 42.4667 29.0343V29.9009C42.4685 31.1496 42.9594 32.348 43.8342 33.239C44.7091 34.13 45.8982 34.6429 47.1467 34.6676C47.9617 34.6592 48.7471 34.9734 49.3315 35.5416C49.9159 36.1098 50.2521 36.8859 50.2667 37.7009V48.5343Z" fill="#060C16"/>
<path d="M25.5535 33.0886C24.0628 37.2486 24.192 42.2822 27.3735 43.4236C27.6403 43.5199 27.9218 43.5691 28.2055 43.5692C32.3724 43.5692 36.6451 32.9803 38.3646 28.1919C38.6605 27.5084 39.1357 26.9175 39.74 26.482C41.4999 25.0342 43.0747 23.375 44.4286 21.542L45.1384 20.6086C46.3432 19.0329 47.0892 17.1551 47.2942 15.1822C47.4991 13.2094 47.155 11.2182 46.2998 9.4286C45.4719 7.62666 44.1545 6.09356 42.4976 5.00408C40.8407 3.9146 38.911 3.31256 36.9285 3.2666C35.8916 3.23349 34.8926 2.869 34.078 2.2266C32.5211 1.00935 30.6538 0.253552 28.6885 0.0451809C26.7232 -0.163191 24.7389 0.184235 22.9613 1.04793C21.1622 1.8852 19.6296 3.20344 18.5327 4.85705C17.4358 6.51066 16.8173 8.43528 16.7456 10.4183L16.7005 11.5953C16.58 13.8703 16.7401 16.1515 17.1772 18.3873C17.3662 19.1075 17.3573 19.8654 17.1512 20.5809C16.0872 23.5682 15.2108 26.619 14.5269 29.7155C13.3378 35.4113 13.8032 38.5555 15.95 39.3251C17.4458 39.8625 19.1306 39.3087 20.7002 37.7729C22.1429 36.2695 23.2415 34.4703 23.9198 32.5001L25.0786 29.2657C25.5925 27.8453 26.5294 26.5349 26.9254 26.6874C27.3215 26.8399 27.2192 28.4285 26.7114 29.8507L25.5535 33.0886ZM27.5148 25.0589C27.3028 24.9816 27.0791 24.9414 26.8535 24.9402C26.1524 24.9402 25.2848 25.3397 24.4 26.7429C24.0216 27.3585 23.7041 28.0096 23.4518 28.6868L22.2914 31.9212C21.7017 33.6445 20.7452 35.2194 19.4877 36.5371C18.868 37.1437 17.6677 38.0971 16.5358 37.6967C16.1207 37.5476 14.8692 36.5579 16.2238 30.07C16.8906 27.0521 17.7454 24.0788 18.7831 21.1676C19.102 20.15 19.132 19.0639 18.8698 18.0303C18.4622 15.933 18.314 13.7937 18.4286 11.6603L18.4772 10.4868C18.5253 8.81832 19.0402 7.19675 19.9635 5.8062C20.8868 4.41565 22.1815 3.31183 23.7006 2.62006C25.1967 1.89417 26.8667 1.60351 28.52 1.78127C30.1734 1.95904 31.7435 2.59806 33.051 3.6254C34.1589 4.4816 35.5114 4.96137 36.9112 4.99473C38.5673 5.03873 40.1778 5.54645 41.5597 6.46016C42.9416 7.37388 44.0395 8.65695 44.7285 10.1635C45.4612 11.6629 45.7587 13.3377 45.5871 14.9976C45.4155 16.6576 44.7818 18.2361 43.7578 19.5539L43.0489 20.4873C41.7794 22.208 40.3031 23.7662 38.6532 25.1265C37.7931 25.7584 37.126 26.6173 36.7266 27.6069C34.0174 35.1539 29.9908 42.5257 27.9533 41.7917C26.1853 41.1564 25.8326 37.4393 27.1828 33.6736L28.3442 30.4401C28.6172 29.6887 29.8444 25.8953 27.5148 25.0589Z" fill="#060C16"/>
<path d="M32.1257 6.18911C32.265 6.00683 32.3264 5.77675 32.2963 5.5493C32.2662 5.32186 32.1472 5.11561 31.9654 4.97578C30.7199 4.00378 29.1868 3.47304 27.6069 3.46691C25.6952 3.45634 23.8544 4.18988 22.4739 5.51232C21.0933 6.83477 20.2814 8.64239 20.2099 10.5528L20.1657 11.7124C20.1568 11.942 20.2394 12.1657 20.3954 12.3344C20.5515 12.5031 20.7681 12.603 20.9977 12.612H21.0324C21.2565 12.6121 21.4719 12.5255 21.6335 12.3702C21.7951 12.2149 21.8903 12.0031 21.899 11.7791L21.9432 10.6169C21.9994 9.15547 22.6218 7.77317 23.6788 6.76232C24.7357 5.75146 26.1444 5.19129 27.6069 5.20024C28.8052 5.2059 29.9675 5.61022 30.9106 6.34944C31.093 6.4893 31.3235 6.55098 31.5514 6.52091C31.7792 6.49084 31.9858 6.37149 32.1257 6.18911Z" fill="#060C16"/>
</g>
<defs>
<clipPath id="clip0_10116_3384">
<rect width="52" height="52" fill="white"/>
</clipPath>
</defs>
</svg>
