<svg width="52" height="52" viewBox="0 0 52 52" fill="none" xmlns="http://www.w3.org/2000/svg">
<path d="M49.305 23.7911L41.0869 10.9093C40.802 10.4646 40.3525 10.1508 39.8367 10.0368C39.321 9.92282 38.7811 10.0178 38.3352 10.3011L34.3008 12.8747C33.9273 13.1139 33.6441 13.4709 33.4962 13.8891C33.3483 14.3074 33.344 14.763 33.4841 15.1839C33.3043 15.1863 33.1181 15.1823 32.9255 15.1721C32.0332 15.1234 31.478 14.8515 30.8904 14.5637C29.3974 13.8324 28.1472 13.4791 24.9676 15.1986C23.7863 13.665 21.8329 14.1492 20.088 14.5826C18.7453 14.916 17.3642 15.2589 16.0939 14.9419C16.2653 14.511 16.2813 14.0339 16.1392 13.5926C15.9972 13.1512 15.706 12.773 15.3156 12.5229L11.281 9.94906C10.8352 9.66548 10.2952 9.57028 9.77935 9.68432C9.2635 9.79837 8.81393 10.1124 8.52926 10.5574L0.311233 23.4393C0.0280555 23.8851 -0.0669303 24.425 0.0470712 24.9407C0.161073 25.4565 0.474773 25.906 0.91949 26.1909L4.95396 28.7646C5.39961 29.0485 5.9397 29.1439 6.45562 29.0298C6.97154 28.9158 7.42111 28.6016 7.70559 28.1564L8.23148 27.3321C8.2696 27.3698 8.30765 27.4057 8.34564 27.4399C7.4983 28.3851 6.72511 29.4702 6.8478 30.8948C6.93524 31.9104 7.30259 32.6625 7.93959 33.1299C8.51027 33.5485 9.27433 33.7125 10.2176 33.6193C10.3465 34.4443 10.6695 35.1043 11.1825 35.5876C11.776 36.1473 12.606 36.4503 13.6554 36.4915C13.8545 37.212 14.2255 37.7633 14.7631 38.1351C15.4701 38.6244 16.4031 38.7731 17.602 38.5849C18.1229 39.858 19.156 40.5228 20.6274 40.5228C20.6797 40.5228 20.7327 40.522 20.7861 40.5203C21.5778 40.4953 22.3648 39.9088 22.9505 39.3336C24.6073 40.4745 26.0459 41.0491 27.2456 41.0491C27.606 41.0519 27.9643 40.9943 28.3057 40.8788C29.1954 40.5721 29.8689 39.8814 30.3142 38.8213C31.3287 39.1442 32.2143 39.1224 32.9548 38.7547C33.7566 38.3564 34.3504 37.5675 34.7251 36.4056C35.7001 36.5059 36.4984 36.3253 37.1046 35.8658C37.6794 35.4303 38.0576 34.7629 38.2338 33.8762C39.6105 34.0253 40.7705 33.6796 41.6891 32.8449C41.7318 32.8062 41.7697 32.7623 41.8017 32.7144C42.4758 31.7081 42.7182 30.7271 42.5228 29.7986C42.4415 29.425 42.295 29.0686 42.09 28.7458C42.4035 29.1052 42.8356 29.3403 43.3077 29.4083C43.7798 29.4763 44.2606 29.3727 44.6629 29.1164L48.6973 26.5427C49.1421 26.2578 49.4558 25.8083 49.5698 25.2925C49.6838 24.7768 49.5888 24.2369 49.3056 23.791L49.305 23.7911ZM30.2651 15.8405C30.8898 16.1465 31.6673 16.5274 32.848 16.5921C33.3276 16.6207 33.8088 16.609 34.2865 16.5572L40.8568 26.8566C40.7558 26.9895 40.6242 27.0961 40.4732 27.1674C40.413 27.1267 40.3526 27.0867 40.2898 27.047C39.7247 26.6953 38.8745 26.0896 37.8902 25.3883C32.7221 21.7064 28.9385 19.2061 27.3155 20.5754C23.4164 23.8646 21.0408 24.6481 20.1917 24.3201C20.0556 24.2673 19.9106 24.1696 19.8667 23.8433C19.7042 22.6205 21.2232 19.6144 25.109 16.748C28.329 14.8922 29.1415 15.2902 30.2648 15.8405H30.2651ZM6.50726 27.3914C6.4257 27.5189 6.2969 27.6089 6.14911 27.6415C6.00132 27.6742 5.84661 27.6469 5.71893 27.5656L1.68456 24.992C1.55704 24.9105 1.46707 24.7817 1.43439 24.6339C1.40172 24.4861 1.42901 24.3314 1.51028 24.2037L9.728 11.3218C9.80954 11.1943 9.93834 11.1043 10.0861 11.0716C10.2339 11.0389 10.3886 11.0662 10.5163 11.1475L14.5503 13.7211C14.6772 13.8032 14.7666 13.9319 14.7992 14.0794C14.8318 14.227 14.805 14.3814 14.7246 14.5093L6.50726 27.3914ZM8.78094 31.9832C8.48904 31.7691 8.31537 31.3617 8.26469 30.7725C8.17156 29.6904 9.0125 28.7967 9.90279 27.8506C10.0792 27.6631 10.2616 27.4692 10.4332 27.2764C10.601 27.0828 10.8191 26.9393 11.0634 26.8619C11.3077 26.7845 11.5686 26.7762 11.8173 26.8379C12.1034 26.9085 12.3672 27.0495 12.5848 27.2482C12.8023 27.4469 12.9667 27.6969 13.0628 27.9754C12.8202 28.7218 12.1774 30.1241 10.4818 32.1466C9.70749 32.2885 9.12198 32.2337 8.78094 31.9835V31.9832ZM11.5857 33.0425C13.4958 30.7594 14.1968 29.1324 14.4519 28.2972C15.1378 27.5826 16.322 27.2715 17.1674 27.6048C17.7635 27.8399 18.0663 28.358 18.07 29.145L13.8634 35.0746C13.0921 35.0687 12.5194 34.8941 12.1578 34.5531C11.8192 34.2339 11.6279 33.7258 11.5857 33.0429V33.0425ZM15.572 36.9656C15.2797 36.7635 15.0878 36.4282 14.9869 35.9479L19.1893 30.0246C20.1445 29.8671 20.8912 30.0166 21.26 30.4482C21.6546 30.9098 21.6691 31.7409 21.3055 32.7381C20.258 34.0093 19.4296 35.0153 18.8202 35.756C18.2921 36.398 17.8937 36.8815 17.6945 37.1227C16.7357 37.3184 16.0047 37.2652 15.572 36.9659V36.9656ZM20.7415 39.0984C19.7486 39.1308 19.1743 38.7751 18.8737 37.9273C19.0604 37.7011 19.3777 37.3158 19.9182 36.6591C20.4858 35.9695 21.2432 35.0497 22.1905 33.8996C23.0697 34.1627 23.5779 34.5373 23.7025 35.0168C23.8055 35.4129 23.4768 36.4201 22.6646 37.5051C21.9013 38.5255 21.1041 39.0878 20.7413 39.0992L20.7415 39.0984ZM40.669 31.848C39.9705 32.4454 39.0634 32.6207 37.9044 32.3851L30.1533 27.1477C30.076 27.0948 29.989 27.0577 29.8973 27.0386C29.8055 27.0195 29.711 27.0187 29.6189 27.0362C29.5269 27.0538 29.4393 27.0893 29.361 27.1409C29.2828 27.1924 29.2155 27.2589 29.1631 27.3365C29.1106 27.4142 29.074 27.5014 29.0554 27.5932C29.0368 27.685 29.0365 27.7796 29.0545 27.8715C29.0726 27.9635 29.1086 28.0509 29.1606 28.1289C29.2125 28.2068 29.2794 28.2738 29.3573 28.3258L36.872 33.4045C36.7796 34.0405 36.5698 34.4869 36.2454 34.7326C35.8696 35.017 35.2733 35.0821 34.477 34.931L28.5011 31.0318L27.7242 32.2226L33.3876 35.9179C33.137 36.7281 32.7798 37.2538 32.3212 37.4814C31.8215 37.7296 31.1197 37.6588 30.2353 37.2724L26.7085 34.7654C26.5548 34.6575 26.3647 34.6148 26.1796 34.6467C25.9945 34.6785 25.8295 34.7823 25.7207 34.9353C25.6119 35.0884 25.5681 35.2783 25.5988 35.4636C25.6295 35.6488 25.7323 35.8144 25.8847 35.9242L29.0433 38.1692C28.7573 38.8988 28.3547 39.3575 27.8421 39.5348C26.946 39.8439 25.5834 39.3978 23.883 38.2483C24.3379 37.6186 25.4134 35.9485 25.0782 34.6592C24.8357 33.7275 24.0815 33.0416 22.8324 32.6143C23.1537 31.3597 22.9865 30.2805 22.3407 29.5248C21.7099 28.7866 20.6997 28.4545 19.4474 28.56C19.2827 27.4778 18.6677 26.6686 17.6887 26.2825C16.5384 25.8291 15.1145 26.0553 14.0419 26.7904C13.6005 26.1168 12.9177 25.6381 12.1341 25.4527C11.6371 25.3342 11.1172 25.3533 10.6303 25.5082C10.1433 25.6631 9.70784 25.9477 9.37061 26.3316C9.35172 26.3528 9.3314 26.3745 9.31221 26.3957C9.20794 26.302 9.11138 26.2001 9.02347 26.091L15.3334 16.1992C17.0726 16.7957 18.8468 16.3554 20.4305 15.9621C22.276 15.5038 23.1958 15.3589 23.7679 15.9816C20.3373 18.658 18.1743 21.9082 18.4573 24.0306C18.561 24.8078 18.9948 25.3814 19.6789 25.6454C21.3978 26.3098 24.3552 24.9319 28.232 21.6614C28.2369 21.6573 28.7552 21.2653 31.5006 22.8351C33.3066 23.8681 35.3904 25.3526 37.0648 26.5455C38.0685 27.2606 38.9354 27.8782 39.5333 28.2503C40.4592 28.8368 40.9967 29.4564 41.1306 30.0916C41.2418 30.6192 41.0908 31.1945 40.6688 31.8488L40.669 31.848ZM41.6058 28.1164C41.6179 28.1064 41.6299 28.0962 41.6418 28.0859L41.8171 28.3607C41.7509 28.2794 41.6801 28.1979 41.6056 28.1172L41.6058 28.1164ZM48.1808 24.985C48.1651 25.0582 48.135 25.1276 48.0922 25.1891C48.0495 25.2506 47.995 25.303 47.9319 25.3433L43.8975 27.917C43.7698 27.9983 43.6151 28.0255 43.4673 27.9929C43.3195 27.9602 43.1907 27.8702 43.1092 27.7427L34.8912 14.8617C34.81 14.734 34.7828 14.5792 34.8156 14.4315C34.8483 14.2837 34.9383 14.1549 35.0659 14.0734L39.1002 11.4998C39.2281 11.4194 39.3825 11.3925 39.5301 11.4251C39.6776 11.4577 39.8064 11.5472 39.8885 11.674L48.1062 24.5559C48.1464 24.6191 48.1737 24.6896 48.1865 24.7634C48.1992 24.8372 48.1972 24.9128 48.1806 24.9858L48.1808 24.985ZM13.7808 3.76858C13.688 3.60538 13.6635 3.4121 13.7127 3.23092C13.7619 3.04974 13.8807 2.89538 14.0433 2.80151C14.2059 2.70764 14.399 2.68189 14.5805 2.72987C14.762 2.77786 14.9172 2.89568 15.0121 3.05764L18.2012 8.58162C18.2486 8.66251 18.2795 8.75197 18.2922 8.84487C18.3049 8.93776 18.2991 9.03225 18.2752 9.12289C18.2512 9.21354 18.2095 9.29855 18.1526 9.37303C18.0956 9.4475 18.0245 9.50998 17.9433 9.55686C17.8621 9.60374 17.7725 9.6341 17.6795 9.64618C17.5865 9.65827 17.4921 9.65184 17.4016 9.62728C17.3111 9.60271 17.2264 9.56049 17.1523 9.50305C17.0782 9.4456 17.0162 9.37407 16.9698 9.29256L13.7808 3.76858ZM25.4698 8.00373V1.625C25.4698 1.43645 25.5447 1.25562 25.678 1.12229C25.8113 0.988965 25.9922 0.914063 26.1807 0.914062C26.3693 0.914062 26.5501 0.988965 26.6834 1.12229C26.8168 1.25562 26.8917 1.43645 26.8917 1.625V8.00363C26.8917 8.19219 26.8168 8.37301 26.6834 8.50634C26.5501 8.63967 26.3693 8.71457 26.1807 8.71457C25.9922 8.71457 25.8113 8.63967 25.678 8.50634C25.5447 8.37301 25.4698 8.19229 25.4698 8.00373ZM34.0322 7.88298L37.2213 2.35899C37.2676 2.27749 37.3296 2.20595 37.4037 2.14851C37.4778 2.09106 37.5625 2.04884 37.653 2.02428C37.7435 1.99971 37.838 1.99328 37.9309 2.00537C38.0239 2.01745 38.1136 2.04781 38.1948 2.09469C38.276 2.14157 38.3471 2.20405 38.4041 2.27853C38.461 2.35301 38.5027 2.43802 38.5266 2.52866C38.5506 2.6193 38.5564 2.71379 38.5437 2.80669C38.531 2.89958 38.5 2.98905 38.4526 3.06993L35.2636 8.59391C35.1686 8.75587 35.0135 8.8737 34.832 8.92168C34.6505 8.96967 34.4573 8.94392 34.2948 8.85005C34.1322 8.75618 34.0133 8.60181 33.9641 8.42063C33.915 8.23946 33.9394 8.04618 34.0322 7.88298ZM38.4529 48.2315C38.5003 48.3124 38.5313 48.4019 38.544 48.4948C38.5567 48.5877 38.5509 48.6821 38.5269 48.7728C38.503 48.8634 38.4613 48.9484 38.4044 49.0229C38.3474 49.0974 38.2763 49.1599 38.1951 49.2068C38.1139 49.2536 38.0242 49.284 37.9312 49.2961C37.8383 49.3082 37.7438 49.3017 37.6533 49.2772C37.5629 49.2526 37.4781 49.2104 37.404 49.1529C37.3299 49.0955 37.2679 49.024 37.2216 48.9425L34.0325 43.4185C33.9851 43.3376 33.9542 43.2481 33.9414 43.1552C33.9287 43.0623 33.9345 42.9678 33.9585 42.8772C33.9825 42.7866 34.0241 42.7016 34.0811 42.6271C34.138 42.5526 34.2092 42.4901 34.2904 42.4432C34.3716 42.3964 34.4612 42.366 34.5542 42.3539C34.6472 42.3418 34.7416 42.3483 34.8321 42.3728C34.9226 42.3974 35.0073 42.4396 35.0814 42.4971C35.1555 42.5545 35.2175 42.626 35.2639 42.7075L38.4529 48.2315ZM26.7638 43.9969V50.375C26.7638 50.5636 26.6889 50.7444 26.5556 50.8777C26.4222 51.011 26.2414 51.0859 26.0529 51.0859C25.8643 51.0859 25.6835 51.011 25.5501 50.8777C25.4168 50.7444 25.3419 50.5636 25.3419 50.375V43.9969C25.3419 43.8083 25.4168 43.6275 25.5501 43.4942C25.6835 43.3608 25.8643 43.2859 26.0529 43.2859C26.2414 43.2859 26.4222 43.3608 26.5556 43.4942C26.6889 43.6275 26.7638 43.8083 26.7638 43.9969ZM18.2014 44.1176L15.0123 49.6416C14.9174 49.8036 14.7622 49.9214 14.5807 49.9694C14.3992 50.0174 14.2061 49.9916 14.0435 49.8978C13.8809 49.8039 13.7621 49.6495 13.7129 49.4683C13.6637 49.2872 13.6882 49.0939 13.781 48.9307L16.97 43.4067C17.065 43.2447 17.2201 43.1269 17.4016 43.0789C17.5831 43.0309 17.7762 43.0567 17.9388 43.1506C18.1014 43.2444 18.2202 43.3988 18.2694 43.58C18.3186 43.7612 18.2942 43.9544 18.2014 44.1176Z" fill="#060C16"/>
</svg>
