<svg width="52" height="52" viewBox="0 0 52 52" fill="none" xmlns="http://www.w3.org/2000/svg">
<path d="M25.0859 11.9198C21.8642 11.9234 18.7755 13.2049 16.4974 15.483C14.2193 17.7611 12.9378 20.8498 12.9342 24.0716C12.9342 28.4039 14.329 29.9562 15.678 31.4574C17.0572 32.9923 18.4834 34.5794 18.4834 39.8284C18.4834 40.0169 18.5583 40.1977 18.6916 40.3311C18.8249 40.4644 19.0057 40.5393 19.1943 40.5393H31.3887C31.5773 40.5393 31.7581 40.4644 31.8914 40.3311C32.0247 40.1977 32.0996 40.0169 32.0996 39.8284C32.0996 34.4936 33.4585 32.7881 34.7728 31.1388C35.9846 29.618 37.2377 28.0455 37.2377 24.0716C37.234 20.8498 35.9526 17.7611 33.6745 15.483C31.3964 13.2049 28.3077 11.9235 25.0859 11.9198ZM26.79 39.1174H24.5463V30.0276H26.79V39.1174ZM33.6609 30.2526C32.3209 31.9342 30.8097 33.8304 30.6859 39.1174H28.2118V29.9315H29.8507C30.4561 29.9315 31.0479 29.752 31.5512 29.4157C32.0546 29.0793 32.4469 28.6013 32.6786 28.042C32.9102 27.4827 32.9708 26.8673 32.8527 26.2736C32.7346 25.6798 32.4431 25.1344 32.015 24.7064C31.5869 24.2783 31.0416 23.9868 30.4478 23.8687C29.8541 23.7506 29.2386 23.8113 28.6794 24.0429C28.1201 24.2746 27.642 24.667 27.3057 25.1703C26.9694 25.6737 26.7899 26.2654 26.79 26.8708V28.6059H24.5462V26.8708C24.5453 26.0593 24.2226 25.2813 23.6488 24.7075C23.075 24.1337 22.297 23.8109 21.4855 23.81C20.6768 23.8147 19.9028 24.1392 19.3326 24.7127C18.7624 25.2862 18.4424 26.0621 18.4424 26.8708C18.4424 27.6795 18.7624 28.4553 19.3326 29.0288C19.9028 29.6023 20.6768 29.9268 21.4855 29.9315H23.1246V39.1174H19.8961C19.7641 33.8768 18.1585 32.0909 16.7353 30.5071C15.4584 29.0861 14.3558 27.8589 14.3558 24.0716C14.3558 21.2258 15.4862 18.4965 17.4985 16.4842C19.5108 14.472 22.24 13.3415 25.0858 13.3415C27.9316 13.3415 30.6609 14.472 32.6731 16.4842C34.6854 18.4965 35.8159 21.2258 35.8159 24.0716C35.8158 27.5482 34.8171 28.8015 33.6609 30.2526ZM28.2118 28.5096V26.8708C28.2123 26.4363 28.3851 26.0198 28.6924 25.7125C28.9996 25.4053 29.4161 25.2324 29.8506 25.2319C30.2831 25.2353 30.6966 25.4095 31.0012 25.7165C31.3057 26.0234 31.4767 26.4383 31.4767 26.8708C31.4767 27.3032 31.3057 27.7181 31.0012 28.0251C30.6966 28.3321 30.2831 28.5062 29.8506 28.5096H28.2118ZM23.1244 26.8708V28.5096H21.4854C21.1613 28.5096 20.8444 28.4135 20.5749 28.2334C20.3054 28.0533 20.0953 27.7974 19.9713 27.4979C19.8472 27.1984 19.8148 26.8689 19.878 26.5509C19.9413 26.233 20.0974 25.941 20.3266 25.7118C20.5558 25.4826 20.8478 25.3265 21.1658 25.2633C21.4837 25.2001 21.8132 25.2325 22.1127 25.3566C22.4122 25.4806 22.6681 25.6907 22.8482 25.9603C23.0283 26.2298 23.1244 26.5467 23.1244 26.8708ZM24.4728 6.45991V3.30273C24.4728 3.11418 24.5477 2.93335 24.681 2.80003C24.8144 2.6667 24.9952 2.5918 25.1837 2.5918C25.3723 2.5918 25.5531 2.6667 25.6865 2.80003C25.8198 2.93335 25.8947 3.11418 25.8947 3.30273V6.45991C25.8947 6.64846 25.8198 6.82929 25.6865 6.96262C25.5531 7.09594 25.3723 7.17084 25.1837 7.17084C24.9952 7.17084 24.8144 7.09594 24.681 6.96262C24.5477 6.82929 24.4728 6.64846 24.4728 6.45991ZM38.883 3.84071L35.7258 9.30904C35.6309 9.471 35.4757 9.58882 35.2942 9.63681C35.1127 9.68479 34.9196 9.65904 34.757 9.56517C34.5945 9.4713 34.4756 9.31693 34.4264 9.13576C34.3772 8.95458 34.4017 8.7613 34.4945 8.5981L37.6517 3.12977C37.698 3.04827 37.76 2.97673 37.8341 2.91929C37.9082 2.86184 37.9929 2.81962 38.0834 2.79506C38.1739 2.77049 38.2683 2.76407 38.3613 2.77615C38.4543 2.78824 38.544 2.81859 38.6252 2.86547C38.7064 2.91235 38.7775 2.97483 38.8344 3.04931C38.8914 3.12379 38.933 3.2088 38.957 3.29944C38.981 3.39009 38.9868 3.48457 38.9741 3.57747C38.9614 3.67036 38.9304 3.75983 38.883 3.84071ZM44.8511 15.1135L42.117 16.692C41.9538 16.7848 41.7605 16.8093 41.5793 16.7601C41.3981 16.7109 41.2438 16.5921 41.1499 16.4295C41.056 16.2669 41.0303 16.0738 41.0782 15.8923C41.1262 15.7108 41.2441 15.5556 41.406 15.4607L44.1402 13.8821C44.3035 13.7878 44.4975 13.7623 44.6797 13.8111C44.8618 13.8599 45.0171 13.979 45.1114 14.1423C45.2056 14.3056 45.2312 14.4997 45.1824 14.6818C45.1336 14.864 45.0144 15.0193 44.8511 15.1135ZM50.1719 25.9197C50.1719 26.1082 50.097 26.2891 49.9636 26.4224C49.8303 26.5557 49.6495 26.6306 49.4609 26.6306H43.1466C42.958 26.6306 42.7772 26.5557 42.6439 26.4224C42.5106 26.2891 42.4357 26.1082 42.4357 25.9197C42.4357 25.7311 42.5106 25.5503 42.6439 25.417C42.7772 25.2837 42.958 25.2087 43.1466 25.2087H49.4609C49.6495 25.2087 49.8303 25.2837 49.9636 25.417C50.097 25.5503 50.1719 25.7311 50.1719 25.9197ZM15.3812 9.30904L12.2241 3.84071C12.1313 3.67751 12.1068 3.48423 12.156 3.30305C12.2052 3.12188 12.324 2.96751 12.4866 2.87364C12.6492 2.77977 12.8423 2.75402 13.0238 2.802C13.2053 2.84999 13.3605 2.96782 13.4554 3.12977L16.6126 8.5981C16.66 8.67899 16.6909 8.76845 16.7036 8.86134C16.7164 8.95424 16.7106 9.04873 16.6866 9.13937C16.6626 9.23002 16.621 9.31502 16.564 9.3895C16.5071 9.46398 16.4359 9.52646 16.3547 9.57334C16.2735 9.62022 16.1839 9.65058 16.0909 9.66266C15.9979 9.67475 15.9035 9.66832 15.813 9.64376C15.7225 9.61919 15.6378 9.57697 15.5637 9.51952C15.4896 9.46208 15.4276 9.39055 15.3812 9.30904ZM9.26301 16.4318C9.16873 16.5951 9.01345 16.7142 8.83133 16.763C8.6492 16.8118 8.45515 16.7863 8.29187 16.692L5.5576 15.1135C5.3943 15.0193 5.27514 14.864 5.22633 14.6818C5.17753 14.4997 5.20307 14.3056 5.29735 14.1423C5.39162 13.979 5.54691 13.8599 5.72904 13.8111C5.91118 13.7623 6.10524 13.7878 6.26854 13.8821L9.0028 15.4607C9.16609 15.555 9.28523 15.7102 9.33403 15.8924C9.38283 16.0745 9.35728 16.2685 9.26301 16.4318ZM7.73622 25.9197C7.73622 26.1082 7.66132 26.2891 7.52799 26.4224C7.39466 26.5557 7.21383 26.6306 7.02528 26.6306H0.710938C0.522385 26.6306 0.341555 26.5557 0.208229 26.4224C0.0749022 26.2891 0 26.1082 0 25.9197C0 25.7311 0.0749022 25.5503 0.208229 25.417C0.341555 25.2837 0.522385 25.2087 0.710938 25.2087H7.02528C7.21383 25.2087 7.39466 25.2837 7.52799 25.417C7.66132 25.5503 7.73622 25.7311 7.73622 25.9197ZM30.6609 42.8621C30.6609 43.0507 30.586 43.2315 30.4527 43.3648C30.3193 43.4982 30.1385 43.5731 29.95 43.5731H20.2218C20.0333 43.5731 19.8524 43.4982 19.7191 43.3648C19.5858 43.2315 19.5109 43.0507 19.5109 42.8621C19.5109 42.6736 19.5858 42.4928 19.7191 42.3594C19.8524 42.2261 20.0333 42.1512 20.2218 42.1512H29.95C30.1385 42.1512 30.3193 42.2261 30.4527 42.3594C30.586 42.4928 30.6609 42.6736 30.6609 42.8621ZM29.3192 45.7794C29.3192 45.968 29.2443 46.1488 29.1109 46.2821C28.9776 46.4155 28.7968 46.4904 28.6082 46.4904H21.5636C21.4703 46.4904 21.3778 46.472 21.2916 46.4362C21.2053 46.4005 21.127 46.3481 21.0609 46.2821C20.9949 46.2161 20.9426 46.1377 20.9068 46.0515C20.8711 45.9652 20.8527 45.8728 20.8527 45.7794C20.8527 45.6861 20.8711 45.5936 20.9068 45.5074C20.9426 45.4211 20.9949 45.3427 21.0609 45.2767C21.127 45.2107 21.2053 45.1583 21.2916 45.1226C21.3778 45.0869 21.4703 45.0685 21.5636 45.0685H28.6082C28.7968 45.0685 28.9776 45.1434 29.1109 45.2767C29.2443 45.41 29.3192 45.5909 29.3192 45.7794ZM27.6434 48.6967C27.6434 48.8853 27.5685 49.0661 27.4352 49.1994C27.3018 49.3327 27.121 49.4076 26.9324 49.4076H23.2394C23.0509 49.4076 22.87 49.3327 22.7367 49.1994C22.6034 49.0661 22.5285 48.8853 22.5285 48.6967C22.5285 48.5082 22.6034 48.3273 22.7367 48.194C22.87 48.0607 23.0509 47.9858 23.2394 47.9858H26.9324C27.121 47.9858 27.3018 48.0607 27.4352 48.194C27.5685 48.3273 27.6434 48.5082 27.6434 48.6967Z" fill="#060C16"/>
</svg>
