<svg width="52" height="52" viewBox="0 0 52 52" fill="none" xmlns="http://www.w3.org/2000/svg">
<path d="M35.9946 23.0974H18.4388V16.376C18.4407 14.6733 19.118 13.0409 20.322 11.8369C21.526 10.6329 23.1585 9.9556 24.8612 9.95369C28.3146 9.88221 31.3533 12.9267 31.2832 16.376V19.0185C31.2832 19.0975 31.2987 19.1757 31.3289 19.2487C31.3591 19.3217 31.4034 19.388 31.4592 19.4438C31.5151 19.4997 31.5814 19.544 31.6544 19.5742C31.7273 19.6044 31.8056 19.6199 31.8845 19.6199H34.6336C34.793 19.6199 34.946 19.5565 35.0588 19.4437C35.1715 19.331 35.2349 19.178 35.2349 19.0185V16.376C35.3476 10.8 30.443 5.88654 24.8612 6.00199C22.1108 6.00509 19.4739 7.09906 17.529 9.0439C15.5842 10.9887 14.4902 13.6256 14.4871 16.376V23.0974H13.7277C12.916 23.0983 12.1378 23.4211 11.5638 23.9951C10.9898 24.5691 10.6669 25.3473 10.666 26.1591V42.9383C10.6669 43.75 10.9898 44.5283 11.5638 45.1022C12.1378 45.6762 12.916 45.9991 13.7277 46H35.9946C36.8064 45.9991 37.5846 45.6762 38.1586 45.1022C38.7326 44.5283 39.0554 43.75 39.0564 42.9383V26.1591C39.0554 25.3473 38.7326 24.5691 38.1586 23.9951C37.5846 23.4211 36.8064 23.0983 35.9946 23.0974ZM15.6898 16.376C15.6925 13.9445 16.6597 11.6133 18.3791 9.89393C20.0984 8.17455 22.4296 7.20741 24.8612 7.20468C29.7956 7.1016 34.1322 11.4464 34.0322 16.376V18.4172H32.4859V16.376C32.5687 12.2797 28.962 8.66612 24.8612 8.751C22.8396 8.75327 20.9015 9.55735 19.472 10.9868C18.0425 12.4163 17.2384 14.3545 17.2361 16.376V23.0974H15.6898V16.376ZM37.8537 42.9383C37.8531 43.4312 37.6571 43.9037 37.3086 44.2522C36.9601 44.6007 36.4875 44.7968 35.9946 44.7973H13.7277C13.2348 44.7968 12.7623 44.6007 12.4138 44.2522C12.0653 43.9037 11.8693 43.4312 11.8687 42.9383V26.1591C11.8693 25.6662 12.0653 25.1937 12.4138 24.8451C12.7623 24.4966 13.2348 24.3006 13.7277 24.3001H15.0885C16.1829 24.3018 34.2995 24.3001 35.9946 24.3001C36.4875 24.3006 36.9601 24.4966 37.3086 24.8451C37.6571 25.1937 37.8531 25.6662 37.8537 26.1591V42.9383Z" fill="#060C16"/>
<path d="M40.7229 18.1211H37.4739C37.3144 18.1211 37.1615 18.1844 37.0487 18.2972C36.9359 18.41 36.8726 18.563 36.8726 18.7224C36.8726 18.8819 36.9359 19.0349 37.0487 19.1477C37.1615 19.2604 37.3144 19.3238 37.4739 19.3238H40.7229C40.8824 19.3238 41.0353 19.2604 41.1481 19.1477C41.2609 19.0349 41.3242 18.8819 41.3242 18.7224C41.3242 18.563 41.2609 18.41 41.1481 18.2972C41.0353 18.1844 40.8824 18.1211 40.7229 18.1211Z" fill="#060C16"/>
<path d="M37.4748 17.262C37.5538 17.2621 37.632 17.2466 37.705 17.2164C37.778 17.1862 37.8443 17.1419 37.9002 17.086L40.1973 14.7886C40.3068 14.6751 40.3674 14.5232 40.366 14.3655C40.3646 14.2079 40.3013 14.057 40.1898 13.9456C40.0783 13.8341 39.9275 13.7709 39.7698 13.7696C39.6121 13.7682 39.4602 13.8289 39.3468 13.9384L37.0497 16.2356C36.9675 16.3203 36.9118 16.4273 36.8897 16.5433C36.8675 16.6594 36.8798 16.7793 36.925 16.8884C36.9701 16.9976 37.0463 17.0911 37.144 17.1575C37.2417 17.2238 37.3567 17.2602 37.4748 17.262Z" fill="#060C16"/>
<path d="M37.8992 20.3588C37.8433 20.3029 37.777 20.2586 37.7041 20.2284C37.6311 20.1982 37.5529 20.1826 37.4739 20.1826C37.3144 20.1826 37.1615 20.246 37.0487 20.3588C36.9359 20.4715 36.8726 20.6245 36.8726 20.784C36.8726 20.9435 36.9359 21.0964 37.0487 21.2092L39.3458 23.5064C39.4013 23.5638 39.4676 23.6096 39.541 23.6412C39.6144 23.6727 39.6933 23.6893 39.7731 23.69C39.853 23.6907 39.9321 23.6755 40.0061 23.6453C40.08 23.6151 40.1471 23.5704 40.2036 23.514C40.2601 23.4575 40.3047 23.3904 40.335 23.3165C40.3652 23.2426 40.3805 23.1634 40.3798 23.0836C40.3791 23.0037 40.3625 22.9248 40.331 22.8515C40.2995 22.7781 40.2537 22.7117 40.1963 22.6562L37.8992 20.3588Z" fill="#060C16"/>
<path d="M24.8617 27.918C20.6637 27.9723 19.3593 33.5277 23.0577 35.463V39.3779C23.0577 39.8563 23.2478 40.3152 23.5861 40.6535C23.9244 40.9918 24.3833 41.1819 24.8617 41.1819C25.3402 41.1819 25.7991 40.9918 26.1374 40.6535C26.4757 40.3152 26.6658 39.8563 26.6658 39.3779V35.463C30.3639 33.5297 29.0591 27.9705 24.8617 27.918ZM25.8514 34.5101C25.7371 34.5533 25.6387 34.6304 25.5693 34.731C25.4999 34.8317 25.4629 34.9511 25.4631 35.0733V39.3789C25.4631 39.5384 25.3997 39.6913 25.2869 39.8041C25.1742 39.9169 25.0212 39.9803 24.8617 39.9803C24.7022 39.9803 24.5493 39.9169 24.4365 39.8041C24.3237 39.6913 24.2604 39.5384 24.2604 39.3789V35.0733C24.2604 34.9512 24.2233 34.8321 24.1539 34.7317C24.0845 34.6312 23.9862 34.5543 23.8721 34.5111C23.2622 34.2802 22.7527 33.8427 22.4323 33.2748C22.1118 32.7068 22.0008 32.0445 22.1186 31.4031C22.2363 30.7617 22.5754 30.182 23.0766 29.7649C23.5779 29.3478 24.2096 29.1198 24.8617 29.1207C27.9475 29.1609 28.7103 33.3799 25.8514 34.5101Z" fill="#060C16"/>
</svg>
