<svg width="96" height="16" viewBox="0 0 96 16" fill="none" xmlns="http://www.w3.org/2000/svg">
<path d="M7.99937 1.16602C8.20674 1.16602 8.39259 1.29402 8.46652 1.48777L10.0385 5.60758L14.3571 5.81877C14.5606 5.82872 14.7377 5.9611 14.8048 6.15342C14.8719 6.34575 14.8156 6.55956 14.6626 6.69394L11.3759 9.57899L12.5839 14.2064C12.6366 14.4084 12.5583 14.6219 12.3875 14.7418C12.2166 14.8618 11.9892 14.8631 11.8171 14.7449L7.99937 12.1243L4.18162 14.7449C4.00951 14.8631 3.78212 14.8618 3.61129 14.7418C3.44046 14.6219 3.36215 14.4084 3.41487 14.2064L4.62284 9.57899L1.33619 6.69394C1.1831 6.55956 1.12684 6.34575 1.19396 6.15342C1.26108 5.9611 1.43816 5.82872 1.64161 5.81877L5.96024 5.60758L7.53222 1.48777C7.60615 1.29402 7.792 1.16602 7.99937 1.16602Z" fill="#FF7438"/>
<path d="M27.9994 1.16602C28.2067 1.16602 28.3926 1.29402 28.4665 1.48777L30.0385 5.60758L34.3571 5.81877C34.5606 5.82872 34.7377 5.9611 34.8048 6.15342C34.8719 6.34575 34.8156 6.55956 34.6626 6.69394L31.3759 9.57899L32.5839 14.2064C32.6366 14.4084 32.5583 14.6219 32.3875 14.7418C32.2166 14.8618 31.9892 14.8631 31.8171 14.7449L27.9994 12.1243L24.1816 14.7449C24.0095 14.8631 23.7821 14.8618 23.6113 14.7418C23.4405 14.6219 23.3621 14.4084 23.4149 14.2064L24.6228 9.57899L21.3362 6.69394C21.1831 6.55956 21.1268 6.34575 21.194 6.15342C21.2611 5.9611 21.4382 5.82872 21.6416 5.81877L25.9602 5.60758L27.5322 1.48777C27.6061 1.29402 27.792 1.16602 27.9994 1.16602Z" fill="#FF7438"/>
<path d="M47.9994 1.16602C48.2067 1.16602 48.3926 1.29402 48.4665 1.48777L50.0385 5.60758L54.3571 5.81877C54.5606 5.82872 54.7377 5.9611 54.8048 6.15342C54.8719 6.34575 54.8156 6.55956 54.6626 6.69394L51.3759 9.57899L52.5839 14.2064C52.6366 14.4084 52.5583 14.6219 52.3875 14.7418C52.2166 14.8618 51.9892 14.8631 51.8171 14.7449L47.9994 12.1243L44.1816 14.7449C44.0095 14.8631 43.7821 14.8618 43.6113 14.7418C43.4405 14.6219 43.3621 14.4084 43.4149 14.2064L44.6228 9.57899L41.3362 6.69394C41.1831 6.55956 41.1268 6.34575 41.194 6.15342C41.2611 5.9611 41.4382 5.82872 41.6416 5.81877L45.9602 5.60758L47.5322 1.48777C47.6061 1.29402 47.792 1.16602 47.9994 1.16602Z" fill="#FF7438"/>
<path d="M67.9994 1.16602C68.2067 1.16602 68.3926 1.29402 68.4665 1.48777L70.0385 5.60758L74.3571 5.81877C74.5606 5.82872 74.7377 5.9611 74.8048 6.15342C74.8719 6.34575 74.8156 6.55956 74.6626 6.69394L71.3759 9.57899L72.5839 14.2064C72.6366 14.4084 72.5583 14.6219 72.3875 14.7418C72.2166 14.8618 71.9892 14.8631 71.8171 14.7449L67.9994 12.1243L64.1816 14.7449C64.0095 14.8631 63.7821 14.8618 63.6113 14.7418C63.4405 14.6219 63.3621 14.4084 63.4149 14.2064L64.6228 9.57899L61.3362 6.69394C61.1831 6.55956 61.1268 6.34575 61.194 6.15342C61.2611 5.9611 61.4382 5.82872 61.6416 5.81877L65.9602 5.60758L67.5322 1.48777C67.6061 1.29402 67.792 1.16602 67.9994 1.16602Z" fill="#FF7438"/>
<path d="M87.9994 1.16602C88.2067 1.16602 88.3926 1.29402 88.4665 1.48777L90.0385 5.60758L94.3571 5.81877C94.5606 5.82872 94.7377 5.9611 94.8048 6.15342C94.8719 6.34575 94.8156 6.55956 94.6626 6.69394L91.3759 9.57899L92.5839 14.2064C92.6366 14.4084 92.5583 14.6219 92.3875 14.7418C92.2166 14.8618 91.9892 14.8631 91.8171 14.7449L87.9994 12.1243L84.1816 14.7449C84.0095 14.8631 83.7821 14.8618 83.6113 14.7418C83.4405 14.6219 83.3621 14.4084 83.4149 14.2064L84.6228 9.57899L81.3362 6.69394C81.1831 6.55956 81.1268 6.34575 81.194 6.15342C81.2611 5.9611 81.4382 5.82872 81.6416 5.81877L85.9602 5.60758L87.5322 1.48777C87.6061 1.29402 87.792 1.16602 87.9994 1.16602Z" fill="#FF7438"/>
</svg>
