<svg width="136" height="24" viewBox="0 0 136 24" fill="none" xmlns="http://www.w3.org/2000/svg">
<path d="M11.9991 1.74902C12.3101 1.74902 12.5889 1.94103 12.6998 2.23165L15.0578 8.41137L21.5357 8.72816C21.8409 8.74308 22.1065 8.94165 22.2072 9.23013C22.3079 9.51862 22.2235 9.83934 21.9938 10.0409L17.0639 14.3685L18.8758 21.3096C18.9549 21.6126 18.8374 21.9328 18.5812 22.1128C18.3249 22.2927 17.9838 22.2946 17.7257 22.1174L11.9991 18.1865L6.27244 22.1174C6.01427 22.2946 5.67318 22.2927 5.41693 22.1128C5.16068 21.9328 5.04322 21.6126 5.12231 21.3096L6.93426 14.3685L2.00428 10.0409C1.77465 9.83934 1.69026 9.51862 1.79094 9.23013C1.89162 8.94165 2.15724 8.74308 2.46242 8.72816L8.94036 8.41136L11.2983 2.23165C11.4092 1.94103 11.688 1.74902 11.9991 1.74902Z" fill="#FF7438"/>
<path d="M39.9991 1.74902C40.3101 1.74902 40.5889 1.94103 40.6998 2.23165L43.0578 8.41137L49.5357 8.72816C49.8409 8.74308 50.1065 8.94165 50.2072 9.23013C50.3079 9.51862 50.2235 9.83934 49.9938 10.0409L45.0639 14.3685L46.8758 21.3096C46.9549 21.6126 46.8374 21.9328 46.5812 22.1128C46.3249 22.2927 45.9838 22.2946 45.7257 22.1174L39.9991 18.1865L34.2724 22.1174C34.0143 22.2946 33.6732 22.2927 33.4169 22.1128C33.1607 21.9328 33.0432 21.6126 33.1223 21.3096L34.9343 14.3685L30.0043 10.0409C29.7747 9.83934 29.6903 9.51862 29.7909 9.23013C29.8916 8.94165 30.1572 8.74308 30.4624 8.72816L36.9404 8.41136L39.2983 2.23165C39.4092 1.94103 39.688 1.74902 39.9991 1.74902Z" fill="#FF7438"/>
<path d="M67.9991 1.74902C68.3101 1.74902 68.5889 1.94103 68.6998 2.23165L71.0578 8.41137L77.5357 8.72816C77.8409 8.74308 78.1065 8.94165 78.2072 9.23013C78.3079 9.51862 78.2235 9.83934 77.9938 10.0409L73.0639 14.3685L74.8758 21.3096C74.9549 21.6126 74.8374 21.9328 74.5812 22.1128C74.3249 22.2927 73.9838 22.2946 73.7257 22.1174L67.9991 18.1865L62.2724 22.1174C62.0143 22.2946 61.6732 22.2927 61.4169 22.1128C61.1607 21.9328 61.0432 21.6126 61.1223 21.3096L62.9343 14.3685L58.0043 10.0409C57.7747 9.83934 57.6903 9.51862 57.7909 9.23013C57.8916 8.94165 58.1572 8.74308 58.4624 8.72816L64.9404 8.41136L67.2983 2.23165C67.4092 1.94103 67.688 1.74902 67.9991 1.74902Z" fill="#FF7438"/>
<path d="M95.9991 1.74902C96.3101 1.74902 96.5889 1.94103 96.6998 2.23165L99.0578 8.41137L105.536 8.72816C105.841 8.74308 106.106 8.94165 106.207 9.23013C106.308 9.51862 106.223 9.83934 105.994 10.0409L101.064 14.3685L102.876 21.3096C102.955 21.6126 102.837 21.9328 102.581 22.1128C102.325 22.2927 101.984 22.2946 101.726 22.1174L95.9991 18.1865L90.2724 22.1174C90.0143 22.2946 89.6732 22.2927 89.4169 22.1128C89.1607 21.9328 89.0432 21.6126 89.1223 21.3096L90.9343 14.3685L86.0043 10.0409C85.7747 9.83934 85.6903 9.51862 85.7909 9.23013C85.8916 8.94165 86.1572 8.74308 86.4624 8.72816L92.9404 8.41136L95.2983 2.23165C95.4092 1.94103 95.688 1.74902 95.9991 1.74902Z" fill="#FF7438"/>
<path d="M123.999 1.74902C124.31 1.74902 124.589 1.94103 124.7 2.23165L127.058 8.41137L133.536 8.72816C133.841 8.74308 134.106 8.94165 134.207 9.23013C134.308 9.51862 134.223 9.83934 133.994 10.0409L129.064 14.3685L130.876 21.3096C130.955 21.6126 130.837 21.9328 130.581 22.1128C130.325 22.2927 129.984 22.2946 129.726 22.1174L123.999 18.1865L118.272 22.1174C118.014 22.2946 117.673 22.2927 117.417 22.1128C117.161 21.9328 117.043 21.6126 117.122 21.3096L118.934 14.3685L114.004 10.0409C113.775 9.83934 113.69 9.51862 113.791 9.23013C113.892 8.94165 114.157 8.74308 114.462 8.72816L120.94 8.41136L123.298 2.23165C123.409 1.94103 123.688 1.74902 123.999 1.74902Z" fill="#FF7438"/>
</svg>
