<svg width="52" height="52" viewBox="0 0 52 52" fill="none" xmlns="http://www.w3.org/2000/svg">
<path d="M36.6452 46.3773C35.5484 46.3773 34.4515 46.1986 33.3871 45.8411L24.4902 42.7942C23.6615 42.5098 22.8652 42.1198 22.134 41.6242L12.8877 35.4411C12.0671 34.8967 11.539 34.0192 11.4415 33.0361C11.344 32.053 11.6934 31.0861 12.3921 30.3873C13.2209 29.5505 14.4477 29.2255 15.5852 29.5423C15.6259 29.5505 15.6665 29.5667 15.7071 29.583L20.574 31.8173C20.6146 31.8255 20.6634 31.8092 20.704 31.7361C20.7609 31.6305 20.704 31.5736 20.6796 31.5492L9.19899 20.0686C7.65524 18.5248 7.64712 16.0142 9.19087 14.4705C9.94649 13.7148 10.9377 13.3005 11.994 13.3005C13.0502 13.3005 14.0415 13.7148 14.7971 14.4705L19.6152 19.2886C19.7452 18.5167 20.1027 17.7773 20.6959 17.1842C21.9065 15.9736 23.7346 15.7298 25.189 16.4692C25.2784 15.6161 25.644 14.7792 26.3021 14.1211C27.464 12.9592 29.1946 12.6911 30.6165 13.3167C30.6896 12.3986 31.0796 11.5455 31.7377 10.8873C33.249 9.37609 35.7109 9.37609 37.2221 10.8873L45.534 19.1992C46.4521 20.1173 47.1834 21.198 47.6952 22.3923L50.1409 28.1123C51.774 31.9473 50.929 36.3267 47.9796 39.2761L43.8521 43.4036C41.9265 45.3373 39.3021 46.3773 36.6452 46.3773ZM14.7159 31.0536C14.2771 31.0536 13.8546 31.2242 13.5377 31.5411C13.1884 31.8905 13.0096 32.3861 13.0584 32.8817C13.1071 33.3773 13.3752 33.8242 13.7896 34.1005L23.0359 40.2836C23.6534 40.698 24.3196 41.023 25.0184 41.2667L33.9152 44.3136C36.9702 45.3617 40.4234 44.5573 42.7065 42.2742L46.834 38.1467C49.3121 35.6686 50.019 31.988 48.6459 28.7705L46.2002 23.0505C45.7696 22.043 45.1602 21.1411 44.3884 20.3692L36.0765 12.0411C35.199 11.1636 33.769 11.1636 32.8915 12.0411C32.469 12.4636 32.2334 13.0323 32.2334 13.6336C32.2334 14.2267 32.4609 14.7873 32.8752 15.2098L35.6621 17.9967C35.979 18.3136 35.979 18.8255 35.6621 19.1423C35.3452 19.4592 34.8334 19.4592 34.5165 19.1423L31.754 16.3798C31.7459 16.3717 31.7377 16.3636 31.7296 16.3555L30.649 15.2748C29.7715 14.3973 28.3415 14.3973 27.464 15.2748C26.5865 16.1523 26.5865 17.5823 27.464 18.4598L30.0802 21.0761C30.2427 21.2386 30.3159 21.4417 30.3159 21.653C30.3159 21.8642 30.2346 22.0673 30.0802 22.2298C29.7634 22.5467 29.2515 22.5467 28.9346 22.2298L25.0509 18.3461C24.1734 17.4686 22.7434 17.4686 21.8659 18.3461C20.9884 19.2236 20.9884 20.6536 21.8659 21.5311L24.4902 24.1555C24.7827 24.448 24.8071 24.9192 24.5471 25.2442C24.279 25.5692 23.8159 25.6342 23.4665 25.4067C23.4259 25.3742 23.3771 25.3417 23.3365 25.3011L13.6677 15.6323C12.774 14.7386 11.2546 14.7386 10.3609 15.6323C9.45087 16.5423 9.45899 18.0211 10.369 18.9311L21.8496 30.4117C22.4265 30.9886 22.5402 31.858 22.1259 32.5648C21.7115 33.2717 20.9071 33.6048 20.1109 33.3855C20.0702 33.3773 20.0296 33.3611 19.989 33.3448L15.1059 31.1023C14.9677 31.0617 14.8459 31.0536 14.7159 31.0536Z" fill="#060C16"/>
<path d="M7.34633 13.4456C7.13508 13.4456 6.93195 13.3644 6.76945 13.21L3.8607 10.3012C3.54383 9.98437 3.54383 9.4725 3.8607 9.15562C4.17758 8.83875 4.68945 8.83875 5.00633 9.15562L7.91508 12.0644C8.23195 12.3812 8.23195 12.8931 7.91508 13.21C7.7607 13.3644 7.54945 13.4456 7.34633 13.4456Z" fill="#060C16"/>
<path d="M17.42 13.4456C17.2087 13.4456 17.0056 13.3644 16.8431 13.21C16.5263 12.8931 16.5263 12.3812 16.8431 12.0644L19.7519 9.15562C20.0687 8.83875 20.5806 8.83875 20.8975 9.15562C21.2144 9.4725 21.2144 9.98437 20.8975 10.3012L17.9887 13.21C17.8344 13.3644 17.6231 13.4456 17.42 13.4456Z" fill="#060C16"/>
<path d="M4.43758 26.4222C4.22633 26.4222 4.0232 26.3409 3.8607 26.1866C3.54383 25.8697 3.54383 25.3578 3.8607 25.0409L6.76945 22.1322C7.08633 21.8153 7.5982 21.8153 7.91508 22.1322C8.23195 22.4491 8.23195 22.9609 7.91508 23.2778L5.00633 26.1866C4.85195 26.3491 4.6407 26.4222 4.43758 26.4222Z" fill="#060C16"/>
<path d="M12.3848 11.3573C11.9379 11.3573 11.5723 10.9917 11.5723 10.5448V6.43359C11.5723 5.98672 11.9379 5.62109 12.3848 5.62109C12.8316 5.62109 13.1973 5.98672 13.1973 6.43359V10.5448C13.1973 10.9917 12.8316 11.3573 12.3848 11.3573Z" fill="#060C16"/>
<path d="M5.25773 18.4844H1.14648C0.699609 18.4844 0.333984 18.1187 0.333984 17.6719C0.333984 17.225 0.699609 16.8594 1.14648 16.8594H5.25773C5.70461 16.8594 6.07023 17.225 6.07023 17.6719C6.07023 18.1187 5.70461 18.4844 5.25773 18.4844Z" fill="#060C16"/>
</svg>
