<svg width="68" height="68" viewBox="0 0 68 68" fill="none" xmlns="http://www.w3.org/2000/svg">
<rect width="68" height="68" rx="16" fill="url(#paint0_linear_218_3632)"/>
<path fill-rule="evenodd" clip-rule="evenodd" d="M34.3546 21.1667C36.037 19.6664 37.7815 18.4398 39.7123 18.0969C41.7602 17.7334 43.9083 18.3552 46.2174 20.655L46.2894 20.7348C46.5928 21.1109 46.8864 21.5118 47.1658 21.9373C48.4375 23.8469 49.273 26.6457 49.5821 29.141C50.1749 33.9214 48.3175 39.0518 46.0522 43.183C43.9379 47.0361 41.2224 50 38.9599 50C37.0405 50 35.471 48.6846 34.0624 46.8752C33.0519 48.4051 31.8296 50 29.7492 50C28.1868 50 26.6018 48.7439 25.1988 47.0559C23.2116 44.665 21.4954 41.3327 20.8969 39.8211L20.7911 39.5529L20.7925 39.5444C20.2787 38.2107 19.8496 36.843 19.542 35.5156C19.2273 34.155 19.0339 32.817 19 31.5821V31.5411C19.0127 30.5151 19.0635 29.5222 19.1524 28.6464C19.2343 27.8143 19.3528 27.0734 19.5038 26.4876L19.5208 26.4255C19.8016 25.374 20.1898 24.3734 20.6654 23.4348C21.1552 22.4708 21.7395 21.5724 22.4028 20.7524L22.4706 20.6727C24.7825 18.3608 26.9348 17.7334 28.9884 18.0955C30.9221 18.4363 32.6708 19.6642 34.3546 21.1667ZM26.6922 45.8138C27.7578 47.0954 28.8586 48.0495 29.7493 48.0495C30.9828 48.0495 31.92 46.607 32.7245 45.3693L32.8572 45.1674C32.7203 44.9586 32.5848 44.7468 32.4507 44.5351L32.4281 44.497L32.4041 44.4589L32.3801 44.4222V44.4208L32.3576 44.3841L32.3336 44.3473L32.3096 44.3092L32.1938 44.1229L32.1755 44.0919L32.1699 44.0849L32.1473 44.0468L32.1247 44.01L32.1007 43.9719L32.0781 43.9338L32.0739 43.9282L32.0541 43.8971L32.0315 43.859L32.0076 43.8209L31.985 43.7842L31.9723 43.763L31.9624 43.7461L31.9384 43.7079L31.9158 43.6712L31.8932 43.6331L31.8707 43.5978L31.8692 43.595L31.8467 43.5583L31.8241 43.5202L31.8015 43.4821L31.7775 43.4454L31.7704 43.4312L31.7549 43.4073L31.7323 43.3691L31.7098 43.3324L31.6872 43.2943L31.6702 43.2661L31.6632 43.2562L31.6406 43.2195L31.618 43.1828L31.5954 43.1433L31.5729 43.1066L31.57 43.1009L31.5503 43.0685L31.5277 43.0304L31.5037 42.9937L31.4811 42.9569L31.4684 42.9344L31.4586 42.9174L31.4374 42.8807L31.4134 42.844L31.3908 42.8059L31.3696 42.7692L31.3682 42.7678L31.3033 42.6605L31.2384 42.5532L31.237 42.5518L31.172 42.4446L31.1071 42.3373V42.3358L30.9124 42.0155L30.8474 41.9096L30.7825 41.8037V41.8023L30.7176 41.6979L30.7021 41.6725L30.3944 41.1771V41.1757L30.3309 41.0741L30.2025 40.8722V40.8708L30.0091 40.5744V40.573L29.9456 40.4757C29.5406 39.8589 29.1397 39.2929 28.7431 38.8173L28.681 38.7425L28.6175 38.6705C28.0727 38.0453 27.4884 37.5823 26.7375 37.2944C26.0205 37.0135 25.3896 36.9458 24.8575 37.0545H24.8533L24.753 37.0785L24.7389 37.0827L24.6317 37.1137L24.6246 37.1152L24.6077 37.1194L24.5964 37.125L24.5413 37.1448C24.2859 37.2393 24.0488 37.3819 23.8357 37.571C23.9359 37.4807 24.0431 37.4016 24.1546 37.3311L24.1447 37.3028L24.1348 37.2746L24.125 37.245L24.1136 37.2168V37.2154L24.1038 37.1871L24.0939 37.1589L24.084 37.1307L24.0741 37.1011L24.0642 37.0714L24.0544 37.0433L24.0445 37.0136L24.0346 36.984L24.0248 36.9572V36.9558L24.0149 36.9276L24.005 36.8993V36.8979L23.9951 36.8697V36.8683L23.9853 36.8401L23.9754 36.8119L23.9655 36.7808L23.9556 36.7526L23.9471 36.7244H23.9457L23.9373 36.6948L23.9274 36.6651L23.9175 36.6369L23.9076 36.6073V36.6059L23.8992 36.5777H23.8977L23.8893 36.548L23.8808 36.5184H23.8794L23.8709 36.4902L23.8611 36.4606V36.4591L23.8512 36.431L23.8427 36.4013L23.8328 36.3717L23.8229 36.3435V36.342L23.8145 36.3124L23.8046 36.2842V36.2828L23.7961 36.2546V36.2532L23.7863 36.2249L23.7778 36.1953V36.1939L23.7679 36.1657V36.1643L23.7594 36.1347L23.7496 36.1065L23.7411 36.0754L23.7312 36.0472L23.7227 36.0162L23.7143 35.9879L23.7129 35.9865L23.7058 35.9569H23.7044L23.6959 35.9273L23.6875 35.8977H23.686L23.679 35.868L23.6776 35.8666L23.6705 35.8384H23.6691L23.6606 35.8088V35.8074L23.6522 35.7791V35.7777L23.6423 35.7481L23.6338 35.7185V35.7171L23.6268 35.6889L23.6254 35.6874L23.6169 35.6578L23.6084 35.6282V35.6268L23.6 35.5986V35.5972L23.5915 35.5675L23.583 35.5379V35.5365L23.5746 35.5076V35.5068L23.5661 35.4772L23.5647 35.4765L23.5576 35.4476V35.4461C23.6592 35.3982 23.7637 35.3558 23.8696 35.3163C26.077 34.5061 28.3169 35.5322 29.8171 37.1031L29.8934 37.185V37.1864L29.9696 37.2697L30.0458 37.3544V37.3558L30.122 37.4419L30.1982 37.5308V37.5322L30.273 37.6197V37.6211L30.3478 37.7128L30.4226 37.8046L30.424 37.806L30.4974 37.8991L30.5722 37.9951L30.647 38.0911L30.7204 38.1884L30.7952 38.2872V38.2886L30.8686 38.3874L30.942 38.489L31.0154 38.5907L31.0887 38.6951L31.1607 38.7996L31.3075 39.0099V39.0113L31.3795 39.1186H31.3809L31.4529 39.2258L31.5249 39.3345V39.3359L31.7423 39.6662L31.8142 39.7791L32.0133 40.0938L32.0302 40.1192L32.1022 40.2336L32.1742 40.3493L32.2461 40.465L32.3181 40.5807L32.3901 40.6978L32.4621 40.815L32.534 40.9321V40.9335L32.6046 41.0507L32.606 41.0521L32.6766 41.1678L32.678 41.1692L32.7486 41.2864L32.75 41.2877L32.8205 41.4049L32.822 41.4077L32.8939 41.5248V41.5263L32.9645 41.6448H32.9659L33.0379 41.7634L33.0647 41.8085L33.0929 41.8551L33.1212 41.9017L33.1254 41.9073L33.148 41.9468L33.1762 41.9934L33.2044 42.04L33.2115 42.0527L33.2326 42.0851L33.2595 42.1303L33.2877 42.1783L33.299 42.1952L33.3159 42.2234L33.3427 42.2686L33.371 42.3152L33.3865 42.3406L33.3992 42.3617L33.4274 42.4069L33.4556 42.4521L33.474 42.4831L33.4825 42.5L33.5107 42.5452L33.5389 42.5904L33.5615 42.6271L33.5671 42.6355L33.5954 42.6821L33.6236 42.7287L33.649 42.771L33.6504 42.7738L33.6786 42.819L33.7069 42.8642L33.7351 42.9107L33.7379 42.915L33.7633 42.9573L33.7915 43.0025L33.8198 43.0476L33.8254 43.0575L33.8466 43.0928L33.8748 43.1379L33.903 43.1831L33.9129 43.2001L33.9313 43.2283L33.9595 43.2735L33.9877 43.3186L34.0018 43.3412L34.0159 43.3638L34.0442 43.4075L34.0724 43.4527L34.0907 43.4823L34.0992 43.4965L34.1274 43.5416L34.1557 43.5868L34.1796 43.6235L34.1839 43.6305L34.2121 43.6743L34.2403 43.7194L34.2686 43.7632L34.2968 43.8069L34.325 43.8507L34.3532 43.8944L34.3575 43.9015L34.3815 43.9368L34.4083 43.9819L34.4365 44.0243L34.4464 44.0398L34.4661 44.0667L34.493 44.1118L34.5212 44.1542L34.5367 44.1768L34.5494 44.1965L34.6624 44.3659L34.6892 44.4082L34.716 44.4478L34.7174 44.4506L34.7456 44.4915L34.7738 44.5324L34.8021 44.5748L34.8303 44.6157L34.9813 44.8373C36.2473 46.6594 37.567 48.0497 38.96 48.0497C40.4448 48.0497 42.5464 45.5261 44.3459 42.246C46.264 38.7486 48.0466 34.0698 47.7163 30.0099C47.4396 26.5993 45.9845 22.3164 43.0658 20.627C41.9889 20.0038 40.991 19.8486 40.0468 20.0165C38.6044 20.2727 37.1873 21.2663 35.7816 22.5048L35.7971 22.5203L35.8211 22.5443L35.8451 22.5669L35.9171 22.6368L35.934 22.6537L35.941 22.66L35.9876 22.7059L36.0116 22.7292L36.0356 22.7532L36.0596 22.7758L36.0836 22.7998L36.0892 22.8054L36.1076 22.8224L36.1316 22.8457L36.1556 22.8697L36.1683 22.8817L36.1796 22.893L36.2036 22.9163L36.5381 23.2444C37.9791 24.6551 39.4159 26.0637 40.8584 26.9458L40.9219 26.9846L40.9346 26.9923L41.0108 27.0368L41.0814 27.0777L41.087 27.0813L41.1096 27.094L41.1618 27.1236L41.2028 27.1462L41.2381 27.166L41.2959 27.197L41.3143 27.2069L41.3905 27.2464C42.1188 27.6226 42.7751 27.7955 43.3481 27.7955H43.3707L43.3932 27.7947H43.4158L43.4384 27.794L43.461 27.7926L43.4822 27.7919L43.5047 27.7905H43.5062L43.5273 27.7891L43.5499 27.7876L43.5711 27.7862H43.5725L43.5937 27.7841L43.6148 27.782H43.6162L43.636 27.7799H43.6374L43.6586 27.777L43.6797 27.7742L43.7009 27.7721H43.7023L43.7221 27.7693L43.7235 27.7685L43.7433 27.7657L43.7447 27.765L43.7644 27.7622H43.7658L43.7856 27.7587L43.787 27.7579C44.4856 27.6443 44.9839 27.2484 45.3325 26.7177C45.6092 27.3712 45.8406 28.0691 46.0199 28.8122C45.914 28.8976 45.8025 28.9802 45.6839 29.0585C45.4397 29.218 45.1829 29.3514 44.9119 29.4572L44.878 29.4713H44.8766L44.8413 29.484L44.8061 29.4975L44.7708 29.5102H44.7694L44.7341 29.5229L44.6988 29.5349H44.6974L44.6621 29.5462L44.6254 29.5575L44.5901 29.5688H44.5887L44.5534 29.5793H44.552L44.5167 29.5899H44.5153L44.4786 29.5998L44.4419 29.6097L44.4052 29.6195L44.3671 29.628L44.3304 29.6365L44.2923 29.6456L44.2542 29.6534L44.2161 29.6611L44.1794 29.6689L44.1399 29.6759L44.1018 29.683L44.0637 29.6893L44.0256 29.695L43.986 29.7013L43.9479 29.7062L43.9084 29.7119L43.8689 29.7161L43.8294 29.7204L43.7913 29.7246L43.7503 29.7281L43.7108 29.7316L43.6713 29.7345L43.6318 29.7373L43.5909 29.7394L43.5514 29.7416L43.5104 29.743L43.4709 29.7451H43.43L43.3891 29.7458H43.3481H43.3072L43.2663 29.7451H43.2253L43.1844 29.743H43.183L43.1421 29.7416L43.1011 29.7394L43.0602 29.7373L43.0179 29.7345L42.9769 29.7316H42.9755L42.9346 29.7281L42.8923 29.7246L42.8499 29.7204L42.8076 29.7154L42.7652 29.7112L42.7229 29.7055L42.6806 29.6999L42.6382 29.6943H42.6368L42.5945 29.6872L42.5507 29.6809L42.5084 29.6731L42.466 29.6661H42.4646L42.4223 29.6583H42.4209L42.3785 29.6506H42.3771L42.3348 29.6414L42.291 29.6329L42.2473 29.6238L42.2035 29.6132L42.1584 29.6033L42.1146 29.5934L42.0709 29.5822H42.0695L42.0257 29.5715L41.982 29.5588H41.9806L41.9368 29.5468L41.8916 29.5349L41.8479 29.5214L41.8027 29.5087H41.8013L41.7575 29.4946H41.7561L41.7124 29.4812H41.711L41.6658 29.4664L41.6206 29.4515L41.5754 29.436L41.5303 29.4212L41.4837 29.405L41.4385 29.388L41.392 29.3718L41.3468 29.3549L41.3002 29.3372L41.2536 29.3196L41.207 29.3012L41.1605 29.2822L41.1139 29.2624L41.0673 29.2434L41.0207 29.2229L40.9742 29.2032L40.9276 29.182L40.8796 29.1608L40.8316 29.1396L40.7851 29.1171L40.7371 29.0945L40.6905 29.0719L40.6425 29.0486L40.5945 29.0253L40.5465 29.0006L40.5 28.9766C40.2388 28.8418 39.9834 28.6943 39.7294 28.5341L39.7152 28.5256L39.7011 28.5165L39.6715 28.4988L39.6433 28.4812L39.6292 28.4713L39.6164 28.4636C39.3059 28.2674 39.0039 28.0571 38.7259 27.839H38.716L38.4817 27.6499L38.4041 27.5885H38.3927L37.9792 27.2441L37.9693 27.242L37.6997 27.0056L37.6955 27.0014L37.6771 26.9851C37.1973 26.5702 36.7231 26.1291 36.2516 25.6775L36.2446 25.6711L36.2262 25.6535C35.45 24.9195 34.6864 24.168 33.9285 23.4235L33.92 23.4157L33.9045 23.4009L33.6914 23.1998L33.1565 22.7086C31.6745 21.3748 30.1784 20.2838 28.6541 20.0149C27.2173 19.7623 25.6521 20.2584 23.8723 22.0283C23.312 22.7304 22.818 23.494 22.403 24.3112C21.9966 25.1115 21.6635 25.9696 21.4165 26.8757L21.4024 26.9315C21.2669 27.4361 21.1624 28.0917 21.0876 28.8376C21.0044 29.6647 20.9564 30.5919 20.9436 31.5383V31.5531C21.0861 36.3476 23.6421 42.1442 26.6922 45.8138Z" fill="#060C16"/>
<defs>
<linearGradient id="paint0_linear_218_3632" x1="68" y1="34" x2="0" y2="34" gradientUnits="userSpaceOnUse">
<stop stop-color="#CCE2F9"/>
<stop offset="1" stop-color="#C8F1ED"/>
</linearGradient>
</defs>
</svg>
