<svg width="48" height="48" viewBox="0 0 48 48" fill="none" xmlns="http://www.w3.org/2000/svg">
<rect width="48" height="48" rx="11.0769" fill="#EAF2FF"/>
<g clip-path="url(#clip0_4008_2070)">
<rect width="33.2308" height="33.2308" transform="translate(7.38464 7.38477)" fill="#EAF2FF"/>
<path d="M39.6545 22.5884L34.4027 14.3563C34.2207 14.072 33.9334 13.8715 33.6038 13.7987C33.2742 13.7258 32.9292 13.7866 32.6442 13.9676L30.0661 15.6122C29.8273 15.7651 29.6464 15.9932 29.5519 16.2605C29.4573 16.5278 29.4546 16.8189 29.5441 17.0879C29.4292 17.0894 29.3102 17.0869 29.1871 17.0804C28.6169 17.0493 28.2621 16.8755 27.8866 16.6916C26.9325 16.2243 26.1335 15.9985 24.1016 17.0973C23.3467 16.1173 22.0984 16.4267 20.9833 16.7037C20.1253 16.9167 19.2426 17.1358 18.4309 16.9333C18.5404 16.6579 18.5506 16.3531 18.4598 16.071C18.3691 15.7889 18.183 15.5472 17.9335 15.3874L15.3552 13.7426C15.0703 13.5614 14.7252 13.5005 14.3955 13.5734C14.0659 13.6463 13.7786 13.847 13.5967 14.1314L8.34489 22.3636C8.16393 22.6485 8.10322 22.9935 8.17608 23.3231C8.24893 23.6527 8.4494 23.9399 8.7336 24.122L11.3118 25.7667C11.5966 25.9481 11.9418 26.0091 12.2715 25.9362C12.6012 25.8633 12.8885 25.6626 13.0703 25.378L13.4064 24.8513C13.4307 24.8754 13.455 24.8983 13.4793 24.9201C12.9378 25.5242 12.4437 26.2176 12.5221 27.128C12.578 27.7771 12.8127 28.2577 13.2198 28.5564C13.5845 28.8239 14.0728 28.9287 14.6756 28.8692C14.758 29.3964 14.9644 29.8181 15.2922 30.127C15.6715 30.4847 16.2019 30.6783 16.8725 30.7046C16.9998 31.1651 17.2368 31.5174 17.5804 31.755C18.0322 32.0677 18.6285 32.1627 19.3946 32.0424C19.7275 32.856 20.3877 33.2809 21.328 33.2809C21.3614 33.2809 21.3953 33.2803 21.4294 33.2792C21.9354 33.2633 22.4383 32.8885 22.8126 32.5209C23.8714 33.25 24.7907 33.6172 25.5574 33.6172C25.7877 33.619 26.0167 33.5822 26.2349 33.5083C26.8034 33.3123 27.2338 32.8709 27.5184 32.1935C28.1667 32.3999 28.7327 32.3859 29.2059 32.1509C29.7182 31.8964 30.0977 31.3922 30.3372 30.6497C30.9602 30.7138 31.4704 30.5984 31.8578 30.3048C32.2252 30.0265 32.4669 29.6 32.5794 29.0333C33.4592 29.1286 34.2005 28.9077 34.7876 28.3743C34.8149 28.3495 34.839 28.3215 34.8595 28.2909C35.2903 27.6478 35.4452 27.0209 35.3204 26.4275C35.2684 26.1888 35.1747 25.961 35.0437 25.7547C35.2441 25.9844 35.5202 26.1346 35.8219 26.1781C36.1236 26.2215 36.4309 26.1554 36.6879 25.9916L39.2662 24.3468C39.5504 24.1648 39.7509 23.8775 39.8238 23.5479C39.8966 23.2183 39.8355 22.8733 39.6545 22.5884ZM27.487 17.5075C27.8862 17.7031 28.3831 17.9465 29.1376 17.9878C29.4441 18.0061 29.7516 17.9987 30.0569 17.9656L34.2557 24.5474C34.1911 24.6323 34.107 24.7005 34.0105 24.746C33.972 24.72 33.9334 24.6945 33.8933 24.6691C33.5322 24.4443 32.9889 24.0572 32.3598 23.6091C29.0571 21.2562 26.6393 19.6583 25.602 20.5334C23.1103 22.6354 21.5922 23.1361 21.0496 22.9264C20.9626 22.8927 20.8699 22.8303 20.8419 22.6218C20.738 21.8403 21.7087 19.9192 24.192 18.0875C26.2497 16.9015 26.7691 17.1559 27.487 17.5075ZM12.3045 24.8892C12.2524 24.9707 12.1701 25.0281 12.0756 25.049C11.9812 25.0699 11.8823 25.0524 11.8007 25.0005L9.22252 23.3558C9.14103 23.3037 9.08353 23.2214 9.06265 23.127C9.04177 23.0325 9.05921 22.9337 9.11115 22.852L14.3627 14.6198C14.4148 14.5383 14.4971 14.4808 14.5916 14.46C14.686 14.4391 14.7849 14.4565 14.8665 14.5085L17.4444 16.1531C17.5255 16.2056 17.5826 16.2878 17.6035 16.3821C17.6243 16.4764 17.6072 16.5751 17.5558 16.6568L12.3045 24.8892ZM13.7575 27.8236C13.5709 27.6867 13.46 27.4264 13.4276 27.0499C13.3681 26.3583 13.9055 25.7873 14.4744 25.1826C14.5871 25.0628 14.7037 24.9389 14.8133 24.8157C14.9206 24.692 15.06 24.6003 15.2161 24.5508C15.3722 24.5014 15.539 24.496 15.6979 24.5355C15.8807 24.5806 16.0493 24.6707 16.1883 24.7977C16.3274 24.9247 16.4324 25.0844 16.4938 25.2624C16.3388 25.7394 15.928 26.6355 14.8444 27.928C14.3496 28.0187 13.9754 27.9835 13.7575 27.8236ZM15.5499 28.5006C16.7705 27.0415 17.2185 26.0018 17.3815 25.4681C17.8199 25.0114 18.5766 24.8125 19.1169 25.0255C19.4978 25.1758 19.6913 25.5069 19.6937 26.0098L17.0055 29.7992C16.5125 29.7954 16.1466 29.6838 15.9155 29.4659C15.6991 29.2619 15.5769 28.937 15.5499 28.5006ZM18.0973 31.0076C17.9105 30.8784 17.7879 30.6642 17.7234 30.3573L20.409 26.5719C21.0194 26.4713 21.4966 26.5668 21.7323 26.8427C21.9844 27.1376 21.9937 27.6688 21.7614 28.306C21.0919 29.1184 20.5625 29.7612 20.1731 30.2346C19.8356 30.6449 19.581 30.9539 19.4537 31.108C18.841 31.2331 18.3738 31.1989 18.0973 31.0076ZM21.4009 32.3706C20.7664 32.3913 20.3994 32.164 20.2073 31.6222C20.3266 31.4776 20.5294 31.2314 20.8748 30.8117C21.2375 30.371 21.7216 29.7832 22.3269 29.0483C22.8887 29.2164 23.2135 29.4558 23.2932 29.7622C23.359 30.0154 23.1489 30.659 22.6299 31.3524C22.1421 32.0045 21.6328 32.3633 21.4009 32.3706ZM34.1357 27.7372C33.6893 28.1189 33.1096 28.231 32.3689 28.0804L27.4156 24.7334C27.3662 24.6996 27.3105 24.6759 27.2519 24.6637C27.1933 24.6515 27.1329 24.651 27.0741 24.6622C27.0153 24.6734 26.9592 24.6961 26.9093 24.7291C26.8593 24.762 26.8163 24.8045 26.7827 24.8541C26.7492 24.9037 26.7258 24.9595 26.7139 25.0181C26.702 25.0768 26.7018 25.1373 26.7134 25.196C26.7249 25.2548 26.7479 25.3107 26.7812 25.3605C26.8144 25.4103 26.8571 25.453 26.9069 25.4863L31.7092 28.7319C31.6501 29.1383 31.516 29.4236 31.3087 29.5806C31.0686 29.7624 30.6875 29.804 30.1786 29.7074L26.3597 27.2156L25.8632 27.9766L29.4825 30.3381C29.3223 30.8558 29.0941 31.1918 28.801 31.3373C28.4816 31.4958 28.0331 31.4506 27.468 31.2037L25.2142 29.6015C25.1159 29.5326 24.9944 29.5053 24.8761 29.5257C24.7579 29.546 24.6525 29.6123 24.5829 29.7102C24.5134 29.808 24.4854 29.9293 24.505 30.0477C24.5246 30.1661 24.5903 30.2719 24.6877 30.3421L26.7062 31.7768C26.5234 32.243 26.2661 32.5362 25.9386 32.6495C25.3659 32.847 24.4952 32.5619 23.4085 31.8273C23.6992 31.4249 24.3865 30.3576 24.1723 29.5337C24.0174 28.9383 23.5354 28.5 22.7371 28.2269C22.9424 27.4251 22.8356 26.7354 22.4229 26.2526C22.0198 25.7808 21.3742 25.5685 20.5739 25.636C20.4687 24.9444 20.0757 24.4273 19.45 24.1806C18.7149 23.8908 17.805 24.0353 17.1195 24.5051C16.8374 24.0747 16.4011 23.7687 15.9003 23.6502C15.5827 23.5745 15.2505 23.5868 14.9393 23.6857C14.6281 23.7847 14.3498 23.9666 14.1343 24.2119C14.1222 24.2255 14.1093 24.2393 14.097 24.2529C14.0304 24.193 13.9687 24.1279 13.9125 24.0582L17.9449 17.7368C19.0563 18.118 20.1901 17.8366 21.2021 17.5852C22.3815 17.2924 22.9693 17.1998 23.335 17.5977C21.1426 19.3081 19.7604 21.3852 19.9412 22.7414C20.0075 23.2381 20.2847 23.6047 20.7219 23.7734C21.8204 24.198 23.7103 23.3174 26.1877 21.2274C26.1909 21.2248 26.5221 20.9742 28.2765 21.9775C29.4307 22.6376 30.7624 23.5863 31.8324 24.3486C32.4738 24.8056 33.0278 25.2003 33.4099 25.4381C34.0016 25.8129 34.345 26.2088 34.4307 26.6148C34.5017 26.9519 34.4053 27.3191 34.1357 27.7372ZM34.7343 25.3525C34.742 25.3461 34.7497 25.3396 34.7573 25.333L34.8693 25.5086C34.827 25.4566 34.7819 25.4041 34.7343 25.3525ZM38.9361 23.3514C38.926 23.3981 38.9068 23.4425 38.8795 23.4818C38.8522 23.5211 38.8174 23.5546 38.777 23.5803L36.1988 25.2251C36.1172 25.277 36.0184 25.2944 35.9239 25.2736C35.8295 25.2527 35.7472 25.1952 35.695 25.1137L30.4434 16.8821C30.3915 16.8004 30.3741 16.7015 30.395 16.6071C30.4159 16.5126 30.4735 16.4304 30.555 16.3783L33.1331 14.7336C33.2148 14.6822 33.3135 14.6651 33.4078 14.6859C33.5021 14.7067 33.5844 14.7639 33.6369 14.8449L38.8884 23.0771C38.9141 23.1175 38.9316 23.1626 38.9397 23.2097C38.9479 23.2569 38.9467 23.3047 38.9361 23.3514ZM16.9526 9.79294C16.8933 9.68864 16.8777 9.56513 16.9091 9.44935C16.9406 9.33356 17.0165 9.23492 17.1204 9.17493C17.2243 9.11494 17.3477 9.09848 17.4637 9.12915C17.5797 9.15981 17.6789 9.23511 17.7395 9.33861L19.7775 12.8687C19.8078 12.9204 19.8276 12.9776 19.8357 13.037C19.8438 13.0963 19.8401 13.1567 19.8248 13.2146C19.8095 13.2726 19.7829 13.3269 19.7465 13.3745C19.7101 13.4221 19.6646 13.462 19.6127 13.492C19.5608 13.5219 19.5035 13.5413 19.4441 13.549C19.3847 13.5568 19.3244 13.5527 19.2665 13.537C19.2087 13.5213 19.1546 13.4943 19.1072 13.4576C19.0599 13.4209 19.0202 13.3751 18.9906 13.3231L16.9526 9.79294ZM24.4225 12.4994V8.42308C24.4225 8.30258 24.4704 8.18702 24.5556 8.10182C24.6408 8.01662 24.7564 7.96875 24.8769 7.96875C24.9974 7.96875 25.1129 8.01662 25.1981 8.10182C25.2833 8.18702 25.3312 8.30258 25.3312 8.42308V12.4994C25.3312 12.6199 25.2833 12.7354 25.1981 12.8206C25.1129 12.9058 24.9974 12.9537 24.8769 12.9537C24.7564 12.9537 24.6408 12.9058 24.5556 12.8206C24.4704 12.7354 24.4225 12.6199 24.4225 12.4994ZM29.8944 12.4223L31.9324 8.89214C31.962 8.84005 32.0016 8.79434 32.049 8.75763C32.0963 8.72092 32.1505 8.69393 32.2083 8.67824C32.2661 8.66254 32.3265 8.65843 32.3859 8.66615C32.4453 8.67388 32.5026 8.69328 32.5545 8.72323C32.6064 8.75319 32.6518 8.79312 32.6882 8.84072C32.7246 8.88831 32.7513 8.94264 32.7666 9.00056C32.7819 9.05849 32.7856 9.11887 32.7775 9.17824C32.7694 9.2376 32.7496 9.29477 32.7193 9.34646L30.6813 12.8766C30.6206 12.9801 30.5215 13.0554 30.4055 13.086C30.2895 13.1167 30.1661 13.1003 30.0622 13.0403C29.9583 12.9803 29.8823 12.8816 29.8509 12.7658C29.8195 12.6501 29.8351 12.5266 29.8944 12.4223ZM32.7195 38.2071C32.7498 38.2588 32.7695 38.316 32.7777 38.3754C32.7858 38.4347 32.7821 38.4951 32.7668 38.553C32.7514 38.611 32.7248 38.6653 32.6884 38.7129C32.652 38.7605 32.6066 38.8004 32.5547 38.8304C32.5028 38.8603 32.4455 38.8797 32.3861 38.8874C32.3267 38.8952 32.2663 38.8911 32.2085 38.8754C32.1507 38.8597 32.0965 38.8327 32.0492 38.796C32.0018 38.7593 31.9622 38.7135 31.9326 38.6615L29.8946 35.1313C29.8643 35.0796 29.8445 35.0225 29.8364 34.9631C29.8283 34.9037 29.832 34.8434 29.8473 34.7854C29.8626 34.7275 29.8892 34.6732 29.9256 34.6256C29.962 34.578 30.0075 34.5381 30.0594 34.5081C30.1112 34.4781 30.1686 34.4587 30.228 34.451C30.2874 34.4433 30.3477 34.4474 30.4056 34.4631C30.4634 34.4788 30.5175 34.5058 30.5649 34.5425C30.6122 34.5792 30.6519 34.6249 30.6815 34.677L32.7195 38.2071ZM25.2495 35.501V39.5769C25.2495 39.6974 25.2016 39.813 25.1164 39.8982C25.0312 39.9834 24.9157 40.0312 24.7952 40.0312C24.6747 40.0312 24.5591 39.9834 24.4739 39.8982C24.3887 39.813 24.3408 39.6974 24.3408 39.5769V35.501C24.3408 35.3805 24.3887 35.2649 24.4739 35.1797C24.5591 35.0945 24.6747 35.0466 24.7952 35.0466C24.9157 35.0466 25.0312 35.0945 25.1164 35.1797C25.2016 35.2649 25.2495 35.3805 25.2495 35.501ZM19.7776 35.5781L17.7397 39.1083C17.679 39.2118 17.5798 39.287 17.4638 39.3177C17.3479 39.3484 17.2244 39.3319 17.1206 39.2719C17.0167 39.2119 16.9407 39.1133 16.9093 38.9975C16.8778 38.8817 16.8935 38.7582 16.9528 38.6539L18.9907 35.1238C19.0514 35.0203 19.1506 34.945 19.2666 34.9143C19.3825 34.8837 19.506 34.9001 19.6099 34.9601C19.7138 35.0201 19.7897 35.1188 19.8211 35.2345C19.8526 35.3503 19.8369 35.4738 19.7776 35.5781Z" fill="url(#paint0_linear_4008_2070)"/>
</g>
<defs>
<linearGradient id="paint0_linear_4008_2070" x1="8.146" y1="24" x2="39.8538" y2="24" gradientUnits="userSpaceOnUse">
<stop stop-color="#0452FF"/>
<stop offset="1" stop-color="#4E8FFF"/>
</linearGradient>
<clipPath id="clip0_4008_2070">
<rect width="33.2308" height="33.2308" fill="white" transform="translate(7.38464 7.38477)"/>
</clipPath>
</defs>
</svg>
