<svg width="48" height="48" viewBox="0 0 48 48" fill="none" xmlns="http://www.w3.org/2000/svg">
<path d="M0 11.0769C0 4.95931 4.95931 0 11.0769 0H36.9231C43.0407 0 48 4.95931 48 11.0769V36.9231C48 43.0407 43.0407 48 36.9231 48H11.0769C4.95931 48 0 43.0407 0 36.9231V11.0769Z" fill="#EAF2FF"/>
<g clip-path="url(#clip0_4008_2085)">
<path d="M31.0314 37.0215C30.3304 37.0215 29.6295 36.9073 28.9493 36.6788L23.2637 34.7317C22.7341 34.55 22.2252 34.3007 21.7579 33.984L15.8491 30.0327C15.3247 29.6848 14.9872 29.124 14.9248 28.4957C14.8625 27.8675 15.0858 27.2496 15.5323 26.8031C16.062 26.2682 16.846 26.0606 17.5729 26.2631C17.5989 26.2682 17.6248 26.2786 17.6508 26.289L20.761 27.7169C20.787 27.7221 20.8181 27.7117 20.8441 27.665C20.8804 27.5975 20.8441 27.5611 20.8285 27.5456L13.4918 20.2088C12.5052 19.2223 12.5 17.6179 13.4866 16.6313C13.9695 16.1484 14.6029 15.8836 15.2779 15.8836C15.9529 15.8836 16.5864 16.1484 17.0693 16.6313L20.1483 19.7104C20.2314 19.2171 20.4598 18.7446 20.8389 18.3656C21.6125 17.5919 22.7808 17.4361 23.7102 17.9086C23.7674 17.3634 24.001 16.8286 24.4216 16.4081C25.1641 15.6656 26.27 15.4942 27.1787 15.894C27.2254 15.3073 27.4747 14.7621 27.8952 14.3415C28.861 13.3757 30.4343 13.3757 31.4 14.3415L36.7118 19.6532C37.2985 20.24 37.7658 20.9306 38.0929 21.6938L39.6558 25.3492C40.6995 27.8 40.1595 30.5986 38.2747 32.4834L35.637 35.1211C34.4064 36.3569 32.7293 37.0215 31.0314 37.0215ZM17.0173 27.2288C16.737 27.2288 16.467 27.3379 16.2645 27.5404C16.0412 27.7636 15.927 28.0804 15.9581 28.3971C15.9893 28.7138 16.1606 28.9994 16.4254 29.1759L22.3343 33.1273C22.7289 33.3921 23.1547 33.5998 23.6012 33.7556L29.2868 35.7027C31.2391 36.3725 33.4458 35.8584 34.9049 34.3994L37.5425 31.7617C39.1262 30.1781 39.5779 27.8259 38.7004 25.7698L37.1375 22.1144C36.8624 21.4706 36.4729 20.8942 35.9797 20.4009L30.6679 15.0788C30.1072 14.5181 29.1933 14.5181 28.6325 15.0788C28.3625 15.3488 28.212 15.7123 28.212 16.0965C28.212 16.4756 28.3574 16.8338 28.6222 17.1038L30.4031 18.8848C30.6056 19.0873 30.6056 19.4144 30.4031 19.6169C30.2006 19.8194 29.8735 19.8194 29.671 19.6169L27.9056 17.8515C27.9004 17.8463 27.8952 17.8411 27.89 17.8359L27.1995 17.1454C26.6387 16.5846 25.7249 16.5846 25.1641 17.1454C24.6033 17.7061 24.6033 18.62 25.1641 19.1807L26.836 20.8527C26.9398 20.9565 26.9866 21.0863 26.9866 21.2213C26.9866 21.3563 26.9347 21.4861 26.836 21.59C26.6335 21.7925 26.3064 21.7925 26.1039 21.59L23.622 19.1081C23.0612 18.5473 22.1474 18.5473 21.5866 19.1081C21.0258 19.6688 21.0258 20.5827 21.5866 21.1434L23.2637 22.8206C23.4506 23.0075 23.4662 23.3086 23.3 23.5163C23.1287 23.724 22.8327 23.7656 22.6095 23.6202C22.5835 23.5994 22.5524 23.5786 22.5264 23.5527L16.3475 17.3738C15.7764 16.8027 14.8054 16.8027 14.2343 17.3738C13.6527 17.9554 13.6579 18.9004 14.2395 19.4819L21.5762 26.8186C21.9448 27.1873 22.0175 27.7429 21.7527 28.1946C21.4879 28.6463 20.9739 28.8592 20.465 28.719C20.4391 28.7138 20.4131 28.7034 20.3872 28.6931L17.2666 27.26C17.1783 27.234 17.1004 27.2288 17.0173 27.2288Z" fill="url(#paint0_linear_4008_2085)"/>
<path d="M10.449 24.2684C10.314 24.2684 10.1842 24.2165 10.0803 24.1178C9.87784 23.9153 9.87784 23.5882 10.0803 23.3857L11.9392 21.5269C12.1417 21.3244 12.4688 21.3244 12.6713 21.5269C12.8738 21.7294 12.8738 22.0565 12.6713 22.259L10.8125 24.1178C10.7138 24.2217 10.5788 24.2684 10.449 24.2684Z" fill="url(#paint1_linear_4008_2085)"/>
<path d="M12.3077 15.9754C12.1727 15.9754 12.0429 15.9235 11.9391 15.8249L10.0802 13.966C9.87772 13.7635 9.87772 13.4364 10.0802 13.2339C10.2827 13.0314 10.6098 13.0314 10.8123 13.2339L12.6712 15.0928C12.8737 15.2953 12.8737 15.6224 12.6712 15.8249C12.5725 15.9235 12.4375 15.9754 12.3077 15.9754Z" fill="url(#paint2_linear_4008_2085)"/>
<path d="M18.7453 15.9754C18.6103 15.9754 18.4805 15.9235 18.3766 15.8249C18.1741 15.6224 18.1741 15.2953 18.3766 15.0928L20.2355 13.2339C20.438 13.0314 20.7651 13.0314 20.9676 13.2339C21.1701 13.4364 21.1701 13.7635 20.9676 13.966L19.1087 15.8249C19.0101 15.9235 18.8751 15.9754 18.7453 15.9754Z" fill="url(#paint3_linear_4008_2085)"/>
<path d="M15.5274 14.6423C15.2418 14.6423 15.0082 14.4087 15.0082 14.1231V11.4958C15.0082 11.2102 15.2418 10.9766 15.5274 10.9766C15.813 10.9766 16.0466 11.2102 16.0466 11.4958V14.1231C16.0466 14.4087 15.813 14.6423 15.5274 14.6423Z" fill="url(#paint4_linear_4008_2085)"/>
<path d="M10.9728 19.1967H8.34552C8.05995 19.1967 7.82629 18.963 7.82629 18.6774C7.82629 18.3919 8.05995 18.1582 8.34552 18.1582H10.9728C11.2584 18.1582 11.4921 18.3919 11.4921 18.6774C11.4921 18.963 11.2584 19.1967 10.9728 19.1967Z" fill="url(#paint5_linear_4008_2085)"/>
</g>
<defs>
<linearGradient id="paint0_linear_4008_2085" x1="12.7493" y1="25.3194" x2="40.1805" y2="25.3194" gradientUnits="userSpaceOnUse">
<stop stop-color="#0452FF"/>
<stop offset="1" stop-color="#4E8FFF"/>
</linearGradient>
<linearGradient id="paint1_linear_4008_2085" x1="9.92847" y1="22.8217" x2="12.8232" y2="22.8217" gradientUnits="userSpaceOnUse">
<stop stop-color="#0452FF"/>
<stop offset="1" stop-color="#4E8FFF"/>
</linearGradient>
<linearGradient id="paint2_linear_4008_2085" x1="9.92834" y1="14.5287" x2="12.8231" y2="14.5287" gradientUnits="userSpaceOnUse">
<stop stop-color="#0452FF"/>
<stop offset="1" stop-color="#4E8FFF"/>
</linearGradient>
<linearGradient id="paint3_linear_4008_2085" x1="18.2247" y1="14.5287" x2="21.1194" y2="14.5287" gradientUnits="userSpaceOnUse">
<stop stop-color="#0452FF"/>
<stop offset="1" stop-color="#4E8FFF"/>
</linearGradient>
<linearGradient id="paint4_linear_4008_2085" x1="15.0082" y1="12.8094" x2="16.0466" y2="12.8094" gradientUnits="userSpaceOnUse">
<stop stop-color="#0452FF"/>
<stop offset="1" stop-color="#4E8FFF"/>
</linearGradient>
<linearGradient id="paint5_linear_4008_2085" x1="7.82629" y1="18.6774" x2="11.4921" y2="18.6774" gradientUnits="userSpaceOnUse">
<stop stop-color="#0452FF"/>
<stop offset="1" stop-color="#4E8FFF"/>
</linearGradient>
<clipPath id="clip0_4008_2085">
<rect width="33.2308" height="33.2308" fill="white" transform="translate(7.38464 7.38477)"/>
</clipPath>
</defs>
</svg>
