<svg width="48" height="48" viewBox="0 0 48 48" fill="none" xmlns="http://www.w3.org/2000/svg">
<path d="M0 11.0769C0 4.95931 4.95931 0 11.0769 0H36.9231C43.0407 0 48 4.95931 48 11.0769V36.9231C48 43.0407 43.0407 48 36.9231 48H11.0769C4.95931 48 0 43.0407 0 36.9231V11.0769Z" fill="#EAF2FF"/>
<g clip-path="url(#clip0_4008_2077)">
<path d="M24 15.0021C21.9411 15.0044 19.9673 15.8233 18.5114 17.2792C17.0556 18.735 16.2367 20.7089 16.2344 22.7677C16.2344 25.5363 17.1258 26.5283 17.9878 27.4877C18.8692 28.4686 19.7806 29.4828 19.7806 32.8372C19.7806 32.9577 19.8285 33.0732 19.9137 33.1584C19.9989 33.2436 20.1144 33.2915 20.2349 33.2915H28.0278C28.1483 33.2915 28.2639 33.2436 28.3491 33.1584C28.4343 33.0732 28.4821 32.9577 28.4821 32.8372C28.4821 29.428 29.3505 28.338 30.1904 27.2841C30.9648 26.3122 31.7656 25.3073 31.7656 22.7677C31.7633 20.7089 30.9444 18.735 29.4885 17.2792C28.0327 15.8234 26.0589 15.0044 24 15.0021ZM25.089 32.3828H23.6552V26.5739H25.089V32.3828ZM29.4798 26.7178C28.6236 27.7924 27.6578 29.0041 27.5787 32.3828H25.9976V26.5125H27.045C27.4318 26.5125 27.81 26.3978 28.1317 26.1829C28.4533 25.968 28.704 25.6625 28.8521 25.3051C29.0001 24.9476 29.0389 24.5543 28.9634 24.1749C28.8879 23.7955 28.7016 23.447 28.428 23.1734C28.1545 22.8999 27.806 22.7136 27.4265 22.6381C27.0471 22.5626 26.6538 22.6014 26.2964 22.7494C25.939 22.8975 25.6335 23.1482 25.4186 23.4699C25.2037 23.7916 25.0889 24.1697 25.089 24.5566V25.6654H23.6551V24.5566C23.6545 24.038 23.4483 23.5408 23.0816 23.1741C22.7149 22.8074 22.2177 22.6012 21.6992 22.6006C21.1824 22.6036 20.6877 22.811 20.3233 23.1775C19.959 23.5439 19.7544 24.0398 19.7544 24.5566C19.7544 25.0734 19.959 25.5692 20.3233 25.9357C20.6877 26.3022 21.1824 26.5096 21.6992 26.5125H22.7466V32.3828H20.6834C20.599 29.0338 19.573 27.8925 18.6635 26.8804C17.8475 25.9723 17.1428 25.1881 17.1428 22.7677C17.1428 20.9491 17.8653 19.205 19.1512 17.919C20.4372 16.6331 22.1813 15.9106 23.9999 15.9106C25.8185 15.9106 27.5627 16.6331 28.8486 17.919C30.1346 19.205 30.857 20.9491 30.857 22.7677C30.857 24.9895 30.2188 25.7904 29.4798 26.7178ZM25.9976 25.6039V24.5566C25.9979 24.2789 26.1084 24.0127 26.3047 23.8164C26.501 23.62 26.7672 23.5096 27.0449 23.5093C27.3212 23.5114 27.5855 23.6227 27.7802 23.8189C27.9748 24.0151 28.084 24.2802 28.084 24.5566C28.084 24.8329 27.9748 25.0981 27.7802 25.2942C27.5855 25.4904 27.3212 25.6017 27.0449 25.6039H25.9976ZM22.7464 24.5566V25.6039H21.6991C21.4919 25.6039 21.2894 25.5425 21.1172 25.4274C20.945 25.3123 20.8107 25.1487 20.7315 24.9573C20.6522 24.7659 20.6315 24.5554 20.6719 24.3522C20.7123 24.149 20.812 23.9624 20.9585 23.8159C21.105 23.6695 21.2916 23.5697 21.4948 23.5293C21.698 23.4889 21.9086 23.5096 22.0999 23.5889C22.2913 23.6682 22.4549 23.8025 22.57 23.9747C22.685 24.147 22.7465 24.3495 22.7464 24.5566ZM23.6082 11.5129V9.49534C23.6082 9.37485 23.656 9.25929 23.7412 9.17408C23.8264 9.08888 23.942 9.04102 24.0625 9.04102C24.183 9.04102 24.2986 9.08888 24.3838 9.17408C24.469 9.25929 24.5168 9.37485 24.5168 9.49534V11.5129C24.5168 11.6334 24.469 11.749 24.3838 11.8342C24.2986 11.9194 24.183 11.9673 24.0625 11.9673C23.942 11.9673 23.8264 11.9194 23.7412 11.8342C23.656 11.749 23.6082 11.6334 23.6082 11.5129ZM32.8171 9.83914L30.7995 13.3337C30.7388 13.4372 30.6396 13.5125 30.5236 13.5432C30.4077 13.5738 30.2842 13.5574 30.1803 13.4974C30.0765 13.4374 30.0005 13.3387 29.9691 13.223C29.9376 13.1072 29.9533 12.9837 30.0126 12.8794L32.0302 9.38481C32.0598 9.33272 32.0994 9.28701 32.1468 9.2503C32.1941 9.21359 32.2483 9.18661 32.3061 9.17091C32.3639 9.15521 32.4243 9.1511 32.4837 9.15883C32.5431 9.16655 32.6004 9.18595 32.6523 9.21591C32.7042 9.24587 32.7496 9.28579 32.786 9.33339C32.8224 9.38099 32.849 9.43531 32.8644 9.49324C32.8797 9.55116 32.8834 9.61155 32.8753 9.67091C32.8671 9.73028 32.8474 9.78745 32.8171 9.83914ZM36.631 17.0431L34.8837 18.0518C34.7794 18.1111 34.6559 18.1267 34.5401 18.0953C34.4244 18.0639 34.3257 17.9879 34.2657 17.884C34.2057 17.7801 34.1893 17.6567 34.2199 17.5407C34.2506 17.4247 34.3259 17.3256 34.4294 17.2649L36.1767 16.2561C36.281 16.1959 36.4051 16.1795 36.5214 16.2107C36.6378 16.2419 36.7371 16.3181 36.7973 16.4224C36.8576 16.5268 36.8739 16.6508 36.8427 16.7672C36.8115 16.8836 36.7354 16.9828 36.631 17.0431ZM40.0312 23.9488C40.0312 24.0693 39.9834 24.1848 39.8982 24.27C39.813 24.3552 39.6974 24.4031 39.5769 24.4031H35.5417C35.4212 24.4031 35.3057 24.3552 35.2205 24.27C35.1353 24.1848 35.0874 24.0693 35.0874 23.9488C35.0874 23.8283 35.1353 23.7127 35.2205 23.6275C35.3057 23.5423 35.4212 23.4945 35.5417 23.4945H39.5769C39.6974 23.4945 39.813 23.5423 39.8982 23.6275C39.9834 23.7127 40.0312 23.8283 40.0312 23.9488ZM17.7982 13.3337L15.7806 9.83914C15.7213 9.73484 15.7056 9.61133 15.7371 9.49555C15.7685 9.37977 15.8445 9.28112 15.9484 9.22113C16.0523 9.16114 16.1757 9.14468 16.2917 9.17535C16.4076 9.20601 16.5068 9.28131 16.5675 9.38481L18.5851 12.8794C18.6154 12.9311 18.6352 12.9882 18.6433 13.0476C18.6514 13.107 18.6477 13.1673 18.6324 13.2253C18.6171 13.2832 18.5904 13.3375 18.554 13.3851C18.5176 13.4327 18.4722 13.4726 18.4203 13.5026C18.3684 13.5326 18.3111 13.552 18.2517 13.5597C18.1923 13.5674 18.1319 13.5633 18.0741 13.5476C18.0163 13.5319 17.9621 13.5049 17.9148 13.4682C17.8674 13.4315 17.8278 13.3858 17.7982 13.3337ZM13.8883 17.8855C13.8281 17.9899 13.7288 18.066 13.6124 18.0972C13.4961 18.1284 13.372 18.1121 13.2677 18.0518L11.5204 17.0431C11.416 16.9828 11.3398 16.8836 11.3087 16.7672C11.2775 16.6508 11.2938 16.5268 11.354 16.4224C11.4143 16.3181 11.5135 16.2419 11.6299 16.2107C11.7463 16.1795 11.8703 16.1959 11.9747 16.2561L13.722 17.2649C13.8264 17.3252 13.9025 17.4244 13.9337 17.5408C13.9649 17.6572 13.9486 17.7812 13.8883 17.8855ZM12.9126 23.9488C12.9126 24.0693 12.8647 24.1848 12.7795 24.27C12.6943 24.3552 12.5788 24.4031 12.4583 24.4031H8.42308C8.30258 24.4031 8.18702 24.3552 8.10182 24.27C8.01662 24.1848 7.96875 24.0693 7.96875 23.9488C7.96875 23.8283 8.01662 23.7127 8.10182 23.6275C8.18702 23.5423 8.30258 23.4945 8.42308 23.4945H12.4583C12.5788 23.4945 12.6943 23.5423 12.7795 23.6275C12.8647 23.7127 12.9126 23.8283 12.9126 23.9488ZM27.5627 34.7759C27.5627 34.8964 27.5148 35.012 27.4296 35.0972C27.3444 35.1824 27.2289 35.2302 27.1084 35.2302H20.8916C20.7711 35.2302 20.6555 35.1824 20.5703 35.0972C20.4851 35.012 20.4372 34.8964 20.4372 34.7759C20.4372 34.6554 20.4851 34.5399 20.5703 34.4547C20.6555 34.3694 20.7711 34.3216 20.8916 34.3216H27.1084C27.2289 34.3216 27.3444 34.3694 27.4296 34.4547C27.5148 34.5399 27.5627 34.6554 27.5627 34.7759ZM26.7053 36.6402C26.7053 36.7607 26.6574 36.8763 26.5722 36.9615C26.487 37.0467 26.3714 37.0945 26.2509 37.0945H21.7491C21.6894 37.0945 21.6303 37.0828 21.5752 37.06C21.5201 37.0371 21.47 37.0037 21.4278 36.9615C21.3856 36.9193 21.3522 36.8692 21.3293 36.8141C21.3065 36.7589 21.2947 36.6999 21.2947 36.6402C21.2947 36.5805 21.3065 36.5215 21.3293 36.4663C21.3522 36.4112 21.3856 36.3611 21.4278 36.319C21.47 36.2768 21.5201 36.2433 21.5752 36.2205C21.6303 36.1976 21.6894 36.1859 21.7491 36.1859H26.2509C26.3714 36.1859 26.487 36.2337 26.5722 36.319C26.6574 36.4042 26.7053 36.5197 26.7053 36.6402ZM25.6343 38.5045C25.6343 38.625 25.5865 38.7406 25.5013 38.8258C25.4161 38.911 25.3005 38.9588 25.18 38.9588H22.82C22.6995 38.9588 22.5839 38.911 22.4987 38.8258C22.4135 38.7406 22.3657 38.625 22.3657 38.5045C22.3657 38.384 22.4135 38.2685 22.4987 38.1832C22.5839 38.098 22.6995 38.0502 22.82 38.0502H25.18C25.3005 38.0502 25.4161 38.098 25.5013 38.1832C25.5865 38.2685 25.6343 38.384 25.6343 38.5045Z" fill="url(#paint0_linear_4008_2077)"/>
</g>
<defs>
<linearGradient id="paint0_linear_4008_2077" x1="7.96875" y1="23.9999" x2="40.0312" y2="23.9999" gradientUnits="userSpaceOnUse">
<stop stop-color="#0452FF"/>
<stop offset="1" stop-color="#4E8FFF"/>
</linearGradient>
<clipPath id="clip0_4008_2077">
<rect width="33.2308" height="33.2308" fill="white" transform="translate(7.38464 7.38477)"/>
</clipPath>
</defs>
</svg>
