<svg width="60" height="60" viewBox="0 0 60 60" fill="none" xmlns="http://www.w3.org/2000/svg">
<rect width="60" height="60" rx="10" fill="white"/>
<path d="M38 39.667C38.548 39.667 39 40.115 39 40.667C38.9996 43.1855 34.3345 44.333 30 44.333C25.6656 44.333 21.0004 43.1854 21 40.667C21 40.1151 21.4481 39.6672 22 39.667C22.5519 39.667 22.9931 40.1078 23 40.6543C23.1573 41.1236 25.5202 42.333 30 42.333C34.48 42.333 36.8427 41.1223 37 40.6543C37.0069 40.1079 37.4523 39.6672 38 39.667ZM30.0029 15.666C34.1308 15.6662 37.9679 18.2203 39.5479 22.0215C42.2955 28.628 37.3227 33.3455 33.3281 37.1348C33.0042 37.4414 32.684 37.745 32.3721 38.0449C31.7322 38.6608 30.8908 38.9999 30.0029 39C29.1149 39 28.2728 38.6615 27.6328 38.0469C27.2981 37.7229 26.9583 37.3983 26.6143 37.0703C22.6517 33.2984 17.7205 28.604 20.459 22.0215C22.039 18.2202 25.8749 15.666 30.0029 15.666ZM30.0029 17.666C26.6723 17.666 23.579 19.7251 22.3057 22.7891C20.095 28.1024 24.1105 31.9251 27.9932 35.6211C28.3425 35.9531 28.6865 36.2811 29.0225 36.6064C29.2851 36.8584 29.6349 37 30.0029 37C30.3707 36.9999 30.7201 36.86 30.9854 36.6055C31.3014 36.3015 31.6255 35.9943 31.9521 35.6836C35.8708 31.9677 39.9208 28.125 37.7021 22.7891C36.4275 19.7252 33.3334 17.6662 30.0029 17.666ZM30.0039 21.666C32.3932 21.666 34.3379 23.6107 34.3379 26C34.3378 28.3892 32.3932 30.333 30.0039 30.333C27.6148 30.3328 25.671 28.3891 25.6709 26C25.6709 23.6108 27.6147 21.6662 30.0039 21.666ZM30.0039 23.666C28.7174 23.6662 27.6709 24.7134 27.6709 26C27.671 27.2865 28.7174 28.3328 30.0039 28.333C31.2905 28.333 32.3378 27.2866 32.3379 26C32.3379 24.7133 31.2906 23.666 30.0039 23.666Z" fill="url(#paint0_linear_4008_4098)"/>
<path d="M29.0194 6.74949L29.125 10.5891C29.1302 10.7776 29.21 10.9563 29.347 11.0859C29.4839 11.2155 29.6667 11.2854 29.8552 11.2803C30.0437 11.2751 30.2224 11.1952 30.352 11.0583C30.4816 10.9214 30.5515 10.7385 30.5463 10.5501L30.4408 6.71042C30.4356 6.52193 30.3557 6.34323 30.2188 6.21362C30.0819 6.08401 29.899 6.0141 29.7106 6.01928C29.5221 6.02447 29.3434 6.10431 29.2138 6.24125C29.0842 6.37819 29.0142 6.56101 29.0194 6.74949Z" fill="url(#paint1_linear_4008_4098)"/>
<path d="M26.1884 11.9396C26.2051 11.8478 26.2036 11.7535 26.1839 11.6622C26.1641 11.5709 26.1266 11.4844 26.0734 11.4077L23.8851 8.25104C23.7762 8.09972 23.6122 7.99722 23.4285 7.96561C23.2448 7.93399 23.056 7.9758 22.9029 8.08203C22.7497 8.18825 22.6443 8.35039 22.6095 8.53353C22.5747 8.71666 22.6133 8.90614 22.7168 9.06115L24.9047 12.2177C24.986 12.3313 25.0987 12.4185 25.229 12.4688C25.3593 12.519 25.5014 12.5301 25.6379 12.5005C25.7744 12.4709 25.8992 12.4021 25.997 12.3024C26.0949 12.2028 26.1614 12.0766 26.1884 11.9396Z" fill="url(#paint2_linear_4008_4098)"/>
<path d="M33.2891 11.0398C33.2249 11.1076 33.1747 11.1874 33.1413 11.2746C33.108 11.3618 33.0922 11.4548 33.0947 11.5481C33.0999 11.7366 33.1797 11.9153 33.3167 12.0449C33.4536 12.1745 33.6365 12.2444 33.825 12.2392C34.0135 12.2341 34.1922 12.1542 34.3218 12.0173L36.9619 9.22788C37.028 9.16047 37.08 9.08057 37.1149 8.99285C37.1498 8.90513 37.1668 8.81134 37.1651 8.71695C37.1633 8.62257 37.1428 8.52948 37.1046 8.44312C37.0665 8.35675 37.0116 8.27885 36.943 8.21394C36.8745 8.14903 36.7937 8.09843 36.7054 8.06508C36.6171 8.03173 36.523 8.0163 36.4287 8.0197C36.3343 8.02309 36.2416 8.04524 36.1559 8.08485C36.0702 8.12447 35.9933 8.18075 35.9296 8.25041L33.2891 11.0398Z" fill="url(#paint3_linear_4008_4098)"/>
<defs>
<linearGradient id="paint0_linear_4008_4098" x1="19.667" y1="29.9995" x2="40.3395" y2="29.9995" gradientUnits="userSpaceOnUse">
<stop stop-color="#0452FF"/>
<stop offset="1" stop-color="#4E8FFF"/>
</linearGradient>
<linearGradient id="paint1_linear_4008_4098" x1="29.8552" y1="11.2803" x2="29.7106" y2="6.01928" gradientUnits="userSpaceOnUse">
<stop stop-color="#0452FF"/>
<stop offset="1" stop-color="#4E8FFF"/>
</linearGradient>
<linearGradient id="paint2_linear_4008_4098" x1="24.0314" y1="12.2646" x2="24.7666" y2="8.20808" gradientUnits="userSpaceOnUse">
<stop stop-color="#0452FF"/>
<stop offset="1" stop-color="#4E8FFF"/>
</linearGradient>
<linearGradient id="paint3_linear_4008_4098" x1="35.1868" y1="12.2018" x2="35.0728" y2="8.05695" gradientUnits="userSpaceOnUse">
<stop stop-color="#0452FF"/>
<stop offset="1" stop-color="#4E8FFF"/>
</linearGradient>
</defs>
</svg>
