<svg width="60" height="36" viewBox="0 0 60 36" fill="none" xmlns="http://www.w3.org/2000/svg">
<path d="M0 22.5555C0 20.7907 0.347779 18.8304 1.04653 16.6748C1.74528 14.5223 2.61632 12.3887 3.66285 10.2772C4.70938 8.16563 5.87716 6.20537 7.16299 4.39639C8.44882 2.58741 9.68359 1.12195 10.8609 0L24.0798 1.61674C22.6823 2.69457 21.406 3.9016 20.251 5.2347C19.096 6.57095 18.0144 7.97024 17.0125 9.4357C18.627 9.56491 20.0978 9.99667 21.4283 10.7278C22.7588 11.4621 23.9043 12.4076 24.8647 13.5705C25.825 14.7334 26.5653 16.0823 27.0885 17.6108C27.6118 19.1393 27.8734 20.7875 27.8734 22.5555C27.8734 24.021 27.6341 25.5401 27.1524 27.1127C26.6706 28.6853 25.8984 30.1287 24.8296 31.4429C23.7607 32.7571 22.3313 33.8443 20.5445 34.7079C18.7546 35.5714 16.553 36 13.9367 36C11.5374 36 9.46344 35.6754 7.72135 35.0293C5.97607 34.3833 4.52433 33.4693 3.36932 32.2812C2.2143 31.0962 1.3624 29.6843 0.816803 28.0487C0.271204 26.413 0 24.582 0 22.5555ZM32.1266 22.5555C32.1266 20.7907 32.4743 18.8304 33.1731 16.6748C33.8718 14.5223 34.7429 12.3887 35.7894 10.2772C36.836 8.16563 38.0037 6.20537 39.2896 4.39639C40.5754 2.58741 41.8102 1.12195 42.9875 0L56.2701 1.61674C54.8726 2.69457 53.5868 3.9016 52.4095 5.2347C51.2321 6.57095 50.1409 7.97024 49.1391 9.4357C50.7535 9.56491 52.2244 9.99667 53.5549 10.7278C54.8854 11.4621 56.0308 12.4076 56.9912 13.5705C57.9516 14.7334 58.6918 16.0823 59.2151 17.6108C59.7384 19.1393 60 20.7875 60 22.5555C60 24.021 59.7607 25.5401 59.2789 27.1127C58.7971 28.6853 58.025 30.1287 56.9561 31.4429C55.8873 32.7571 54.4579 33.8443 52.6711 34.7079C50.8811 35.5714 48.6796 36 46.0633 36C43.7086 36 41.6474 35.6754 39.8798 35.0293C38.1122 34.3833 36.6637 33.4693 35.5278 32.2812C34.3919 31.0962 33.5432 29.6843 32.9753 28.0487C32.4073 26.413 32.1234 24.582 32.1234 22.5555H32.1266Z" fill="url(#paint0_linear_4008_2204)"/>
<defs>
<linearGradient id="paint0_linear_4008_2204" x1="0" y1="18" x2="60" y2="18" gradientUnits="userSpaceOnUse">
<stop stop-color="#0452FF"/>
<stop offset="1" stop-color="#4E8FFF"/>
</linearGradient>
</defs>
</svg>
