<svg width="48" height="48" viewBox="0 0 48 48" fill="none" xmlns="http://www.w3.org/2000/svg">
<path d="M0 11.0769C0 4.95931 4.95931 0 11.0769 0H36.9231C43.0407 0 48 4.95931 48 11.0769V36.9231C48 43.0407 43.0407 48 36.9231 48H11.0769C4.95931 48 0 43.0407 0 36.9231V11.0769Z" fill="#EAF2FF"/>
<path d="M31.5546 21.2865H18.2908V16.2084C18.2923 14.922 18.804 13.6887 19.7136 12.779C20.6233 11.8693 21.8566 11.3577 23.143 11.3562C25.7522 11.3022 28.048 13.6024 27.995 16.2084V18.2049C27.995 18.2646 28.0067 18.3236 28.0295 18.3788C28.0523 18.4339 28.0858 18.484 28.128 18.5262C28.1702 18.5684 28.2203 18.6019 28.2754 18.6247C28.3306 18.6475 28.3897 18.6592 28.4493 18.6592H30.5262C30.6467 18.6592 30.7623 18.6113 30.8475 18.5261C30.9327 18.4409 30.9806 18.3254 30.9806 18.2049V16.2084C31.0657 11.9957 27.3602 8.28342 23.143 8.37065C21.0651 8.37298 19.0728 9.1995 17.6035 10.6689C16.1341 12.1382 15.3076 14.1304 15.3053 16.2084V21.2865H14.7315C14.1182 21.2872 13.5303 21.5311 13.0966 21.9648C12.663 22.3984 12.419 22.9864 12.4183 23.5997V36.2767C12.419 36.89 12.663 37.478 13.0966 37.9116C13.5303 38.3453 14.1182 38.5892 14.7315 38.5899H31.5546C32.1679 38.5892 32.7558 38.3453 33.1895 37.9116C33.6231 37.478 33.8671 36.89 33.8678 36.2767V23.5997C33.8671 22.9864 33.6231 22.3984 33.1895 21.9648C32.7558 21.5311 32.1679 21.2872 31.5546 21.2865ZM16.2139 16.2084C16.216 14.3713 16.9467 12.6101 18.2457 11.3111C19.5447 10.0121 21.306 9.28136 23.143 9.2793C26.8711 9.20142 30.1475 12.484 30.0719 16.2084V17.7506H28.9037V16.2084C28.9662 13.1136 26.2413 10.3834 23.143 10.4476C21.6157 10.4493 20.1514 11.0568 19.0714 12.1368C17.9914 13.2168 17.3839 14.6811 17.3822 16.2084V21.2865H16.2139V16.2084ZM32.9591 36.2767C32.9587 36.6491 32.8106 37.0061 32.5473 37.2694C32.284 37.5327 31.927 37.6808 31.5546 37.6812H14.7315C14.3591 37.6808 14.0021 37.5327 13.7388 37.2694C13.4755 37.0061 13.3274 36.6491 13.327 36.2767V23.5997C13.3274 23.2273 13.4755 22.8703 13.7388 22.607C14.0021 22.3437 14.3591 22.1956 14.7315 22.1952H15.7596C16.5865 22.1965 30.2739 22.1952 31.5546 22.1952C31.927 22.1956 32.284 22.3437 32.5473 22.607C32.8106 22.8703 32.9587 23.2273 32.9591 23.5997V36.2767Z" fill="url(#paint0_linear_4008_2105)"/>
<path d="M35.1268 17.5254H32.6721C32.5516 17.5254 32.436 17.5733 32.3508 17.6585C32.2656 17.7437 32.2178 17.8592 32.2178 17.9797C32.2178 18.1002 32.2656 18.2158 32.3508 18.301C32.436 18.3862 32.5516 18.434 32.6721 18.434H35.1268C35.2473 18.434 35.3628 18.3862 35.448 18.301C35.5332 18.2158 35.5811 18.1002 35.5811 17.9797C35.5811 17.8592 35.5332 17.7437 35.448 17.6585C35.3628 17.5733 35.2473 17.5254 35.1268 17.5254Z" fill="url(#paint1_linear_4008_2105)"/>
<path d="M32.6731 16.8769C32.7328 16.8769 32.7919 16.8652 32.847 16.8424C32.9022 16.8196 32.9523 16.7862 32.9945 16.744L34.73 15.0082C34.8128 14.9225 34.8585 14.8077 34.8575 14.6886C34.8564 14.5694 34.8086 14.4555 34.7244 14.3713C34.6401 14.2871 34.5261 14.2393 34.407 14.2383C34.2879 14.2373 34.1731 14.2831 34.0875 14.3659L32.3519 16.1014C32.2898 16.1655 32.2478 16.2463 32.231 16.3339C32.2143 16.4216 32.2235 16.5122 32.2577 16.5947C32.2918 16.6771 32.3494 16.7478 32.4232 16.7979C32.497 16.8481 32.5839 16.8755 32.6731 16.8769Z" fill="url(#paint2_linear_4008_2105)"/>
<path d="M32.9934 19.2171C32.9512 19.1749 32.9011 19.1414 32.846 19.1186C32.7909 19.0957 32.7318 19.084 32.6721 19.084C32.5516 19.084 32.4361 19.1319 32.3508 19.2171C32.2656 19.3023 32.2178 19.4178 32.2178 19.5383C32.2178 19.6588 32.2656 19.7744 32.3508 19.8596L34.0864 21.5951C34.1283 21.6385 34.1784 21.6732 34.2338 21.697C34.2893 21.7208 34.3489 21.7333 34.4092 21.7339C34.4695 21.7344 34.5293 21.7229 34.5852 21.7001C34.641 21.6773 34.6918 21.6435 34.7344 21.6009C34.7771 21.5583 34.8108 21.5075 34.8337 21.4517C34.8565 21.3959 34.8681 21.336 34.8675 21.2757C34.867 21.2154 34.8545 21.1558 34.8307 21.1003C34.8069 21.0449 34.7723 20.9948 34.7289 20.9528L32.9934 19.2171Z" fill="url(#paint3_linear_4008_2105)"/>
<path d="M23.1433 24.9277C19.9716 24.9688 18.9861 29.166 21.7804 30.6281V33.5859C21.7804 33.9474 21.924 34.2941 22.1796 34.5497C22.4352 34.8053 22.7819 34.9489 23.1433 34.9489C23.5048 34.9489 23.8515 34.8053 24.1071 34.5497C24.3627 34.2941 24.5063 33.9474 24.5063 33.5859V30.6281C27.3003 29.1675 26.3145 24.9675 23.1433 24.9277ZM23.891 29.9082C23.8047 29.9409 23.7303 29.9991 23.6779 30.0751C23.6255 30.1512 23.5975 30.2414 23.5977 30.3337V33.5867C23.5977 33.7072 23.5498 33.8227 23.4646 33.9079C23.3794 33.9931 23.2638 34.041 23.1433 34.041C23.0228 34.041 22.9073 33.9931 22.8221 33.9079C22.7369 33.8227 22.689 33.7072 22.689 33.5867V30.3337C22.689 30.2415 22.661 30.1515 22.6086 30.0756C22.5561 29.9997 22.4819 29.9416 22.3956 29.909C21.9349 29.7346 21.5499 29.404 21.3078 28.9749C21.0657 28.5458 20.9819 28.0454 21.0708 27.5608C21.1598 27.0762 21.416 26.6382 21.7947 26.3231C22.1734 26.008 22.6507 25.8358 23.1433 25.8364C25.4747 25.8668 26.051 29.0543 23.891 29.9082Z" fill="url(#paint4_linear_4008_2105)"/>
<defs>
<linearGradient id="paint0_linear_4008_2105" x1="12.4183" y1="23.4795" x2="33.8678" y2="23.4795" gradientUnits="userSpaceOnUse">
<stop stop-color="#0452FF"/>
<stop offset="1" stop-color="#4E8FFF"/>
</linearGradient>
<linearGradient id="paint1_linear_4008_2105" x1="32.2178" y1="17.9797" x2="35.5811" y2="17.9797" gradientUnits="userSpaceOnUse">
<stop stop-color="#0452FF"/>
<stop offset="1" stop-color="#4E8FFF"/>
</linearGradient>
<linearGradient id="paint2_linear_4008_2105" x1="32.2229" y1="15.5576" x2="34.8575" y2="15.5576" gradientUnits="userSpaceOnUse">
<stop stop-color="#0452FF"/>
<stop offset="1" stop-color="#4E8FFF"/>
</linearGradient>
<linearGradient id="paint3_linear_4008_2105" x1="32.2178" y1="20.4089" x2="34.8676" y2="20.4089" gradientUnits="userSpaceOnUse">
<stop stop-color="#0452FF"/>
<stop offset="1" stop-color="#4E8FFF"/>
</linearGradient>
<linearGradient id="paint4_linear_4008_2105" x1="20.1394" y1="29.9383" x2="26.147" y2="29.9383" gradientUnits="userSpaceOnUse">
<stop stop-color="#0452FF"/>
<stop offset="1" stop-color="#4E8FFF"/>
</linearGradient>
</defs>
</svg>
