<svg width="60" height="60" viewBox="0 0 60 60" fill="none" xmlns="http://www.w3.org/2000/svg">
<path d="M0 10C0 4.47715 4.47715 0 10 0H50C55.5228 0 60 4.47715 60 10V50C60 55.5228 55.5228 60 50 60H10C4.47715 60 0 55.5228 0 50V10Z" fill="white"/>
<path fill-rule="evenodd" clip-rule="evenodd" d="M23.3548 19.0735C23.1493 19.0106 22.8976 19.0001 21.9681 19.0001C21.3203 19.0001 20.8923 19.0009 20.5585 19.0274C20.24 19.0527 20.0768 19.0976 19.9572 19.1524C19.5803 19.325 19.2067 19.7364 19.0711 20.1281C18.9675 20.4274 18.9773 20.7411 19.0946 21.957C19.6613 27.829 21.541 32.2578 24.6416 35.3583C27.7422 38.4589 32.1709 40.3387 38.043 40.9053C39.2588 41.0226 39.5726 41.0325 39.8719 40.9288C40.2636 40.7932 40.675 40.4196 40.8476 40.0428C40.9024 39.9231 40.9473 39.7599 40.9726 39.4414C40.9991 39.1077 40.9998 38.6797 40.9998 38.0318C40.9998 37.1024 40.9893 36.8506 40.9265 36.6452C40.8345 36.3447 40.66 36.0761 40.4227 35.87C40.2605 35.7291 40.0347 35.6173 39.1854 35.2398L37.9774 34.7029C37.0575 34.2941 36.8046 34.1952 36.5712 34.173C36.3107 34.1483 36.048 34.1848 35.8042 34.2798C35.5857 34.3649 35.3693 34.529 34.596 35.1734C34.5609 35.2027 34.5263 35.2316 34.492 35.2602C33.8782 35.7726 33.3922 36.1783 32.7879 36.399C32.244 36.5977 31.5634 36.6674 30.9905 36.5829C30.3549 36.4893 29.8573 36.2229 29.2386 35.8917C29.2081 35.8754 29.1773 35.8589 29.1462 35.8423C26.777 34.5761 25.4238 33.223 24.1577 30.8537C24.1411 30.8226 24.1246 30.7918 24.1083 30.7613C23.7771 30.1427 23.5107 29.6451 23.417 29.0095C23.3326 28.4366 23.4022 27.756 23.6009 27.212C23.8217 26.6078 24.2274 26.1218 24.7398 25.5079C24.7684 25.4737 24.7973 25.439 24.8265 25.4039C25.4709 24.6306 25.6351 24.4143 25.7202 24.1958C25.8151 23.952 25.8517 23.6893 25.8269 23.4288C25.8047 23.1954 25.7059 22.9424 25.297 22.0226L24.7602 20.8146C24.3827 19.9653 24.2708 19.7394 24.1299 19.5772C23.9239 19.34 23.6553 19.1654 23.3548 19.0735ZM22.0989 17.0001C22.8348 16.9995 23.4108 16.9991 23.94 17.161C24.599 17.3627 25.188 17.7454 25.6399 18.2657C26.0028 18.6835 26.2363 19.2101 26.5347 19.8828C26.5522 19.9222 26.5698 19.962 26.5878 20.0023L27.1247 21.2103C27.144 21.2538 27.1631 21.2968 27.182 21.3392C27.5065 22.0676 27.7608 22.6386 27.8179 23.2394C27.8723 23.8107 27.7921 24.3868 27.5839 24.9215C27.3649 25.4839 26.9643 25.9638 26.4534 26.5759C26.4236 26.6116 26.3935 26.6477 26.363 26.6843C25.7233 27.452 25.566 27.6616 25.4795 27.8983C25.395 28.1297 25.3597 28.4742 25.3956 28.7179C25.4331 28.9722 25.5216 29.1626 25.9216 29.9111C27.0013 31.9314 28.0686 32.9987 30.0889 34.0783C30.8373 34.4783 31.0278 34.5668 31.2821 34.6043C31.5258 34.6402 31.8703 34.605 32.1017 34.5204C32.3384 34.434 32.548 34.2767 33.3156 33.637C33.3522 33.6065 33.3884 33.5763 33.424 33.5466C34.0362 33.0356 34.5161 32.6351 35.0784 32.4161C35.6132 32.2078 36.1893 32.1277 36.7606 32.182C37.3613 32.2392 37.9324 32.4935 38.6608 32.8179C38.7032 32.8368 38.7461 32.856 38.7897 32.8753L39.9976 33.4122C40.038 33.4301 40.0778 33.4478 40.1171 33.4652C40.7899 33.7636 41.3164 33.9972 41.7342 34.3601C42.2545 34.812 42.6373 35.401 42.8389 36.06C43.0009 36.5891 43.0004 37.1651 42.9999 37.9011C42.9999 37.9441 42.9998 37.9877 42.9998 38.0318V38.0695C42.9998 38.6696 42.9999 39.1775 42.9663 39.5998C42.9308 40.0462 42.8542 40.4645 42.666 40.8755C42.2659 41.749 41.434 42.5045 40.5262 42.8188C39.7642 43.0826 38.9877 43.0069 38.0133 42.9118C37.9598 42.9066 37.9056 42.9013 37.8509 42.8961C31.6556 42.2982 26.7427 40.2879 23.2274 36.7726C19.7121 33.2573 17.7017 28.3444 17.1039 22.1491C17.0986 22.0943 17.0933 22.0402 17.0881 21.9867C16.9931 21.0122 16.9174 20.2358 17.1812 19.4738C17.4954 18.566 18.251 17.734 19.1244 17.334C19.5355 17.1457 19.9537 17.0691 20.4001 17.0336C20.8224 17.0001 21.3303 17.0001 21.9304 17.0001L21.9681 17.0001C22.0123 17.0001 22.0558 17.0001 22.0989 17.0001Z" fill="url(#paint0_linear_4008_4087)"/>
<path d="M40.0036 14.6382L38.3129 18.0872C38.2299 18.2565 38.2176 18.4519 38.2786 18.6303C38.3397 18.8087 38.4691 18.9555 38.6384 19.0385C38.8077 19.1215 39.003 19.1338 39.1814 19.0728C39.3598 19.0118 39.5067 18.8824 39.5897 18.7131L41.2803 15.2641C41.3633 15.0947 41.3757 14.8994 41.3146 14.721C41.2536 14.5426 41.1242 14.3958 40.9549 14.3128C40.7856 14.2298 40.5902 14.2174 40.4118 14.2785C40.2334 14.3395 40.0866 14.4689 40.0036 14.6382Z" fill="url(#paint1_linear_4008_4087)"/>
<path d="M35.6887 18.2344C35.7462 18.1608 35.7887 18.0766 35.8136 17.9866C35.8386 17.8966 35.8455 17.8026 35.8341 17.7099L35.3631 13.8979C35.337 13.7133 35.2395 13.5464 35.0915 13.433C34.9435 13.3197 34.7569 13.269 34.5719 13.2919C34.3869 13.3147 34.2183 13.4094 34.1024 13.5554C33.9865 13.7014 33.9325 13.887 33.9522 14.0724L34.4228 17.8842C34.442 18.0225 34.5013 18.1521 34.5933 18.2572C34.6853 18.3622 34.8061 18.438 34.9407 18.4753C35.0753 18.5125 35.2178 18.5095 35.3507 18.4667C35.4836 18.4239 35.6011 18.3432 35.6887 18.2344Z" fill="url(#paint2_linear_4008_4087)"/>
<path d="M40.7212 20.7255C40.6329 20.7557 40.5513 20.803 40.4813 20.8647C40.4112 20.9265 40.354 21.0014 40.3129 21.0852C40.2299 21.2545 40.2176 21.4499 40.2786 21.6283C40.3397 21.8067 40.4691 21.9536 40.6384 22.0366C40.8077 22.1196 41.0031 22.1319 41.1815 22.0709L44.8154 20.8277C44.9052 20.7987 44.9884 20.7521 45.0601 20.6906C45.1317 20.6292 45.1904 20.554 45.2327 20.4696C45.275 20.3852 45.3001 20.2933 45.3064 20.1991C45.3128 20.1049 45.3004 20.0104 45.2698 19.9211C45.2393 19.8317 45.1913 19.7494 45.1286 19.6788C45.0659 19.6083 44.9897 19.5509 44.9046 19.5101C44.8195 19.4692 44.7271 19.4458 44.6328 19.441C44.5385 19.4363 44.4443 19.4504 44.3555 19.4824L40.7212 20.7255Z" fill="url(#paint3_linear_4008_4087)"/>
<defs>
<linearGradient id="paint0_linear_4008_4087" x1="17" y1="30" x2="43" y2="30" gradientUnits="userSpaceOnUse">
<stop stop-color="#0452FF"/>
<stop offset="1" stop-color="#4E8FFF"/>
</linearGradient>
<linearGradient id="paint1_linear_4008_4087" x1="38.6384" y1="19.0385" x2="40.9549" y2="14.3128" gradientUnits="userSpaceOnUse">
<stop stop-color="#0452FF"/>
<stop offset="1" stop-color="#4E8FFF"/>
</linearGradient>
<linearGradient id="paint2_linear_4008_4087" x1="33.6277" y1="17.5199" x2="36.1636" y2="14.2695" gradientUnits="userSpaceOnUse">
<stop stop-color="#0452FF"/>
<stop offset="1" stop-color="#4E8FFF"/>
</linearGradient>
<linearGradient id="paint3_linear_4008_4087" x1="41.8617" y1="22.6362" x2="43.6867" y2="18.913" gradientUnits="userSpaceOnUse">
<stop stop-color="#0452FF"/>
<stop offset="1" stop-color="#4E8FFF"/>
</linearGradient>
</defs>
</svg>
