<svg width="60" height="60" viewBox="0 0 60 60" fill="none" xmlns="http://www.w3.org/2000/svg">
<path d="M0 10C0 4.47715 4.47715 0 10 0H50C55.5228 0 60 4.47715 60 10V50C60 55.5228 55.5228 60 50 60H10C4.47715 60 0 55.5228 0 50V10Z" fill="white"/>
<path d="M26.1064 17.7158C28.7103 17.6504 31.2887 17.6504 33.8926 17.7158L33.9707 17.7178C36.0035 17.7688 37.6392 17.8098 38.9502 18.0381C40.3229 18.2771 41.4394 18.7356 42.3818 19.6816C43.3203 20.6237 43.7762 21.7238 44.0107 23.0742C44.234 24.3599 44.2674 25.9558 44.3096 27.9326L44.3115 28.0117C44.3398 29.3401 44.3398 30.6609 44.3115 31.9893L44.3096 32.0674C44.2674 34.0445 44.234 35.6409 44.0107 36.9268C43.7762 38.2769 43.3201 39.3764 42.3818 40.3184C41.4394 41.2644 40.3229 41.7229 38.9502 41.9619C37.6392 42.1902 36.0035 42.2312 33.9707 42.2822L33.8926 42.2842C31.2887 42.3496 28.7103 42.3496 26.1064 42.2842L26.0283 42.2822C23.9955 42.2312 22.3598 42.1902 21.0488 41.9619C19.6762 41.7229 18.5597 41.2644 17.6172 40.3184C16.6789 39.3764 16.2228 38.2769 15.9883 36.9268C15.765 35.6409 15.7316 34.0445 15.6895 32.0674L15.6875 31.9893C15.6592 30.6609 15.6592 29.3401 15.6875 28.0117L15.6895 27.9326C15.7316 25.9558 15.765 24.3599 15.9883 23.0742C16.2228 21.7238 16.6787 20.6237 17.6172 19.6816C18.5597 18.7356 19.6762 18.2771 21.0488 18.0381C22.3598 17.8098 23.9956 17.7688 26.0283 17.7178L26.1064 17.7158ZM17.8945 23.8398C17.756 24.8964 17.7254 26.2322 17.6865 28.0537C17.6588 29.3537 17.6588 30.6463 17.6865 31.9463C17.7308 34.0202 17.7646 35.4646 17.959 36.584C18.1451 37.6557 18.4646 38.3354 19.0342 38.9072C19.5999 39.4751 20.2882 39.8 21.3916 39.9922C22.5399 40.1922 24.0275 40.2317 26.1562 40.2852C28.7268 40.3497 31.2722 40.3497 33.8428 40.2852C35.9715 40.2317 37.4591 40.1922 38.6074 39.9922C39.7108 39.8 40.3992 39.4751 40.9648 38.9072C41.5345 38.3354 41.8539 37.6557 42.04 36.584C42.2344 35.4646 42.2683 34.0202 42.3125 31.9463C42.3402 30.6463 42.3402 29.3537 42.3125 28.0537C42.2737 26.2332 42.2419 24.8981 42.1035 23.8418L34.6104 28.0879C32.8861 29.0649 31.4851 29.662 30.002 29.6621C28.5186 29.6621 27.117 29.0649 25.3926 28.0879L17.8945 23.8398ZM33.8428 19.7148C31.2722 19.6503 28.7268 19.6503 26.1562 19.7148C24.0274 19.7683 22.5399 19.8088 21.3916 20.0088C20.2882 20.2009 19.5999 20.5259 19.0342 21.0938C18.8035 21.3254 18.6154 21.5755 18.459 21.8613L26.3789 26.3486C28.0524 27.2968 29.0684 27.6621 30.002 27.6621C30.9355 27.662 31.9515 27.2969 33.625 26.3486L41.54 21.8633C41.3834 21.5768 41.1959 21.3258 40.9648 21.0938C40.3992 20.5259 39.7108 20.2009 38.6074 20.0088C37.4591 19.8088 35.9716 19.7683 33.8428 19.7148Z" fill="url(#paint0_linear_4008_4076)"/>
<path d="M44.0036 11.6382L42.3129 15.0872C42.2299 15.2565 42.2176 15.4519 42.2786 15.6303C42.3397 15.8087 42.4691 15.9555 42.6384 16.0385C42.8077 16.1215 43.003 16.1338 43.1814 16.0728C43.3598 16.0118 43.5067 15.8824 43.5897 15.7131L45.2803 12.2641C45.3633 12.0947 45.3757 11.8994 45.3146 11.721C45.2536 11.5426 45.1242 11.3958 44.9549 11.3128C44.7856 11.2298 44.5902 11.2174 44.4118 11.2785C44.2334 11.3395 44.0866 11.4689 44.0036 11.6382Z" fill="url(#paint1_linear_4008_4076)"/>
<path d="M39.6887 15.2344C39.7462 15.1608 39.7887 15.0766 39.8136 14.9866C39.8386 14.8966 39.8455 14.8026 39.8341 14.7099L39.3631 10.8979C39.337 10.7133 39.2395 10.5464 39.0915 10.433C38.9435 10.3197 38.7569 10.269 38.5719 10.2919C38.3869 10.3147 38.2183 10.4094 38.1024 10.5554C37.9865 10.7014 37.9325 10.887 37.9522 11.0724L38.4228 14.8842C38.442 15.0225 38.5013 15.1521 38.5933 15.2572C38.6853 15.3622 38.8061 15.438 38.9407 15.4753C39.0753 15.5125 39.2178 15.5095 39.3507 15.4667C39.4836 15.4239 39.6011 15.3432 39.6887 15.2344Z" fill="url(#paint2_linear_4008_4076)"/>
<path d="M44.7212 17.7255C44.6329 17.7557 44.5513 17.803 44.4813 17.8647C44.4112 17.9265 44.354 18.0014 44.3129 18.0852C44.2299 18.2545 44.2176 18.4499 44.2786 18.6283C44.3397 18.8067 44.4691 18.9536 44.6384 19.0366C44.8077 19.1196 45.0031 19.1319 45.1815 19.0709L48.8154 17.8277C48.9052 17.7987 48.9884 17.7521 49.0601 17.6906C49.1317 17.6292 49.1904 17.554 49.2327 17.4696C49.275 17.3852 49.3001 17.2933 49.3064 17.1991C49.3128 17.1049 49.3004 17.0104 49.2698 16.9211C49.2393 16.8317 49.1913 16.7494 49.1286 16.6788C49.0659 16.6083 48.9897 16.5509 48.9046 16.5101C48.8195 16.4692 48.7271 16.4458 48.6328 16.441C48.5385 16.4363 48.4443 16.4504 48.3555 16.4824L44.7212 17.7255Z" fill="url(#paint3_linear_4008_4076)"/>
<defs>
<linearGradient id="paint0_linear_4008_4076" x1="15.666" y1="30.0002" x2="44.3325" y2="30.0002" gradientUnits="userSpaceOnUse">
<stop stop-color="#0452FF"/>
<stop offset="1" stop-color="#4E8FFF"/>
</linearGradient>
<linearGradient id="paint1_linear_4008_4076" x1="42.6384" y1="16.0385" x2="44.9549" y2="11.3128" gradientUnits="userSpaceOnUse">
<stop stop-color="#0452FF"/>
<stop offset="1" stop-color="#4E8FFF"/>
</linearGradient>
<linearGradient id="paint2_linear_4008_4076" x1="37.6277" y1="14.5199" x2="40.1636" y2="11.2695" gradientUnits="userSpaceOnUse">
<stop stop-color="#0452FF"/>
<stop offset="1" stop-color="#4E8FFF"/>
</linearGradient>
<linearGradient id="paint3_linear_4008_4076" x1="45.8617" y1="19.6362" x2="47.6867" y2="15.913" gradientUnits="userSpaceOnUse">
<stop stop-color="#0452FF"/>
<stop offset="1" stop-color="#4E8FFF"/>
</linearGradient>
</defs>
</svg>
