<svg width="116" height="20" viewBox="0 0 116 20" fill="none" xmlns="http://www.w3.org/2000/svg">
<path d="M9.99995 1.45898C10.2592 1.45898 10.4915 1.61899 10.5839 1.86117L12.5489 7.01094L17.9471 7.27493C18.2015 7.28737 18.4228 7.45284 18.5067 7.69324C18.5906 7.93365 18.5203 8.20091 18.3289 8.36889L14.2206 11.9752L15.7306 17.7595C15.7965 18.0119 15.6986 18.2788 15.485 18.4288C15.2715 18.5788 14.9873 18.5803 14.7721 18.4326L9.99995 15.1569L5.22776 18.4326C5.01262 18.5803 4.72838 18.5788 4.51484 18.4288C4.3013 18.2788 4.20341 18.0119 4.26932 17.7595L5.77928 11.9752L1.67097 8.36889C1.47961 8.20091 1.40928 7.93365 1.49318 7.69324C1.57708 7.45284 1.79843 7.28737 2.05275 7.27493L7.45103 7.01094L9.41601 1.86117C9.50842 1.61899 9.74073 1.45898 9.99995 1.45898Z" fill="#FFAE00"/>
<path d="M33.9999 1.45898C34.2592 1.45898 34.4915 1.61899 34.5839 1.86117L36.5489 7.01094L41.9471 7.27493C42.2015 7.28737 42.4228 7.45284 42.5067 7.69324C42.5906 7.93365 42.5203 8.20091 42.3289 8.36889L38.2206 11.9752L39.7306 17.7595C39.7965 18.0119 39.6986 18.2788 39.485 18.4288C39.2715 18.5788 38.9873 18.5803 38.7721 18.4326L33.9999 15.1569L29.2278 18.4326C29.0126 18.5803 28.7284 18.5788 28.5148 18.4288C28.3013 18.2788 28.2034 18.0119 28.2693 17.7595L29.7793 11.9752L25.671 8.36889C25.4796 8.20091 25.4093 7.93365 25.4932 7.69324C25.5771 7.45284 25.7984 7.28737 26.0528 7.27493L31.451 7.01094L33.416 1.86117C33.5084 1.61899 33.7407 1.45898 33.9999 1.45898Z" fill="#FFAE00"/>
<path d="M57.9999 1.45898C58.2592 1.45898 58.4915 1.61899 58.5839 1.86117L60.5489 7.01094L65.9471 7.27493C66.2015 7.28737 66.4228 7.45284 66.5067 7.69324C66.5906 7.93365 66.5203 8.20091 66.3289 8.36889L62.2206 11.9752L63.7306 17.7595C63.7965 18.0119 63.6986 18.2788 63.485 18.4288C63.2715 18.5788 62.9873 18.5803 62.7721 18.4326L57.9999 15.1569L53.2278 18.4326C53.0126 18.5803 52.7284 18.5788 52.5148 18.4288C52.3013 18.2788 52.2034 18.0119 52.2693 17.7595L53.7793 11.9752L49.671 8.36889C49.4796 8.20091 49.4093 7.93365 49.4932 7.69324C49.5771 7.45284 49.7984 7.28737 50.0528 7.27493L55.451 7.01094L57.416 1.86117C57.5084 1.61899 57.7407 1.45898 57.9999 1.45898Z" fill="#FFAE00"/>
<path d="M81.9999 1.45898C82.2592 1.45898 82.4915 1.61899 82.5839 1.86117L84.5489 7.01094L89.9471 7.27493C90.2015 7.28737 90.4228 7.45284 90.5067 7.69324C90.5906 7.93365 90.5203 8.20091 90.3289 8.36889L86.2206 11.9752L87.7306 17.7595C87.7965 18.0119 87.6986 18.2788 87.485 18.4288C87.2715 18.5788 86.9873 18.5803 86.7721 18.4326L81.9999 15.1569L77.2278 18.4326C77.0126 18.5803 76.7284 18.5788 76.5148 18.4288C76.3013 18.2788 76.2034 18.0119 76.2693 17.7595L77.7793 11.9752L73.671 8.36889C73.4796 8.20091 73.4093 7.93365 73.4932 7.69324C73.5771 7.45284 73.7984 7.28737 74.0528 7.27493L79.451 7.01094L81.416 1.86117C81.5084 1.61899 81.7407 1.45898 81.9999 1.45898Z" fill="#FFAE00"/>
<path d="M106 1.45898C106.259 1.45898 106.491 1.61899 106.584 1.86117L108.549 7.01094L113.947 7.27493C114.201 7.28737 114.423 7.45284 114.507 7.69324C114.591 7.93365 114.52 8.20091 114.329 8.36889L110.221 11.9752L111.731 17.7595C111.796 18.0119 111.699 18.2788 111.485 18.4288C111.272 18.5788 110.987 18.5803 110.772 18.4326L106 15.1569L101.228 18.4326C101.013 18.5803 100.728 18.5788 100.515 18.4288C100.301 18.2788 100.203 18.0119 100.269 17.7595L101.779 11.9752L97.671 8.36889C97.4796 8.20091 97.4093 7.93365 97.4932 7.69324C97.5771 7.45284 97.7984 7.28737 98.0528 7.27493L103.451 7.01094L105.416 1.86117C105.508 1.61899 105.741 1.45898 106 1.45898Z" fill="#FFAE00"/>
</svg>
