<svg width="40" height="40" viewBox="0 0 40 40" fill="none" xmlns="http://www.w3.org/2000/svg">
<rect width="40" height="40" rx="20" fill="url(#paint0_linear_10210_3431)"/>
<path d="M19.9999 29.7504C19.837 29.7504 19.6785 29.6973 19.5484 29.5991C19.4183 29.501 19.3237 29.3631 19.2789 29.2064L18.4999 26.4794C18.1651 25.293 17.5315 24.2123 16.6598 23.3406C15.7881 22.4689 14.7074 21.8353 13.5209 21.5004L10.7939 20.7214C10.6374 20.6766 10.4996 20.582 10.4016 20.4519C10.3035 20.3218 10.2505 20.1633 10.2505 20.0004C10.2505 19.8375 10.3035 19.6791 10.4016 19.549C10.4996 19.4189 10.6374 19.3243 10.7939 19.2794L13.5209 18.5004C14.7074 18.1656 15.7881 17.532 16.6598 16.6603C17.5315 15.7886 18.1651 14.7079 18.4999 13.5214L19.2789 10.7944C19.3238 10.6378 19.4184 10.5001 19.5485 10.4021C19.6786 10.304 19.8371 10.251 19.9999 10.251C20.1628 10.251 20.3213 10.304 20.4514 10.4021C20.5815 10.5001 20.6761 10.6378 20.7209 10.7944L21.4999 13.5214C21.8348 14.7079 22.4684 15.7886 23.3401 16.6603C24.2118 17.532 25.2925 18.1656 26.4789 18.5004L29.2059 19.2794C29.3625 19.3243 29.5003 19.4189 29.5983 19.549C29.6964 19.6791 29.7494 19.8375 29.7494 20.0004C29.7494 20.1633 29.6964 20.3218 29.5983 20.4519C29.5003 20.582 29.3625 20.6766 29.2059 20.7214L26.4789 21.5004C25.2925 21.8353 24.2118 22.4689 23.3401 23.3406C22.4684 24.2123 21.8348 25.293 21.4999 26.4794L20.7209 29.2064C20.6762 29.3631 20.5816 29.501 20.4515 29.5991C20.3214 29.6973 20.1629 29.7504 19.9999 29.7504ZM13.7299 20.0004L13.9299 20.0584C15.3618 20.4627 16.666 21.2273 17.718 22.2793C18.7701 23.3314 19.5347 24.6356 19.9389 26.0674L19.9969 26.2674L20.0549 26.0674C20.4592 24.6356 21.2238 23.3314 22.2759 22.2793C23.3279 21.2273 24.6321 20.4627 26.0639 20.0584L26.2639 20.0004L26.0639 19.9424C24.6321 19.5382 23.3279 18.7736 22.2759 17.7215C21.2238 16.6695 20.4592 15.3653 20.0549 13.9334L19.9999 13.7314L19.9419 13.9314C19.5377 15.3633 18.7731 16.6675 17.721 17.7195C16.669 18.7716 15.3648 19.5362 13.9329 19.9404L13.7299 20.0004Z" fill="white"/>
<defs>
<linearGradient id="paint0_linear_10210_3431" x1="0" y1="20" x2="40" y2="20" gradientUnits="userSpaceOnUse">
<stop stop-color="#0452FF"/>
<stop offset="1" stop-color="#4E8FFF"/>
</linearGradient>
</defs>
</svg>
