<svg width="80" height="48" viewBox="0 0 80 48" fill="none" xmlns="http://www.w3.org/2000/svg">
<g opacity="0.2">
<path d="M0 30.0741C0 27.7209 0.463706 25.1072 1.39537 22.233C2.32704 19.363 3.48843 16.5183 4.88381 13.7029C6.27918 10.8875 7.83621 8.27383 9.55065 5.86186C11.2651 3.44988 12.9115 1.49593 14.4813 0L32.1064 2.15565C30.243 3.59275 28.5413 5.20214 27.0013 6.9796C25.4613 8.76127 24.0191 10.627 22.6833 12.5809C24.8359 12.7532 26.7971 13.3289 28.5711 14.3038C30.3451 15.2828 31.8724 16.5435 33.1529 18.094C34.4334 19.6446 35.4204 21.4431 36.1181 23.4811C36.8157 25.519 37.1646 27.7167 37.1646 30.0741C37.1646 32.028 36.8455 34.0534 36.2031 36.1502C35.5608 38.2471 34.5312 40.1716 33.1061 41.9238C31.6809 43.6761 29.7751 45.1258 27.3927 46.2772C25.0061 47.4285 22.0707 48 18.5823 48C15.3831 48 12.6179 47.5672 10.2951 46.7058C7.96809 45.8444 6.03244 44.6258 4.49242 43.0416C2.95241 41.4616 1.81654 39.5791 1.08907 37.3982C0.361605 35.2174 0 32.776 0 30.0741ZM42.8354 30.0741C42.8354 27.7209 43.2991 25.1072 44.2308 22.233C45.1625 19.363 46.3239 16.5183 47.7192 13.7029C49.1146 10.8875 50.6716 8.27383 52.3861 5.86186C54.1005 3.44988 55.7469 1.49593 57.3167 0L75.0269 2.15565C73.1635 3.59275 71.4491 5.20214 69.8793 6.9796C68.3095 8.76127 66.8546 10.627 65.5188 12.5809C67.6714 12.7532 69.6326 13.3289 71.4065 14.3038C73.1805 15.2828 74.7078 16.5435 75.9883 18.094C77.2688 19.6446 78.2558 21.4431 78.9535 23.4811C79.6512 25.519 80 27.7167 80 30.0741C80 32.028 79.6809 34.0534 79.0386 36.1502C78.3962 38.2471 77.3667 40.1716 75.9415 41.9238C74.5164 43.6761 72.6105 45.1258 70.2281 46.2772C67.8415 47.4285 64.9061 48 61.4177 48C58.2781 48 55.5299 47.5672 53.1731 46.7058C50.8163 45.8444 48.8849 44.6258 47.3704 43.0416C45.8559 41.4616 44.7243 39.5791 43.967 37.3982C43.2098 35.2174 42.8312 32.776 42.8312 30.0741H42.8354Z" fill="#060C16"/>
</g>
</svg>
