<svg width="24" height="24" viewBox="0 0 24 24" fill="none" xmlns="http://www.w3.org/2000/svg">
<path fill-rule="evenodd" clip-rule="evenodd" d="M7.01647 3.80512C6.86237 3.75796 6.67353 3.75009 5.97645 3.75009C5.49058 3.75009 5.16956 3.75064 4.91925 3.77052C4.68039 3.7895 4.55799 3.82318 4.46826 3.86427C4.18561 3.99372 3.90541 4.30227 3.8037 4.59605C3.72598 4.82055 3.73336 5.05584 3.82135 5.96775C4.24632 10.3718 5.65614 13.6933 7.98158 16.0188C10.307 18.3442 13.6286 19.754 18.0326 20.179C18.9445 20.267 19.1798 20.2744 19.4043 20.1966C19.6981 20.0949 20.0066 19.8147 20.1361 19.5321C20.1772 19.4423 20.2108 19.3199 20.2298 19.0811C20.2497 18.8308 20.2502 18.5098 20.2502 18.0239C20.2502 17.3268 20.2424 17.138 20.1952 16.9839C20.1263 16.7585 19.9953 16.5571 19.8174 16.4025C19.6958 16.2969 19.5264 16.213 18.8894 15.9299L17.9834 15.5272C17.2935 15.2206 17.1038 15.1464 16.9287 15.1298C16.7334 15.1112 16.5364 15.1386 16.3535 15.2098C16.1896 15.2736 16.0274 15.3968 15.4474 15.8801C15.4211 15.902 15.3951 15.9237 15.3694 15.9451C14.909 16.3294 14.5445 16.6337 14.0913 16.7993C13.6834 16.9483 13.1729 17.0005 12.7432 16.9372C12.2665 16.867 11.8933 16.6672 11.4293 16.4188C11.4065 16.4065 11.3834 16.3942 11.36 16.3817C9.5831 15.4321 8.56823 14.4172 7.61863 12.6403C7.60616 12.617 7.5938 12.5939 7.58156 12.571C7.33316 12.107 7.13337 11.7338 7.06312 11.2571C6.9998 10.8274 7.05204 10.317 7.20108 9.90901C7.36663 9.45584 7.6709 9.09132 8.0552 8.63095C8.07664 8.60526 8.09833 8.57927 8.12026 8.55296C8.60358 7.97298 8.72669 7.81073 8.79051 7.64686C8.86173 7.46398 8.88914 7.26696 8.87055 7.07159C8.8539 6.89651 8.77976 6.70682 8.47314 6.01693L8.07048 5.11095C7.78737 4.47395 7.70348 4.30458 7.59781 4.18291C7.44327 4.00498 7.24183 3.87407 7.01647 3.80512ZM6.07451 2.25005C6.6265 2.24964 7.05849 2.24932 7.45536 2.37076C7.94959 2.52199 8.39137 2.80909 8.73028 3.1993C9.00245 3.51265 9.17761 3.90754 9.40142 4.41212C9.4145 4.44162 9.42775 4.47149 9.4412 4.50174L9.84385 5.40772C9.85837 5.44037 9.87272 5.4726 9.88689 5.50442C10.1302 6.0507 10.321 6.47897 10.3638 6.92955C10.4046 7.35803 10.3445 7.79009 10.1883 8.19116C10.024 8.61293 9.72361 8.97285 9.3404 9.43195C9.31808 9.4587 9.29547 9.48578 9.27259 9.51323C8.79281 10.089 8.67485 10.2462 8.61 10.4237C8.5466 10.5973 8.52016 10.8556 8.5471 11.0384C8.5752 11.2291 8.64159 11.372 8.94157 11.9333C9.7513 13.4485 10.5518 14.249 12.067 15.0588C12.6284 15.3587 12.7712 15.4251 12.9619 15.4532C13.1447 15.4802 13.4031 15.4537 13.5766 15.3903C13.7541 15.3255 13.9114 15.2075 14.4871 14.7277C14.5146 14.7049 14.5416 14.6823 14.5684 14.6599C15.0275 14.2767 15.3874 13.9763 15.8092 13.8121C16.2102 13.6559 16.6423 13.5958 17.0708 13.6365C17.5214 13.6794 17.9497 13.8701 18.4959 14.1135C18.5278 14.1276 18.56 14.142 18.5926 14.1565L19.4986 14.5591C19.5288 14.5726 19.5587 14.5858 19.5882 14.5989C20.0928 14.8227 20.4877 14.9979 20.801 15.2701C21.1912 15.609 21.4783 16.0507 21.6296 16.545C21.751 16.9419 21.7507 17.3738 21.7503 17.9258C21.7503 17.9581 21.7502 17.9908 21.7502 18.0239V18.0521C21.7503 18.5022 21.7503 18.8831 21.7251 19.1999C21.6985 19.5347 21.641 19.8484 21.4998 20.1567C21.1998 20.8117 20.5759 21.3784 19.895 21.6141C19.3235 21.8119 18.7412 21.7552 18.0103 21.6839C17.9702 21.68 17.9296 21.676 17.8885 21.672C13.242 21.2237 9.55739 19.7159 6.92092 17.0794C4.28444 14.4429 2.77665 10.7583 2.32829 6.11183C2.32433 6.07075 2.32037 6.03015 2.31645 5.99C2.24518 5.25918 2.18839 4.67683 2.38624 4.10534C2.62194 3.42448 3.18861 2.80051 3.84368 2.50049C4.15197 2.3593 4.46567 2.30183 4.80046 2.27524C5.1172 2.25007 5.4981 2.25008 5.94818 2.25009L5.97645 2.25009C6.00956 2.25009 6.04224 2.25007 6.07451 2.25005Z" fill="#03050C"/>
</svg>
