<svg width="44" height="44" viewBox="0 0 44 44" fill="none" xmlns="http://www.w3.org/2000/svg">
<path d="M0 12C0 5.37258 5.37258 0 12 0H32C38.6274 0 44 5.37258 44 12V32C44 38.6274 38.6274 44 32 44H12C5.37258 44 0 38.6274 0 32V12Z" fill="#EAF2FF"/>
<g clip-path="url(#clip0_4008_2777)">
<path d="M32.1866 17.6573C32.2557 17.6027 32.3038 17.526 32.323 17.44C32.3421 17.354 32.331 17.264 32.2916 17.1853C31.1757 14.9608 29.3712 13.1563 27.1468 12.0405C27.068 12.0011 26.9781 11.99 26.8921 12.0091C26.8061 12.0283 26.7294 12.0764 26.6747 12.1455L23.6949 15.9209C22.9337 16.8852 22.1243 17.8286 21.2887 18.731C21.0073 18.641 20.7033 18.6529 20.4298 18.7644C20.185 18.9203 20.0016 19.156 19.9107 19.4316C19.8692 19.5422 19.8117 19.646 19.7399 19.7398C19.6462 19.8116 19.5424 19.8691 19.4319 19.9107C19.156 20.0016 18.92 20.1854 18.7643 20.4307C18.6526 20.704 18.6409 21.0079 18.7312 21.289C17.8278 22.1251 16.8843 22.9345 15.921 23.6953L12.1456 26.6744C12.0764 26.729 12.0283 26.8058 12.0091 26.8918C11.99 26.9778 12.0011 27.0677 12.0406 27.1465C13.1564 29.371 14.9609 31.1756 17.1853 32.2915C17.2641 32.3309 17.3541 32.342 17.4401 32.3228C17.5261 32.3037 17.6028 32.2554 17.6574 32.1863L20.6377 28.4107C21.1204 27.7982 21.6236 27.1929 22.1378 26.6051L22.8597 28.6014C22.8813 28.6606 22.9172 28.7135 22.9642 28.7555C23.0111 28.7974 23.0677 28.8272 23.1289 28.842C23.1902 28.8569 23.2541 28.8564 23.3151 28.8407C23.3761 28.8249 23.4322 28.7943 23.4786 28.7517L24.3039 27.9861L25.4305 28.0462C25.4936 28.0495 25.5565 28.0372 25.6137 28.0103C25.6709 27.9834 25.7205 27.9427 25.7582 27.892C25.7958 27.8413 25.8203 27.782 25.8295 27.7195C25.8387 27.6569 25.8323 27.5931 25.8109 27.5337L24.8348 24.8347L27.5351 25.8119C27.5945 25.8334 27.6583 25.8399 27.7209 25.8307C27.7834 25.8215 27.8427 25.797 27.8934 25.7593C27.9442 25.7217 27.9848 25.672 28.0116 25.6148C28.0385 25.5576 28.0508 25.4946 28.0474 25.4315L27.9872 24.3052L28.752 23.4785C28.7949 23.4321 28.8257 23.3758 28.8416 23.3147C28.8575 23.2535 28.8581 23.1894 28.8432 23.1279C28.8283 23.0665 28.7984 23.0097 28.7562 22.9626C28.7141 22.9156 28.6609 22.8797 28.6015 22.8581L26.6052 22.1362C27.1942 21.6209 27.7993 21.1177 28.4112 20.6358L32.1866 17.6573ZM19.4455 20.7802C19.5352 20.7064 19.6369 20.6485 19.7462 20.6089C19.9431 20.5331 20.1245 20.4219 20.2813 20.2808C20.4225 20.1239 20.5337 19.9424 20.6094 19.7453C20.649 19.6364 20.7066 19.5349 20.7801 19.4452C20.7995 19.4376 20.8203 19.4344 20.8411 19.4356C20.9432 19.4424 21.0445 19.458 21.1438 19.4824C21.2171 19.4977 21.2902 19.5128 21.3626 19.5242L21.3687 19.5255H21.3709C21.4963 19.5467 21.6242 19.5487 21.7502 19.5316C21.9506 19.4879 22.1414 19.4084 22.3135 19.2969C22.4131 19.2278 22.5247 19.178 22.6427 19.1501C22.6996 19.1593 22.8304 19.3032 22.9085 19.3885C23.0392 19.5495 23.198 19.6853 23.3773 19.7895C23.5615 19.8703 23.7589 19.9168 23.9598 19.9269C24.0853 19.928 24.2091 19.9556 24.3232 20.0078C24.3752 20.1219 24.4028 20.2457 24.4041 20.3712C24.4139 20.572 24.4605 20.7694 24.5415 20.9535V20.9552C24.6455 21.1339 24.7811 21.2923 24.9416 21.4227C25.0271 21.5008 25.1706 21.6314 25.1793 21.6852C25.1672 21.7725 25.135 21.8557 25.0853 21.9284L25.0387 22.0094C24.9238 22.1846 24.8422 22.3795 24.7981 22.5842C24.7812 22.71 24.7835 22.8376 24.8048 22.9627C24.8162 23.0364 24.832 23.1121 24.8486 23.1882C24.8848 23.3058 24.8974 23.4293 24.8858 23.5518C24.7966 23.6251 24.6956 23.6826 24.587 23.7217C24.4381 23.7829 24.2964 23.8603 24.1646 23.9525L24.1576 23.9573L24.1534 23.9604C24.0808 24.0154 24.016 24.08 23.9609 24.1525L23.9576 24.1573C23.9554 24.1601 23.9537 24.1632 23.9517 24.166C23.8598 24.2975 23.7826 24.4387 23.7216 24.5871C23.6824 24.6956 23.625 24.7967 23.5518 24.8859C23.4293 24.8976 23.3057 24.885 23.1881 24.849C23.1119 24.8328 23.036 24.817 22.9603 24.8052C22.8352 24.784 22.7075 24.7818 22.5817 24.7989C22.3775 24.8432 22.1832 24.9248 22.0086 25.0395L21.9322 25.0832C21.8591 25.1332 21.7759 25.1663 21.6885 25.1804C21.6317 25.1712 21.5011 25.0272 21.423 24.9419C21.2921 24.7811 21.1332 24.6453 20.954 24.541C20.7698 24.4602 20.5723 24.4137 20.3714 24.4038C20.246 24.4026 20.1221 24.375 20.0081 24.3227C19.9559 24.2086 19.9284 24.0849 19.9272 23.9595C19.9172 23.7579 19.8704 23.5599 19.7889 23.3752C19.6848 23.1966 19.5493 23.0383 19.3888 22.908C19.3033 22.8299 19.1598 22.6993 19.1508 22.6455C19.178 22.5267 19.2276 22.4142 19.2972 22.3141C19.4092 22.1412 19.4889 21.9494 19.5323 21.748C19.5492 21.6221 19.5469 21.4945 19.5255 21.3693V21.3676V21.3658C19.5144 21.2932 19.4988 21.2188 19.4831 21.144C19.4468 21.0264 19.434 20.9028 19.4455 20.7802ZM20.0361 27.9366L17.2525 31.4629C15.3939 30.4622 13.8698 28.938 12.8692 27.0793L16.3952 24.2955C17.0711 23.7622 17.7364 23.204 18.3858 22.6308C18.3851 22.6758 18.3881 22.7207 18.3948 22.7652C18.4676 23.0497 18.6367 23.3003 18.8734 23.4743C18.9625 23.5462 19.0412 23.6301 19.1071 23.7237C19.1411 23.8263 19.1609 23.9331 19.1659 24.0411C19.1663 24.3424 19.2728 24.6339 19.4667 24.8645C19.6973 25.0584 19.9889 25.165 20.2903 25.1655C20.3976 25.1705 20.5038 25.19 20.6059 25.2235C20.7003 25.2893 20.7848 25.3683 20.8568 25.458C21.0318 25.6953 21.2837 25.8647 21.5695 25.9372C21.6103 25.9435 21.6515 25.9466 21.6927 25.9467H21.6999C21.1296 26.5924 20.569 27.2589 20.0361 27.9366ZM24.1834 27.2134C24.1322 27.2109 24.081 27.2186 24.0328 27.236C23.9846 27.2535 23.9404 27.2804 23.9027 27.3152L23.3821 27.7977L22.5876 25.5973C22.6231 25.5786 22.6609 25.5647 22.7 25.556C22.7493 25.5516 22.7988 25.5538 22.8475 25.5627C22.9072 25.5719 22.9684 25.5846 23.0301 25.5982C23.3152 25.6909 23.6238 25.68 23.9016 25.5676C24.0171 25.5064 24.117 25.4195 24.1937 25.3136L24.895 27.2515L24.1834 27.2134ZM27.3152 23.9029C27.2803 23.9404 27.2533 23.9846 27.2358 24.0329C27.2183 24.0811 27.2107 24.1323 27.2135 24.1835L27.2516 24.8947L25.3137 24.1947C25.4197 24.118 25.5067 24.0179 25.5678 23.9022C25.6801 23.6243 25.6909 23.3158 25.5982 23.0307C25.5851 22.9692 25.572 22.908 25.5632 22.8502C25.5541 22.8017 25.5516 22.7522 25.5558 22.703C25.5647 22.6633 25.5786 22.6248 25.5974 22.5886L27.7978 23.3822L27.3152 23.9029ZM25.945 21.7014C25.9459 21.6563 25.9431 21.6112 25.9367 21.5666C25.8637 21.2822 25.6947 21.0318 25.4582 20.8577C25.3687 20.7857 25.2898 20.7014 25.224 20.6072C25.1903 20.5049 25.1707 20.3985 25.1656 20.2909C25.1652 19.9896 25.0587 19.6981 24.8648 19.4675C24.6342 19.2734 24.3426 19.1668 24.0412 19.1663C23.9339 19.1613 23.8277 19.1418 23.7255 19.1085C23.6313 19.0426 23.5468 18.9636 23.4746 18.874C23.3 18.6368 23.0485 18.4675 22.763 18.395C22.7196 18.3883 22.6757 18.3853 22.6318 18.386C23.2042 17.7363 23.7625 17.0713 24.2962 16.3954L27.0796 12.8691C28.9381 13.8699 30.4622 15.3939 31.4629 17.2524L27.9371 20.036C27.2605 20.5691 26.5933 21.1289 25.945 21.7014Z" fill="url(#paint0_linear_4008_2777)"/>
<path d="M22.1661 24.273C22.6536 24.2727 23.1259 24.1033 23.5025 23.7938C23.8791 23.4843 24.1368 23.0537 24.2316 22.5755C24.3264 22.0974 24.2524 21.6011 24.0224 21.1713C23.7923 20.7415 23.4203 20.4048 22.9698 20.2185C22.5193 20.0322 22.0181 20.0079 21.5517 20.1497C21.0853 20.2915 20.6825 20.5906 20.4119 20.9961C20.1412 21.4016 20.0196 21.8883 20.0676 22.3735C20.1157 22.8586 20.3304 23.3121 20.6753 23.6566C20.871 23.8525 21.1034 24.0078 21.3592 24.1136C21.615 24.2193 21.8893 24.2735 22.1661 24.273ZM21.2167 21.2167C21.4045 21.0289 21.6437 20.901 21.9041 20.8492C22.1645 20.7974 22.4344 20.824 22.6797 20.9256C22.925 21.0272 23.1347 21.1993 23.2822 21.4201C23.4297 21.6409 23.5085 21.9004 23.5085 22.1659C23.5085 22.4314 23.4297 22.691 23.2822 22.9118C23.1347 23.1325 22.925 23.3046 22.6797 23.4062C22.4344 23.5078 22.1645 23.5344 21.9041 23.4826C21.6437 23.4308 21.4045 23.3029 21.2167 23.1152C21.0916 22.9908 20.9923 22.8429 20.9246 22.68C20.8569 22.517 20.822 22.3424 20.822 22.1659C20.822 21.9895 20.8569 21.8148 20.9246 21.6519C20.9923 21.489 21.0916 21.3411 21.2167 21.2167Z" fill="url(#paint1_linear_4008_2777)"/>
<path d="M13.2467 15.0126C13.107 15.0561 12.956 15.0443 12.8168 14.9757L10.2951 13.6524C10.0204 13.5083 9.91491 13.1699 10.0591 12.8952C10.2032 12.6205 10.5415 12.5151 10.8163 12.6592L13.338 13.9825C13.6127 14.1267 13.7182 14.465 13.574 14.7397C13.5038 14.8736 13.3809 14.9708 13.2467 15.0126Z" fill="url(#paint2_linear_4008_2777)"/>
<path d="M19.9048 12.937C19.7652 12.9806 19.6142 12.9687 19.475 12.9002C19.2003 12.756 19.0948 12.4177 19.239 12.143L20.5623 9.6212C20.7064 9.34648 21.0448 9.24103 21.3195 9.38519C21.5942 9.52935 21.6996 9.86767 21.5555 10.1424L20.2322 12.6641C20.162 12.798 20.0391 12.8952 19.9048 12.937Z" fill="url(#paint3_linear_4008_2777)"/>
<path d="M16.1466 12.5947C15.8512 12.6867 15.5342 12.5204 15.4422 12.225L14.5952 9.50772C14.5032 9.21236 14.6695 8.89538 14.9649 8.80332C15.2602 8.71126 15.5772 8.8776 15.6693 9.17296L16.5162 11.8903C16.6083 12.1856 16.4419 12.5026 16.1466 12.5947Z" fill="url(#paint4_linear_4008_2777)"/>
<path d="M12.9043 18.7726L10.187 19.6195C9.89161 19.7116 9.57463 19.5453 9.48257 19.2499C9.39051 18.9545 9.55684 18.6376 9.8522 18.5455L12.5695 17.6986C12.8649 17.6065 13.1819 17.7728 13.2739 18.0682C13.366 18.3636 13.1996 18.6805 12.9043 18.7726Z" fill="url(#paint5_linear_4008_2777)"/>
</g>
<defs>
<linearGradient id="paint0_linear_4008_2777" x1="12" y1="22.166" x2="32.3321" y2="22.166" gradientUnits="userSpaceOnUse">
<stop stop-color="#0452FF"/>
<stop offset="1" stop-color="#4E8FFF"/>
</linearGradient>
<linearGradient id="paint1_linear_4008_2777" x1="20.0574" y1="22.1658" x2="24.2718" y2="22.1658" gradientUnits="userSpaceOnUse">
<stop stop-color="#0452FF"/>
<stop offset="1" stop-color="#4E8FFF"/>
</linearGradient>
<linearGradient id="paint2_linear_4008_2777" x1="10.3194" y1="14.2834" x2="13.3133" y2="13.3502" gradientUnits="userSpaceOnUse">
<stop stop-color="#0452FF"/>
<stop offset="1" stop-color="#4E8FFF"/>
</linearGradient>
<linearGradient id="paint3_linear_4008_2777" x1="18.9001" y1="11.6086" x2="21.894" y2="10.6754" gradientUnits="userSpaceOnUse">
<stop stop-color="#0452FF"/>
<stop offset="1" stop-color="#4E8FFF"/>
</linearGradient>
<linearGradient id="paint4_linear_4008_2777" x1="15.0187" y1="10.8664" x2="16.0928" y2="10.5316" gradientUnits="userSpaceOnUse">
<stop stop-color="#0452FF"/>
<stop offset="1" stop-color="#4E8FFF"/>
</linearGradient>
<linearGradient id="paint5_linear_4008_2777" x1="9.48257" y1="19.2499" x2="13.2739" y2="18.0682" gradientUnits="userSpaceOnUse">
<stop stop-color="#0452FF"/>
<stop offset="1" stop-color="#4E8FFF"/>
</linearGradient>
<clipPath id="clip0_4008_2777">
<rect width="28" height="28" fill="white" transform="translate(8 8)"/>
</clipPath>
</defs>
</svg>
