<svg width="44" height="44" viewBox="0 0 44 44" fill="none" xmlns="http://www.w3.org/2000/svg">
<path d="M0 12C0 5.37258 5.37258 0 12 0H32C38.6274 0 44 5.37258 44 12V32C44 38.6274 38.6274 44 32 44H12C5.37258 44 0 38.6274 0 32V12Z" fill="#EAF2FF"/>
<path d="M35.0699 19.8133L23.9084 14.3608C22.9462 13.8797 21.3104 13.8797 20.3482 14.3608L8.93013 19.8133C8.12829 20.1982 8 20.7434 8 21.0321C8 21.3207 8.12829 21.8339 8.93013 22.2509L9.86025 22.6999V27.8316C9.28293 28.0561 8.86598 28.6334 8.86598 29.2749C8.86598 29.9164 9.28293 30.4937 9.82818 30.7182L8.38488 35.3047H12.4261L10.9828 30.7182C11.5601 30.4937 11.945 29.9164 11.945 29.2749C11.945 28.6014 11.5281 28.0561 10.9507 27.8316V23.2451L12.6506 24.079V30.7503C12.6506 30.8465 12.6827 30.9427 12.7469 31.0389C12.9072 31.2314 15.89 35.3047 21.984 35.3047C28.0779 35.3047 31.0607 31.1993 31.189 31.0389C31.2532 30.9427 31.2852 30.8465 31.2852 30.7503V24.1111L35.0699 22.2509C35.8717 21.866 36 21.3207 36 21.0321C35.9679 20.7434 35.8717 20.1982 35.0699 19.8133ZM30.2589 30.5899C29.7457 31.2314 26.9874 34.3104 21.984 34.3104C16.9805 34.3104 14.2222 31.2314 13.709 30.5899V24.5281L20.3482 27.7033C20.8293 27.9278 21.4708 28.0561 22.1123 28.0561C22.7858 28.0561 23.4273 27.9278 23.9084 27.6712L30.2589 24.5601V30.5899ZM34.6208 21.3528L30.7721 23.2451C30.6117 23.2451 30.4834 23.3093 30.4192 23.4376L23.4593 26.8053C22.7858 27.1581 21.4708 27.1581 20.7652 26.8053L12.2016 22.6999L22.0481 21.5452C22.3368 21.5132 22.5292 21.2566 22.4971 21C22.4651 20.7113 22.2085 20.5189 21.9519 20.551L10.5338 21.8981L9.37915 21.3528C9.09049 21.2245 9.02635 21.0641 9.02635 21.0641C9.02635 21.0321 9.09049 20.9038 9.37915 20.7755L20.7973 15.291C21.1501 15.1306 21.6312 15.0344 22.1123 15.0344C22.6254 15.0344 23.1386 15.1306 23.4593 15.291L34.6208 20.7434C34.9095 20.8717 34.9737 21 34.9737 21.0641C34.9737 21.0641 34.8774 21.2245 34.6208 21.3528Z" fill="url(#paint0_linear_4008_2688)"/>
<path d="M18.3955 10.871C18.2596 10.8169 18.1497 10.7127 18.0846 10.5718L16.9574 7.95654C16.8346 7.67164 16.9655 7.34234 17.2504 7.21954C17.5353 7.09674 17.8646 7.22767 17.9874 7.51257L19.1147 10.1279C19.2375 10.4128 19.1066 10.7421 18.8217 10.8649C18.6829 10.9247 18.5262 10.9229 18.3955 10.871Z" fill="url(#paint1_linear_4008_2688)"/>
<path d="M32.5245 14.1182C32.3886 14.0641 32.2787 13.9599 32.2136 13.819C32.0908 13.5341 32.2218 13.2048 32.5067 13.082L35.1219 11.9548C35.4068 11.832 35.7361 11.9629 35.8589 12.2478C35.9817 12.5327 35.8508 12.862 35.5659 12.9848L32.9506 14.1121C32.8118 14.1719 32.6551 14.1701 32.5245 14.1182Z" fill="url(#paint2_linear_4008_2688)"/>
<path d="M26.5227 10.8981C26.2353 10.7838 26.0936 10.455 26.2079 10.1676L27.2595 7.5227C27.3738 7.23521 27.7025 7.09352 27.99 7.20783C28.2775 7.32213 28.4192 7.65087 28.3049 7.93835L27.2533 10.5832C27.139 10.8707 26.8102 11.0124 26.5227 10.8981Z" fill="url(#paint3_linear_4008_2688)"/>
<path d="M12.1682 12.2892L9.52331 11.2376C9.23582 11.1233 9.09413 10.7946 9.20843 10.5071C9.32274 10.2196 9.65147 10.0779 9.93896 10.1922L12.5838 11.2438C12.8713 11.3581 13.013 11.6868 12.8987 11.9743C12.7844 12.2618 12.4557 12.4035 12.1682 12.2892Z" fill="url(#paint4_linear_4008_2688)"/>
<defs>
<linearGradient id="paint0_linear_4008_2688" x1="8" y1="24.6523" x2="36" y2="24.6523" gradientUnits="userSpaceOnUse">
<stop stop-color="#0452FF"/>
<stop offset="1" stop-color="#4E8FFF"/>
</linearGradient>
<linearGradient id="paint1_linear_4008_2688" x1="16.5793" y1="8.46223" x2="19.4933" y2="9.62086" gradientUnits="userSpaceOnUse">
<stop stop-color="#0452FF"/>
<stop offset="1" stop-color="#4E8FFF"/>
</linearGradient>
<linearGradient id="paint2_linear_4008_2688" x1="32.5795" y1="12.4534" x2="35.4936" y2="13.6121" gradientUnits="userSpaceOnUse">
<stop stop-color="#0452FF"/>
<stop offset="1" stop-color="#4E8FFF"/>
</linearGradient>
<linearGradient id="paint3_linear_4008_2688" x1="26.7337" y1="8.84513" x2="27.7791" y2="9.26078" gradientUnits="userSpaceOnUse">
<stop stop-color="#0452FF"/>
<stop offset="1" stop-color="#4E8FFF"/>
</linearGradient>
<linearGradient id="paint4_linear_4008_2688" x1="9.20843" y1="10.5071" x2="12.8987" y2="11.9743" gradientUnits="userSpaceOnUse">
<stop stop-color="#0452FF"/>
<stop offset="1" stop-color="#4E8FFF"/>
</linearGradient>
</defs>
</svg>
