<svg width="24" height="24" viewBox="0 0 24 24" fill="none" xmlns="http://www.w3.org/2000/svg">
<path d="M9.07904 2.78711C11.032 2.73805 12.966 2.73805 14.9189 2.78711L14.9775 2.78906C16.5023 2.82735 17.7295 2.85805 18.7128 3.0293C19.7422 3.2086 20.5793 3.55223 21.2861 4.26172C21.9898 4.96821 22.3319 5.79304 22.5078 6.80566C22.6752 7.77003 22.7008 8.96736 22.7324 10.4502L22.7333 10.5088C22.7546 11.5051 22.7546 12.4958 22.7333 13.4922L22.7324 13.5508C22.7008 15.0336 22.6752 16.2309 22.5078 17.1953C22.3319 18.208 21.9898 19.0327 21.2861 19.7393C20.5793 20.4487 19.7422 20.7924 18.7128 20.9717C17.7295 21.1429 16.5023 21.1736 14.9775 21.2119L14.9189 21.2139C12.966 21.2629 11.0319 21.2629 9.07904 21.2139L9.02142 21.2119C7.49665 21.1736 6.26937 21.1429 5.28607 20.9717C4.25657 20.7924 3.41969 20.4488 2.71283 19.7393C2.00898 19.0327 1.66704 18.208 1.49115 17.1953C1.32368 16.2309 1.29814 15.0336 1.26654 13.5508L1.26556 13.4922C1.24432 12.4958 1.24432 11.5051 1.26556 10.5088L1.26654 10.4502C1.29814 8.96736 1.32368 7.77003 1.49115 6.80566C1.66705 5.793 2.009 4.96822 2.71283 4.26172C3.41968 3.55221 4.2566 3.20858 5.28607 3.0293C6.26938 2.85806 7.49664 2.82735 9.02142 2.78906L9.07904 2.78711ZM2.92084 7.37988C2.81686 8.17241 2.79373 9.17452 2.76459 10.541C2.7438 11.5159 2.7438 12.485 2.76459 13.46C2.79776 15.0154 2.82291 16.0989 2.96869 16.9385C3.10827 17.7422 3.34815 18.2518 3.77533 18.6807C4.19952 19.1065 4.71561 19.35 5.54291 19.4941C6.40415 19.6441 7.52046 19.6738 9.11713 19.7139C11.045 19.7623 12.9539 19.7623 14.8818 19.7139C16.4782 19.6738 17.5938 19.6441 18.455 19.4941C19.2824 19.35 19.7984 19.1064 20.2226 18.6807C20.6498 18.2518 20.8896 17.7423 21.0292 16.9385C21.175 16.0989 21.2002 15.0155 21.2333 13.46C21.2541 12.485 21.2541 11.5159 21.2333 10.541C21.2042 9.17557 21.1809 8.17407 21.0771 7.38184L15.4579 10.5664C14.1647 11.2992 13.1134 11.747 12.0009 11.7471C10.8884 11.7471 9.83716 11.2992 8.54388 10.5664L2.92084 7.37988ZM14.8818 4.28711C12.9539 4.23867 11.045 4.23868 9.11713 4.28711C7.52046 4.32722 6.40414 4.35685 5.54291 4.50684C4.7156 4.65096 4.19953 4.8945 3.77533 5.32031C3.60238 5.49392 3.461 5.68131 3.34369 5.89551L9.28314 9.26172C10.5384 9.97298 11.3007 10.2471 12.0009 10.2471C12.701 10.247 13.4627 9.9728 14.7177 9.26172L20.6542 5.89746C20.5368 5.68274 20.3959 5.49426 20.2226 5.32031C19.7984 4.89462 19.2824 4.65092 18.455 4.50684C17.5938 4.35688 16.4782 4.32722 14.8818 4.28711Z" fill="#02160E"/>
</svg>
