<svg width="104" height="32" viewBox="0 0 104 32" fill="none" xmlns="http://www.w3.org/2000/svg">
<path fill-rule="evenodd" clip-rule="evenodd" d="M15.3546 3.16667C17.037 1.66636 18.7815 0.439815 20.7123 0.0968644C22.7602 -0.266568 24.9083 0.355173 27.2174 2.65501L27.2894 2.73477C27.5928 3.1109 27.8864 3.51175 28.1658 3.93728C29.4375 5.84691 30.273 8.6457 30.5821 11.141C31.1749 15.9214 29.3175 21.0518 27.0522 25.183C24.9379 29.0361 22.2224 32 19.9599 32C18.0405 32 16.471 30.6846 15.0624 28.8752C14.0519 30.4051 12.8296 32 10.7492 32C9.18678 32 7.60177 30.7439 6.19884 29.0559C4.2116 26.665 2.49536 23.3327 1.89692 21.8211L1.79107 21.5529L1.79248 21.5444C1.27873 20.2107 0.849648 18.843 0.54198 17.5156C0.227256 16.155 0.0338717 14.817 0 13.5821V13.5411C0.0127019 12.5151 0.0635063 11.5222 0.152419 10.6464C0.234276 9.81435 0.352829 9.07337 0.50384 8.48763L0.520777 8.42554C0.801629 7.37403 1.18978 6.37337 1.66543 5.43477C2.15519 4.4708 2.73951 3.57244 3.40284 2.75243L3.47058 2.67267C5.78246 0.36082 7.93484 -0.266566 9.98842 0.0954552C11.9221 0.436307 13.6708 1.66423 15.3546 3.16667ZM7.69216 27.8138C8.75778 29.0954 9.85865 30.0495 10.7493 30.0495C11.9828 30.0495 12.92 28.607 13.7245 27.3693L13.8572 27.1674C13.7203 26.9586 13.5848 26.7468 13.4507 26.5351L13.4281 26.497L13.4041 26.4589L13.3801 26.4222V26.4208L13.3576 26.3841L13.3336 26.3473L13.3096 26.3092L13.1938 26.1229L13.1755 26.0919L13.1699 26.0849L13.1473 26.0468L13.1247 26.01L13.1007 25.9719L13.0781 25.9338L13.0739 25.9282L13.0541 25.8971L13.0315 25.859L13.0076 25.8209L12.985 25.7842L12.9723 25.763L12.9624 25.7461L12.9384 25.7079L12.9158 25.6712L12.8932 25.6331L12.8707 25.5978L12.8692 25.595L12.8467 25.5583L12.8241 25.5202L12.8015 25.4821L12.7775 25.4454L12.7704 25.4312L12.7549 25.4073L12.7323 25.3691L12.7098 25.3324L12.6872 25.2943L12.6702 25.2661L12.6632 25.2562L12.6406 25.2195L12.618 25.1828L12.5954 25.1433L12.5729 25.1066L12.57 25.1009L12.5503 25.0685L12.5277 25.0304L12.5037 24.9937L12.4811 24.9569L12.4684 24.9344L12.4586 24.9174L12.4374 24.8807L12.4134 24.844L12.3908 24.8059L12.3696 24.7692L12.3682 24.7678L12.3033 24.6605L12.2384 24.5532L12.237 24.5518L12.172 24.4446L12.1071 24.3373V24.3358L11.9124 24.0155L11.8474 23.9096L11.7825 23.8037V23.8023L11.7176 23.6979L11.7021 23.6725L11.3944 23.1771V23.1757L11.3309 23.0741L11.2025 22.8722V22.8708L11.0091 22.5744V22.573L10.9456 22.4757C10.5406 21.8589 10.1397 21.2929 9.7431 20.8173L9.681 20.7425L9.61749 20.6705C9.07269 20.0453 8.48836 19.5823 7.7375 19.2944C7.02052 19.0135 6.38962 18.9458 5.85752 19.0545H5.85328L5.75304 19.0785L5.73893 19.0827L5.63167 19.1137L5.62461 19.1152L5.60768 19.1194L5.59639 19.125L5.54135 19.1448C5.2859 19.2393 5.04876 19.3819 4.83565 19.571C4.93585 19.4807 5.04311 19.4016 5.15461 19.3311L5.14473 19.3028L5.13485 19.2746L5.12497 19.245L5.11364 19.2168V19.2154L5.10376 19.1871L5.09388 19.1589L5.08401 19.1307L5.07413 19.1011L5.06425 19.0714L5.05437 19.0433L5.04449 19.0136L5.03465 18.984L5.02477 18.9572V18.9558L5.01489 18.9276L5.00501 18.8993V18.8979L4.99513 18.8697V18.8683L4.98525 18.8401L4.97537 18.8119L4.96549 18.7808L4.95561 18.7526L4.94714 18.7244H4.94573L4.93726 18.6948L4.92739 18.6651L4.91751 18.6369L4.90763 18.6073V18.6059L4.89916 18.5777H4.89775L4.88928 18.548L4.88081 18.5184H4.8794L4.87093 18.4902L4.86105 18.4606V18.4591L4.85117 18.431L4.8427 18.4013L4.83283 18.3717L4.82295 18.3435V18.342L4.81448 18.3124L4.8046 18.2842V18.2828L4.79613 18.2546V18.2532L4.78625 18.2249L4.77779 18.1953V18.1939L4.76791 18.1657V18.1643L4.75944 18.1347L4.74956 18.1065L4.74109 18.0754L4.73121 18.0472L4.72274 18.0162L4.71428 17.9879L4.71286 17.9865L4.70581 17.9569H4.7044L4.69593 17.9273L4.68746 17.8977H4.68605L4.67899 17.868L4.67758 17.8666L4.67053 17.8384H4.66911L4.66064 17.8088V17.8074L4.65218 17.7791V17.7777L4.6423 17.7481L4.63383 17.7185V17.7171L4.62678 17.6889L4.62536 17.6874L4.61689 17.6578L4.60843 17.6282V17.6268L4.59996 17.5986V17.5972L4.59149 17.5675L4.58303 17.5379V17.5365L4.57456 17.5076V17.5068L4.56609 17.4772L4.56468 17.4765L4.55762 17.4476V17.4461C4.65924 17.3982 4.76367 17.3558 4.86956 17.3163C7.07697 16.5061 9.31688 17.5322 10.8171 19.1031L10.8934 19.185V19.1864L10.9696 19.2697L11.0458 19.3544V19.3558L11.122 19.4419L11.1982 19.5308V19.5322L11.273 19.6197V19.6211L11.3478 19.7128L11.4226 19.8046L11.424 19.806L11.4974 19.8991L11.5722 19.9951L11.647 20.0911L11.7204 20.1884L11.7952 20.2872V20.2886L11.8686 20.3874L11.942 20.489L12.0154 20.5907L12.0887 20.6951L12.1607 20.7996L12.3075 21.0099V21.0113L12.3795 21.1186H12.3809L12.4529 21.2258L12.5249 21.3345V21.3359L12.7423 21.6662L12.8142 21.7791L13.0133 22.0938L13.0302 22.1192L13.1022 22.2336L13.1742 22.3493L13.2461 22.465L13.3181 22.5807L13.3901 22.6978L13.4621 22.815L13.534 22.9321V22.9335L13.6046 23.0507L13.606 23.0521L13.6766 23.1678L13.678 23.1692L13.7486 23.2864L13.75 23.2877L13.8205 23.4049L13.822 23.4077L13.8939 23.5248V23.5263L13.9645 23.6448H13.9659L14.0379 23.7634L14.0647 23.8085L14.0929 23.8551L14.1212 23.9017L14.1254 23.9073L14.148 23.9468L14.1762 23.9934L14.2044 24.04L14.2115 24.0527L14.2326 24.0851L14.2595 24.1303L14.2877 24.1783L14.299 24.1952L14.3159 24.2234L14.3427 24.2686L14.371 24.3152L14.3865 24.3406L14.3992 24.3617L14.4274 24.4069L14.4556 24.4521L14.474 24.4831L14.4825 24.5L14.5107 24.5452L14.5389 24.5904L14.5615 24.6271L14.5671 24.6355L14.5954 24.6821L14.6236 24.7287L14.649 24.771L14.6504 24.7738L14.6786 24.819L14.7069 24.8642L14.7351 24.9107L14.7379 24.915L14.7633 24.9573L14.7915 25.0025L14.8198 25.0476L14.8254 25.0575L14.8466 25.0928L14.8748 25.1379L14.903 25.1831L14.9129 25.2001L14.9313 25.2283L14.9595 25.2735L14.9877 25.3186L15.0018 25.3412L15.0159 25.3638L15.0442 25.4075L15.0724 25.4527L15.0907 25.4823L15.0992 25.4965L15.1274 25.5416L15.1557 25.5868L15.1796 25.6235L15.1839 25.6305L15.2121 25.6743L15.2403 25.7194L15.2686 25.7632L15.2968 25.8069L15.325 25.8507L15.3532 25.8944L15.3575 25.9015L15.3815 25.9368L15.4083 25.9819L15.4365 26.0243L15.4464 26.0398L15.4661 26.0667L15.493 26.1118L15.5212 26.1542L15.5367 26.1768L15.5494 26.1965L15.6624 26.3659L15.6892 26.4082L15.716 26.4478L15.7174 26.4506L15.7456 26.4915L15.7738 26.5324L15.8021 26.5748L15.8303 26.6157L15.9813 26.8373C17.2473 28.6594 18.567 30.0497 19.96 30.0497C21.4448 30.0497 23.5464 27.5261 25.3459 24.246C27.264 20.7486 29.0466 16.0698 28.7163 12.0099C28.4396 8.59927 26.9845 4.31638 24.0658 2.62696C22.9889 2.00385 21.991 1.84857 21.0468 2.01651C19.6044 2.27268 18.1873 3.26633 16.7816 4.50482L16.7971 4.52034L16.8211 4.54433L16.8451 4.56691L16.9171 4.63676L16.934 4.65369L16.941 4.66002L16.9876 4.70591L17.0116 4.72921L17.0356 4.75321L17.0596 4.77579L17.0836 4.79978L17.0892 4.80543L17.1076 4.82236L17.1316 4.84567L17.1556 4.86966L17.1683 4.88167L17.1796 4.89296L17.2036 4.91627L17.5381 5.24442C18.9791 6.65513 20.4159 8.06369 21.8584 8.9458L21.9219 8.9846L21.9346 8.99234L22.0108 9.03682L22.0814 9.07774L22.087 9.08129L22.1096 9.09399L22.1618 9.12363L22.2028 9.14621L22.2381 9.16597L22.2959 9.19702L22.3143 9.2069L22.3905 9.24642C23.1188 9.62255 23.7751 9.79545 24.3481 9.79545H24.3707L24.3932 9.79473H24.4158L24.4384 9.79401L24.461 9.7926L24.4822 9.79187L24.5047 9.79046H24.5062L24.5273 9.78905L24.5499 9.78764L24.5711 9.78623H24.5725L24.5937 9.78409L24.6148 9.78196H24.6162L24.636 9.77986H24.6374L24.6586 9.77703L24.6797 9.77421L24.7009 9.77208H24.7023L24.7221 9.76925L24.7235 9.76853L24.7433 9.76571L24.7447 9.76498L24.7644 9.76216H24.7658L24.7856 9.75865L24.787 9.75793C25.4856 9.6443 25.9839 9.24841 26.3325 8.71771C26.6092 9.37119 26.8406 10.0691 27.0199 10.8122C26.914 10.8976 26.8025 10.9802 26.6839 11.0585C26.4397 11.218 26.1829 11.3514 25.9119 11.4572L25.878 11.4713H25.8766L25.8413 11.484L25.8061 11.4975L25.7708 11.5102H25.7694L25.7341 11.5229L25.6988 11.5349H25.6974L25.6621 11.5462L25.6254 11.5575L25.5901 11.5688H25.5887L25.5534 11.5793H25.552L25.5167 11.5899H25.5153L25.4786 11.5998L25.4419 11.6097L25.4052 11.6195L25.3671 11.628L25.3304 11.6365L25.2923 11.6456L25.2542 11.6534L25.2161 11.6611L25.1794 11.6689L25.1399 11.6759L25.1018 11.683L25.0637 11.6893L25.0256 11.695L24.986 11.7013L24.9479 11.7062L24.9084 11.7119L24.8689 11.7161L24.8294 11.7204L24.7913 11.7246L24.7503 11.7281L24.7108 11.7316L24.6713 11.7345L24.6318 11.7373L24.5909 11.7394L24.5514 11.7416L24.5104 11.743L24.4709 11.7451H24.43L24.3891 11.7458H24.3481H24.3072L24.2663 11.7451H24.2253L24.1844 11.743H24.183L24.1421 11.7416L24.1011 11.7394L24.0602 11.7373L24.0179 11.7345L23.9769 11.7316H23.9755L23.9346 11.7281L23.8923 11.7246L23.8499 11.7204L23.8076 11.7154L23.7652 11.7112L23.7229 11.7055L23.6806 11.6999L23.6382 11.6943H23.6368L23.5945 11.6872L23.5507 11.6809L23.5084 11.6731L23.466 11.6661H23.4646L23.4223 11.6583H23.4209L23.3785 11.6506H23.3771L23.3348 11.6414L23.291 11.6329L23.2473 11.6238L23.2035 11.6132L23.1584 11.6033L23.1146 11.5934L23.0709 11.5822H23.0695L23.0257 11.5715L22.982 11.5588H22.9806L22.9368 11.5468L22.8916 11.5349L22.8479 11.5214L22.8027 11.5087H22.8013L22.7575 11.4946H22.7561L22.7124 11.4812H22.711L22.6658 11.4664L22.6206 11.4515L22.5754 11.436L22.5303 11.4212L22.4837 11.405L22.4385 11.388L22.392 11.3718L22.3468 11.3549L22.3002 11.3372L22.2536 11.3196L22.207 11.3012L22.1605 11.2822L22.1139 11.2624L22.0673 11.2434L22.0207 11.2229L21.9742 11.2032L21.9276 11.182L21.8796 11.1608L21.8316 11.1396L21.7851 11.1171L21.7371 11.0945L21.6905 11.0719L21.6425 11.0486L21.5945 11.0253L21.5465 11.0006L21.5 10.9766C21.2388 10.8418 20.9834 10.6943 20.7294 10.5341L20.7152 10.5256L20.7011 10.5165L20.6715 10.4988L20.6433 10.4812L20.6292 10.4713L20.6164 10.4636C20.3059 10.2674 20.0039 10.0571 19.7259 9.83902H19.716L19.4817 9.64991L19.4041 9.5885H19.3927L18.9792 9.2441L18.9693 9.242L18.6997 9.00559L18.6955 9.00135L18.6771 8.98511C18.1973 8.57018 17.7231 8.12909 17.2516 7.67746L17.2446 7.67109L17.2262 7.65347C16.45 6.91955 15.6864 6.16797 14.9285 5.42348L14.92 5.41569L14.9045 5.4009L14.6914 5.19977L14.1565 4.70859C12.6745 3.37482 11.1784 2.28383 9.65411 2.01492C8.21732 1.7623 6.65209 2.25839 4.87231 4.02829C4.31198 4.73044 3.81798 5.49401 3.40302 6.31123C2.99656 7.11149 2.66345 7.9696 2.41647 8.87574L2.40236 8.93151C2.26687 9.43607 2.16243 10.0917 2.08763 10.8376C2.00436 11.6647 1.95638 12.5919 1.94364 13.5383V13.5531C2.08611 18.3476 4.64212 24.1442 7.69216 27.8138Z" fill="black"/>
<path d="M47.6934 24.884C46.0454 24.884 44.6294 24.532 43.4454 23.828C42.2614 23.108 41.3494 22.084 40.7094 20.756C40.0694 19.428 39.7494 17.844 39.7494 16.004C39.7494 14.164 40.0694 12.58 40.7094 11.252C41.3494 9.908 42.2614 8.876 43.4454 8.156C44.6294 7.436 46.0454 7.076 47.6934 7.076C49.3574 7.076 50.7814 7.436 51.9654 8.156C53.1654 8.876 54.0774 9.908 54.7014 11.252C55.3414 12.58 55.6614 14.164 55.6614 16.004C55.6614 17.844 55.3414 19.428 54.7014 20.756C54.0774 22.084 53.1654 23.108 51.9654 23.828C50.7814 24.532 49.3574 24.884 47.6934 24.884ZM47.6934 22.508C48.7974 22.508 49.7414 22.252 50.5254 21.74C51.3254 21.228 51.9334 20.492 52.3494 19.532C52.7654 18.556 52.9734 17.38 52.9734 16.004C52.9734 14.628 52.7654 13.452 52.3494 12.476C51.9334 11.5 51.3254 10.756 50.5254 10.244C49.7414 9.716 48.7974 9.452 47.6934 9.452C46.6054 9.452 45.6694 9.716 44.8854 10.244C44.1014 10.756 43.4934 11.5 43.0614 12.476C42.6454 13.452 42.4374 14.628 42.4374 16.004C42.4374 17.38 42.6454 18.556 43.0614 19.532C43.4934 20.492 44.1014 21.228 44.8854 21.74C45.6694 22.252 46.6054 22.508 47.6934 22.508ZM58.0368 24.5V11.732H60.3648L60.4608 15.116L60.2448 15.044C60.4208 13.892 60.7728 13.052 61.3008 12.524C61.8448 11.996 62.5728 11.732 63.4848 11.732H64.7088V14.012H63.4848C62.8448 14.012 62.3088 14.116 61.8768 14.324C61.4448 14.532 61.1168 14.852 60.8928 15.284C60.6848 15.716 60.5808 16.276 60.5808 16.964V24.5H58.0368ZM69.664 24.788C68.336 24.788 67.272 24.484 66.472 23.876C65.688 23.268 65.296 22.412 65.296 21.308C65.296 20.204 65.624 19.348 66.28 18.74C66.952 18.116 67.984 17.668 69.376 17.396L73.768 16.556C73.768 15.564 73.536 14.828 73.072 14.348C72.608 13.852 71.92 13.604 71.008 13.604C70.192 13.604 69.552 13.788 69.088 14.156C68.624 14.508 68.304 15.036 68.128 15.74L65.512 15.572C65.752 14.292 66.344 13.284 67.288 12.548C68.248 11.812 69.488 11.444 71.008 11.444C72.736 11.444 74.048 11.908 74.944 12.836C75.856 13.748 76.312 15.036 76.312 16.7V21.668C76.312 21.972 76.36 22.188 76.456 22.316C76.568 22.428 76.744 22.484 76.984 22.484H77.44V24.5C77.36 24.516 77.232 24.532 77.056 24.548C76.88 24.564 76.696 24.572 76.504 24.572C75.96 24.572 75.488 24.484 75.088 24.308C74.704 24.132 74.416 23.844 74.224 23.444C74.032 23.028 73.936 22.476 73.936 21.788L74.2 21.908C74.072 22.468 73.792 22.964 73.36 23.396C72.944 23.828 72.408 24.172 71.752 24.428C71.112 24.668 70.416 24.788 69.664 24.788ZM70.072 22.772C70.84 22.772 71.496 22.628 72.04 22.34C72.584 22.036 73.008 21.62 73.312 21.092C73.616 20.564 73.768 19.964 73.768 19.292V18.476L70.024 19.196C69.256 19.34 68.712 19.572 68.392 19.892C68.088 20.196 67.936 20.588 67.936 21.068C67.936 21.612 68.12 22.036 68.488 22.34C68.872 22.628 69.4 22.772 70.072 22.772ZM81.9061 24.5L77.2501 11.732H79.9621L83.4421 21.908L86.9221 11.732H89.6581L84.9781 24.5H81.9061ZM96.0715 24.788C94.8555 24.788 93.7915 24.516 92.8795 23.972C91.9675 23.428 91.2635 22.652 90.7675 21.644C90.2715 20.636 90.0235 19.46 90.0235 18.116C90.0235 16.756 90.2715 15.58 90.7675 14.588C91.2635 13.596 91.9675 12.828 92.8795 12.284C93.7915 11.724 94.8555 11.444 96.0715 11.444C97.2875 11.444 98.3515 11.724 99.2635 12.284C100.176 12.828 100.88 13.596 101.376 14.588C101.872 15.58 102.12 16.756 102.12 18.116C102.12 19.46 101.872 20.636 101.376 21.644C100.88 22.652 100.176 23.428 99.2635 23.972C98.3515 24.516 97.2875 24.788 96.0715 24.788ZM96.0715 22.58C97.1595 22.58 97.9995 22.188 98.5915 21.404C99.1835 20.604 99.4795 19.508 99.4795 18.116C99.4795 16.724 99.1835 15.636 98.5915 14.852C97.9995 14.052 97.1595 13.652 96.0715 13.652C94.9995 13.652 94.1595 14.052 93.5515 14.852C92.9595 15.636 92.6635 16.724 92.6635 18.116C92.6635 19.508 92.9595 20.604 93.5515 21.404C94.1595 22.188 94.9995 22.58 96.0715 22.58Z" fill="black"/>
</svg>
