<svg width="44" height="44" viewBox="0 0 44 44" fill="none" xmlns="http://www.w3.org/2000/svg">
<path d="M0 12C0 5.37258 5.37258 0 12 0H32C38.6274 0 44 5.37258 44 12V32C44 38.6274 38.6274 44 32 44H12C5.37258 44 0 38.6274 0 32V12Z" fill="#EAF2FF"/>
<path d="M31.4531 17.4075C31.4527 17.052 31.3113 16.7111 31.0599 16.4598C30.8085 16.2084 30.4677 16.067 30.1122 16.0666H26.0413V14.9356C26.04 14.157 25.7301 13.4107 25.1793 12.8604C24.6286 12.3101 23.882 12.0006 23.1034 12H19.3475C18.5692 12.0009 17.8231 12.3105 17.2727 12.8608C16.7224 13.4112 16.4128 14.1573 16.4119 14.9356V16.0666H12.3409C11.9854 16.067 11.6446 16.2084 11.3932 16.4598C11.1418 16.7111 11.0004 17.052 11 17.4075V19.8162V29.6249C11.0006 30.2008 11.2297 30.7529 11.6369 31.1602C12.0441 31.5674 12.5963 31.7965 13.1722 31.7971H29.2809C29.8568 31.7965 30.409 31.5674 30.8162 31.1602C31.2234 30.7529 31.4525 30.2008 31.4531 29.6249V19.8164V17.4075ZM17.1775 14.9356C17.1781 14.3603 17.407 13.8087 17.8138 13.4019C18.2206 12.9951 18.7722 12.7663 19.3475 12.7656H23.1034C23.6791 12.766 24.231 12.9946 24.6382 13.4015C25.0455 13.8083 25.2747 14.36 25.2756 14.9356V16.0666H24.51V14.9356C24.5092 14.563 24.3607 14.2059 24.0971 13.9426C23.8334 13.6794 23.476 13.5314 23.1034 13.5313H19.3475C18.9752 13.5317 18.6182 13.6797 18.3549 13.943C18.0916 14.2063 17.9435 14.5633 17.9431 14.9356V16.0666H17.1775V14.9356ZM18.7088 16.0666V14.9356C18.7089 14.7663 18.7763 14.6039 18.896 14.4842C19.0158 14.3644 19.1781 14.297 19.3475 14.2969H23.1034C23.2731 14.2968 23.4358 14.364 23.5559 14.4838C23.6761 14.6035 23.7439 14.766 23.7444 14.9356V16.0666H18.7088ZM11.7656 17.4075C11.7658 17.255 11.8265 17.1087 11.9343 17.0009C12.0422 16.893 12.1884 16.8324 12.3409 16.8322H30.1122C30.2647 16.8324 30.4109 16.893 30.5188 17.0009C30.6267 17.1087 30.6873 17.255 30.6875 17.4075V19.8157C30.6866 20.6601 30.3507 21.4697 29.7536 22.0668C29.1565 22.6639 28.3469 22.9998 27.5025 23.0007H22.6419V22.5873C22.6412 22.2796 22.5186 21.9848 22.3008 21.7674C22.0831 21.5501 21.788 21.428 21.4803 21.4279H20.9728C20.6651 21.428 20.3701 21.5501 20.1523 21.7674C19.9345 21.9848 19.8119 22.2796 19.8112 22.5873V23.0007H14.9506C14.1062 22.9998 13.2966 22.6639 12.6995 22.0668C12.1024 21.4697 11.7666 20.6601 11.7656 19.8157V17.4075ZM20.5769 23.384V22.5873C20.5773 22.4826 20.6192 22.3823 20.6934 22.3085C20.7677 22.2347 20.8681 22.1934 20.9728 22.1935H21.4803C21.585 22.1934 21.6855 22.2347 21.7597 22.3085C21.8339 22.3823 21.8758 22.4826 21.8763 22.5873V23.384V24.1783C21.8761 24.2832 21.8344 24.3838 21.7601 24.458C21.6859 24.5322 21.5853 24.5739 21.4803 24.574H20.9728C20.8679 24.5739 20.7672 24.5322 20.693 24.458C20.6187 24.3838 20.577 24.2832 20.5769 24.1783V23.384ZM30.6875 29.6251C30.687 29.998 30.5387 30.3555 30.275 30.6192C30.0113 30.8829 29.6538 31.0312 29.2809 31.0317H13.1722C12.7993 31.0312 12.4418 30.8829 12.1781 30.6192C11.9144 30.3555 11.7661 29.998 11.7656 29.6251V22.1439C12.1312 22.6461 12.6103 23.0548 13.1637 23.3369C13.7172 23.6189 14.3294 23.7662 14.9506 23.7668H19.8112V24.1789C19.8116 24.4868 19.9341 24.7821 20.1519 24.9998C20.3696 25.2175 20.6649 25.34 20.9728 25.3403H21.4803C21.7883 25.34 22.0835 25.2175 22.3013 24.9998C22.519 24.7821 22.6415 24.4868 22.6419 24.1789V23.7663H27.5025C28.1237 23.7657 28.7359 23.6184 29.2894 23.3364C29.8429 23.0544 30.3219 22.6456 30.6875 22.1434V29.6251Z" fill="url(#paint0_linear_4008_2742)"/>
<path d="M32.2101 12.8245C32.1982 12.6788 32.2428 12.534 32.3401 12.4132L34.1831 10.242C34.3839 10.0055 34.737 9.97663 34.9736 10.1774C35.2101 10.3782 35.239 10.7314 35.0382 10.9679L33.1953 13.139C32.9945 13.3756 32.6413 13.4044 32.4048 13.2037C32.2896 13.1059 32.2216 12.9647 32.2101 12.8245Z" fill="url(#paint1_linear_4008_2742)"/>
<path d="M33.0458 16.8853C33.0206 16.5769 33.2523 16.304 33.5606 16.2788L36.3974 16.0468C36.7057 16.0216 36.9786 16.2533 37.0038 16.5616C37.0291 16.87 36.7974 17.1429 36.4891 17.1681L33.6523 17.4C33.3439 17.4253 33.071 17.1936 33.0458 16.8853Z" fill="url(#paint2_linear_4008_2742)"/>
<path d="M28.1187 12.3318L28.7195 9.54966C28.7848 9.24725 29.0856 9.05326 29.388 9.11857C29.6904 9.18387 29.8844 9.48473 29.8191 9.78713L29.2183 12.5692C29.153 12.8716 28.8522 13.0656 28.5498 13.0003C28.2474 12.935 28.0534 12.6342 28.1187 12.3318Z" fill="url(#paint3_linear_4008_2742)"/>
<defs>
<linearGradient id="paint0_linear_4008_2742" x1="11" y1="21.8985" x2="31.4531" y2="21.8985" gradientUnits="userSpaceOnUse">
<stop stop-color="#0452FF"/>
<stop offset="1" stop-color="#4E8FFF"/>
</linearGradient>
<linearGradient id="paint1_linear_4008_2742" x1="33.5621" y1="10.1277" x2="33.8177" y2="13.2532" gradientUnits="userSpaceOnUse">
<stop stop-color="#0452FF"/>
<stop offset="1" stop-color="#4E8FFF"/>
</linearGradient>
<linearGradient id="paint2_linear_4008_2742" x1="34.979" y1="16.1628" x2="35.0707" y2="17.2841" gradientUnits="userSpaceOnUse">
<stop stop-color="#0452FF"/>
<stop offset="1" stop-color="#4E8FFF"/>
</linearGradient>
<linearGradient id="paint3_linear_4008_2742" x1="29.388" y1="9.11857" x2="28.5498" y2="13.0003" gradientUnits="userSpaceOnUse">
<stop stop-color="#0452FF"/>
<stop offset="1" stop-color="#4E8FFF"/>
</linearGradient>
</defs>
</svg>
