<svg width="72" height="72" viewBox="0 0 72 72" fill="none" xmlns="http://www.w3.org/2000/svg">
<rect width="72" height="72" rx="16" fill="white"/>
<path fill-rule="evenodd" clip-rule="evenodd" d="M36.5006 17.8827C38.8757 15.7646 41.3385 14.033 44.0643 13.5489C46.9555 13.0358 49.9882 13.9135 53.248 17.1604L53.3496 17.273C53.778 17.804 54.1925 18.3699 54.587 18.9706C56.3823 21.6666 57.5619 25.6178 57.9982 29.1406C58.8351 35.8894 56.2129 43.1323 53.0148 48.9645C50.03 54.4042 46.1963 58.5886 43.0022 58.5886C40.2924 58.5886 38.0766 56.7315 36.0881 54.1771C34.6614 56.337 32.9358 58.5886 29.9988 58.5886C27.7931 58.5886 25.5554 56.8152 23.5748 54.4322C20.7693 51.0568 18.3463 46.3523 17.5015 44.2183L17.3521 43.8397L17.3541 43.8278C16.6287 41.9448 16.023 40.014 15.5886 38.1401C15.1443 36.2192 14.8713 34.3303 14.8235 32.5868V32.529C14.8414 31.0804 14.9131 29.6787 15.0387 28.4423C15.1542 27.2677 15.3216 26.2216 15.5348 25.3946L15.5587 25.307C15.9552 23.8225 16.5032 22.4098 17.1747 21.0847C17.8661 19.7238 18.691 18.4556 19.6275 17.2979L19.7231 17.1853C22.987 13.9215 26.0256 13.0358 28.9248 13.5469C31.6547 14.0281 34.1234 15.7616 36.5006 17.8827ZM25.683 52.6787C27.1874 54.488 28.7416 55.8349 29.9989 55.8349C31.7404 55.8349 33.0635 53.7985 34.1993 52.0511L34.3865 51.7661C34.1933 51.4713 34.002 51.1724 33.8127 50.8735L33.7808 50.8197L33.747 50.7659L33.7131 50.714V50.712L33.6812 50.6602L33.6473 50.6084L33.6135 50.5546L33.4501 50.2916L33.4242 50.2478L33.4162 50.2378L33.3843 50.184L33.3525 50.1322L33.3186 50.0784L33.2867 50.0245L33.2807 50.0166L33.2528 49.9728L33.221 49.919L33.1871 49.8652L33.1552 49.8133L33.1373 49.7834L33.1233 49.7595L33.0895 49.7057L33.0576 49.6539L33.0257 49.6001L32.9938 49.5502L32.9918 49.5462L32.96 49.4944L32.9281 49.4406L32.8962 49.3868L32.8623 49.335L32.8524 49.315L32.8304 49.2812L32.7986 49.2273L32.7667 49.1755L32.7348 49.1217L32.7109 49.0819L32.7009 49.0679L32.6691 49.0161L32.6372 48.9643L32.6053 48.9085L32.5734 48.8567L32.5694 48.8487L32.5415 48.8029L32.5097 48.7491L32.4758 48.6973L32.4439 48.6454L32.426 48.6136L32.412 48.5896L32.3821 48.5378L32.3483 48.486L32.3164 48.4322L32.2865 48.3804L32.2845 48.3784L32.1929 48.2269L32.1012 48.0755L32.0992 48.0735L32.0076 47.9221L31.9159 47.7706V47.7686L31.6409 47.3163L31.5493 47.1668L31.4576 47.0174V47.0154L31.366 46.8679L31.3441 46.8321L30.9097 46.1327V46.1307L30.8201 45.9872L30.6387 45.7023V45.7003L30.3658 45.2819V45.2799L30.2761 45.1424C29.7043 44.2717 29.1384 43.4727 28.5784 42.8012L28.4908 42.6956L28.4011 42.594C27.632 41.7113 26.8071 41.0578 25.747 40.6513C24.7348 40.2548 23.8441 40.1591 23.0929 40.3125H23.0869L22.9454 40.3464L22.9255 40.3524L22.7741 40.3962L22.7641 40.3982L22.7402 40.4041L22.7243 40.4121L22.6466 40.44C22.2859 40.5735 21.9511 40.7748 21.6503 41.0418C21.7918 40.9142 21.9432 40.8026 22.1006 40.703L22.0866 40.6632L22.0727 40.6233L22.0587 40.5815L22.0427 40.5417V40.5397L22.0288 40.4998L22.0149 40.46L22.0009 40.4202L21.987 40.3783L21.973 40.3365L21.9591 40.2967L21.9451 40.2549L21.9312 40.213L21.9173 40.1752V40.1732L21.9033 40.1334L21.8894 40.0935V40.0915L21.8754 40.0517V40.0497L21.8615 40.0099L21.8475 39.97L21.8336 39.9262L21.8196 39.8864L21.8077 39.8466H21.8057L21.7937 39.8047L21.7798 39.7629L21.7658 39.723L21.7519 39.6812V39.6792L21.7399 39.6394H21.738L21.726 39.5976L21.714 39.5558H21.7121L21.7001 39.5159L21.6862 39.4741V39.4721L21.6722 39.4323L21.6602 39.3904L21.6463 39.3486L21.6324 39.3088V39.3068L21.6204 39.265L21.6065 39.2251V39.2231L21.5945 39.1833V39.1813L21.5806 39.1414L21.5686 39.0996V39.0977L21.5547 39.0578V39.0558L21.5427 39.014L21.5287 38.9742L21.5168 38.9303L21.5028 38.8905L21.4909 38.8467L21.4789 38.8069L21.4769 38.8049L21.467 38.763H21.465L21.453 38.7212L21.4411 38.6794H21.4391L21.4291 38.6376L21.4271 38.6356L21.4172 38.5958H21.4152L21.4032 38.5539V38.5519L21.3913 38.5121V38.5101L21.3773 38.4682L21.3654 38.4265V38.4245L21.3554 38.3846L21.3534 38.3826L21.3415 38.3408L21.3295 38.299V38.297L21.3175 38.2572V38.2552L21.3056 38.2133L21.2936 38.1715V38.1695L21.2817 38.1287V38.1276L21.2697 38.0858L21.2677 38.0848L21.2578 38.044V38.042C21.4012 37.9742 21.5487 37.9144 21.6982 37.8586C24.8145 36.7149 27.9767 38.1635 30.0948 40.3812L30.2023 40.4968V40.4988L30.3099 40.6164L30.4175 40.7359V40.7379L30.5251 40.8594L30.6327 40.985V40.987L30.7383 41.1105V41.1125L30.8439 41.242L30.9495 41.3715L30.9515 41.3735L31.0551 41.505L31.1607 41.6405L31.2663 41.776L31.3699 41.9134L31.4755 42.0529V42.0549L31.5791 42.1943L31.6827 42.3378L31.7863 42.4813L31.8899 42.6287L31.9916 42.7762L32.1988 43.0731V43.0751L32.3004 43.2266H32.3024L32.4041 43.378L32.5057 43.5314V43.5334L32.8126 43.9997L32.9142 44.1591L33.1952 44.6034L33.2191 44.6393L33.3207 44.8007L33.4223 44.964L33.5239 45.1274L33.6255 45.2908L33.7271 45.4561L33.8288 45.6215L33.9304 45.7869V45.7889L34.03 45.9542L34.032 45.9562L34.1316 46.1196L34.1336 46.1216L34.2332 46.287L34.2352 46.2889L34.3348 46.4543L34.3368 46.4583L34.4384 46.6237V46.6256L34.5381 46.793H34.5401L34.6417 46.9604L34.6795 47.0241L34.7194 47.0899L34.7592 47.1556L34.7652 47.1636L34.7971 47.2194L34.8369 47.2852L34.8768 47.3509L34.8868 47.3688L34.9166 47.4147L34.9545 47.4784L34.9943 47.5462L35.0103 47.5701L35.0342 47.6099L35.0721 47.6737L35.1119 47.7394L35.1338 47.7752L35.1518 47.8051L35.1916 47.8689L35.2314 47.9327L35.2574 47.9765L35.2693 48.0004L35.3092 48.0641L35.349 48.1279L35.3809 48.1798L35.3889 48.1917L35.4287 48.2574L35.4686 48.3232L35.5044 48.383L35.5064 48.3869L35.5463 48.4507L35.5861 48.5144L35.626 48.5802L35.6299 48.5862L35.6658 48.6459L35.7057 48.7097L35.7455 48.7735L35.7535 48.7874L35.7834 48.8372L35.8232 48.901L35.8631 48.9647L35.877 48.9887L35.9029 49.0285L35.9428 49.0923L35.9826 49.1561L36.0025 49.1879L36.0224 49.2198L36.0623 49.2816L36.1022 49.3453L36.128 49.3871L36.14 49.4071L36.1799 49.4709L36.2197 49.5346L36.2536 49.5864L36.2596 49.5964L36.2994 49.6582L36.3393 49.7219L36.3791 49.7837L36.4189 49.8455L36.4588 49.9072L36.4986 49.969L36.5046 49.9789L36.5385 50.0288L36.5764 50.0925L36.6162 50.1523L36.6301 50.1743L36.658 50.2121L36.6959 50.2759L36.7358 50.3356L36.7577 50.3675L36.7757 50.3954L36.935 50.6346L36.9729 50.6943L37.0108 50.7501L37.0128 50.7541L37.0526 50.8119L37.0924 50.8697L37.1323 50.9294L37.1721 50.9873L37.3853 51.3001C39.1726 53.8725 41.0357 55.8352 43.0023 55.8352C45.0985 55.8352 48.0654 52.2725 50.6059 47.6418C53.3138 42.7043 55.8304 36.0989 55.3641 30.3673C54.9736 25.5523 52.9193 19.5058 48.7987 17.1208C47.2784 16.2411 45.8696 16.0218 44.5366 16.259C42.5002 16.6206 40.4997 18.0234 38.5151 19.7719L38.537 19.7938L38.5709 19.8276L38.6048 19.8595L38.7064 19.9581L38.7303 19.982L38.7403 19.991L38.806 20.0558L38.8399 20.0886L38.8738 20.1225L38.9076 20.1544L38.9415 20.1883L38.9495 20.1962L38.9754 20.2201L39.0092 20.2531L39.0431 20.2869L39.0611 20.3039L39.077 20.3198L39.1109 20.3527L39.5832 20.816C41.6176 22.8076 43.646 24.7961 45.6824 26.0415L45.772 26.0962L45.79 26.1072L45.8976 26.17L45.9972 26.2277L46.0052 26.2328L46.0371 26.2507L46.1108 26.2925L46.1686 26.3244L46.2184 26.3523L46.3001 26.3961L46.326 26.4101L46.4336 26.4659C47.4617 26.9969 48.3883 27.241 49.1973 27.241H49.2291L49.261 27.24H49.2929L49.3248 27.2389L49.3567 27.237L49.3865 27.2359L49.4184 27.2339H49.4204L49.4503 27.2319L49.4822 27.23L49.5121 27.228H49.5141L49.5439 27.2249L49.5738 27.2219H49.5758L49.6037 27.219H49.6057L49.6356 27.215L49.6655 27.211L49.6954 27.208H49.6974L49.7253 27.204L49.7272 27.203L49.7551 27.199L49.7571 27.198L49.785 27.194H49.787L49.8149 27.189L49.8169 27.188C50.8032 27.0276 51.5066 26.4687 51.9988 25.7195C52.3894 26.642 52.7161 27.6273 52.9692 28.6764C52.8197 28.797 52.6623 28.9135 52.4949 29.0241C52.1502 29.2493 51.7875 29.4376 51.405 29.587L51.3572 29.6069H51.3552L51.3054 29.6249L51.2556 29.6438L51.2057 29.6618H51.2038L51.1539 29.6797L51.1041 29.6967H51.1021L51.0523 29.7126L51.0005 29.7285L50.9507 29.7445H50.9487L50.8989 29.7594H50.8969L50.8471 29.7743H50.8451L50.7933 29.7883L50.7415 29.8022L50.6897 29.8162L50.6359 29.8281L50.584 29.8401L50.5303 29.853L50.4765 29.8639L50.4227 29.8749L50.3709 29.8858L50.3151 29.8958L50.2613 29.9058L50.2075 29.9147L50.1537 29.9227L50.0979 29.9316L50.0441 29.9386L49.9883 29.9465L49.9325 29.9525L49.8767 29.9585L49.8229 29.9645L49.7652 29.9695L49.7094 29.9744L49.6536 29.9784L49.5978 29.9824L49.54 29.9854L49.4842 29.9884L49.4264 29.9904L49.3706 29.9934H49.3129L49.2551 29.9945H49.1973H49.1395L49.0817 29.9934H49.024L48.9662 29.9904H48.9642L48.9064 29.9884L48.8486 29.9854L48.7908 29.9824L48.7311 29.9784L48.6733 29.9744H48.6713L48.6135 29.9695L48.5537 29.9645L48.494 29.9585L48.4342 29.9515L48.3744 29.9456L48.3147 29.9376L48.2549 29.9296L48.1951 29.9216H48.1931L48.1333 29.9117L48.0716 29.9027L48.0118 29.8918L47.952 29.8819H47.95L47.8903 29.8709H47.8883L47.8285 29.86H47.8265L47.7667 29.847L47.705 29.8351L47.6432 29.8221L47.5814 29.8072L47.5177 29.7933L47.4559 29.7793L47.3941 29.7634H47.3921L47.3304 29.7484L47.2686 29.7305H47.2666L47.2049 29.7135L47.1411 29.6966L47.0793 29.6777L47.0155 29.6597H47.0135L46.9518 29.6398H46.9498L46.888 29.6208H46.886L46.8222 29.5999L46.7584 29.579L46.6947 29.5571L46.6309 29.5362L46.5652 29.5133L46.5014 29.4893L46.4357 29.4665L46.3719 29.4425L46.3061 29.4176L46.2404 29.3927L46.1746 29.3668L46.1089 29.3399L46.0431 29.312L45.9774 29.2851L45.9116 29.2562L45.8458 29.2283L45.7801 29.1984L45.7124 29.1686L45.6446 29.1387L45.5789 29.1068L45.5111 29.0749L45.4454 29.043L45.3776 29.0101L45.3099 28.9772L45.2421 28.9423L45.1764 28.9085C44.8077 28.7182 44.4471 28.51 44.0885 28.2838L44.0685 28.2719L44.0486 28.2589L44.0068 28.234L43.9669 28.2091L43.947 28.1952L43.9291 28.1842C43.4907 27.9073 43.0643 27.6104 42.6718 27.3025H42.6578L42.327 27.0355L42.2174 26.9488H42.2015L41.6177 26.4626L41.6037 26.4596L41.2231 26.1259L41.2171 26.1199L41.1912 26.097C40.5137 25.5112 39.8443 24.8885 39.1787 24.2509L39.1688 24.2419L39.1429 24.217C38.047 23.1809 36.969 22.1198 35.899 21.0688L35.8871 21.0578L35.8651 21.0369L35.5643 20.753L34.8091 20.0595C32.7169 18.1766 30.6048 16.6363 28.4528 16.2567C26.4244 15.9001 24.2147 16.6004 21.702 19.0991C20.911 20.0904 20.2136 21.1684 19.6277 22.3221C19.0539 23.4519 18.5837 24.6633 18.235 25.9426L18.215 26.0213C18.0238 26.7336 17.8763 27.6592 17.7707 28.7122C17.6532 29.8799 17.5854 31.189 17.5674 32.525V32.5459C17.7686 39.3146 21.3771 47.4981 25.683 52.6787Z" fill="url(#paint0_linear_4008_2512)"/>
<defs>
<linearGradient id="paint0_linear_4008_2512" x1="14.8235" y1="36.0003" x2="58.1556" y2="36.0003" gradientUnits="userSpaceOnUse">
<stop stop-color="#0452FF"/>
<stop offset="1" stop-color="#4E8FFF"/>
</linearGradient>
</defs>
</svg>
