<svg width="32" height="32" viewBox="0 0 32 32" fill="none" xmlns="http://www.w3.org/2000/svg">
<rect width="32" height="32" rx="16" fill="#EAF2FF"/>
<path d="M12.6267 11.333C12.6264 11.8758 12.2971 12.3644 11.7939 12.5682C11.2907 12.772 10.7143 12.6504 10.3363 12.2607C9.95829 11.871 9.85431 11.2911 10.0733 10.7944C10.2924 10.2977 10.7907 9.98334 11.3333 9.99963C12.054 10.0213 12.627 10.6119 12.6267 11.333ZM12.6667 13.653H9.99999V21.9996H12.6667V13.653ZM16.88 13.653H14.2267V21.9996H16.8533V17.6196C16.8533 15.1796 20.0333 14.9529 20.0333 17.6196V21.9996H22.6667V16.7129C22.6667 12.5996 17.96 12.753 16.8533 14.7729L16.88 13.653Z" fill="#060C16"/>
</svg>
