<svg width="16" height="16" viewBox="0 0 16 16" fill="none" xmlns="http://www.w3.org/2000/svg">
<path d="M13.7005 6.96185L3.67739 0.209643C3.33596 -0.0198536 2.90478 -0.0638217 2.52387 0.0920509C1.89292 0.350297 1.58714 1.07816 1.84242 1.71506L4.37406 7.99946L1.86298 14.2329C1.68386 14.6287 1.71926 15.0803 1.95826 15.4426C2.1421 15.7212 2.42275 15.9106 2.74846 15.9757C3.06974 16.0404 3.40255 15.9749 3.67761 15.7891L13.6841 9.04819C13.8276 8.95491 13.9485 8.83463 14.0436 8.69054C14.4208 8.11883 14.2669 7.34334 13.7005 6.96185ZM13.5219 8.34633C13.4731 8.42039 13.4108 8.48142 13.3371 8.52833L3.32842 15.2708C3.19296 15.3621 3.03046 15.3947 2.87099 15.3629C2.71009 15.3307 2.57122 15.2368 2.47991 15.0984C2.35572 14.9111 2.3425 14.6758 2.44006 14.473L5.0008 8.11624C5.03099 8.0413 5.03099 7.95762 5.0008 7.88268L2.42235 1.482C2.29453 1.16316 2.44631 0.799102 2.76065 0.670448C2.94721 0.593949 3.16011 0.614918 3.32846 0.728166L13.3514 7.48019C13.6346 7.671 13.7111 8.05955 13.5219 8.34633Z" fill="#060C16"/>
<path d="M9.58594 7.80469C9.5702 7.8468 9.557 7.89478 9.55371 7.94922C9.54209 8.14377 9.64175 8.27604 9.70117 8.33496C9.75826 8.39149 9.81614 8.42035 9.83984 8.43164C9.89056 8.45575 9.93411 8.46595 9.94629 8.46875C9.96505 8.47307 9.98102 8.47602 9.99121 8.47754C10.027 8.48287 10.0663 8.48567 10.0957 8.4873C10.1342 8.48945 10.1862 8.48949 10.2529 8.49121L5.4209 11.7461L6.85742 8.18359L6.93262 7.99707L6.85742 7.80957L5.83789 5.28027L9.58594 7.80469ZM5.75488 4.4707L5.60352 4.69922L5.4209 4.24609L5.75488 4.4707Z" fill="#060C16" stroke="#060C16"/>
</svg>
