<svg width="208" height="56" viewBox="0 0 208 56" fill="none" xmlns="http://www.w3.org/2000/svg">
<rect width="208" height="56" rx="28" fill="url(#paint0_linear_4008_4327)"/>
<rect x="8" y="8" width="40" height="40" rx="20" fill="white"/>
<path fill-rule="evenodd" clip-rule="evenodd" d="M30.9407 23.3906L35.5493 27.9992L30.9407 32.6078L30.0568 31.724L33.1565 28.6242L21.332 28.6242V27.3742L33.1565 27.3742L30.0568 24.2745L30.9407 23.3906Z" fill="#1E5AFF"/>
<path d="M65.472 34.256C64.5653 34.256 63.776 34.0907 63.104 33.76C62.4427 33.4293 61.92 32.9707 61.536 32.384C61.152 31.7973 60.928 31.1147 60.864 30.336L62.64 30.224C62.7147 30.7573 62.8693 31.2107 63.104 31.584C63.3387 31.9467 63.6533 32.224 64.048 32.416C64.4533 32.5973 64.9387 32.688 65.504 32.688C65.9947 32.688 66.4107 32.6293 66.752 32.512C67.104 32.384 67.3707 32.1973 67.552 31.952C67.7333 31.7067 67.824 31.408 67.824 31.056C67.824 30.736 67.744 30.4533 67.584 30.208C67.4347 29.952 67.1413 29.7227 66.704 29.52C66.2773 29.3067 65.648 29.0987 64.816 28.896C63.9093 28.672 63.184 28.4267 62.64 28.16C62.096 27.8933 61.7013 27.5627 61.456 27.168C61.2213 26.7627 61.104 26.2667 61.104 25.68C61.104 25.0293 61.2587 24.4587 61.568 23.968C61.888 23.4667 62.3413 23.0773 62.928 22.8C63.5147 22.5227 64.2187 22.384 65.04 22.384C65.904 22.384 66.64 22.544 67.248 22.864C67.8667 23.184 68.352 23.6213 68.704 24.176C69.0667 24.7307 69.2907 25.3653 69.376 26.08L67.6 26.176C67.5467 25.7387 67.4133 25.3547 67.2 25.024C66.9867 24.6827 66.6987 24.4213 66.336 24.24C65.9733 24.048 65.5307 23.952 65.008 23.952C64.3467 23.952 63.824 24.1067 63.44 24.416C63.0667 24.7147 62.88 25.1147 62.88 25.616C62.88 25.936 62.9547 26.208 63.104 26.432C63.264 26.6453 63.5413 26.832 63.936 26.992C64.3413 27.152 64.912 27.3227 65.648 27.504C66.6293 27.728 67.408 28.0053 67.984 28.336C68.5707 28.656 68.9867 29.0347 69.232 29.472C69.4773 29.9093 69.6 30.4053 69.6 30.96C69.6 31.632 69.424 32.2187 69.072 32.72C68.7307 33.2107 68.2507 33.5893 67.632 33.856C67.0133 34.1227 66.2933 34.256 65.472 34.256ZM74.4688 34.192C73.6154 34.192 72.9328 33.9093 72.4208 33.344C71.9194 32.768 71.6688 31.9733 71.6688 30.96V25.488H73.3648V30.528C73.3648 31.296 73.4981 31.8613 73.7648 32.224C74.0314 32.5867 74.4368 32.768 74.9808 32.768C75.5994 32.768 76.0794 32.5707 76.4208 32.176C76.7728 31.7707 76.9488 31.2053 76.9488 30.48V25.488H78.6448V34H77.0608L77.0288 31.776L77.2688 31.872C77.1194 32.6187 76.8048 33.1947 76.3248 33.6C75.8448 33.9947 75.2261 34.192 74.4688 34.192ZM85.0806 34.192C84.494 34.192 83.9713 34.064 83.5126 33.808C83.0646 33.5413 82.718 33.1787 82.4726 32.72L82.4246 34H80.8406V22.64H82.5366V26.688C82.7606 26.3147 83.0913 25.9893 83.5286 25.712C83.9766 25.4347 84.494 25.296 85.0806 25.296C85.8166 25.296 86.4566 25.4773 87.0006 25.84C87.5446 26.2027 87.9606 26.72 88.2486 27.392C88.5473 28.0533 88.6966 28.8373 88.6966 29.744C88.6966 30.6507 88.5473 31.44 88.2486 32.112C87.9606 32.7733 87.5446 33.2853 87.0006 33.648C86.4566 34.0107 85.8166 34.192 85.0806 34.192ZM84.8086 32.72C85.4593 32.72 85.9766 32.4587 86.3606 31.936C86.7446 31.4027 86.9366 30.672 86.9366 29.744C86.9366 28.816 86.7446 28.0907 86.3606 27.568C85.9766 27.0347 85.4646 26.768 84.8246 26.768C84.3446 26.768 83.934 26.8853 83.5926 27.12C83.2513 27.3547 82.99 27.696 82.8086 28.144C82.6273 28.5813 82.5366 29.1147 82.5366 29.744C82.5366 30.352 82.6273 30.88 82.8086 31.328C82.99 31.776 83.2513 32.1227 83.5926 32.368C83.934 32.6027 84.3393 32.72 84.8086 32.72ZM90.4188 34V25.488H91.9708L92.0188 27.6L91.8268 27.536C91.9228 27.0667 92.0881 26.6667 92.3228 26.336C92.5681 26.0053 92.8668 25.7493 93.2188 25.568C93.5708 25.3867 93.9548 25.296 94.3708 25.296C95.0961 25.296 95.6881 25.504 96.1468 25.92C96.6054 26.3253 96.8934 26.8853 97.0108 27.6H96.7388C96.8348 27.0987 96.9948 26.6827 97.2188 26.352C97.4534 26.0107 97.7521 25.7493 98.1148 25.568C98.4774 25.3867 98.8881 25.296 99.3468 25.296C99.9441 25.296 100.451 25.424 100.867 25.68C101.293 25.9253 101.613 26.288 101.827 26.768C102.051 27.248 102.163 27.8347 102.163 28.528V34H100.467V28.944C100.467 28.208 100.333 27.6533 100.067 27.28C99.8001 26.9067 99.3948 26.72 98.8508 26.72C98.4988 26.72 98.1894 26.8107 97.9228 26.992C97.6561 27.1733 97.4481 27.4347 97.2987 27.776C97.1601 28.1173 97.0908 28.528 97.0908 29.008V34H95.4748V29.008C95.4748 28.2827 95.3521 27.7227 95.1068 27.328C94.8721 26.9227 94.4668 26.72 93.8908 26.72C93.5281 26.72 93.2134 26.8107 92.9468 26.992C92.6908 27.1733 92.4881 27.44 92.3388 27.792C92.1894 28.1333 92.1148 28.5387 92.1148 29.008V34H90.4188ZM104.419 34V25.488H106.115V34H104.419ZM104.387 24.256V22.56H106.147V24.256H104.387ZM111.198 34C110.388 34 109.79 33.8133 109.406 33.44C109.022 33.0667 108.83 32.4853 108.83 31.696V23.488H110.526V31.568C110.526 31.9627 110.612 32.2347 110.782 32.384C110.953 32.5333 111.214 32.608 111.566 32.608H112.782V34H111.198ZM107.534 26.88V25.488H112.782V26.88H107.534ZM118.564 34V22.64H120.756L126.003 31.904V22.64H127.732V34H125.46L120.292 24.944V34H118.564ZM133.657 34.192C132.846 34.192 132.137 34.0107 131.529 33.648C130.921 33.2853 130.452 32.768 130.121 32.096C129.79 31.424 129.625 30.64 129.625 29.744C129.625 28.8373 129.79 28.0533 130.121 27.392C130.452 26.7307 130.921 26.2187 131.529 25.856C132.137 25.4827 132.846 25.296 133.657 25.296C134.468 25.296 135.177 25.4827 135.785 25.856C136.393 26.2187 136.862 26.7307 137.193 27.392C137.524 28.0533 137.689 28.8373 137.689 29.744C137.689 30.64 137.524 31.424 137.193 32.096C136.862 32.768 136.393 33.2853 135.785 33.648C135.177 34.0107 134.468 34.192 133.657 34.192ZM133.657 32.72C134.382 32.72 134.942 32.4587 135.337 31.936C135.732 31.4027 135.929 30.672 135.929 29.744C135.929 28.816 135.732 28.0907 135.337 27.568C134.942 27.0347 134.382 26.768 133.657 26.768C132.942 26.768 132.382 27.0347 131.977 27.568C131.582 28.0907 131.385 28.816 131.385 29.744C131.385 30.672 131.582 31.4027 131.977 31.936C132.382 32.4587 132.942 32.72 133.657 32.72ZM140.882 34L138.29 25.488H140.066L141.89 32.144L143.762 25.488H145.362L147.234 32.144L149.074 25.488H150.85L148.258 34H146.354L144.562 27.92L142.77 34H140.882Z" fill="white"/>
<defs>
<linearGradient id="paint0_linear_4008_4327" x1="0" y1="28" x2="208" y2="28" gradientUnits="userSpaceOnUse">
<stop stop-color="#0452FF"/>
<stop offset="1" stop-color="#4E8FFF"/>
</linearGradient>
</defs>
</svg>
