<svg width="72" height="72" viewBox="0 0 72 72" fill="none" xmlns="http://www.w3.org/2000/svg">
<rect width="72" height="72" rx="16" fill="white"/>
<path fill-rule="evenodd" clip-rule="evenodd" d="M36.5013 17.8827C38.8765 15.7646 41.3392 14.033 44.0651 13.5489C46.9563 13.0358 49.9889 13.9135 53.2487 17.1604L53.3504 17.273C53.7787 17.804 54.1932 18.3699 54.5877 18.9706C56.383 21.6666 57.5626 25.6178 57.999 29.1406C58.8358 35.8894 56.2136 43.1323 53.0156 48.9645C50.0307 54.4042 46.197 58.5886 43.0029 58.5886C40.2931 58.5886 38.0774 56.7315 36.0888 54.1771C34.6621 56.337 32.9366 58.5886 29.9995 58.5886C27.7938 58.5886 25.5561 56.8152 23.5755 54.4322C20.77 51.0568 18.3471 46.3523 17.5022 44.2183L17.3528 43.8397L17.3548 43.8278C16.6295 41.9448 16.0237 40.014 15.5894 38.1401C15.1451 36.2192 14.872 34.3303 14.8242 32.5868V32.529C14.8422 31.0804 14.9139 29.6787 15.0394 28.4423C15.155 27.2677 15.3223 26.2216 15.5355 25.3946L15.5594 25.307C15.9559 23.8225 16.5039 22.4098 17.1754 21.0847C17.8668 19.7238 18.6918 18.4556 19.6282 17.2979L19.7239 17.1853C22.9877 13.9215 26.0263 13.0358 28.9255 13.5469C31.6554 14.0281 34.1242 15.7616 36.5013 17.8827ZM25.6837 52.6787C27.1881 54.488 28.7423 55.8349 29.9996 55.8349C31.7412 55.8349 33.0642 53.7985 34.2 52.0511L34.3873 51.7661C34.194 51.4713 34.0027 51.1724 33.8135 50.8735L33.7816 50.8197L33.7477 50.7659L33.7138 50.714V50.712L33.6819 50.6602L33.6481 50.6084L33.6142 50.5546L33.4508 50.2916L33.4249 50.2478L33.417 50.2378L33.3851 50.184L33.3532 50.1322L33.3193 50.0784L33.2874 50.0245L33.2815 50.0166L33.2536 49.9728L33.2217 49.919L33.1878 49.8652L33.1559 49.8133L33.138 49.7834L33.1241 49.7595L33.0902 49.7057L33.0583 49.6539L33.0264 49.6001L32.9946 49.5502L32.9926 49.5462L32.9607 49.4944L32.9288 49.4406L32.8969 49.3868L32.8631 49.335L32.8531 49.315L32.8312 49.2812L32.7993 49.2273L32.7674 49.1755L32.7355 49.1217L32.7116 49.0819L32.7017 49.0679L32.6698 49.0161L32.6379 48.9643L32.606 48.9085L32.5741 48.8567L32.5702 48.8487L32.5423 48.8029L32.5104 48.7491L32.4765 48.6973L32.4446 48.6454L32.4267 48.6136L32.4128 48.5896L32.3829 48.5378L32.349 48.486L32.3171 48.4322L32.2872 48.3804L32.2852 48.3784L32.1936 48.2269L32.1019 48.0755L32.0999 48.0735L32.0083 47.9221L31.9166 47.7706V47.7686L31.6417 47.3163L31.55 47.1668L31.4584 47.0174V47.0154L31.3667 46.8679L31.3448 46.8321L30.9105 46.1327V46.1307L30.8208 45.9872L30.6395 45.7023V45.7003L30.3665 45.2819V45.2799L30.2768 45.1424C29.705 44.2717 29.1391 43.4727 28.5792 42.8012L28.4915 42.6956L28.4019 42.594C27.6327 41.7113 26.8078 41.0578 25.7478 40.6513C24.7355 40.2548 23.8449 40.1591 23.0937 40.3125H23.0877L22.9462 40.3464L22.9262 40.3524L22.7748 40.3962L22.7649 40.3982L22.7409 40.4041L22.725 40.4121L22.6473 40.44C22.2867 40.5735 21.9519 40.7748 21.651 41.0418C21.7925 40.9142 21.9439 40.8026 22.1013 40.703L22.0874 40.6632L22.0734 40.6233L22.0595 40.5815L22.0435 40.5417V40.5397L22.0295 40.4998L22.0156 40.46L22.0016 40.4202L21.9877 40.3783L21.9737 40.3365L21.9598 40.2967L21.9459 40.2549L21.932 40.213L21.918 40.1752V40.1732L21.9041 40.1334L21.8901 40.0935V40.0915L21.8762 40.0517V40.0497L21.8622 40.0099L21.8483 39.97L21.8343 39.9262L21.8204 39.8864L21.8084 39.8466H21.8064L21.7945 39.8047L21.7805 39.7629L21.7666 39.723L21.7526 39.6812V39.6792L21.7407 39.6394H21.7387L21.7267 39.5976L21.7148 39.5558H21.7128L21.7008 39.5159L21.6869 39.4741V39.4721L21.6729 39.4323L21.661 39.3904L21.647 39.3486L21.6331 39.3088V39.3068L21.6211 39.265L21.6072 39.2251V39.2231L21.5952 39.1833V39.1813L21.5813 39.1414L21.5693 39.0996V39.0977L21.5554 39.0578V39.0558L21.5434 39.014L21.5295 38.9742L21.5175 38.9303L21.5036 38.8905L21.4916 38.8467L21.4797 38.8069L21.4777 38.8049L21.4677 38.763H21.4657L21.4538 38.7212L21.4418 38.6794H21.4398L21.4299 38.6376L21.4279 38.6356L21.4179 38.5958H21.4159L21.404 38.5539V38.5519L21.392 38.5121V38.5101L21.3781 38.4682L21.3661 38.4265V38.4245L21.3561 38.3846L21.3541 38.3826L21.3422 38.3408L21.3302 38.299V38.297L21.3183 38.2572V38.2552L21.3063 38.2133L21.2944 38.1715V38.1695L21.2824 38.1287V38.1276L21.2705 38.0858L21.2685 38.0848L21.2585 38.044V38.042C21.402 37.9742 21.5494 37.9144 21.6989 37.8586C24.8152 36.7149 27.9775 38.1635 30.0955 40.3812L30.2031 40.4968V40.4988L30.3107 40.6164L30.4183 40.7359V40.7379L30.5259 40.8594L30.6335 40.985V40.987L30.739 41.1105V41.1125L30.8446 41.242L30.9502 41.3715L30.9522 41.3735L31.0558 41.505L31.1614 41.6405L31.267 41.776L31.3707 41.9134L31.4763 42.0529V42.0549L31.5799 42.1943L31.6835 42.3378L31.7871 42.4813L31.8907 42.6287L31.9923 42.7762L32.1996 43.0731V43.0751L32.3012 43.2266H32.3032L32.4048 43.378L32.5064 43.5314V43.5334L32.8133 43.9997L32.9149 44.1591L33.1959 44.6034L33.2198 44.6393L33.3214 44.8007L33.423 44.964L33.5246 45.1274L33.6263 45.2908L33.7279 45.4561L33.8295 45.6215L33.9311 45.7869V45.7889L34.0307 45.9542L34.0327 45.9562L34.1323 46.1196L34.1343 46.1216L34.234 46.287L34.236 46.2889L34.3356 46.4543L34.3376 46.4583L34.4392 46.6237V46.6256L34.5388 46.793H34.5408L34.6424 46.9604L34.6803 47.0241L34.7201 47.0899L34.76 47.1556L34.7659 47.1636L34.7978 47.2194L34.8377 47.2852L34.8775 47.3509L34.8875 47.3688L34.9174 47.4147L34.9552 47.4784L34.9951 47.5462L35.011 47.5701L35.0349 47.6099L35.0728 47.6737L35.1126 47.7394L35.1346 47.7752L35.1525 47.8051L35.1923 47.8689L35.2322 47.9327L35.2581 47.9765L35.27 48.0004L35.3099 48.0641L35.3497 48.1279L35.3816 48.1798L35.3896 48.1917L35.4294 48.2574L35.4693 48.3232L35.5051 48.383L35.5071 48.3869L35.547 48.4507L35.5868 48.5144L35.6267 48.5802L35.6307 48.5862L35.6665 48.6459L35.7064 48.7097L35.7462 48.7735L35.7542 48.7874L35.7841 48.8372L35.8239 48.901L35.8638 48.9647L35.8777 48.9887L35.9036 49.0285L35.9435 49.0923L35.9833 49.1561L36.0033 49.1879L36.0232 49.2198L36.063 49.2816L36.1029 49.3453L36.1288 49.3871L36.1407 49.4071L36.1806 49.4709L36.2204 49.5346L36.2543 49.5864L36.2603 49.5964L36.3001 49.6582L36.34 49.7219L36.3798 49.7837L36.4197 49.8455L36.4595 49.9072L36.4994 49.969L36.5054 49.9789L36.5392 50.0288L36.5771 50.0925L36.6169 50.1523L36.6309 50.1743L36.6588 50.2121L36.6966 50.2759L36.7365 50.3356L36.7584 50.3675L36.7764 50.3954L36.9358 50.6346L36.9736 50.6943L37.0115 50.7501L37.0135 50.7541L37.0533 50.8119L37.0932 50.8697L37.133 50.9294L37.1729 50.9873L37.3861 51.3001C39.1733 53.8725 41.0364 55.8352 43.003 55.8352C45.0992 55.8352 48.0661 52.2725 50.6067 47.6418C53.3145 42.7043 55.8312 36.0989 55.3649 30.3673C54.9743 25.5523 52.92 19.5058 48.7994 17.1208C47.2791 16.2411 45.8703 16.0218 44.5373 16.259C42.5009 16.6206 40.5004 18.0234 38.5158 19.7719L38.5378 19.7938L38.5716 19.8276L38.6055 19.8595L38.7071 19.9581L38.731 19.982L38.741 19.991L38.8067 20.0558L38.8406 20.0886L38.8745 20.1225L38.9084 20.1544L38.9422 20.1883L38.9502 20.1962L38.9761 20.2201L39.01 20.2531L39.0438 20.2869L39.0618 20.3039L39.0778 20.3198L39.1116 20.3527L39.5839 20.816C41.6183 22.8076 43.6467 24.7961 45.6831 26.0415L45.7728 26.0962L45.7907 26.1072L45.8983 26.17L45.998 26.2277L46.0059 26.2328L46.0378 26.2507L46.1115 26.2925L46.1693 26.3244L46.2191 26.3523L46.3008 26.3961L46.3267 26.4101L46.4343 26.4659C47.4625 26.9969 48.389 27.241 49.198 27.241H49.2299L49.2617 27.24H49.2936L49.3255 27.2389L49.3574 27.237L49.3873 27.2359L49.4192 27.2339H49.4211L49.451 27.2319L49.4829 27.23L49.5128 27.228H49.5148L49.5447 27.2249L49.5746 27.2219H49.5766L49.6044 27.219H49.6064L49.6363 27.215L49.6662 27.211L49.6961 27.208H49.6981L49.726 27.204L49.728 27.203L49.7559 27.199L49.7579 27.198L49.7858 27.194H49.7878L49.8156 27.189L49.8176 27.188C50.804 27.0276 51.5073 26.4687 51.9995 25.7195C52.3901 26.642 52.7169 27.6273 52.9699 28.6764C52.8205 28.797 52.663 28.9135 52.4956 29.0241C52.1509 29.2493 51.7883 29.4376 51.4057 29.587L51.3579 29.6069H51.3559L51.3061 29.6249L51.2563 29.6438L51.2065 29.6618H51.2045L51.1547 29.6797L51.1049 29.6967H51.1029L51.053 29.7126L51.0012 29.7285L50.9514 29.7445H50.9494L50.8996 29.7594H50.8976L50.8478 29.7743H50.8458L50.794 29.7883L50.7422 29.8022L50.6904 29.8162L50.6366 29.8281L50.5848 29.8401L50.531 29.853L50.4772 29.8639L50.4234 29.8749L50.3716 29.8858L50.3158 29.8958L50.262 29.9058L50.2082 29.9147L50.1544 29.9227L50.0986 29.9316L50.0448 29.9386L49.989 29.9465L49.9333 29.9525L49.8775 29.9585L49.8237 29.9645L49.7659 29.9695L49.7101 29.9744L49.6543 29.9784L49.5985 29.9824L49.5407 29.9854L49.485 29.9884L49.4272 29.9904L49.3714 29.9934H49.3136L49.2558 29.9945H49.198H49.1403L49.0825 29.9934H49.0247L48.9669 29.9904H48.9649L48.9071 29.9884L48.8494 29.9854L48.7916 29.9824L48.7318 29.9784L48.674 29.9744H48.672L48.6143 29.9695L48.5545 29.9645L48.4947 29.9585L48.4349 29.9515L48.3752 29.9456L48.3154 29.9376L48.2556 29.9296L48.1958 29.9216H48.1938L48.1341 29.9117L48.0723 29.9027L48.0125 29.8918L47.9528 29.8819H47.9508L47.891 29.8709H47.889L47.8292 29.86H47.8272L47.7675 29.847L47.7057 29.8351L47.6439 29.8221L47.5822 29.8072L47.5184 29.7933L47.4566 29.7793L47.3949 29.7634H47.3929L47.3311 29.7484L47.2693 29.7305H47.2674L47.2056 29.7135L47.1418 29.6966L47.0801 29.6777L47.0163 29.6597H47.0143L46.9525 29.6398H46.9505L46.8887 29.6208H46.8867L46.8229 29.5999L46.7592 29.579L46.6954 29.5571L46.6317 29.5362L46.5659 29.5133L46.5021 29.4893L46.4364 29.4665L46.3726 29.4425L46.3068 29.4176L46.2411 29.3927L46.1753 29.3668L46.1096 29.3399L46.0438 29.312L45.9781 29.2851L45.9123 29.2562L45.8466 29.2283L45.7808 29.1984L45.7131 29.1686L45.6453 29.1387L45.5796 29.1068L45.5118 29.0749L45.4461 29.043L45.3784 29.0101L45.3106 28.9772L45.2429 28.9423L45.1771 28.9085C44.8085 28.7182 44.4478 28.51 44.0892 28.2838L44.0693 28.2719L44.0493 28.2589L44.0075 28.234L43.9676 28.2091L43.9477 28.1952L43.9298 28.1842C43.4914 27.9073 43.065 27.6104 42.6725 27.3025H42.6586L42.3278 27.0355L42.2182 26.9488H42.2022L41.6184 26.4626L41.6045 26.4596L41.2238 26.1259L41.2179 26.1199L41.192 26.097C40.5145 25.5112 39.845 24.8885 39.1795 24.2509L39.1695 24.2419L39.1436 24.217C38.0477 23.1809 36.9697 22.1198 35.8998 21.0688L35.8878 21.0578L35.8659 21.0369L35.565 20.753L34.8098 20.0595C32.7177 18.1766 30.6056 16.6363 28.4536 16.2567C26.4251 15.9001 24.2154 16.6004 21.7028 19.0991C20.9117 20.0904 20.2143 21.1684 19.6285 22.3221C19.0547 23.4519 18.5844 24.6633 18.2357 25.9426L18.2158 26.0213C18.0245 26.7336 17.8771 27.6592 17.7715 28.7122C17.6539 29.8799 17.5862 31.189 17.5682 32.525V32.5459C17.7693 39.3146 21.3778 47.4981 25.6837 52.6787Z" fill="url(#paint0_linear_4008_4185)"/>
<defs>
<linearGradient id="paint0_linear_4008_4185" x1="14.8242" y1="36.0003" x2="58.1563" y2="36.0003" gradientUnits="userSpaceOnUse">
<stop stop-color="#0452FF"/>
<stop offset="1" stop-color="#4E8FFF"/>
</linearGradient>
</defs>
</svg>
