<svg width="500" height="264" viewBox="0 0 500 264" fill="none" xmlns="http://www.w3.org/2000/svg">
<path d="M316.713 237.31C319.228 237.31 320.393 235.592 320.393 233.139V227.068C320.393 224.584 319.412 222.928 316.713 222.928C314.015 222.928 313.033 224.584 313.033 227.068V233.139C313.033 235.592 314.199 237.31 316.713 237.31Z" fill="url(#paint0_linear_4008_4441)"/>
<path d="M279.577 223.203H276.326V228.294H279.761C281.877 228.294 283.012 227.404 283.012 225.81C283.012 224.522 282.367 223.203 279.577 223.203Z" fill="url(#paint1_linear_4008_4441)"/>
<path d="M338.976 225.81C338.976 224.522 338.332 223.203 335.542 223.203H332.291V228.294H335.726C337.841 228.294 338.976 227.404 338.976 225.81Z" fill="url(#paint2_linear_4008_4441)"/>
<path d="M294.879 223.203V228.294H298.314C300.429 228.294 301.564 227.404 301.564 225.81C301.564 224.522 300.92 223.203 298.13 223.203H294.879Z" fill="url(#paint3_linear_4008_4441)"/>
<path d="M139.607 175.03C138.305 175.019 137.24 176.066 137.229 177.368C137.217 178.67 138.264 179.735 139.566 179.746C140.869 179.758 141.933 178.711 141.944 177.409C141.956 176.106 140.909 175.042 139.607 175.03Z" fill="url(#paint4_linear_4008_4441)"/>
<path d="M141.048 109.906C141.779 109.912 142.377 109.324 142.383 108.593C142.39 107.861 141.802 107.263 141.07 107.257C140.339 107.251 139.741 107.838 139.734 108.57C139.728 109.301 140.316 109.9 141.048 109.906Z" fill="url(#paint5_linear_4008_4441)"/>
<path d="M331.51 199.052C331.51 201.442 333.448 203.38 335.839 203.38C338.229 203.38 340.166 201.442 340.166 199.052C340.166 196.662 338.229 194.724 335.839 194.724C333.448 194.724 331.51 196.662 331.51 199.052Z" fill="url(#paint6_linear_4008_4441)"/>
<path d="M245.533 96.6318C243.141 96.6318 241.203 98.5697 241.203 100.96C241.203 103.35 243.141 105.288 245.533 105.288C247.922 105.288 249.86 103.35 249.86 100.96C249.86 98.5697 247.922 96.6318 245.533 96.6318Z" fill="url(#paint7_linear_4008_4441)"/>
<path d="M173.176 46.791C173.176 45.4664 172.102 44.3926 170.778 44.3926C169.453 44.3926 168.379 45.4664 168.379 46.791C168.379 48.1157 169.453 49.1896 170.778 49.1896C172.102 49.1895 173.176 48.1157 173.176 46.791Z" fill="url(#paint8_linear_4008_4441)"/>
<path d="M180.271 199.051C180.271 197.727 179.198 196.653 177.873 196.653C176.548 196.653 175.475 197.727 175.475 199.051C175.475 200.377 176.548 201.45 177.873 201.45C179.197 201.45 180.271 200.377 180.271 199.051Z" fill="url(#paint9_linear_4008_4441)"/>
<path d="M8.23452 194.255C6.9098 194.255 5.83594 195.329 5.83594 196.653C5.83594 197.978 6.9098 199.052 8.23452 199.052C9.55883 199.052 10.6327 197.978 10.6327 196.653C10.6327 195.329 9.55883 194.255 8.23452 194.255Z" fill="url(#paint10_linear_4008_4441)"/>
<path d="M175.574 4.79699C176.899 4.79699 177.973 3.72313 177.973 2.39841C177.973 1.07385 176.899 0 175.574 0C174.25 0 173.176 1.07385 173.176 2.39841C173.176 3.72313 174.25 4.79699 175.574 4.79699Z" fill="url(#paint11_linear_4008_4441)"/>
<path d="M333.909 164.665C333.909 163.341 332.835 162.267 331.51 162.267C330.185 162.267 329.111 163.34 329.111 164.665C329.111 165.99 330.185 167.064 331.51 167.064C332.835 167.064 333.909 165.99 333.909 164.665Z" fill="url(#paint12_linear_4008_4441)"/>
<path d="M243.135 121.815C241.81 121.815 240.736 122.889 240.736 124.214C240.736 125.539 241.81 126.613 243.135 126.613C244.459 126.613 245.533 125.539 245.533 124.214C245.533 122.889 244.459 121.815 243.135 121.815Z" fill="url(#paint13_linear_4008_4441)"/>
<path d="M461.203 93.939C466.128 93.939 470.12 89.9467 470.12 85.0222C470.12 80.0978 466.128 76.1055 461.203 76.1055C456.279 76.1055 452.287 80.0978 452.287 85.0222C452.287 89.9467 456.279 93.939 461.203 93.939Z" fill="url(#paint14_linear_4008_4441)"/>
<path d="M439.816 82.7839C439.816 84.431 441.151 85.7662 442.799 85.7662C444.445 85.7662 445.781 84.431 445.781 82.7839C445.781 81.1369 444.445 79.8018 442.799 79.8018C441.151 79.8018 439.816 81.1369 439.816 82.7839Z" fill="url(#paint15_linear_4008_4441)"/>
<path d="M496.56 159.559C494.847 158.695 492.926 158.695 491.289 159.392C489.254 158.673 487.807 156.655 487.656 154.276C488.022 153.781 488.242 153.17 488.242 152.507C488.242 150.86 486.906 149.524 485.259 149.524C483.612 149.524 482.277 150.86 482.277 152.507C482.277 154.154 483.612 155.489 485.259 155.489C485.42 155.489 485.576 155.473 485.729 155.448C487.568 156.467 488.734 158.665 488.51 161.095C488.483 161.389 488.433 161.675 488.369 161.953C488.296 162.076 488.222 162.197 488.157 162.326C487.924 162.787 487.762 163.263 487.65 163.745C487.59 164.004 487.547 164.265 487.522 164.526C487.274 167.024 488.548 169.531 490.924 170.73C494.009 172.286 497.771 171.048 499.327 167.963C500.884 164.878 499.645 161.115 496.56 159.559Z" fill="url(#paint16_linear_4008_4441)"/>
<path d="M454.853 236.414C453.207 236.414 451.871 237.749 451.871 239.396C451.871 241.043 453.207 242.379 454.853 242.379C456.501 242.379 457.836 241.043 457.836 239.396C457.836 237.749 456.501 236.414 454.853 236.414Z" fill="url(#paint17_linear_4008_4441)"/>
<path d="M15.8963 125.422C17.5434 125.422 18.8786 124.086 18.8786 122.439C18.8786 120.792 17.5434 119.457 15.8963 119.457C14.2493 119.457 12.9141 120.792 12.9141 122.439C12.9141 124.086 14.2493 125.422 15.8963 125.422Z" fill="url(#paint18_linear_4008_4441)"/>
<path d="M94.9665 16.8677C97.4596 14.3746 97.4596 10.3324 94.9665 7.83931C92.4733 5.34618 88.4312 5.34618 85.938 7.83931C83.4449 10.3324 83.4449 14.3746 85.938 16.8677C88.4312 19.3609 92.4733 19.3609 94.9665 16.8677Z" fill="url(#paint19_linear_4008_4441)"/>
<path d="M468.059 146.828C464.391 145.862 461.579 144.874 459.425 143.901C451.863 143.741 445.782 137.566 445.782 129.966C445.782 123.877 449.687 118.702 455.128 116.803V105.82C455.128 96.8673 447.17 90.1528 437.969 90.1528C428.27 90.1528 420.81 96.8673 420.81 105.82V143.869H414.306C413.65 144.829 412.968 146.486 412.348 149.243C412.413 150.974 411.585 152.614 410.055 153.414C407.868 154.557 405.083 153.548 403.835 151.16C403.385 150.301 403.201 149.382 403.244 148.503C403.046 147.703 402.245 145.618 399.131 143.869H389.724C401.57 116.5 411.574 93.9902 422.761 68.3593C424.943 69.5438 427.716 69.3607 429.743 67.6774C431.219 66.451 431.985 64.6892 431.998 62.9102C433.47 61.3308 435.897 60.8086 438.138 61.6195C438.446 62.1532 438.919 62.5982 439.528 62.8629C441.038 63.5201 442.795 62.8284 443.452 61.318C444.11 59.8077 443.418 58.0507 441.907 57.3937C440.398 56.7366 438.64 57.4283 437.983 58.9385C437.919 59.0855 437.871 59.2352 437.833 59.3856C436.166 60.6653 433.684 60.8577 431.546 59.6823C431.287 59.5401 431.045 59.3812 430.815 59.211C430.731 59.0954 430.65 58.9789 430.558 58.8676C430.228 58.4705 429.856 58.1312 429.459 57.8373C429.245 57.679 429.024 57.5354 428.794 57.4075C428.453 57.2172 428.096 57.0648 427.731 56.9424C428.348 55.5223 428.967 54.0947 429.593 52.6493C429.771 52.2384 429.948 51.8299 430.127 51.4171C430.172 51.3139 430.216 51.2124 430.26 51.1092C431.254 48.871 431.254 47.1303 431.254 45.6383C431.254 44.8332 431.179 44.0391 431.037 43.2601C431.595 42.3098 432.194 41.8123 432.469 41.6168C433.025 41.2743 433.528 40.8264 433.94 40.2702C435.685 37.9237 435.195 34.6071 432.849 32.864C431.532 31.8867 429.912 31.6114 428.434 31.9715C426.429 32.3632 424.857 32.5312 423.62 32.5477C422.439 31.7524 421.173 31.0898 419.859 30.5858C419.654 30.5075 419.449 30.4334 419.242 30.3628C417.567 29.7907 415.826 29.4734 414.095 29.4734C407.629 29.4734 401.164 33.2038 398.677 39.1724L380.298 81.5781C372.243 83.2311 363.933 78.8397 360.89 70.879C360.495 69.8437 359.655 67.9939 358.9 66.1212C358.718 64.3145 358.205 62.6066 357.428 61.0537C357.428 61.0526 357.427 61.0511 357.427 61.05L357.426 61.0508C355.016 56.2409 350.046 52.9371 344.3 52.9371C336.372 52.9371 329.917 59.2227 329.636 67.0812C329.623 67.0721 329.611 67.0618 329.599 67.0526C329.57 67.4353 329.529 67.8196 329.469 68.2055C328.515 74.2662 323.931 78.85 318.282 80.0987C303.747 52.0809 274.479 32.9361 240.735 32.9361C225.47 32.9361 211.122 36.858 198.638 43.743C196.999 44.3814 195.218 44.7372 193.352 44.7372C185.334 44.7372 178.834 38.2805 178.834 30.3155C178.834 29.3997 178.928 28.5064 179.093 27.6384C179.545 26.4144 179.791 25.0916 179.791 23.711C179.791 17.4379 174.706 12.3525 168.433 12.3525C162.16 12.3525 157.074 17.4379 157.074 23.711C157.074 29.8113 161.883 34.787 167.917 35.0566C167.907 35.0775 167.894 35.0975 167.884 35.1184C168.255 35.089 168.629 35.0696 169.007 35.0696C176.76 35.0696 183.046 41.3549 183.046 49.1082C183.046 51.9601 182.193 54.612 180.732 56.827C165.247 71.484 155.131 91.7508 153.629 114.375C151.65 117.194 147.875 118.221 144.73 116.634C144.321 116.428 143.944 116.185 143.596 115.914C143.168 115.461 142.661 115.07 142.073 114.773C139.652 113.551 136.762 114.284 135.184 116.375C135.16 116.345 135.138 116.315 135.113 116.285C135.038 116.477 134.955 116.667 134.861 116.854C134.833 116.901 134.807 116.949 134.78 116.997C132.825 120.668 127.869 121.938 123.439 119.963V100.057C123.439 91.1048 115.481 84.3903 106.279 84.3903C104.121 84.3903 102.075 84.7246 100.196 85.3402C94.1308 83.374 89.1526 78.9394 86.4379 73.1909C90.3388 64.2871 94.3362 55.1286 98.5702 45.3467C99.5649 43.1085 99.5649 41.3678 99.5649 39.8758C99.5649 36.9923 98.6055 34.2475 97.0206 31.863C98.2595 31.7694 99.2363 30.7366 99.2363 29.4736C99.2363 28.149 98.1625 27.0753 96.8381 27.0753C95.7205 27.0753 94.7844 27.8405 94.5181 28.8747C91.2472 25.7242 86.7944 23.7111 82.4058 23.7111C75.94 23.7111 69.4739 27.4415 66.9873 33.4101L58.5013 52.9897C55.3359 54.2155 53.1101 53.7607 52.3492 53.5292C51.4406 53.1763 50.4515 52.9809 49.4144 52.9883C45.0868 53.0184 41.603 56.4876 41.6328 60.7346C41.6496 63.124 42.7749 65.2513 44.5266 66.6496C46.9829 68.8175 48.6619 70.6163 49.7877 72.1155C54.0771 72.9938 57.3033 76.789 57.3033 81.3383C57.3033 86.5375 53.0886 90.7523 47.8893 90.7523C46.008 90.7523 44.257 90.1984 42.7867 89.2478L25.5509 129.016C24.3621 129.232 23.5343 129.044 23.1961 128.937C22.6541 128.718 22.0634 128.594 21.4431 128.594C18.8528 128.594 16.753 130.694 16.753 133.284C16.753 134.734 17.4113 136.03 18.4447 136.89C19.5376 137.886 20.3686 138.752 21.0016 139.512L19.2397 143.577C17.7477 146.811 16.753 151.287 16.753 152.282C16.753 156.639 18.4648 160.757 21.4224 163.84C20.5581 168.26 16.9163 171.782 12.2318 172.261C11.571 172.328 10.9194 172.326 10.2808 172.271C9.36537 172.036 8.3935 171.955 7.39821 172.057C2.87384 172.519 -0.418887 176.56 0.0432693 181.085C0.505261 185.609 4.54703 188.902 9.07107 188.44C13.4713 187.99 16.7055 184.155 16.455 179.784C16.4709 179.79 16.4863 179.798 16.5022 179.804C16.4535 179.538 16.4125 179.27 16.3844 178.997C15.8128 173.406 19.8831 168.41 25.475 167.839C26.0801 167.777 26.6772 167.773 27.2635 167.816C28.4843 168.319 29.7928 168.691 31.1726 168.922C31.3658 169.022 31.5575 169.124 31.7434 169.235C31.7479 169.161 31.7494 169.086 31.7525 169.011C32.6125 169.128 33.4978 169.192 34.4096 169.192H89.1203V189.584C89.1203 198.537 96.5809 205.251 106.279 205.251C115.978 205.251 123.439 198.537 123.439 189.584V169.192H126.672C130.695 169.192 134.31 167.927 137.139 165.805C137.582 167.543 139.146 168.836 141.024 168.852C143.261 168.871 145.089 167.073 145.108 164.836C145.126 162.737 143.545 160.998 141.501 160.776C142.675 158.612 143.334 156.149 143.334 153.525C143.334 152.138 143.123 150.781 142.735 149.481C145.135 148.823 147.642 148.473 150.222 148.473C153.1 148.473 155.887 148.912 158.536 149.725C166.289 171.338 182.319 189.007 202.81 198.905C201.543 206.344 196.493 212.912 188.952 215.727C187.663 216.208 186.358 216.553 185.05 216.778C183.064 216.782 181.044 217.132 179.074 217.867C178.667 218.02 178.271 218.19 177.882 218.369C173.906 217.551 170.932 214.036 170.968 209.849C170.973 209.286 171.036 208.736 171.145 208.204C171.411 207.486 171.567 206.714 171.574 205.904C171.607 202.152 168.592 199.084 164.84 199.052C161.088 199.019 158.02 202.035 157.988 205.787C157.956 209.436 160.81 212.43 164.419 212.621C164.411 212.636 164.402 212.65 164.394 212.665C164.616 212.649 164.84 212.64 165.066 212.642C169.703 212.682 173.43 216.473 173.39 221.11C173.389 221.202 173.38 221.291 173.377 221.383C168.432 225.983 166.466 233.276 168.974 239.997C172.297 248.898 182.204 253.42 191.105 250.098C199.76 246.867 204.273 237.408 201.459 228.704C201.495 228.708 201.53 228.715 201.565 228.719C201.327 228.209 201.101 227.689 200.901 227.152C197.322 217.563 201.111 207.03 209.427 201.764C219.147 205.499 229.701 207.552 240.735 207.552C254.529 207.552 267.573 204.348 279.171 198.651C284.989 197.665 287.94 199.76 288.726 200.449C288.797 200.521 288.872 200.588 288.946 200.658C289.326 201.016 289.748 201.337 290.203 201.621C291.455 209.562 281.4 210.34 272.972 211.756C255.325 214.721 242.487 206.535 230.148 220.442C224.832 226.434 217.04 248.153 223.124 255.852C232.653 267.914 247.804 256.555 258.67 252.851C276.508 246.771 289.71 246.103 308.084 251.469C322.814 255.77 351.015 272.361 365.143 258.467C375.895 247.892 365.38 240.942 363.311 229.107C360.219 211.421 367.767 208.124 346.859 206.581C328.486 205.225 310.643 207.115 301.853 193.289C301.71 192.739 301.507 192.205 301.246 191.698C300.089 189.137 299.339 187.054 298.889 185.358C315.088 170.88 325.851 150.451 327.74 127.503C336.892 129.203 345.147 135.071 349.526 144.087C350.236 145.549 350.814 147.04 351.273 148.547L350.929 149.34C349.437 152.573 348.442 157.05 348.442 158.044C348.442 160.636 349.05 163.143 350.162 165.399C348.883 170.018 344.574 173.31 339.614 173.083C338.95 173.052 338.305 172.954 337.681 172.806C336.811 172.439 335.861 172.217 334.862 172.172C330.319 171.964 326.468 175.477 326.26 180.02C326.052 184.564 329.567 188.414 334.109 188.623C338.529 188.824 342.291 185.506 342.685 181.145C342.7 181.154 342.714 181.163 342.729 181.172C342.72 180.902 342.718 180.631 342.731 180.357C342.987 174.742 347.747 170.399 353.363 170.655C353.688 170.67 354.008 170.704 354.324 170.749C357.353 173.339 361.397 174.955 366.099 174.955H420.809V195.347C420.809 204.3 428.269 211.014 437.968 211.014C439.187 211.014 440.368 210.908 441.505 210.705C445.817 212.043 448.522 216.418 447.645 220.922C447.534 221.492 447.367 222.037 447.156 222.556C446.749 223.236 446.445 223.991 446.285 224.813C445.544 228.618 448.028 232.302 451.832 233.043C455.637 233.783 459.32 231.3 460.061 227.496C460.781 223.795 458.448 220.217 454.819 219.342C454.83 219.328 454.842 219.316 454.852 219.302C454.624 219.276 454.395 219.244 454.166 219.199C449.464 218.283 446.395 213.73 447.31 209.028C447.341 208.867 447.383 208.711 447.423 208.554C452.111 205.821 455.128 201.038 455.128 195.347V180.547C458.961 169.566 465.143 167.664 466.869 167.343C468.179 167.222 469.487 166.851 470.724 166.204C475.811 163.546 477.778 157.267 475.119 152.182C473.624 149.322 470.986 147.449 468.059 146.828ZM89.1203 100.057V138.106H58.0347C67.4867 116.269 75.7639 97.5289 84.4058 77.8266C88.1815 81.5482 90.7304 86.5234 91.3713 92.0938C89.9358 94.3986 89.1203 97.1051 89.1203 100.057ZM137.763 142.047C134.852 139.621 130.998 138.106 126.672 138.106H125.805C125.143 138.238 124.461 138.248 123.776 138.106H123.439V138.024C122.924 137.879 122.409 137.65 121.9 137.319C117.631 134.546 119.679 127.314 123.457 125.373C125.805 122.026 130.813 121.044 135.176 123.246C135.294 123.305 135.407 123.37 135.522 123.433C135.96 123.911 136.485 124.323 137.098 124.632C139.746 125.968 142.955 124.966 144.393 122.405C144.401 122.416 144.408 122.428 144.416 122.439C144.485 122.271 144.558 122.105 144.641 121.94C146.279 118.694 150.154 117.331 153.447 118.762C153.438 119.255 153.428 119.748 153.428 120.244C153.428 122.464 153.512 124.666 153.675 126.845C150.075 133.74 144.472 139.147 137.763 142.047ZM183.948 124.19C182.636 124.19 181.573 123.127 181.573 121.815C181.573 120.503 182.636 119.439 183.948 119.439C185.26 119.439 186.323 120.503 186.323 121.815C186.323 123.127 185.26 124.19 183.948 124.19ZM220.759 57.682C223.41 57.682 225.559 59.831 225.559 62.4817C225.559 65.1325 223.41 67.2815 220.759 67.2815C218.109 67.2815 215.96 65.1326 215.96 62.4817C215.96 59.831 218.109 57.682 220.759 57.682ZM232.319 181.65C229.266 181.65 226.792 179.176 226.792 176.123C226.792 173.07 229.266 170.595 232.319 170.595C235.372 170.595 237.847 173.07 237.847 176.123C237.847 179.176 235.372 181.65 232.319 181.65ZM274.3 184.362C272.989 184.362 271.925 183.299 271.925 181.987C271.925 180.675 272.989 179.612 274.3 179.612C275.612 179.612 276.675 180.675 276.675 181.987C276.675 183.299 275.612 184.362 274.3 184.362ZM281.947 149.864C281.019 154.009 276.844 156.604 272.621 155.66C271.61 155.434 270.691 155.021 269.885 154.473C269.078 154.008 266.374 152.783 261.9 154.002C259.344 155.72 256.568 157.134 253.623 158.196C253.065 158.524 252.748 158.626 252.64 158.534C251.174 159.017 249.669 159.413 248.131 159.717C247.694 164.424 250.6 168.949 255.298 170.381C255.561 170.461 255.824 170.527 256.087 170.584C256.075 170.597 256.062 170.608 256.05 170.621C260.177 172.083 262.461 176.55 261.17 180.781C259.844 185.131 255.243 187.582 250.892 186.255C246.541 184.928 244.092 180.327 245.419 175.977C245.71 175.02 246.16 174.155 246.731 173.403C247.03 172.835 247.284 172.235 247.479 171.6C248.775 167.347 247.21 162.903 243.884 160.307C242.846 160.393 241.796 160.438 240.736 160.438C219.748 160.438 202.736 143.425 202.736 122.438C202.736 101.452 219.748 84.4389 240.736 84.4389C261.723 84.4389 278.735 101.452 278.735 122.438C278.735 127.249 277.839 131.85 276.208 136.086C276.912 137.929 278.226 140.326 280.462 143.454C281.852 145.21 282.468 147.534 281.947 149.864ZM267.249 240.928H259.122C257.619 240.928 256.27 240.406 256.27 238.75V221.486C256.27 220.412 257.282 219.308 258.631 219.308H266.942C268.107 219.308 269.088 220.228 269.088 221.302C269.088 222.406 268.107 223.203 266.942 223.203H260.563V228.14H266.359C267.433 228.14 268.475 228.968 268.475 230.072C268.475 231.176 267.555 232.035 266.359 232.035H260.563V237.033H267.249C268.383 237.033 269.395 237.892 269.395 238.935C269.395 240.038 268.414 240.928 267.249 240.928ZM285.372 241.173C284.605 241.173 283.961 240.836 283.563 240.222L278.411 232.157H276.325V239.18C276.325 240.253 275.314 241.204 274.148 241.204C273.013 241.204 272.032 240.284 272.032 239.18V221.516C272.032 220.321 273.105 219.308 274.363 219.308H279.699C285.464 219.308 287.304 222.59 287.304 225.809C287.304 228.845 285.679 230.839 283.041 231.697L287.243 238.015C288.254 239.547 286.752 241.173 285.372 241.173ZM327.997 221.516C327.997 220.32 329.071 219.308 330.328 219.308H335.664C341.429 219.308 343.269 222.59 343.269 225.809C343.269 228.845 341.643 230.839 339.006 231.697L343.207 238.015C344.219 239.547 342.717 241.173 341.337 241.173C340.57 241.173 339.926 240.836 339.528 240.222L334.376 232.157H332.291V239.18C332.291 240.253 331.279 241.204 330.113 241.204C328.979 241.204 327.998 240.284 327.998 239.18L327.997 221.516ZM308.739 227.067C308.739 222.712 310.978 219.032 316.712 219.032C322.447 219.032 324.686 222.712 324.686 227.067V233.138C324.686 237.615 322.018 241.203 316.712 241.203C311.408 241.203 308.739 237.615 308.739 233.138V227.067ZM284.859 136.314C284.859 133.69 286.986 131.564 289.609 131.564C292.233 131.564 294.359 133.69 294.359 136.314C294.359 138.938 292.233 141.064 289.609 141.064C286.986 141.064 284.859 138.938 284.859 136.314ZM305.857 225.809C305.857 228.845 304.231 230.839 301.594 231.697L305.795 238.015C306.807 239.547 305.305 241.173 303.925 241.173C303.158 241.173 302.514 240.836 302.116 240.222L296.964 232.157H294.878V239.18C294.878 240.253 293.867 241.204 292.701 241.204C291.566 241.204 290.585 240.284 290.585 239.18V221.516C290.585 220.321 291.658 219.308 292.916 219.308H298.252C304.017 219.308 305.857 222.59 305.857 225.809ZM361.42 127.82C361.034 127.82 360.652 127.806 360.272 127.784L360.252 127.831C348.483 131.179 335.874 127.347 328.018 118.251C327.738 105.765 324.834 93.9281 319.841 83.2643C323.096 79.9562 327.825 78.2108 332.739 78.9835C334.105 79.1983 335.396 79.5974 336.596 80.1462C336.595 80.132 336.593 80.118 336.593 80.1035C338.832 81.4889 341.472 82.2902 344.299 82.2902C347.229 82.2902 349.955 81.4286 352.246 79.9502C361.049 77.2599 370.549 81.7911 373.876 90.4959C374.296 91.5956 374.588 92.7111 374.777 93.8293C378.629 97.412 381.042 102.522 381.042 108.198C381.042 119.035 372.257 127.82 361.42 127.82ZM411.147 162.197C409.822 162.197 408.748 161.123 408.748 159.798C408.748 158.474 409.822 157.4 411.147 157.4C412.472 157.4 413.546 158.474 413.546 159.798C413.546 161.123 412.472 162.197 411.147 162.197Z" fill="url(#paint20_linear_4008_4441)"/>
<path d="M473.667 132.491C474.991 132.491 476.065 131.417 476.065 130.092C476.065 128.767 474.991 127.693 473.667 127.693C472.342 127.693 471.268 128.767 471.268 130.092C471.268 131.417 472.341 132.491 473.667 132.491Z" fill="url(#paint21_linear_4008_4441)"/>
<defs>
<linearGradient id="paint0_linear_4008_4441" x1="313.033" y1="230.119" x2="320.393" y2="230.119" gradientUnits="userSpaceOnUse">
<stop stop-color="#0452FF"/>
<stop offset="1" stop-color="#4E8FFF"/>
</linearGradient>
<linearGradient id="paint1_linear_4008_4441" x1="276.326" y1="225.748" x2="283.012" y2="225.748" gradientUnits="userSpaceOnUse">
<stop stop-color="#0452FF"/>
<stop offset="1" stop-color="#4E8FFF"/>
</linearGradient>
<linearGradient id="paint2_linear_4008_4441" x1="332.291" y1="225.748" x2="338.976" y2="225.748" gradientUnits="userSpaceOnUse">
<stop stop-color="#0452FF"/>
<stop offset="1" stop-color="#4E8FFF"/>
</linearGradient>
<linearGradient id="paint3_linear_4008_4441" x1="294.879" y1="225.748" x2="301.564" y2="225.748" gradientUnits="userSpaceOnUse">
<stop stop-color="#0452FF"/>
<stop offset="1" stop-color="#4E8FFF"/>
</linearGradient>
<linearGradient id="paint4_linear_4008_4441" x1="137.229" y1="177.388" x2="141.944" y2="177.388" gradientUnits="userSpaceOnUse">
<stop stop-color="#0452FF"/>
<stop offset="1" stop-color="#4E8FFF"/>
</linearGradient>
<linearGradient id="paint5_linear_4008_4441" x1="139.734" y1="108.581" x2="142.383" y2="108.581" gradientUnits="userSpaceOnUse">
<stop stop-color="#0452FF"/>
<stop offset="1" stop-color="#4E8FFF"/>
</linearGradient>
<linearGradient id="paint6_linear_4008_4441" x1="331.51" y1="199.052" x2="340.166" y2="199.052" gradientUnits="userSpaceOnUse">
<stop stop-color="#0452FF"/>
<stop offset="1" stop-color="#4E8FFF"/>
</linearGradient>
<linearGradient id="paint7_linear_4008_4441" x1="241.203" y1="100.96" x2="249.86" y2="100.96" gradientUnits="userSpaceOnUse">
<stop stop-color="#0452FF"/>
<stop offset="1" stop-color="#4E8FFF"/>
</linearGradient>
<linearGradient id="paint8_linear_4008_4441" x1="168.379" y1="46.7911" x2="173.176" y2="46.7911" gradientUnits="userSpaceOnUse">
<stop stop-color="#0452FF"/>
<stop offset="1" stop-color="#4E8FFF"/>
</linearGradient>
<linearGradient id="paint9_linear_4008_4441" x1="175.475" y1="199.052" x2="180.271" y2="199.052" gradientUnits="userSpaceOnUse">
<stop stop-color="#0452FF"/>
<stop offset="1" stop-color="#4E8FFF"/>
</linearGradient>
<linearGradient id="paint10_linear_4008_4441" x1="5.83594" y1="196.653" x2="10.6327" y2="196.653" gradientUnits="userSpaceOnUse">
<stop stop-color="#0452FF"/>
<stop offset="1" stop-color="#4E8FFF"/>
</linearGradient>
<linearGradient id="paint11_linear_4008_4441" x1="173.176" y1="2.3985" x2="177.973" y2="2.3985" gradientUnits="userSpaceOnUse">
<stop stop-color="#0452FF"/>
<stop offset="1" stop-color="#4E8FFF"/>
</linearGradient>
<linearGradient id="paint12_linear_4008_4441" x1="329.111" y1="164.665" x2="333.909" y2="164.665" gradientUnits="userSpaceOnUse">
<stop stop-color="#0452FF"/>
<stop offset="1" stop-color="#4E8FFF"/>
</linearGradient>
<linearGradient id="paint13_linear_4008_4441" x1="240.736" y1="124.214" x2="245.533" y2="124.214" gradientUnits="userSpaceOnUse">
<stop stop-color="#0452FF"/>
<stop offset="1" stop-color="#4E8FFF"/>
</linearGradient>
<linearGradient id="paint14_linear_4008_4441" x1="452.287" y1="85.0222" x2="470.12" y2="85.0222" gradientUnits="userSpaceOnUse">
<stop stop-color="#0452FF"/>
<stop offset="1" stop-color="#4E8FFF"/>
</linearGradient>
<linearGradient id="paint15_linear_4008_4441" x1="439.816" y1="82.784" x2="445.781" y2="82.784" gradientUnits="userSpaceOnUse">
<stop stop-color="#0452FF"/>
<stop offset="1" stop-color="#4E8FFF"/>
</linearGradient>
<linearGradient id="paint16_linear_4008_4441" x1="482.277" y1="160.463" x2="499.999" y2="160.463" gradientUnits="userSpaceOnUse">
<stop stop-color="#0452FF"/>
<stop offset="1" stop-color="#4E8FFF"/>
</linearGradient>
<linearGradient id="paint17_linear_4008_4441" x1="451.871" y1="239.396" x2="457.836" y2="239.396" gradientUnits="userSpaceOnUse">
<stop stop-color="#0452FF"/>
<stop offset="1" stop-color="#4E8FFF"/>
</linearGradient>
<linearGradient id="paint18_linear_4008_4441" x1="12.9141" y1="122.439" x2="18.8786" y2="122.439" gradientUnits="userSpaceOnUse">
<stop stop-color="#0452FF"/>
<stop offset="1" stop-color="#4E8FFF"/>
</linearGradient>
<linearGradient id="paint19_linear_4008_4441" x1="85.938" y1="16.8677" x2="94.9665" y2="7.83931" gradientUnits="userSpaceOnUse">
<stop stop-color="#0452FF"/>
<stop offset="1" stop-color="#4E8FFF"/>
</linearGradient>
<linearGradient id="paint20_linear_4008_4441" x1="0" y1="138.13" x2="476.304" y2="138.13" gradientUnits="userSpaceOnUse">
<stop stop-color="#0452FF"/>
<stop offset="1" stop-color="#4E8FFF"/>
</linearGradient>
<linearGradient id="paint21_linear_4008_4441" x1="471.268" y1="130.092" x2="476.065" y2="130.092" gradientUnits="userSpaceOnUse">
<stop stop-color="#0452FF"/>
<stop offset="1" stop-color="#4E8FFF"/>
</linearGradient>
</defs>
</svg>
