<svg width="24" height="24" viewBox="0 0 24 24" fill="none" xmlns="http://www.w3.org/2000/svg">
<path d="M13.0287 2.00098C14.1541 2.00284 14.7244 2.0088 15.2172 2.02347L15.4113 2.02981C15.6355 2.03778 15.8567 2.04778 16.1234 2.06028C17.1875 2.10945 17.9134 2.27778 18.5509 2.52528C19.21 2.77945 19.7667 3.12278 20.3225 3.67862C20.8775 4.23445 21.2209 4.79278 21.4759 5.45028C21.7225 6.08695 21.8909 6.81362 21.9409 7.87778C21.9528 8.14445 21.9624 8.36565 21.9703 8.58989L21.9766 8.78398C21.9912 9.27672 21.9979 9.8471 22 10.9725L22.0008 11.7181C22.0009 11.8092 22.0009 11.9032 22.0009 12.0002L22.0008 12.2823L22.0002 13.028C21.9983 14.1534 21.9924 14.7238 21.9777 15.2165L21.9713 15.4106C21.9634 15.6349 21.9534 15.8561 21.9409 16.1227C21.8917 17.1869 21.7225 17.9127 21.4759 18.5502C21.2217 19.2094 20.8775 19.7661 20.3225 20.3219C19.7667 20.8769 19.2075 21.2202 18.5509 21.4752C17.9134 21.7219 17.1875 21.8902 16.1234 21.9402C15.8567 21.9521 15.6355 21.9618 15.4113 21.9696L15.2172 21.9759C14.7244 21.9906 14.1541 21.9972 13.0287 21.9994L12.283 22.0002C12.1919 22.0002 12.0979 22.0002 12.0009 22.0002H11.7188L10.9731 21.9995C9.84771 21.9977 9.27733 21.9917 8.78458 21.977L8.5905 21.9707C8.36625 21.9627 8.14505 21.9527 7.87839 21.9402C6.81422 21.8911 6.08922 21.7219 5.45089 21.4752C4.79255 21.2211 4.23505 20.8769 3.67922 20.3219C3.12339 19.7661 2.78089 19.2069 2.52589 18.5502C2.27839 17.9127 2.11089 17.1869 2.06089 16.1227C2.04901 15.8561 2.03932 15.6349 2.03147 15.4106L2.02518 15.2165C2.01055 14.7238 2.00388 14.1534 2.00172 13.028L2.00159 10.9725C2.00345 9.8471 2.0094 9.27672 2.02407 8.78398L2.03042 8.58989C2.03839 8.36565 2.04839 8.14445 2.06089 7.87778C2.11005 6.81278 2.27839 6.08778 2.52589 5.45028C2.78005 4.79195 3.12339 4.23445 3.67922 3.67862C4.23505 3.12278 4.79339 2.78028 5.45089 2.52528C6.08839 2.27778 6.81339 2.11028 7.87839 2.06028C8.14505 2.04841 8.36625 2.03872 8.5905 2.03087L8.78458 2.02458C9.27733 2.00994 9.84771 2.00327 10.9731 2.00111L13.0287 2.00098ZM12.0009 7.00028C9.23799 7.00028 7.00089 9.23981 7.00089 12.0002C7.00089 14.7631 9.24042 17.0002 12.0009 17.0002C14.7638 17.0002 17.0009 14.7607 17.0009 12.0002C17.0009 9.23738 14.7613 7.00028 12.0009 7.00028ZM12.0009 9.00028C13.6578 9.00028 15.0009 10.3429 15.0009 12.0002C15.0009 13.6571 13.6582 15.0002 12.0009 15.0002C10.344 15.0002 9.00089 13.6576 9.00089 12.0002C9.00089 10.3433 10.3435 9.00028 12.0009 9.00028ZM17.2509 5.50028C16.5616 5.50028 16.0009 6.06019 16.0009 6.74943C16.0009 7.43868 16.5608 7.99945 17.2509 7.99945C17.9401 7.99945 18.5009 7.43955 18.5009 6.74943C18.5009 6.06019 17.9392 5.49942 17.2509 5.50028Z" fill="#060C16"/>
</svg>
