<svg width="23" height="16" viewBox="0 0 23 16" fill="none" xmlns="http://www.w3.org/2000/svg">
<path fill-rule="evenodd" clip-rule="evenodd" d="M17.6716 4.38863C18.4821 3.25319 20.014 2.03087 22.0994 1.0133C22.6414 0.74886 22.3969 -0.0707626 21.7987 0.00491333C17.4168 0.559178 14.5767 2.47825 13.0258 5.33214C12.449 6.39358 12.0865 7.52337 11.8935 8.67669C11.7663 9.43711 11.7327 10.0078 11.7327 10.6669C11.7327 13.6123 14.1204 16 17.0658 16C20.0112 16 22.3989 13.6123 22.3989 10.6669C22.3989 7.72151 19.9731 5.33214 17.1854 5.33214C17.3325 4.92835 17.3678 4.81423 17.6716 4.38863ZM5.9388 4.38863C6.74925 3.25319 8.28113 2.03087 10.3666 1.0133C10.9086 0.74886 10.6641 -0.0707626 10.0658 0.00491333C5.68401 0.559178 2.8439 2.47825 1.29297 5.33214C0.716133 6.39358 0.353725 7.52337 0.160727 8.67669C0.0334759 9.43711 -0.000131607 10.0078 -0.000131607 10.6669C-0.000131607 13.6123 2.38758 16 5.33297 16C8.27836 16 10.6661 13.6123 10.6661 10.6669C10.6661 7.72151 8.24027 5.33214 5.45263 5.33214C5.59969 4.92835 5.63501 4.81423 5.9388 4.38863Z" fill="#1E5AFF"/>
</svg>
