<?xml version="1.0" encoding="UTF-8"?>
<svg xmlns="http://www.w3.org/2000/svg" width="176" height="230" viewBox="0 0 176.22 229.51">
<defs>
<clipPath id="clip-0">
<path clip-rule="nonzero" d="M 1 1 L 176 1 L 176 192 L 1 192 Z M 1 1 "/>
</clipPath>
<clipPath id="clip-1">
<path clip-rule="evenodd" d="M 86.88 63.61 C 89.64 64.77 92.12 66.48 94.19 68.59 L 116.09 59.66 C 116.06 59.45 116.05 59.25 116.05 59.04 C 116.05 56.39 118.2 54.23 120.85 54.23 C 123.5 54.23 125.65 56.39 125.65 59.04 C 125.65 61.69 123.5 63.84 120.85 63.84 C 119.5 63.84 118.28 63.28 117.4 62.38 L 96.25 71.01 C 96.83 71.79 97.36 72.61 97.83 73.46 C 103.18 73.71 107.44 78.14 107.44 83.55 C 107.44 88.68 103.62 92.92 98.67 93.57 C 96.6 98.18 93.02 101.96 88.56 104.3 C 88 109.35 83.72 113.27 78.52 113.27 C 73.47 113.27 69.29 109.57 68.54 104.73 C 66.02 103.54 63.76 101.91 61.86 99.92 L 39.55 109.02 C 39.58 109.23 39.6 109.45 39.6 109.67 C 39.6 112.32 37.45 114.47 34.79 114.47 C 32.14 114.47 29.99 112.32 29.99 109.67 C 29.99 107.02 32.14 104.87 34.79 104.87 C 36.13 104.87 37.34 105.41 38.21 106.3 L 59.83 97.48 C 59.32 96.77 58.85 96.03 58.42 95.26 C 52.88 95.21 48.4 90.71 48.4 85.16 C 48.4 84.33 48.5 83.54 48.68 82.77 L 21.94 71.85 C 20.88 73.64 18.92 74.85 16.68 74.85 C 13.31 74.85 10.58 72.12 10.58 68.74 C 10.58 65.37 13.31 62.64 16.68 62.64 C 20.05 62.64 22.79 65.37 22.79 68.74 C 22.79 68.81 22.79 68.87 22.78 68.93 L 35.84 74.26 L 34.69 56.02 L 14.46 47.66 C 13.35 49.22 11.53 50.23 9.48 50.23 C 6.11 50.23 3.38 47.5 3.38 44.13 C 3.38 40.76 6.11 38.02 9.48 38.02 C 12.85 38.02 15.58 40.76 15.58 44.13 C 15.58 44.37 15.57 44.61 15.54 44.84 L 37.77 54.02 L 37.62 54.38 L 38.95 75.53 L 49.83 79.97 C 51.45 77.27 54.29 75.39 57.6 75.09 C 58.76 72.52 60.39 70.2 62.38 68.25 L 47.87 33.98 C 47.65 34 47.43 34.02 47.2 34.02 C 44.55 34.02 42.4 31.87 42.4 29.22 C 42.4 26.57 44.55 24.41 47.2 24.41 C 49.86 24.41 52 26.57 52 29.22 C 52 30.55 51.46 31.76 50.58 32.63 L 56.61 46.88 L 69.55 32.59 L 61.95 13.15 C 61.67 13.19 61.39 13.21 61.11 13.21 C 57.74 13.21 55.01 10.48 55.01 7.11 C 55.01 3.73 57.74 1 61.11 1 C 64.48 1 67.21 3.73 67.21 7.11 C 67.21 9.11 66.24 10.9 64.74 12.01 L 73.09 33.34 L 72.84 33.45 L 57.91 49.93 L 64.8 66.2 C 65.45 65.73 66.12 65.28 66.82 64.88 C 67.07 59.51 71.5 55.23 76.92 55.23 C 77.65 55.23 78.36 55.31 79.05 55.46 L 89.75 28.05 C 88.22 26.95 87.23 25.14 87.23 23.11 C 87.23 19.74 89.96 17.01 93.33 17.01 C 96.7 17.01 99.43 19.74 99.43 23.11 C 99.43 26.48 96.7 29.22 93.33 29.22 C 93.07 29.22 92.81 29.2 92.55 29.17 L 87.36 42.48 L 106.08 41.03 L 114.79 21.07 C 113.25 19.96 112.24 18.15 112.24 16.11 C 112.24 12.74 114.98 10 118.35 10 C 121.72 10 124.45 12.74 124.45 16.11 C 124.45 19.48 121.72 22.21 118.35 22.21 C 118.1 22.21 117.85 22.2 117.61 22.17 L 108.26 43.59 L 108.28 43.89 L 108.12 43.9 L 108.11 43.94 L 108.04 43.91 L 86.14 45.61 L 81.88 56.53 C 84.47 57.99 86.35 60.57 86.88 63.61 Z M 30.09 148.59 C 30.23 147.95 29.7 146.27 29.58 145.55 C 29.54 145.36 29.5 145.16 29.46 144.94 C 29.4 144.56 29.32 144.11 29.2 143.76 C 28.97 143.08 29.12 143.86 28.91 142.61 C 28.79 141.88 28.48 141.18 28.43 140.91 C 28.34 140.3 28.21 139.73 28.04 139.15 C 27.97 138.92 27.9 138.91 27.85 138.65 C 27.82 138.46 27.78 138.24 27.74 138.04 C 27.7 137.83 27.63 137.68 27.58 137.48 C 27.48 137.07 27.32 136.8 27.24 136.38 C 27.16 136.01 27.05 135.61 26.89 135.29 C 26.68 134.87 26.67 134.6 26.52 134.2 C 26.27 133.55 26.14 133.54 26.07 133.22 C 25.88 132.45 25.55 131.94 25.49 131.62 C 25.45 131.43 25.42 131.23 25.37 131.03 C 25.26 130.58 25.09 130.39 24.94 130.05 C 24.86 129.88 24.83 129.7 24.76 129.51 C 24.53 128.95 24.4 128.89 24.29 128.54 C 24.23 128.37 24.16 128.19 24.09 128.02 C 23.98 127.73 23.89 127.78 23.79 127.59 C 23.61 127.27 23.6 126.85 23.39 126.55 C 23.1 126.13 23.16 125.92 22.96 125.54 C 22.73 125.12 22.66 125.18 22.44 124.61 C 22.27 124.18 22.1 124.14 21.94 123.66 C 21.73 123.01 21.56 123.09 21.42 122.74 C 21.29 122.4 21.2 122.07 20.92 121.84 C 20.77 121.7 20.63 121.1 20.45 120.87 C 20.27 120.63 20.29 120.77 20.17 120.43 C 20.1 120.24 20.02 120.11 19.92 119.95 C 19.84 119.81 19.7 119.66 19.63 119.52 C 19.55 119.32 19.53 119.2 19.4 119.03 C 19.05 118.54 19.24 118.97 18.84 118.14 C 18.75 117.96 18.64 117.89 18.54 117.73 C 18.44 117.59 18.41 117.4 18.3 117.24 C 18.23 117.14 18.22 117.16 18.14 117.04 L 17.74 116.35 C 17.61 116.08 17.4 116 17.27 115.74 L 16.86 115.11 C 16.64 114.84 16.54 114.42 16.29 114.23 C 16.09 114.08 16.14 114 16.03 113.77 C 15.96 113.62 15.88 113.44 15.77 113.31 C 15.64 113.13 15.57 113.12 15.48 112.89 C 15.4 112.7 15.32 112.58 15.17 112.47 C 14.86 112.23 14.88 111.64 14.51 111.32 C 14.39 111.22 14.44 111.29 14.37 111.11 C 14.1 110.43 14.01 110.46 13.84 110.2 C 13.7 109.98 13.65 109.67 13.34 109.25 C 13.13 108.97 13.04 108.59 12.88 108.27 C 12.79 108.09 12.7 108 12.62 107.84 C 12.39 107.34 12.51 107.41 12.13 106.88 C 12.02 106.72 11.84 106.13 11.7 105.87 C 11.62 105.71 11.5 105.59 11.44 105.41 C 11.31 105.05 11.23 104.65 11.02 104.38 C 10.84 104.14 10.79 103.93 10.69 103.64 C 10.46 103 10.41 103.15 10.33 102.91 C 10.18 102.47 10.14 101.96 9.84 101.59 C 9.73 101.46 9.77 101.56 9.71 101.37 C 9.6 101.07 9.47 100.53 9.32 100.32 C 9.17 100.11 9.16 100.11 9.1 99.85 C 9.02 99.5 8.92 99.07 8.76 98.75 C 8.65 98.54 8.58 98.55 8.52 98.27 C 8.41 97.86 8.32 97.53 8.2 97.14 C 7.97 96.47 8.05 97.02 7.86 96.04 C 7.79 95.68 7.63 95.26 7.47 94.98 C 7.32 94.72 7.27 94.17 7.18 93.83 C 7.1 93.52 7.07 93.27 6.95 92.98 C 6.91 92.87 6.87 92.83 6.84 92.73 C 6.74 92.47 6.49 90.82 6.35 90.33 C 6.07 89.34 6.04 88.32 5.73 87.34 C 5.54 86.73 5.55 86.05 5.47 85.43 C 5.39 84.81 5.38 84.11 5.23 83.51 C 5.17 83.29 5.11 83.15 5.06 82.95 C 4.94 82.45 4.95 81.99 4.65 81.6 C 4.59 81.52 4.53 81.49 4.48 81.41 C 4.39 81.28 4.32 81.11 4.17 81 C 4.03 80.9 3.83 80.84 3.68 80.77 C 3.05 80.45 2.62 80.5 2.05 80.82 C 1.72 81 1.47 81.17 1.27 81.49 C 0.9 82.07 0.99 83.18 1.08 84.01 C 1.18 85 1.11 85.46 1.38 86.59 C 1.43 86.79 1.47 86.93 1.54 87.12 C 1.62 87.37 1.57 87.5 1.61 87.77 C 1.73 88.61 1.7 88.79 1.91 89.63 C 1.96 89.83 1.98 90 2.06 90.21 C 2.35 91.02 2.18 91.52 2.64 92.52 C 2.72 92.71 2.76 92.83 2.79 93.08 C 2.82 93.3 2.84 93.49 2.89 93.7 C 2.95 93.98 3 94.02 3.09 94.23 C 3.25 94.61 3.34 94.93 3.41 95.35 C 3.45 95.58 3.48 95.73 3.54 95.95 C 3.59 96.18 3.62 96.28 3.72 96.45 C 4.18 97.22 3.84 97.79 4.42 98.64 C 4.54 98.82 4.56 98.93 4.61 99.17 C 4.75 99.92 4.79 99.72 5.02 100.2 C 5.26 100.7 5.2 101.34 5.59 101.79 C 5.78 102 5.84 102.91 6.18 103.38 C 6.39 103.67 6.34 104.3 6.62 104.73 C 6.68 104.82 6.71 104.84 6.77 104.95 C 6.95 105.25 7.02 105.66 7.2 105.97 C 7.36 106.26 7.45 106.38 7.55 106.7 C 7.57 106.78 7.62 106.89 7.65 106.96 C 7.7 107.06 7.72 107.08 7.77 107.19 C 7.86 107.37 7.96 107.47 8.03 107.66 C 8.2 108.12 8.2 108 8.4 108.37 C 8.5 108.55 8.59 108.66 8.64 108.85 C 8.71 109.07 8.73 109.22 8.8 109.41 C 9.02 109.98 9.03 109.67 9.32 110.34 C 9.46 110.67 9.75 110.9 9.86 111.25 C 9.94 111.52 10.07 111.73 10.22 111.96 C 10.37 112.18 10.43 112.44 10.55 112.68 C 10.64 112.87 10.75 112.94 10.85 113.1 C 11.07 113.44 11.02 113.76 11.33 114.07 C 11.59 114.32 11.64 114.7 11.84 115 C 11.99 115.21 12.06 115.11 12.18 115.38 C 12.29 115.64 12.28 115.63 12.45 115.83 C 12.7 116.12 12.78 116.44 12.97 116.75 C 13.11 116.97 13.22 116.95 13.3 117.14 C 13.41 117.37 13.4 117.41 13.55 117.61 C 14.01 118.22 13.82 118.05 14.1 118.52 C 14.29 118.84 14.27 118.55 14.56 119.14 L 14.98 119.76 C 15.12 119.93 15.13 120.05 15.23 120.23 C 15.34 120.45 15.44 120.46 15.56 120.62 C 15.77 120.92 15.79 121.31 16.05 121.57 C 16.16 121.67 16.16 121.64 16.23 121.76 C 16.27 121.84 16.29 121.92 16.34 122.01 C 16.5 122.34 16.75 122.58 16.87 122.93 C 16.96 123.18 16.96 123.21 17.11 123.4 C 17.45 123.84 17.38 123.93 17.61 124.35 C 17.84 124.75 17.83 124.39 18.03 125.01 C 18.07 125.11 18.09 125.18 18.12 125.28 C 18.29 125.72 18.45 125.7 18.55 125.93 C 18.66 126.18 18.7 126.48 18.86 126.71 C 19 126.93 19.1 126.83 19.17 127.08 C 19.27 127.42 19.32 127.83 19.59 128.1 C 19.84 128.35 19.81 128.83 20 129.14 C 20.12 129.32 20.2 129.29 20.29 129.57 C 20.41 129.94 20.48 130.3 20.64 130.66 C 20.82 131.12 20.75 130.68 20.97 131.41 C 21.05 131.66 21.16 131.97 21.29 132.18 C 21.55 132.57 21.6 133.19 21.9 133.73 C 22.02 133.95 22.07 133.98 22.13 134.23 C 22.33 135.02 22.35 134.81 22.59 135.21 C 22.67 135.33 22.68 135.62 22.71 135.81 C 22.77 136.15 22.92 136.65 23.07 136.89 C 23.27 137.21 23.31 137.64 23.39 138.02 C 23.49 138.43 23.72 138.66 23.81 139.04 C 23.96 139.69 23.94 140.16 24.27 140.75 C 24.6 141.36 24.43 142.18 24.83 142.72 C 25.02 142.98 24.96 143.42 25.05 143.57 C 25.05 145.43 25.56 145.27 25.62 146.3 C 25.69 147.67 25.71 147.64 26.02 148.75 C 26.05 148.87 26.11 148.99 26.12 149.08 C 26.21 149.52 26.19 150.71 26.34 151.31 C 26.77 153.08 26.73 152.9 26.78 154.61 C 26.79 154.8 26.82 154.8 26.82 155 C 26.85 156.08 26.93 157.1 27.05 158.06 C 27.08 158.33 27.08 158.54 27.12 158.79 L 27.25 159.51 C 27.35 160.02 27.26 160.58 27.3 161.14 C 27.35 161.68 27.35 164.5 27.25 165.1 L 26.98 167.36 C 26.97 167.89 26.92 168.41 26.87 168.89 C 26.85 169.02 26.87 169.15 26.86 169.28 C 26.79 170.08 26.78 171.25 26.64 171.95 C 26.5 172.61 26.21 174.63 26.18 175.22 C 26.16 175.64 26.21 175.91 26.04 176.32 C 25.72 177.07 25.68 178.39 25.51 179.12 C 25.41 179.59 25.3 179.99 25.21 180.47 C 25.09 181.06 25 182.51 24.96 182.66 C 24.92 182.8 24.8 182.97 24.74 183.28 L 24.41 185.44 C 24.37 185.79 24.07 186.64 23.95 187.47 C 23.84 188.3 23.58 190.46 24.25 191.02 C 24.89 191.55 25.2 191.8 25.98 191.79 C 26.41 191.77 26.57 191.55 26.77 191.37 C 26.88 191.27 26.92 191.29 27.04 191.2 C 27.29 191.04 27.67 190.49 27.75 190.22 C 27.8 190.03 27.82 189.77 27.89 189.56 C 28.25 188.5 28.13 188.49 28.33 187.51 C 28.44 186.98 28.45 186.76 28.59 186.13 C 28.79 185.32 28.9 184.08 28.99 183.2 C 29.02 182.93 29.13 182.84 29.21 182.62 C 29.27 182.44 29.31 182.1 29.34 181.91 C 29.42 181.42 29.48 180.98 29.56 180.49 L 29.71 179.8 C 30.13 178.43 30.05 177.34 30.32 176.28 C 30.52 175.53 30.7 173.61 30.85 172.67 C 30.93 172.15 30.93 171.38 30.96 171.14 C 31.06 170.4 31.21 167.95 31.23 167.23 C 31.24 166.97 31.27 166.96 31.27 166.47 L 31.27 159.02 C 31.27 158.29 31.16 157.61 31.15 157.09 C 31.14 156.96 31.16 156.82 31.15 156.69 C 31.14 156.14 30.98 154.89 30.89 154.42 C 30.8 153.93 30.78 153.43 30.72 152.95 C 30.69 152.68 30.69 152.47 30.66 152.21 C 30.59 151.62 30.47 150.49 30.31 150.07 C 30.21 149.78 30.16 149.35 30.15 148.99 C 30.15 148.93 30.16 148.84 30.15 148.79 C 30.14 148.58 30.12 148.62 30.09 148.59 Z M 76.56 171.81 C 76.66 171.99 76.84 171.95 77.02 172.19 C 77.3 172.56 77.53 172.45 77.7 172.74 C 77.78 172.88 77.8 172.89 77.92 172.96 C 78.1 173.08 78.28 173.15 78.43 173.3 C 78.61 173.49 78.96 173.65 79.21 173.77 C 79.39 173.86 79.3 173.84 79.43 173.98 C 79.61 174.18 79.74 174.17 79.97 174.29 L 80.12 174.38 C 80.67 174.82 80.94 174.83 81.21 175.13 C 81.37 175.29 81.56 175.33 81.75 175.43 L 82.11 175.71 C 82.19 175.77 82.16 175.74 82.23 175.79 C 82.57 176 82.73 176.01 83.04 176.27 C 83.19 176.39 83.41 176.46 83.6 176.55 C 83.83 176.67 83.93 176.7 84.12 176.87 C 84.43 177.16 84.97 177.12 85.27 177.41 C 85.5 177.65 85.77 177.69 86.05 177.86 C 86.34 178.04 86.51 178.23 86.88 178.33 C 87.43 178.48 87.53 178.7 88.04 178.85 C 88.9 179.09 88.52 179.18 89.47 179.5 C 89.75 179.6 89.82 179.59 90.04 179.77 C 90.3 179.97 90.66 180.04 90.97 180.12 C 91.27 180.21 91.25 180.32 91.5 180.44 C 91.86 180.61 92.6 180.69 92.82 180.81 C 93.03 180.93 92.97 181.04 93.33 181.14 C 93.59 181.2 93.83 181.21 94.07 181.28 C 94.32 181.35 94.43 181.4 94.65 181.55 C 94.99 181.78 95.54 181.83 95.95 181.93 C 96.26 182.01 96.29 182.09 96.52 182.2 C 96.88 182.36 97.45 182.4 97.87 182.54 C 98.39 182.72 97.98 182.79 99.11 182.98 C 100.54 183.22 99.76 183.12 100.43 183.34 C 100.94 183.51 102.17 183.58 102.54 183.77 C 103.17 184.1 103.9 184.14 104.66 184.2 C 104.9 184.22 105.16 184.26 105.42 184.29 C 105.82 184.33 106.21 184.58 106.75 184.64 C 106.99 184.66 107.29 184.67 107.53 184.71 C 108.3 184.82 109.11 184.78 109.86 184.9 C 110.35 184.98 110.83 185.09 111.32 185.12 C 111.61 185.14 111.79 185.19 112.06 185.23 C 112.33 185.27 112.62 185.22 112.89 185.25 C 113.88 185.33 116.02 185.32 117.06 185.32 C 117.34 185.32 117.62 185.32 117.9 185.32 C 118.2 185.33 118.38 185.28 118.7 185.29 C 119.24 185.29 119.89 185.32 120.36 185.25 C 120.5 185.23 120.61 185.25 120.75 185.25 C 121.65 185.22 123.22 184.97 124.14 184.83 C 125.27 184.66 126.47 184.75 127.58 184.49 C 127.73 184.46 127.77 184.43 127.93 184.4 C 128.31 184.32 130.14 184.13 130.57 184.12 L 133.27 183.85 C 134.07 183.7 134.69 183.63 135.5 183.55 C 135.99 183.51 136.55 183.46 137.03 183.4 C 137.55 183.32 137.9 183.16 138.43 183.11 C 138.93 183.07 139.47 183.04 140 182.99 C 140.34 182.96 140.72 182.9 141.05 182.77 C 141.11 182.75 141.15 182.73 141.2 182.71 C 141.98 182.33 142.55 182.46 142.92 182.11 C 143.05 181.97 142.98 181.99 143.19 181.94 C 144.57 181.58 144.05 181.52 144.97 181.19 C 145.16 181.12 145.32 180.96 145.46 180.84 C 145.56 180.77 145.9 180.63 146.03 180.57 C 146.35 180.41 146.2 180.33 146.75 180.04 C 146.98 179.91 147.02 179.71 147.16 179.61 C 147.23 179.56 147.34 179.53 147.45 179.45 C 147.66 179.3 147.64 179.15 147.84 179.01 C 148.37 178.65 148.16 178.61 148.48 178.41 C 148.75 178.24 148.91 177.99 149.14 177.77 C 149.34 177.57 149.33 177.4 149.48 177.23 C 149.62 177.07 149.77 177.01 149.88 176.8 C 150.07 176.43 150.4 176.1 150.53 175.76 C 150.79 175.12 150.83 175.49 151.13 174.68 C 151.27 174.32 151.18 174.43 151.41 174.11 C 151.65 173.77 152.02 172.74 152.16 172.34 C 152.23 172.12 152.27 171.88 152.3 171.64 C 152.37 171.1 152.37 170.62 152.54 170.19 C 152.68 169.8 152.75 169.24 152.81 168.77 L 152.92 167.6 C 152.93 166.92 153 166.25 153 165.55 C 153 164.75 153 164.72 153.17 164.04 C 153.29 163.6 153.31 163.06 153.38 162.57 L 153.56 160.22 C 153.57 159.9 153.57 159.72 153.6 159.42 L 153.79 157.93 C 153.86 157.43 153.91 156.92 153.96 156.41 L 154.16 153.24 C 154.16 152.32 154.46 151.24 154.55 150.27 C 154.58 150.03 154.59 149.74 154.62 149.49 C 154.64 149.34 154.63 149.25 154.64 149.11 C 154.67 148.46 154.77 147.74 154.76 147.11 C 154.76 146.07 155.02 145.21 155.12 144.09 C 155.17 143.55 155.22 143.08 155.24 142.49 C 155.25 142.3 155.27 142.3 155.28 142.13 C 155.29 141.99 155.28 141.83 155.28 141.69 L 155.66 138.7 C 155.7 138.44 155.71 138.2 155.75 137.94 L 155.8 137.16 C 155.8 136.83 155.85 136.65 155.84 136.36 C 155.84 136.02 155.89 135.86 155.88 135.55 C 155.87 134.59 156.07 133.53 156.28 132.58 C 156.34 132.34 156.38 132.14 156.42 131.88 C 156.48 131.5 156.54 131.56 156.7 131.31 C 156.8 131.14 157.03 130.59 157.15 130.48 C 157.25 130.39 157.29 130.41 157.4 130.29 C 157.56 130.1 157.55 129.93 157.75 129.8 C 157.96 129.67 158.03 129.58 158.18 129.39 C 158.31 129.23 158.54 129.19 158.68 129.05 C 158.89 128.83 158.86 128.81 159.17 128.69 C 159.52 128.56 159.71 128.51 160.05 128.33 C 160.64 128.03 161.2 128.05 161.62 127.78 C 161.88 127.62 161.89 127.59 162.2 127.52 C 162.65 127.4 163.11 127.39 163.47 127.1 C 163.7 126.92 164.48 126.88 164.84 126.78 C 165.33 126.65 165.59 126.44 166.1 126.32 C 166.34 126.27 166.53 126.23 166.77 126.14 C 166.98 126.07 167.12 125.95 167.32 125.86 C 167.54 125.76 167.76 125.76 168.01 125.7 C 168.26 125.65 168.46 125.61 168.66 125.51 C 169.36 125.19 169.2 125.27 169.93 125.09 C 170.62 124.93 170.3 124.8 171.07 124.55 C 171.69 124.34 171.65 124.23 172.18 123.98 C 172.79 123.68 172.6 123.59 172.86 123.41 C 172.96 123.35 173.05 123.33 173.15 123.27 C 173.35 123.13 173.34 122.93 173.53 122.8 C 173.73 122.65 173.78 122.55 173.91 122.33 C 174.04 122.11 174.18 122.05 174.29 121.88 C 174.46 121.61 174.54 121.2 174.69 120.99 C 174.88 120.71 174.98 120.41 175.04 120.06 C 175.09 119.8 175.11 119.59 175.14 119.32 C 175.17 119.09 175.21 118.82 175.21 118.55 C 175.21 118.3 175.23 117.95 175.21 117.71 C 175.17 117.32 175.1 116.57 174.98 116.25 C 174.89 116 174.79 115.93 174.68 115.71 C 174.57 115.52 174.55 115.31 174.47 115.08 C 174.37 114.79 174.11 114.57 173.88 113.99 C 173.75 113.7 173.65 113.72 173.5 113.52 C 173.41 113.39 173.32 113.11 173.23 112.95 C 173.05 112.57 172.96 112.71 172.75 112.19 C 172.61 111.88 172.38 111.71 172.22 111.39 C 172.11 111.18 172.09 111.01 171.92 110.86 C 171.82 110.77 171.77 110.77 171.7 110.67 C 171.59 110.52 171.48 110.07 171.27 109.82 C 171 109.49 171.01 109.27 170.81 109.04 C 170.46 108.62 170.79 109.29 170.34 108.21 C 170.29 108.09 170.28 108.05 170.19 107.96 C 169.94 107.7 169.98 107.87 169.82 107.49 C 169.7 107.2 169.45 107 169.32 106.71 C 168.96 105.93 169.1 106.33 168.82 105.98 C 168.75 105.89 168.72 105.77 168.68 105.67 C 168.44 105.14 168.28 105.17 168.06 104.61 C 167.94 104.3 167.71 104.17 167.45 103.54 C 167.32 103.23 167.2 103.24 167.05 103.05 L 166.62 102.23 C 166.53 102.09 166.51 102.12 166.42 101.99 C 166.31 101.82 166.27 101.59 166.15 101.42 C 165.66 100.74 165.73 100.56 165.55 100.33 C 165.47 100.22 165.41 100.21 165.34 100.14 C 165.26 100.07 165.24 99.96 165.19 99.86 C 165.11 99.7 165 99.44 164.91 99.3 C 164.75 99.05 164.71 99.12 164.58 98.78 C 164.48 98.49 164.23 98.29 164.1 98.02 C 164.05 97.93 164.02 97.82 163.97 97.7 C 163.84 97.36 163.61 97.27 163.48 96.95 C 163.13 96.1 162.99 96.26 162.88 95.87 C 162.83 95.73 162.8 95.68 162.74 95.57 C 162.7 95.47 162.66 95.4 162.61 95.3 C 162.49 95.08 162.35 95.02 162.25 94.77 L 162.1 94.49 C 162.04 94.23 161.84 94.19 161.66 93.68 C 161.39 92.9 161.35 93.31 161.04 92.38 C 160.97 92.16 160.82 91.93 160.7 91.75 C 160.48 91.44 160.54 91.46 160.39 91.09 C 160.27 90.76 160.06 90.64 159.95 90.3 C 159.64 89.37 159.62 89.77 159.29 89.03 C 159.22 88.88 159.18 88.72 159.09 88.59 C 158.98 88.41 158.91 88.46 158.84 88.2 L 158.63 87.48 C 158.43 86.9 158.34 86.97 158.16 86.35 C 158.09 86.08 158.09 86.23 158.03 85.84 C 157.91 85.14 158.11 83.39 158.35 82.75 C 158.81 81.57 158.76 79.61 158.88 79.11 C 159.04 78.45 159.13 78.34 159.17 77.52 L 159.27 76.34 C 159.35 75.84 159.36 73.81 159.37 73.22 C 159.38 72.99 159.41 72.89 159.41 72.62 L 159.37 69.46 C 159.37 69 159.33 68.7 159.33 68.25 C 159.33 67.62 159.26 67.03 159.21 66.45 C 159.13 65.39 158.96 64.64 158.82 63.63 C 158.77 63.24 158.78 62.8 158.74 62.43 C 158.69 62.02 158.67 61.68 158.59 61.3 C 158.46 60.75 158.32 60.57 158.27 60.34 C 158.16 59.93 158.03 59.21 157.89 58.83 C 157.83 58.66 157.74 58.52 157.69 58.38 C 157.52 57.91 157.54 57.28 157.22 56.61 C 156.86 55.88 157.08 55.96 156.87 55.35 C 156.74 54.96 156.5 54.54 156.48 54.45 C 156.39 54.02 156.29 53.38 156.02 53 C 155.73 52.62 155.95 52.22 155.52 51.61 C 155.25 51.24 155.24 50.66 155.03 50.18 C 154.93 49.96 154.83 49.94 154.77 49.8 C 154.65 49.54 154.62 49.08 154.27 48.69 C 154.12 48.54 154.08 48.3 154 48 C 153.86 47.49 153.78 47.54 153.57 47.14 C 153.3 46.65 153.61 46.94 153.11 46.32 C 152.82 45.96 153.09 45.84 152.48 45.06 C 152.4 44.96 152.34 44.75 152.27 44.63 C 151.91 43.91 151.89 44.22 151.78 43.84 C 151.71 43.58 151.56 43.11 151.4 42.94 C 151.17 42.7 151.36 43.03 151.15 42.54 C 151.04 42.29 150.68 41.84 150.64 41.77 C 150.32 41.14 150.68 41.57 150.06 40.75 C 149.92 40.56 149.83 40.29 149.7 40.15 C 149.25 39.67 149.45 39.67 149.09 39.15 C 149.03 39.07 149 39.05 148.94 38.98 C 148.74 38.73 148.7 38.44 148.44 38.24 C 148.23 38.07 148.33 37.98 147.93 37.47 C 147.86 37.39 147.83 37.37 147.77 37.3 C 147.73 37.24 147.69 37.16 147.65 37.1 C 147.57 36.96 147.51 36.81 147.42 36.69 C 147.3 36.52 147.19 36.53 147.1 36.37 C 147.02 36.22 147.01 36.09 146.89 35.94 C 146.78 35.81 146.7 35.72 146.59 35.59 C 146.31 35.21 146.45 35.2 146.07 34.84 C 145.89 34.66 145.93 34.67 145.8 34.46 C 145.69 34.27 145.66 34.25 145.48 34.14 C 145.25 33.98 145.44 33.91 144.89 33.44 C 144.78 33.34 144.84 33.4 144.76 33.25 C 144.7 33.13 144.7 33.12 144.61 33.11 C 144.61 32.95 144.6 33.04 144.54 32.96 L 143.62 31.95 C 143.48 31.78 143.41 31.57 143.26 31.42 C 143.16 31.32 143.11 31.32 143.02 31.22 C 142.86 31.04 142.78 30.82 142.54 30.66 C 142.41 30.57 142.35 30.42 142.23 30.28 C 142.09 30.11 141.89 30.07 141.79 29.89 C 141.71 29.74 141.74 29.74 141.62 29.62 C 141.52 29.52 141.46 29.5 141.36 29.43 C 141.2 29.31 141.17 29.11 141.02 28.94 C 140.91 28.83 140.87 28.84 140.77 28.74 C 140.66 28.63 140.68 28.59 140.59 28.48 C 140.45 28.3 140.27 28.23 140.15 28.07 C 139.98 27.85 139.95 27.79 139.72 27.62 C 139.56 27.52 139.46 27.31 139.33 27.18 C 139.25 27.09 139.18 27.07 139.09 26.98 C 138.98 26.87 138.98 26.85 138.89 26.73 C 138.73 26.48 138.27 26.05 138.02 25.88 C 137.73 25.68 137.81 25.62 137.3 25.31 C 137.19 25.24 137.17 25.18 137.09 25.08 C 136.94 24.89 136.79 24.86 136.59 24.74 C 136.4 24.62 136.41 24.49 136.11 24.34 C 135.96 24.25 135.73 24.12 135.6 24 C 135.44 23.88 135.21 23.8 134.96 23.75 C 134.83 23.73 134.4 23.8 134.25 23.84 C 133.97 23.92 133.37 24.3 133.21 24.53 C 133.12 24.68 133.16 24.66 133.03 24.78 L 132.98 24.82 C 132.6 25.22 132.53 25.83 132.63 26.45 C 132.7 26.87 133.32 27.8 133.68 28.01 C 133.93 28.16 133.77 28.25 134.32 28.66 C 134.49 28.78 134.57 28.98 134.74 29.12 C 135.05 29.39 135.14 29.57 135.41 29.73 C 135.61 29.84 135.7 30.02 135.87 30.15 C 135.96 30.22 136 30.24 136.1 30.32 L 136.78 30.96 C 136.87 31.07 136.88 31.07 136.96 31.19 C 137.1 31.4 137.32 31.55 137.48 31.75 C 137.54 31.82 137.51 31.81 137.59 31.89 C 137.66 31.96 137.73 31.98 137.82 32.05 C 137.99 32.18 138.1 32.38 138.25 32.51 L 138.67 32.93 C 138.69 32.95 138.74 33.02 138.76 33.04 L 139.69 34.07 C 139.75 34.18 139.78 34.25 139.86 34.35 C 139.95 34.46 140 34.45 140.11 34.54 C 140.23 34.64 140.3 34.88 140.45 35.04 C 140.53 35.12 140.6 35.17 140.67 35.25 C 140.78 35.37 140.77 35.4 140.86 35.52 C 140.97 35.66 141.14 35.79 141.27 35.94 C 141.48 36.16 141.61 36.45 141.84 36.66 L 142.04 36.89 C 142.18 37.08 142.26 37.24 142.44 37.38 C 142.61 37.52 142.63 37.77 143.01 38.09 C 143.15 38.21 143.3 38.67 143.5 38.89 C 143.82 39.23 143.99 39.55 144.16 39.7 C 144.38 39.89 144.41 40.16 144.62 40.37 C 144.92 40.66 145.01 41.13 145.3 41.41 C 145.54 41.63 145.59 41.94 145.83 42.17 C 145.84 42.18 145.85 42.18 145.85 42.19 C 145.86 42.2 145.87 42.2 145.87 42.21 C 146.09 42.42 146.15 42.76 146.3 43.02 C 146.41 43.23 146.55 43.33 146.65 43.56 C 146.82 43.99 147.15 44.18 147.32 44.61 C 147.54 45.14 147.58 44.75 147.94 45.72 C 148.04 46.01 148.05 46.05 148.26 46.24 L 148.42 46.52 C 148.46 46.65 148.5 46.7 148.55 46.82 C 148.61 46.92 148.64 47 148.69 47.09 C 148.77 47.23 148.8 47.22 148.89 47.33 C 148.98 47.43 149.07 47.8 149.13 47.97 C 149.24 48.25 149.27 48.29 149.46 48.49 C 149.62 48.66 149.69 49 149.8 49.22 C 150.17 49.95 149.99 49.43 150.27 50.28 C 150.43 50.75 150.63 50.84 150.77 51.27 C 151.18 52.53 151.09 51.56 151.35 52.65 L 151.67 53.61 C 151.72 53.72 151.79 53.81 151.83 53.89 C 151.9 54.04 151.96 54.36 152.02 54.55 C 152.12 54.88 152.3 55.12 152.42 55.44 C 152.53 55.77 152.56 56.17 152.69 56.48 C 152.78 56.7 152.91 56.81 153 57.02 C 153.16 57.43 153.21 57.89 153.42 58.32 C 153.47 58.41 153.54 58.53 153.57 58.61 C 153.62 58.71 153.63 58.86 153.64 58.98 C 153.71 59.47 153.8 59.99 153.88 60.47 C 153.99 61.14 154.14 61.22 154.28 61.8 C 154.33 62.03 154.38 62.3 154.43 62.53 C 154.48 62.79 154.49 63.02 154.54 63.3 C 154.59 63.55 154.65 63.75 154.71 63.96 C 154.8 64.26 154.77 64.41 154.82 64.74 C 154.86 65 154.86 65.25 154.89 65.52 C 154.97 66.31 155.08 67.1 155.08 67.93 C 155.08 68.46 155.16 69.04 155.2 69.54 C 155.26 70.26 155.2 72.13 155.2 72.98 C 155.2 73.32 155.16 73.49 155.16 73.79 C 155.16 74.08 155.16 74.38 155.16 74.67 C 155.16 74.98 155.14 75.2 155.1 75.49 C 155.04 75.93 155.1 76.57 155.02 77.13 C 154.91 77.9 154.8 78.75 154.8 79.52 C 154.8 79.83 154.7 79.96 154.64 80.2 C 154.58 80.43 154.54 80.71 154.49 80.93 L 154.18 82.35 C 154.13 82.59 154.04 82.75 153.98 83 C 153.81 83.74 153.68 84.51 153.68 85.3 C 153.68 85.88 153.78 86.34 153.88 86.82 C 153.92 87 154.02 87.32 154.11 87.47 C 154.22 87.66 154.22 87.94 154.37 88.11 C 154.36 88.26 154.4 88.29 154.48 88.4 C 154.5 88.65 154.68 88.81 154.78 89.01 C 154.95 89.37 154.91 89.71 155.23 90.25 C 155.52 90.73 155.43 90.7 155.61 91.06 C 155.79 91.4 155.96 91.47 156.11 91.96 C 156.16 92.13 156.17 92.18 156.24 92.32 C 156.29 92.41 156.36 92.52 156.42 92.62 C 156.61 92.9 156.71 93.3 156.92 93.57 C 157.23 93.95 157.28 94.42 157.55 94.82 C 157.76 95.13 157.77 95.51 158.02 95.8 C 158.36 96.2 158.14 95.76 158.41 96.37 C 158.62 96.85 158.89 97.18 158.94 97.29 C 159.12 97.74 159.25 97.55 159.63 98.52 C 159.75 98.82 159.85 98.83 160 99.07 C 160.18 99.38 160.27 99.73 160.53 99.98 C 160.8 100.25 160.84 100.78 161.13 101.07 C 161.24 101.18 161.15 101.03 161.25 101.19 C 161.31 101.3 161.32 101.43 161.38 101.54 C 161.5 101.78 161.77 102.01 161.96 102.4 C 162.07 102.64 162.12 102.85 162.29 103.04 C 162.43 103.19 162.52 103.42 162.65 103.6 L 163.03 104.18 C 163.24 104.78 163.31 104.68 163.56 105.1 C 163.78 105.48 163.77 105.61 164.08 105.89 C 164.13 105.94 164.11 105.91 164.14 105.96 C 164.2 106.04 164.23 106.19 164.28 106.3 C 164.57 106.93 164.72 106.97 164.8 107.22 C 164.92 107.57 165.2 107.77 165.38 108.09 C 165.5 108.32 165.52 108.52 165.7 108.69 C 165.89 108.88 165.95 109.03 166.08 109.27 C 166.16 109.41 166.2 109.43 166.27 109.56 C 166.41 109.84 166.48 109.81 166.62 110.17 C 166.68 110.3 166.72 110.39 166.79 110.49 C 166.87 110.6 166.94 110.63 167.02 110.74 C 167.24 111 167.3 111.32 167.59 111.62 C 167.7 111.74 167.89 112.27 168.09 112.55 C 168.38 112.96 168.46 113.28 168.63 113.42 C 168.94 113.67 168.82 113.66 169.01 114 C 169.21 114.36 169.1 114.24 169.39 114.59 C 169.47 114.68 169.49 114.79 169.54 114.91 C 169.59 115.01 169.66 115.13 169.73 115.21 C 169.93 115.42 170 115.49 170.13 115.77 C 170.28 116.06 170.26 116.14 170.5 116.37 C 170.57 116.43 170.54 116.38 170.61 116.5 C 170.74 116.77 170.82 117.09 170.97 117.34 C 171.06 117.48 171.11 117.46 171.17 117.62 C 171.24 117.83 171.25 118.66 171.17 118.88 C 171.13 119 171.05 119.05 170.99 119.18 L 170.66 119.8 C 170.51 120.11 170.38 120.04 170.15 120.26 C 169.82 120.58 169.71 120.67 169.27 120.82 C 168.89 120.94 168.6 121.12 168.22 121.22 L 167.19 121.59 C 166.7 121.85 166.61 121.78 166.09 121.93 C 165.7 122.04 165.37 122.14 165.03 122.32 C 164.66 122.5 164.14 122.48 163.64 122.85 C 163.36 123.05 162.45 123.04 161.82 123.44 C 161.62 123.57 161.34 123.59 161.11 123.65 C 160.91 123.7 160.63 123.84 160.44 123.95 C 159.93 124.23 159.51 124.2 158.96 124.39 C 158.84 124.43 158.74 124.46 158.64 124.52 C 158.18 124.77 158.55 124.62 157.97 124.81 C 157.36 125 157.26 125.24 157.04 125.32 C 156.81 125.41 156.62 125.5 156.41 125.66 L 156.18 125.86 C 156 126.02 155.79 126.11 155.63 126.28 C 155.2 126.74 155.16 126.55 154.89 126.98 C 154.76 127.21 154.56 127.25 154.42 127.47 C 154.34 127.58 154.31 127.65 154.22 127.75 C 154 128.02 153.91 127.96 153.64 128.62 C 153.52 128.92 153.39 128.75 153.07 129.48 C 152.92 129.81 152.73 129.93 152.59 130.41 C 152.44 130.93 152.6 130.79 152.31 131.57 C 152.17 131.95 152.11 132.36 152.03 132.74 C 151.84 133.68 151.94 134.83 151.72 135.8 C 151.6 136.32 151.64 136.59 151.57 137.06 C 151.54 137.3 151.52 137.72 151.51 137.96 C 151.51 138.52 151.38 139.14 151.35 139.72 C 151.34 140.02 151.38 140.39 151.34 140.68 C 151.29 141.2 151.35 141.96 151.24 142.5 C 151.07 143.35 150.94 144.1 150.87 144.97 L 150.61 147.6 C 150.55 147.91 150.54 148.13 150.5 148.46 C 150.44 149.02 150.4 149.65 150.34 150.23 C 150.32 150.48 150.26 150.79 150.23 151.04 C 150.2 151.33 150.2 151.67 150.16 151.93 C 150.12 152.23 150.18 152.56 150.13 152.86 C 150.11 153.04 150.11 153.13 150.11 153.32 C 150.11 153.68 149.86 154.94 149.8 155.41 C 149.66 156.52 149.61 157.79 149.43 158.85 C 149.33 159.4 149.31 160.04 149.23 160.59 C 149.16 161.18 149.17 161.75 149.09 162.37 L 148.95 165.07 C 148.95 165.62 148.84 166.28 148.75 166.8 L 148.39 169.33 C 148.37 169.5 148.37 169.59 148.33 169.75 C 148.31 169.87 148.26 169.99 148.22 170.12 C 148.15 170.38 148.12 170.64 148.05 170.92 C 148 171.16 147.95 171.41 147.88 171.66 C 147.76 172.07 147.81 172 147.62 172.37 C 147.56 172.48 147.54 172.58 147.47 172.7 C 147.37 172.93 147.32 173.16 147.2 173.39 L 146.83 173.95 C 146.75 174.08 146.74 174.12 146.68 174.27 C 146.56 174.55 146.4 174.5 146.23 174.79 C 146.16 174.93 146.15 174.98 146.05 175.09 C 145.95 175.19 145.89 175.19 145.79 175.31 C 145.7 175.41 145.67 175.49 145.59 175.59 C 145.43 175.77 145.25 175.85 145.11 176.04 C 144.77 176.49 144.93 176.09 144.36 176.73 C 144.27 176.84 144.18 176.85 144.05 176.9 C 143.92 176.96 143.87 176.99 143.75 177.09 L 143.18 177.48 C 142.86 177.66 142.89 177.57 142.58 177.84 L 141.14 178.33 C 140.81 178.47 140.88 178.52 140.4 178.55 C 139.48 178.61 137.81 179.1 137.15 179.11 L 136.24 179.16 C 135.68 179.23 135 179.21 134.46 179.3 C 134.18 179.35 133.89 179.39 133.62 179.43 C 133.04 179.5 132.6 179.67 131.98 179.67 C 131.61 179.67 131.39 179.7 131.05 179.71 C 130.77 179.71 130.48 179.8 130.21 179.83 C 129.33 179.91 128.48 179.98 127.65 180.15 L 126.4 180.31 C 126.25 180.32 126.09 180.3 125.93 180.32 C 125.66 180.36 125.36 180.36 125.05 180.4 C 124.21 180.48 123.29 180.55 122.47 180.71 C 122.18 180.77 121.99 180.84 121.63 180.83 C 121.01 180.83 120.4 180.89 119.79 180.91 L 118.9 180.95 C 118.75 180.95 118.56 180.96 118.48 180.96 C 118.33 180.96 118.18 180.95 118.02 180.95 C 117.7 180.95 117.38 180.95 117.06 180.95 C 116.75 180.95 116.5 180.99 116.14 180.99 C 115.5 180.99 114.86 180.99 114.21 180.99 C 113.28 180.99 112.39 180.87 111.48 180.87 C 111.17 180.88 110.88 180.86 110.56 180.83 C 110.14 180.8 109.36 180.62 108.91 180.56 C 108.02 180.45 107.18 180.41 106.28 180.3 C 105.98 180.26 105.77 180.22 105.5 180.12 C 105.05 179.98 104.44 179.89 103.93 179.8 C 103.64 179.76 102.88 179.7 102.68 179.61 C 102.53 179.55 102.5 179.52 102.34 179.47 C 101.75 179.29 100.8 179.2 100.34 179.06 C 100.24 179.03 100.12 178.97 100 178.93 C 99.51 178.74 99.04 178.64 98.51 178.52 C 98.23 178.46 98.14 178.28 97.07 178.04 C 96.91 178.01 96.8 177.98 96.68 177.95 C 96.29 177.86 96.03 177.62 95.3 177.41 C 94.57 177.2 94.54 177 93.51 176.79 C 93.33 176.75 93.32 176.77 93.18 176.68 C 92.65 176.34 92.12 176.28 91.82 176.11 C 91.71 176.04 91.64 175.99 91.54 175.92 C 91.23 175.72 90.72 175.66 90.5 175.5 C 90.4 175.43 90.35 175.37 90.23 175.3 C 90.04 175.19 89.75 175.1 89.54 175.02 C 89.25 174.92 89.2 174.77 88.95 174.66 C 88.73 174.55 88.47 174.49 88.27 174.38 C 88.04 174.25 87.99 174.11 87.72 174 C 87.45 173.88 87.28 173.86 87.05 173.7 C 86.93 173.62 86.88 173.55 86.78 173.49 C 86.59 173.38 86.3 173.32 86.11 173.2 C 85.93 173.07 85.76 172.91 85.55 172.8 C 85.04 172.54 85.36 172.71 84.95 172.43 C 84.67 172.24 84.25 172.18 84 171.94 C 83.92 171.86 83.85 171.77 83.75 171.7 C 83.51 171.54 83.41 171.61 83.2 171.34 C 82.98 171.07 82.59 170.97 82.33 170.77 C 82.03 170.54 81.63 170.44 81.41 170.23 C 81.16 170 80.69 169.77 80.55 169.65 C 80.34 169.46 80.33 169.38 80.02 169.23 C 79.82 169.14 79.86 169.18 79.74 169.02 C 79.64 168.89 78.94 168.51 78.65 168.23 C 78.54 168.12 78.5 168.11 78.37 168.03 C 78.11 167.87 77.99 167.62 77.71 167.48 C 77.63 167.45 77.61 167.45 77.55 167.4 C 77.36 167.25 77.3 167.07 77.04 166.95 C 76.94 166.89 76.86 166.84 76.77 166.73 C 76.62 166.54 76.43 166.46 76.26 166.29 L 75.26 165.36 C 75.16 165.27 75.12 165.21 75 165.14 C 74.88 165.07 74.79 165.05 74.7 164.96 C 74.53 164.79 74.45 164.62 74.26 164.47 L 73.94 164.15 C 73.81 164.01 73.59 163.96 73.47 163.82 L 73.25 163.55 C 73.03 163.33 72.89 163.37 72.64 163.2 C 72.22 162.91 71.7 162.83 71.16 163.05 C 70.93 163.15 70.77 163.28 70.55 163.4 C 70.32 163.52 70.21 163.7 70.09 163.91 C 70.04 163.98 69.98 164.1 69.92 164.18 C 69.61 164.57 69.57 165.17 69.77 165.63 C 69.84 165.79 69.89 165.79 69.98 165.91 C 70.1 166.06 70.21 166.39 70.35 166.5 C 70.46 166.59 70.53 166.59 70.63 166.7 C 70.79 166.88 70.86 167.07 71.09 167.21 C 71.24 167.3 71.24 167.3 71.34 167.44 C 71.52 167.69 71.66 167.69 71.85 167.89 C 71.94 167.98 71.98 168.08 72.05 168.16 C 72.19 168.29 72.38 168.37 72.52 168.5 L 72.97 168.89 C 73.03 168.94 73.04 168.96 73.1 169.01 C 73.2 169.09 73.25 169.14 73.36 169.23 C 73.53 169.38 73.69 169.54 73.89 169.65 C 74.13 169.79 74.12 169.97 74.36 170.15 C 74.65 170.36 74.85 170.62 75.18 170.77 C 75.38 170.86 75.31 170.86 75.42 171.01 C 75.59 171.24 75.78 171.25 75.99 171.41 C 76.16 171.53 76.32 171.75 76.56 171.81 Z M 9.48 41.23 C 11.08 41.23 12.38 42.52 12.38 44.13 C 12.38 45.73 11.08 47.03 9.48 47.03 C 7.88 47.03 6.57 45.73 6.57 44.13 C 6.57 42.52 7.88 41.23 9.48 41.23 Z M 61.11 4.2 C 62.71 4.2 64.01 5.5 64.01 7.11 C 64.01 8.71 62.71 10.01 61.11 10.01 C 59.51 10.01 58.21 8.71 58.21 7.11 C 58.21 5.5 59.51 4.2 61.11 4.2 Z M 118.35 13.21 C 119.95 13.21 121.25 14.51 121.25 16.11 C 121.25 17.71 119.95 19.01 118.35 19.01 C 116.75 19.01 115.45 17.71 115.45 16.11 C 115.45 14.51 116.75 13.21 118.35 13.21 Z M 78.52 96.46 C 82.23 96.46 85.23 99.46 85.23 103.16 C 85.23 106.87 82.23 109.87 78.52 109.87 C 74.82 109.87 71.82 106.87 71.82 103.16 C 71.82 99.46 74.82 96.46 78.52 96.46 Z M 97.34 76.85 C 101.04 76.85 104.04 79.85 104.04 83.55 C 104.04 87.26 101.04 90.26 97.34 90.26 C 93.63 90.26 90.63 87.26 90.63 83.55 C 90.63 79.85 93.63 76.85 97.34 76.85 Z M 76.92 58.64 C 80.62 58.64 83.62 61.64 83.62 65.34 C 83.62 69.04 80.62 72.05 76.92 72.05 C 73.22 72.05 70.21 69.04 70.21 65.34 C 70.21 61.64 73.22 58.64 76.92 58.64 Z M 58.51 78.45 C 62.21 78.45 65.21 81.45 65.21 85.16 C 65.21 88.86 62.21 91.86 58.51 91.86 C 54.8 91.86 51.8 88.86 51.8 85.16 C 51.8 81.45 54.8 78.45 58.51 78.45 "/>
</clipPath>
<radialGradient id="radial-pattern-0" gradientUnits="userSpaceOnUse" cx="0" cy="0" fx="0" fy="0" r="91.25" gradientTransform="matrix(0.95, 0, 0, -1.05, 102.05, 46.79)">
<stop offset="0" stop-color="rgb(9.41%, 60.78%, 93.33%)" stop-opacity="1"/>
<stop offset="0" stop-color="rgb(9.8%, 60.39%, 92.94%)" stop-opacity="1"/>
<stop offset="0.01" stop-color="rgb(9.8%, 60%, 92.94%)" stop-opacity="1"/>
<stop offset="0.01" stop-color="rgb(9.8%, 59.61%, 92.55%)" stop-opacity="1"/>
<stop offset="0.02" stop-color="rgb(10.2%, 59.22%, 92.55%)" stop-opacity="1"/>
<stop offset="0.02" stop-color="rgb(10.2%, 58.82%, 92.55%)" stop-opacity="1"/>
<stop offset="0.02" stop-color="rgb(10.2%, 58.43%, 92.16%)" stop-opacity="1"/>
<stop offset="0.03" stop-color="rgb(10.59%, 58.04%, 92.16%)" stop-opacity="1"/>
<stop offset="0.03" stop-color="rgb(10.59%, 57.65%, 91.76%)" stop-opacity="1"/>
<stop offset="0.04" stop-color="rgb(10.98%, 57.26%, 91.76%)" stop-opacity="1"/>
<stop offset="0.04" stop-color="rgb(10.98%, 57.26%, 91.37%)" stop-opacity="1"/>
<stop offset="0.04" stop-color="rgb(10.98%, 56.86%, 91.37%)" stop-opacity="1"/>
<stop offset="0.05" stop-color="rgb(11.37%, 56.47%, 91.37%)" stop-opacity="1"/>
<stop offset="0.05" stop-color="rgb(11.37%, 56.08%, 90.98%)" stop-opacity="1"/>
<stop offset="0.05" stop-color="rgb(11.37%, 55.69%, 90.98%)" stop-opacity="1"/>
<stop offset="0.06" stop-color="rgb(11.76%, 55.29%, 90.59%)" stop-opacity="1"/>
<stop offset="0.06" stop-color="rgb(11.76%, 54.9%, 90.59%)" stop-opacity="1"/>
<stop offset="0.07" stop-color="rgb(12.16%, 54.51%, 90.2%)" stop-opacity="1"/>
<stop offset="0.07" stop-color="rgb(12.16%, 54.12%, 90.2%)" stop-opacity="1"/>
<stop offset="0.07" stop-color="rgb(12.16%, 53.73%, 90.2%)" stop-opacity="1"/>
<stop offset="0.08" stop-color="rgb(12.55%, 53.33%, 89.8%)" stop-opacity="1"/>
<stop offset="0.08" stop-color="rgb(12.55%, 53.33%, 89.8%)" stop-opacity="1"/>
<stop offset="0.09" stop-color="rgb(12.55%, 52.94%, 89.41%)" stop-opacity="1"/>
<stop offset="0.09" stop-color="rgb(12.94%, 52.55%, 89.41%)" stop-opacity="1"/>
<stop offset="0.09" stop-color="rgb(12.94%, 52.16%, 89.02%)" stop-opacity="1"/>
<stop offset="0.1" stop-color="rgb(13.33%, 51.77%, 89.02%)" stop-opacity="1"/>
<stop offset="0.1" stop-color="rgb(13.33%, 51.37%, 89.02%)" stop-opacity="1"/>
<stop offset="0.11" stop-color="rgb(13.33%, 50.98%, 88.63%)" stop-opacity="1"/>
<stop offset="0.11" stop-color="rgb(13.73%, 50.59%, 88.63%)" stop-opacity="1"/>
<stop offset="0.11" stop-color="rgb(13.73%, 50.2%, 88.24%)" stop-opacity="1"/>
<stop offset="0.12" stop-color="rgb(13.73%, 49.8%, 88.24%)" stop-opacity="1"/>
<stop offset="0.12" stop-color="rgb(14.12%, 49.41%, 87.84%)" stop-opacity="1"/>
<stop offset="0.12" stop-color="rgb(14.12%, 49.41%, 87.84%)" stop-opacity="1"/>
<stop offset="0.13" stop-color="rgb(14.51%, 49.02%, 87.45%)" stop-opacity="1"/>
<stop offset="0.13" stop-color="rgb(14.51%, 48.63%, 87.45%)" stop-opacity="1"/>
<stop offset="0.14" stop-color="rgb(14.51%, 48.23%, 87.45%)" stop-opacity="1"/>
<stop offset="0.14" stop-color="rgb(14.9%, 47.84%, 87.06%)" stop-opacity="1"/>
<stop offset="0.14" stop-color="rgb(14.9%, 47.45%, 87.06%)" stop-opacity="1"/>
<stop offset="0.15" stop-color="rgb(14.9%, 47.06%, 86.67%)" stop-opacity="1"/>
<stop offset="0.15" stop-color="rgb(15.29%, 46.67%, 86.67%)" stop-opacity="1"/>
<stop offset="0.16" stop-color="rgb(15.29%, 46.27%, 86.27%)" stop-opacity="1"/>
<stop offset="0.16" stop-color="rgb(15.69%, 45.88%, 86.27%)" stop-opacity="1"/>
<stop offset="0.16" stop-color="rgb(15.69%, 45.49%, 86.27%)" stop-opacity="1"/>
<stop offset="0.17" stop-color="rgb(15.69%, 45.49%, 85.88%)" stop-opacity="1"/>
<stop offset="0.17" stop-color="rgb(16.08%, 45.1%, 85.88%)" stop-opacity="1"/>
<stop offset="0.18" stop-color="rgb(16.08%, 44.71%, 85.49%)" stop-opacity="1"/>
<stop offset="0.18" stop-color="rgb(16.47%, 44.31%, 85.49%)" stop-opacity="1"/>
<stop offset="0.18" stop-color="rgb(16.47%, 43.92%, 85.1%)" stop-opacity="1"/>
<stop offset="0.19" stop-color="rgb(16.47%, 43.53%, 85.1%)" stop-opacity="1"/>
<stop offset="0.19" stop-color="rgb(16.86%, 43.14%, 85.1%)" stop-opacity="1"/>
<stop offset="0.2" stop-color="rgb(16.86%, 42.74%, 84.71%)" stop-opacity="1"/>
<stop offset="0.2" stop-color="rgb(16.86%, 42.35%, 84.71%)" stop-opacity="1"/>
<stop offset="0.2" stop-color="rgb(17.25%, 41.96%, 84.31%)" stop-opacity="1"/>
<stop offset="0.21" stop-color="rgb(17.25%, 41.96%, 84.31%)" stop-opacity="1"/>
<stop offset="0.21" stop-color="rgb(17.65%, 41.57%, 83.92%)" stop-opacity="1"/>
<stop offset="0.21" stop-color="rgb(17.65%, 41.18%, 83.92%)" stop-opacity="1"/>
<stop offset="0.22" stop-color="rgb(17.65%, 40.78%, 83.92%)" stop-opacity="1"/>
<stop offset="0.22" stop-color="rgb(18.04%, 40.39%, 83.53%)" stop-opacity="1"/>
<stop offset="0.23" stop-color="rgb(18.04%, 40%, 83.53%)" stop-opacity="1"/>
<stop offset="0.23" stop-color="rgb(18.04%, 39.61%, 83.14%)" stop-opacity="1"/>
<stop offset="0.23" stop-color="rgb(18.43%, 39.22%, 83.14%)" stop-opacity="1"/>
<stop offset="0.24" stop-color="rgb(18.43%, 38.82%, 82.75%)" stop-opacity="1"/>
<stop offset="0.24" stop-color="rgb(18.82%, 38.43%, 82.75%)" stop-opacity="1"/>
<stop offset="0.25" stop-color="rgb(18.82%, 38.04%, 82.75%)" stop-opacity="1"/>
<stop offset="0.25" stop-color="rgb(18.82%, 38.04%, 82.35%)" stop-opacity="1"/>
<stop offset="0.25" stop-color="rgb(19.22%, 37.65%, 82.35%)" stop-opacity="1"/>
<stop offset="0.26" stop-color="rgb(19.22%, 37.25%, 81.96%)" stop-opacity="1"/>
<stop offset="0.26" stop-color="rgb(19.22%, 36.86%, 81.96%)" stop-opacity="1"/>
<stop offset="0.27" stop-color="rgb(19.61%, 36.47%, 81.57%)" stop-opacity="1"/>
<stop offset="0.27" stop-color="rgb(19.61%, 36.08%, 81.57%)" stop-opacity="1"/>
<stop offset="0.27" stop-color="rgb(20%, 35.69%, 81.57%)" stop-opacity="1"/>
<stop offset="0.28" stop-color="rgb(20%, 35.29%, 81.18%)" stop-opacity="1"/>
<stop offset="0.29" stop-color="rgb(20.39%, 35.29%, 81.18%)" stop-opacity="1"/>
<stop offset="0.29" stop-color="rgb(20.39%, 34.9%, 80.78%)" stop-opacity="1"/>
<stop offset="0.3" stop-color="rgb(20.78%, 34.9%, 80.78%)" stop-opacity="1"/>
<stop offset="0.31" stop-color="rgb(20.78%, 34.51%, 80.78%)" stop-opacity="1"/>
<stop offset="0.32" stop-color="rgb(21.18%, 34.51%, 80.39%)" stop-opacity="1"/>
<stop offset="0.32" stop-color="rgb(21.18%, 34.12%, 80.39%)" stop-opacity="1"/>
<stop offset="0.33" stop-color="rgb(21.57%, 34.12%, 80.39%)" stop-opacity="1"/>
<stop offset="0.34" stop-color="rgb(21.96%, 34.12%, 80%)" stop-opacity="1"/>
<stop offset="0.35" stop-color="rgb(21.96%, 33.72%, 80%)" stop-opacity="1"/>
<stop offset="0.36" stop-color="rgb(22.35%, 33.72%, 80%)" stop-opacity="1"/>
<stop offset="0.36" stop-color="rgb(22.35%, 33.33%, 79.61%)" stop-opacity="1"/>
<stop offset="0.37" stop-color="rgb(22.74%, 33.33%, 79.61%)" stop-opacity="1"/>
<stop offset="0.38" stop-color="rgb(22.74%, 33.33%, 79.61%)" stop-opacity="1"/>
<stop offset="0.39" stop-color="rgb(23.14%, 32.94%, 79.22%)" stop-opacity="1"/>
<stop offset="0.39" stop-color="rgb(23.53%, 32.94%, 79.22%)" stop-opacity="1"/>
<stop offset="0.4" stop-color="rgb(23.53%, 32.55%, 79.22%)" stop-opacity="1"/>
<stop offset="0.41" stop-color="rgb(23.92%, 32.55%, 78.82%)" stop-opacity="1"/>
<stop offset="0.42" stop-color="rgb(23.92%, 32.55%, 78.82%)" stop-opacity="1"/>
<stop offset="0.43" stop-color="rgb(24.31%, 32.16%, 78.43%)" stop-opacity="1"/>
<stop offset="0.43" stop-color="rgb(24.31%, 32.16%, 78.43%)" stop-opacity="1"/>
<stop offset="0.44" stop-color="rgb(24.71%, 31.76%, 78.43%)" stop-opacity="1"/>
<stop offset="0.45" stop-color="rgb(24.71%, 31.76%, 78.04%)" stop-opacity="1"/>
<stop offset="0.46" stop-color="rgb(25.1%, 31.37%, 78.04%)" stop-opacity="1"/>
<stop offset="0.46" stop-color="rgb(25.49%, 31.37%, 78.04%)" stop-opacity="1"/>
<stop offset="0.47" stop-color="rgb(25.49%, 31.37%, 77.65%)" stop-opacity="1"/>
<stop offset="0.48" stop-color="rgb(25.88%, 30.98%, 77.65%)" stop-opacity="1"/>
<stop offset="0.49" stop-color="rgb(25.88%, 30.98%, 77.65%)" stop-opacity="1"/>
<stop offset="0.5" stop-color="rgb(26.27%, 30.59%, 77.26%)" stop-opacity="1"/>
<stop offset="0.5" stop-color="rgb(26.67%, 30.59%, 77.26%)" stop-opacity="1"/>
<stop offset="0.52" stop-color="rgb(26.67%, 30.2%, 76.86%)" stop-opacity="1"/>
<stop offset="0.53" stop-color="rgb(27.06%, 30.2%, 76.86%)" stop-opacity="1"/>
<stop offset="0.54" stop-color="rgb(27.45%, 29.8%, 76.47%)" stop-opacity="1"/>
<stop offset="0.55" stop-color="rgb(27.84%, 29.41%, 76.47%)" stop-opacity="1"/>
<stop offset="0.56" stop-color="rgb(28.23%, 29.41%, 76.08%)" stop-opacity="1"/>
<stop offset="0.57" stop-color="rgb(28.63%, 29.02%, 76.08%)" stop-opacity="1"/>
<stop offset="0.59" stop-color="rgb(28.63%, 29.02%, 75.69%)" stop-opacity="1"/>
<stop offset="0.6" stop-color="rgb(29.02%, 28.63%, 75.69%)" stop-opacity="1"/>
<stop offset="0.61" stop-color="rgb(29.41%, 28.23%, 75.29%)" stop-opacity="1"/>
<stop offset="0.62" stop-color="rgb(29.8%, 28.23%, 75.29%)" stop-opacity="1"/>
<stop offset="0.63" stop-color="rgb(30.2%, 27.84%, 74.9%)" stop-opacity="1"/>
<stop offset="0.64" stop-color="rgb(30.2%, 27.84%, 74.9%)" stop-opacity="1"/>
<stop offset="0.65" stop-color="rgb(30.59%, 27.45%, 74.9%)" stop-opacity="1"/>
<stop offset="0.66" stop-color="rgb(30.59%, 27.45%, 74.51%)" stop-opacity="1"/>
<stop offset="0.66" stop-color="rgb(30.98%, 27.45%, 74.51%)" stop-opacity="1"/>
<stop offset="0.67" stop-color="rgb(31.37%, 27.06%, 74.51%)" stop-opacity="1"/>
<stop offset="0.68" stop-color="rgb(31.37%, 27.06%, 74.12%)" stop-opacity="1"/>
<stop offset="0.69" stop-color="rgb(31.76%, 26.67%, 74.12%)" stop-opacity="1"/>
<stop offset="0.7" stop-color="rgb(31.76%, 26.67%, 74.12%)" stop-opacity="1"/>
<stop offset="0.7" stop-color="rgb(32.16%, 26.27%, 73.73%)" stop-opacity="1"/>
<stop offset="0.71" stop-color="rgb(32.16%, 26.27%, 73.73%)" stop-opacity="1"/>
<stop offset="0.72" stop-color="rgb(32.55%, 26.27%, 73.73%)" stop-opacity="1"/>
<stop offset="0.73" stop-color="rgb(32.55%, 25.88%, 73.33%)" stop-opacity="1"/>
<stop offset="0.73" stop-color="rgb(32.94%, 25.88%, 73.33%)" stop-opacity="1"/>
<stop offset="0.74" stop-color="rgb(33.33%, 25.49%, 73.33%)" stop-opacity="1"/>
<stop offset="0.75" stop-color="rgb(33.33%, 25.49%, 72.94%)" stop-opacity="1"/>
<stop offset="0.76" stop-color="rgb(33.72%, 25.1%, 72.94%)" stop-opacity="1"/>
<stop offset="0.77" stop-color="rgb(34.12%, 25.1%, 72.55%)" stop-opacity="1"/>
<stop offset="0.78" stop-color="rgb(34.51%, 24.71%, 72.55%)" stop-opacity="1"/>
<stop offset="0.79" stop-color="rgb(34.51%, 24.71%, 72.16%)" stop-opacity="1"/>
<stop offset="0.8" stop-color="rgb(34.9%, 24.31%, 72.16%)" stop-opacity="1"/>
<stop offset="0.82" stop-color="rgb(35.29%, 23.92%, 71.77%)" stop-opacity="1"/>
<stop offset="0.82" stop-color="rgb(35.29%, 23.92%, 71.77%)" stop-opacity="1"/>
<stop offset="0.83" stop-color="rgb(35.69%, 23.92%, 71.77%)" stop-opacity="1"/>
<stop offset="0.84" stop-color="rgb(36.08%, 23.53%, 71.37%)" stop-opacity="1"/>
<stop offset="0.85" stop-color="rgb(36.08%, 23.53%, 71.37%)" stop-opacity="1"/>
<stop offset="0.85" stop-color="rgb(36.08%, 23.14%, 71.37%)" stop-opacity="1"/>
<stop offset="0.86" stop-color="rgb(36.47%, 22.74%, 70.98%)" stop-opacity="1"/>
<stop offset="0.86" stop-color="rgb(36.47%, 22.35%, 70.59%)" stop-opacity="1"/>
<stop offset="0.86" stop-color="rgb(36.47%, 21.96%, 70.59%)" stop-opacity="1"/>
<stop offset="0.87" stop-color="rgb(36.86%, 21.57%, 70.2%)" stop-opacity="1"/>
<stop offset="0.87" stop-color="rgb(36.86%, 20.78%, 70.2%)" stop-opacity="1"/>
<stop offset="0.88" stop-color="rgb(36.86%, 20.39%, 69.8%)" stop-opacity="1"/>
<stop offset="0.88" stop-color="rgb(37.25%, 20%, 69.8%)" stop-opacity="1"/>
<stop offset="0.88" stop-color="rgb(37.25%, 19.61%, 69.41%)" stop-opacity="1"/>
<stop offset="0.89" stop-color="rgb(37.25%, 19.22%, 69.02%)" stop-opacity="1"/>
<stop offset="0.89" stop-color="rgb(37.25%, 18.82%, 69.02%)" stop-opacity="1"/>
<stop offset="0.89" stop-color="rgb(37.65%, 18.43%, 68.63%)" stop-opacity="1"/>
<stop offset="0.9" stop-color="rgb(37.65%, 18.04%, 68.63%)" stop-opacity="1"/>
<stop offset="0.9" stop-color="rgb(37.65%, 17.65%, 68.24%)" stop-opacity="1"/>
<stop offset="0.91" stop-color="rgb(38.04%, 17.25%, 67.84%)" stop-opacity="1"/>
<stop offset="0.91" stop-color="rgb(38.04%, 16.86%, 67.84%)" stop-opacity="1"/>
<stop offset="0.91" stop-color="rgb(38.04%, 16.47%, 67.45%)" stop-opacity="1"/>
<stop offset="0.92" stop-color="rgb(38.43%, 15.69%, 67.45%)" stop-opacity="1"/>
<stop offset="0.92" stop-color="rgb(38.43%, 15.29%, 67.06%)" stop-opacity="1"/>
<stop offset="0.93" stop-color="rgb(38.43%, 14.9%, 67.06%)" stop-opacity="1"/>
<stop offset="0.93" stop-color="rgb(38.82%, 14.51%, 66.67%)" stop-opacity="1"/>
<stop offset="0.93" stop-color="rgb(38.82%, 14.12%, 66.28%)" stop-opacity="1"/>
<stop offset="0.94" stop-color="rgb(38.82%, 13.73%, 66.28%)" stop-opacity="1"/>
<stop offset="0.94" stop-color="rgb(39.22%, 13.33%, 65.88%)" stop-opacity="1"/>
<stop offset="0.95" stop-color="rgb(39.22%, 12.94%, 65.88%)" stop-opacity="1"/>
<stop offset="0.95" stop-color="rgb(39.22%, 12.55%, 65.49%)" stop-opacity="1"/>
<stop offset="0.95" stop-color="rgb(39.22%, 12.16%, 65.49%)" stop-opacity="1"/>
<stop offset="0.96" stop-color="rgb(39.61%, 11.76%, 65.1%)" stop-opacity="1"/>
<stop offset="0.96" stop-color="rgb(39.61%, 10.98%, 64.71%)" stop-opacity="1"/>
<stop offset="0.96" stop-color="rgb(39.61%, 10.59%, 64.71%)" stop-opacity="1"/>
<stop offset="0.97" stop-color="rgb(40%, 10.2%, 64.31%)" stop-opacity="1"/>
<stop offset="0.97" stop-color="rgb(40%, 9.8%, 64.31%)" stop-opacity="1"/>
<stop offset="0.98" stop-color="rgb(40%, 9.41%, 63.92%)" stop-opacity="1"/>
<stop offset="0.98" stop-color="rgb(40.39%, 9.02%, 63.53%)" stop-opacity="1"/>
<stop offset="0.98" stop-color="rgb(40.39%, 8.63%, 63.53%)" stop-opacity="1"/>
<stop offset="0.99" stop-color="rgb(40.39%, 8.24%, 63.14%)" stop-opacity="1"/>
<stop offset="0.99" stop-color="rgb(40.78%, 7.84%, 63.14%)" stop-opacity="1"/>
<stop offset="1" stop-color="rgb(40.78%, 7.45%, 62.75%)" stop-opacity="1"/>
<stop offset="1" stop-color="rgb(40.78%, 7.06%, 62.75%)" stop-opacity="1"/>
</radialGradient>
<style>
.logo-text { fill: currentColor; }
</style>
</defs>
<g clip-path="url(#clip-0)">
<g clip-path="url(#clip-1)">
<path fill-rule="nonzero" fill="url(#radial-pattern-0)" d="M 0.9 191.8 L 0.9 1 L 175.23 1 L 175.23 191.8 Z M 0.9 191.8 "/>
</g>
</g>
<path fill-rule="evenodd" class="logo-text" fill="#67029e" d="M 23.33 220.14 L 23.33 228.52 L 19.99 228.52 L 19.99 220.14 C 19.99 218.75 19.5 217.57 18.51 216.59 C 17.52 215.6 16.35 215.11 14.96 215.11 C 13.56 215.11 12.38 215.6 11.4 216.59 C 10.41 217.57 9.92 218.75 9.92 220.14 L 9.92 228.52 L 6.59 228.52 L 6.59 220.14 C 6.59 217.84 7.41 215.86 9.04 214.23 C 10.67 212.6 12.65 211.77 14.96 211.77 C 17.26 211.77 19.25 212.6 20.88 214.23 C 22.5 215.86 23.33 217.84 23.33 220.14 Z M 30.8 218.48 L 41.7 218.48 L 41.7 221.81 L 30.8 221.81 C 31.05 222.52 31.46 223.14 32.01 223.7 C 33 224.68 34.17 225.18 35.57 225.18 L 43.93 225.18 L 43.93 228.52 L 35.57 228.52 C 33.26 228.52 31.28 227.69 29.65 226.06 C 28.02 224.43 27.2 222.45 27.2 220.14 C 27.2 217.84 28.02 215.86 29.65 214.23 C 31.28 212.6 33.26 211.77 35.57 211.77 L 43.93 211.77 L 43.93 215.11 L 35.57 215.11 C 34.17 215.11 33 215.6 32.01 216.58 C 31.46 217.13 31.05 217.76 30.8 218.48 Z M 47.8 220.14 L 47.8 211.77 L 51.14 211.77 L 51.14 220.14 C 51.14 221.54 51.63 222.71 52.61 223.7 C 53.6 224.69 54.78 225.18 56.17 225.18 C 57.57 225.18 58.74 224.69 59.73 223.7 C 60.72 222.71 61.21 221.54 61.21 220.14 L 61.21 211.77 L 64.54 211.77 L 64.54 220.14 C 64.54 222.45 63.72 224.43 62.09 226.06 C 60.46 227.69 58.48 228.52 56.17 228.52 C 53.87 228.52 51.89 227.69 50.25 226.06 C 48.62 224.43 47.8 222.45 47.8 220.14 Z M 83.88 220.14 C 84.72 221.08 85.15 222.21 85.15 223.5 L 85.15 228.52 L 81.82 228.52 L 81.82 223.5 C 81.82 223.02 81.65 222.64 81.32 222.31 C 80.99 221.97 80.61 221.81 80.13 221.81 L 71.75 221.81 L 71.75 228.52 L 68.41 228.52 L 68.41 211.77 L 80.13 211.77 C 81.51 211.77 82.71 212.27 83.68 213.24 C 84.66 214.22 85.15 215.41 85.15 216.79 C 85.15 218.08 84.72 219.21 83.88 220.14 Z M 97.39 211.77 C 99.7 211.77 101.68 212.6 103.31 214.23 C 104.94 215.86 105.76 217.84 105.76 220.14 C 105.76 222.45 104.94 224.43 103.31 226.06 C 101.68 227.69 99.7 228.52 97.39 228.52 C 95.09 228.52 93.11 227.69 91.47 226.06 C 89.84 224.43 89.02 222.45 89.02 220.14 C 89.02 217.84 89.84 215.86 91.47 214.23 C 93.11 212.6 95.09 211.77 97.39 211.77 Z M 113.23 218.48 L 124.14 218.48 L 124.14 221.81 L 113.23 221.81 C 113.48 222.52 113.9 223.14 114.45 223.7 C 115.43 224.68 116.6 225.18 118 225.18 L 126.37 225.18 L 126.37 228.52 L 118 228.52 C 115.7 228.52 113.71 227.69 112.08 226.06 C 110.45 224.43 109.63 222.45 109.63 220.14 C 109.63 217.84 110.45 215.86 112.08 214.23 C 113.71 212.6 115.7 211.77 118 211.77 L 126.37 211.77 L 126.37 215.11 L 118 215.11 C 116.61 215.11 115.43 215.6 114.45 216.58 C 113.89 217.13 113.48 217.76 113.23 218.48 Z M 145.7 220.14 C 146.55 221.08 146.98 222.21 146.98 223.5 L 146.98 228.52 L 143.64 228.52 L 143.64 223.5 C 143.64 223.02 143.48 222.64 143.15 222.31 C 142.82 221.97 142.43 221.81 141.96 221.81 L 133.57 221.81 L 133.57 228.52 L 130.24 228.52 L 130.24 211.77 L 141.96 211.77 C 143.34 211.77 144.54 212.27 145.51 213.24 C 146.48 214.22 146.98 215.41 146.98 216.79 C 146.98 218.08 146.55 219.21 145.7 220.14 Z M 154.18 222.93 L 154.18 228.52 L 150.85 228.52 L 150.85 220.14 C 150.85 217.84 151.67 215.86 153.3 214.23 C 154.93 212.6 156.91 211.77 159.22 211.77 C 161.52 211.77 163.51 212.6 165.14 214.23 C 166.77 215.86 167.59 217.84 167.59 220.14 L 167.59 228.52 L 164.25 228.52 L 164.25 222.93 Z M 71.75 215.11 L 71.75 218.48 L 80.13 218.48 C 80.6 218.48 80.99 218.32 81.32 217.98 C 81.66 217.65 81.82 217.26 81.82 216.79 C 81.82 216.32 81.65 215.94 81.32 215.61 C 80.99 215.27 80.61 215.11 80.13 215.11 Z M 97.39 215.11 C 95.99 215.11 94.82 215.6 93.83 216.59 C 92.85 217.57 92.36 218.75 92.36 220.14 C 92.36 221.54 92.84 222.71 93.83 223.7 C 94.82 224.69 96 225.18 97.39 225.18 C 98.79 225.18 99.96 224.69 100.95 223.7 C 101.94 222.71 102.43 221.54 102.43 220.14 C 102.43 218.75 101.93 217.57 100.95 216.59 C 99.96 215.6 98.79 215.11 97.39 215.11 Z M 133.57 215.11 L 133.57 218.48 L 141.96 218.48 C 142.43 218.48 142.82 218.32 143.15 217.98 C 143.48 217.65 143.64 217.26 143.64 216.79 C 143.64 216.32 143.48 215.94 143.15 215.61 C 142.82 215.27 142.43 215.11 141.96 215.11 Z M 164.22 219.59 C 164.11 218.44 163.62 217.44 162.77 216.59 C 161.79 215.6 160.61 215.11 159.22 215.11 C 157.82 215.11 156.64 215.6 155.66 216.59 C 154.8 217.44 154.32 218.44 154.21 219.59 Z M 164.22 219.59 "/>
</svg>