<?xml version="1.0" encoding="UTF-8"?>
<svg xmlns="http://www.w3.org/2000/svg" width="176" height="192" viewBox="0 0 176.22 192">
<defs>
<clipPath id="clip-0">
<path clip-rule="nonzero" d="M 1 1 L 176 1 L 176 192 L 1 192 Z M 1 1 "/>
</clipPath>
<clipPath id="clip-1">
<path clip-rule="evenodd" d="M 86.88 63.61 C 89.64 64.77 92.12 66.48 94.19 68.59 L 116.09 59.66 C 116.06 59.45 116.05 59.25 116.05 59.04 C 116.05 56.39 118.2 54.23 120.85 54.23 C 123.5 54.23 125.65 56.39 125.65 59.04 C 125.65 61.69 123.5 63.84 120.85 63.84 C 119.5 63.84 118.28 63.28 117.4 62.38 L 96.25 71.01 C 96.83 71.79 97.36 72.61 97.83 73.46 C 103.18 73.71 107.44 78.14 107.44 83.55 C 107.44 88.68 103.62 92.92 98.67 93.57 C 96.6 98.18 93.02 101.96 88.56 104.3 C 88 109.35 83.72 113.27 78.52 113.27 C 73.47 113.27 69.29 109.57 68.54 104.73 C 66.02 103.54 63.76 101.91 61.86 99.92 L 39.55 109.02 C 39.58 109.23 39.6 109.45 39.6 109.67 C 39.6 112.32 37.45 114.47 34.79 114.47 C 32.14 114.47 29.99 112.32 29.99 109.67 C 29.99 107.02 32.14 104.87 34.79 104.87 C 36.13 104.87 37.34 105.41 38.21 106.3 L 59.83 97.48 C 59.32 96.77 58.85 96.03 58.42 95.26 C 52.88 95.21 48.4 90.71 48.4 85.16 C 48.4 84.33 48.5 83.54 48.68 82.77 L 21.94 71.85 C 20.88 73.64 18.92 74.85 16.68 74.85 C 13.31 74.85 10.58 72.12 10.58 68.74 C 10.58 65.37 13.31 62.64 16.68 62.64 C 20.05 62.64 22.79 65.37 22.79 68.74 C 22.79 68.81 22.79 68.87 22.78 68.93 L 35.84 74.26 L 34.69 56.02 L 14.46 47.66 C 13.35 49.22 11.53 50.23 9.48 50.23 C 6.11 50.23 3.38 47.5 3.38 44.13 C 3.38 40.76 6.11 38.02 9.48 38.02 C 12.85 38.02 15.58 40.76 15.58 44.13 C 15.58 44.37 15.57 44.61 15.54 44.84 L 37.77 54.02 L 37.62 54.38 L 38.95 75.53 L 49.83 79.97 C 51.45 77.27 54.29 75.39 57.6 75.09 C 58.76 72.52 60.39 70.2 62.38 68.25 L 47.87 33.98 C 47.65 34 47.43 34.02 47.2 34.02 C 44.55 34.02 42.4 31.87 42.4 29.22 C 42.4 26.57 44.55 24.41 47.2 24.41 C 49.86 24.41 52 26.57 52 29.22 C 52 30.55 51.46 31.76 50.58 32.63 L 56.61 46.88 L 69.55 32.59 L 61.95 13.15 C 61.67 13.19 61.39 13.21 61.11 13.21 C 57.74 13.21 55.01 10.48 55.01 7.11 C 55.01 3.73 57.74 1 61.11 1 C 64.48 1 67.21 3.73 67.21 7.11 C 67.21 9.11 66.24 10.9 64.74 12.01 L 73.09 33.34 L 72.84 33.45 L 57.91 49.93 L 64.8 66.2 C 65.45 65.73 66.12 65.28 66.82 64.88 C 67.07 59.51 71.5 55.2 76.88 55.2 C 82.3 55.2 86.75 59.63 86.75 65.05 C 86.75 65.13 86.75 65.21 86.75 65.28 C 91.04 63.94 95.38 64.85 98.87 67.58 C 100.86 69.09 102.32 71.08 103.25 73.3 C 107.67 74.23 111.22 77.95 111.66 82.66 C 112.18 88.13 108.24 92.94 102.9 93.89 C 101.24 97.59 98.31 100.69 94.49 102.71 C 94.14 108.14 89.71 112.48 84.18 112.48 C 78.76 112.48 74.41 108.32 73.95 102.94 C 72.78 102.46 71.65 101.88 70.56 101.2 C 70.42 107.54 65.24 112.71 58.78 112.71 C 52.58 112.71 47.53 107.9 46.95 101.82 C 43.76 99.92 40.98 97.42 38.73 94.41 C 35.64 95.42 32.16 94.73 29.73 92.59 C 27.24 90.4 26.04 87.07 26.53 83.77 C 26.88 81.34 28.28 79.11 30.36 77.68 C 31.23 77.08 32.18 76.65 33.17 76.4 L 37.83 78.24 L 36.6 57.82 C 36.59 57.59 36.58 57.36 36.58 57.12 C 36.58 55.18 36.96 53.29 37.69 51.53 C 38.45 49.7 39.56 48.07 40.95 46.67 L 18.28 37.07 C 17.67 39.72 15.26 41.65 12.35 41.65 C 8.98 41.65 6.25 38.92 6.25 35.55 C 6.25 32.18 8.98 29.45 12.35 29.45 C 15.72 29.45 18.45 32.18 18.45 35.55 C 18.45 35.77 18.44 35.99 18.41 36.21 L 40.13 45.37 L 35.14 35.73 C 33.22 31.54 29.5 28.27 24.88 26.73 C 22.52 25.94 20.06 25.55 17.56 25.55 C 14.33 25.55 11.14 26.11 8.09 27.22 C 6.52 27.79 5.31 29.01 4.81 30.54 C 4.3 32.06 4.55 33.73 5.47 35.05 C 6.1 35.95 7.04 36.6 8.12 36.91 C 9.21 37.21 10.38 37.15 11.42 36.72 C 12.85 36.13 14.18 35.36 15.38 34.45 C 17.04 33.19 18.43 31.66 19.5 29.91 L 16.39 19.48 C 15.19 19.84 13.91 20.03 12.62 20.03 C 5.65 20.03 0 14.38 0 7.41 C 0 3.32 3.32 0 7.41 0 C 11.5 0 14.82 3.32 14.82 7.41 C 14.82 8.78 14.44 10.12 13.73 11.3 L 18.1 25.41 C 19.68 24.97 21.3 24.74 22.93 24.74 C 24.89 24.74 26.84 25.07 28.74 25.73 C 29.42 25.96 30.09 26.23 30.74 26.53 L 38.08 13.7 L 45.41 0.86 L 58.2 0.86 L 59.64 3.88 L 47.43 3.88 L 44.16 9.54 L 35.88 23.78 L 34.88 24.14 C 35.96 24.92 36.98 25.78 37.93 26.72 C 40.12 28.9 41.85 31.48 43.06 34.28 L 50.99 51.07 L 56.48 40.11 L 49.74 33.15 C 48.73 32.1 48.17 30.7 48.17 29.22 C 48.17 26.57 50.32 24.41 52.97 24.41 C 55.63 24.41 57.77 26.57 57.77 29.22 C 57.77 29.88 57.62 30.52 57.34 31.12 L 64.61 38.62 L 72.14 24.07 C 72.14 23.72 72.14 23.36 72.14 23 C 72.14 18.7 73.72 14.56 76.63 11.33 C 79.52 8.12 83.46 6.25 87.67 6.25 C 91.89 6.25 95.82 8.12 98.71 11.33 C 101.63 14.56 103.2 18.7 103.2 23 C 103.2 23.36 103.2 23.72 103.2 24.07 L 110.73 38.62 L 118 31.12 C 117.72 30.52 117.57 29.88 117.57 29.22 C 117.57 26.57 119.71 24.41 122.37 24.41 C 125.02 24.41 127.17 26.57 127.17 29.22 C 127.17 30.7 126.61 32.1 125.6 33.15 L 118.86 40.11 L 124.35 51.07 L 132.28 34.28 C 133.49 31.48 135.22 28.9 137.41 26.72 C 138.36 25.78 139.38 24.92 140.46 24.14 L 139.46 23.78 L 131.18 9.54 L 127.91 3.88 L 115.7 3.88 L 117.14 0.86 L 129.93 0.86 L 137.26 13.7 L 144.6 26.53 C 145.25 26.23 145.92 25.96 146.6 25.73 C 148.5 25.07 150.45 24.74 152.41 24.74 C 154.04 24.74 155.66 24.97 157.24 25.41 L 161.61 11.3 C 160.9 10.12 160.52 8.78 160.52 7.41 C 160.52 3.32 163.84 0 167.93 0 C 172.02 0 175.34 3.32 175.34 7.41 C 175.34 14.38 169.69 20.03 162.72 20.03 C 161.43 20.03 160.15 19.84 158.95 19.48 L 155.84 29.91 C 156.91 31.66 158.3 33.19 159.96 34.45 C 161.16 35.36 162.49 36.13 163.92 36.72 C 164.96 37.15 166.13 37.21 167.22 36.91 C 168.3 36.6 169.24 35.95 169.87 35.05 C 170.79 33.73 171.04 32.06 170.53 30.54 C 170.03 29.01 168.82 27.79 167.25 27.22 C 164.2 26.11 161.01 25.55 157.78 25.55 C 155.28 25.55 152.82 25.94 150.46 26.73 C 145.84 28.27 142.12 31.54 140.2 35.73 L 135.21 45.37 L 156.93 36.21 C 156.9 35.99 156.89 35.77 156.89 35.55 C 156.89 32.18 159.62 29.45 162.99 29.45 C 166.36 29.45 169.09 32.18 169.09 35.55 C 169.09 38.92 166.36 41.65 162.99 41.65 C 160.08 41.65 157.67 39.72 157.06 37.07 L 134.39 46.67 C 135.78 48.07 136.89 49.7 137.65 51.53 C 138.38 53.29 138.76 55.18 138.76 57.12 C 138.76 57.36 138.75 57.59 138.74 57.82 L 137.51 78.24 L 142.17 76.4 C 143.16 76.65 144.11 77.08 144.98 77.68 C 147.06 79.11 148.46 81.34 148.81 83.77 C 149.3 87.07 148.1 90.4 145.61 92.59 C 143.18 94.73 139.7 95.42 136.61 94.41 C 134.36 97.42 131.58 99.92 128.39 101.82 C 127.81 107.9 122.76 112.71 116.56 112.71 C 110.1 112.71 104.92 107.54 104.78 101.2 C 103.69 101.88 102.56 102.46 101.39 102.94 C 100.93 108.32 96.58 112.48 91.16 112.48 C 85.63 112.48 81.2 108.14 80.85 102.71 C 77.03 100.69 74.1 97.59 72.44 93.89 C 67.1 92.94 63.16 88.13 63.68 82.66 C 64.12 77.95 67.67 74.23 72.09 73.3 C 73.02 71.08 74.48 69.09 76.47 67.58 C 79.96 64.85 84.3 63.94 88.59 65.28 C 88.59 65.21 88.59 65.13 88.59 65.05 C 88.59 59.63 93.04 55.2 98.46 55.2 C 103.84 55.2 108.27 59.51 108.52 64.88 C 109.22 65.28 109.89 65.73 110.54 66.2 L 117.43 49.93 L 102.5 33.45 L 102.25 33.34 L 110.6 12.01 C 109.1 10.9 108.13 9.11 108.13 7.11 C 108.13 3.73 110.86 1 114.23 1 C 117.6 1 120.33 3.73 120.33 7.11 C 120.33 10.48 117.6 13.21 114.23 13.21 C 113.95 13.21 113.67 13.19 113.39 13.15 L 105.79 32.59 L 118.73 46.88 L 124.76 32.63 C 123.88 31.76 123.34 30.55 123.34 29.22 C 123.34 26.57 125.49 24.41 128.14 24.41 C 130.8 24.41 132.94 26.57 132.94 29.22 C 132.94 31.87 130.8 34.02 128.14 34.02 C 127.91 34.02 127.69 34 127.47 33.98 L 112.96 68.25 C 114.95 70.2 116.58 72.52 117.74 75.09 C 121.05 75.39 123.89 77.27 125.51 79.97 L 136.39 75.53 L 137.72 54.38 L 137.57 54.02 L 159.8 44.84 C 159.77 44.61 159.76 44.37 159.76 44.13 C 159.76 40.76 162.49 38.02 165.86 38.02 C 169.23 38.02 171.96 40.76 171.96 44.13 C 171.96 47.5 169.23 50.23 165.86 50.23 C 163.81 50.23 162 49.22 160.89 47.66 L 140.65 56.02 L 139.51 74.26 L 152.56 68.93 C 152.55 68.87 152.55 68.81 152.55 68.74 C 152.55 65.37 155.28 62.64 158.65 62.64 C 162.02 62.64 164.75 65.37 164.75 68.74 C 164.75 72.12 162.02 74.85 158.65 74.85 C 156.41 74.85 154.45 73.64 153.39 71.85 L 126.62 82.77 C 126.8 83.54 126.9 84.33 126.9 85.16 C 126.9 90.71 122.42 95.21 116.88 95.26 C 116.45 96.03 115.98 96.77 115.47 97.48 L 137.09 106.3 C 137.96 105.41 139.17 104.87 140.51 104.87 C 143.16 104.87 145.31 107.02 145.31 109.67 C 145.31 112.32 143.16 114.47 140.51 114.47 C 137.85 114.47 135.7 112.32 135.7 109.67 C 135.7 109.45 135.72 109.23 135.75 109.02 L 113.44 99.92 C 111.54 101.91 109.28 103.54 106.76 104.73 C 106.01 109.57 101.83 113.27 96.78 113.27 C 91.58 113.27 87.3 109.35 86.74 104.3 C 82.28 101.96 78.7 98.18 76.63 93.57 C 71.68 92.92 67.86 88.68 67.86 83.55 C 67.86 78.14 72.12 73.71 77.47 73.46 C 77.94 72.61 78.47 71.79 79.04 71.01 L 57.9 62.38 C 57.02 63.28 55.81 63.84 54.46 63.84 C 51.81 63.84 49.66 61.69 49.66 59.04 C 49.66 56.39 51.81 54.23 54.46 54.23 C 57.11 54.23 59.26 56.39 59.26 59.04 C 59.26 59.25 59.24 59.45 59.22 59.66 L 81.11 68.59 C 83.18 66.48 85.66 64.77 88.42 63.61 Z M 86.88 63.61 "/>
</clipPath>
<radialGradient id="radial-pattern-0" gradientUnits="userSpaceOnUse" cx="0" cy="0" fx="0" fy="0" r="91.25" gradientTransform="matrix(0.95, 0, 0, -1.05, 102.05, 46.79)">
<stop offset="0" stop-color="rgb(9.41%, 60.78%, 93.33%)" stop-opacity="1"/>
<stop offset="0" stop-color="rgb(9.8%, 60.39%, 92.94%)" stop-opacity="1"/>
<stop offset="0.01" stop-color="rgb(9.8%, 60%, 92.94%)" stop-opacity="1"/>
<stop offset="0.01" stop-color="rgb(9.8%, 59.61%, 92.55%)" stop-opacity="1"/>
<stop offset="0.02" stop-color="rgb(10.2%, 59.22%, 92.55%)" stop-opacity="1"/>
<stop offset="0.02" stop-color="rgb(10.2%, 58.82%, 92.55%)" stop-opacity="1"/>
<stop offset="0.02" stop-color="rgb(10.2%, 58.43%, 92.16%)" stop-opacity="1"/>
<stop offset="0.03" stop-color="rgb(10.59%, 58.04%, 92.16%)" stop-opacity="1"/>
<stop offset="0.03" stop-color="rgb(10.59%, 57.65%, 91.76%)" stop-opacity="1"/>
<stop offset="0.04" stop-color="rgb(10.98%, 57.26%, 91.76%)" stop-opacity="1"/>
<stop offset="0.04" stop-color="rgb(10.98%, 57.26%, 91.37%)" stop-opacity="1"/>
<stop offset="0.04" stop-color="rgb(10.98%, 56.86%, 91.37%)" stop-opacity="1"/>
<stop offset="0.05" stop-color="rgb(11.37%, 56.47%, 91.37%)" stop-opacity="1"/>
<stop offset="0.05" stop-color="rgb(11.37%, 56.08%, 90.98%)" stop-opacity="1"/>
<stop offset="0.05" stop-color="rgb(11.37%, 55.69%, 90.98%)" stop-opacity="1"/>
<stop offset="0.06" stop-color="rgb(11.76%, 55.29%, 90.59%)" stop-opacity="1"/>
<stop offset="0.06" stop-color="rgb(11.76%, 54.9%, 90.59%)" stop-opacity="1"/>
<stop offset="0.07" stop-color="rgb(12.16%, 54.51%, 90.2%)" stop-opacity="1"/>
<stop offset="0.07" stop-color="rgb(12.16%, 54.12%, 90.2%)" stop-opacity="1"/>
<stop offset="0.07" stop-color="rgb(12.16%, 53.73%, 90.2%)" stop-opacity="1"/>
<stop offset="0.08" stop-color="rgb(12.55%, 53.33%, 89.8%)" stop-opacity="1"/>
<stop offset="0.08" stop-color="rgb(12.55%, 53.33%, 89.8%)" stop-opacity="1"/>
<stop offset="0.09" stop-color="rgb(12.55%, 52.94%, 89.41%)" stop-opacity="1"/>
<stop offset="0.09" stop-color="rgb(12.94%, 52.55%, 89.41%)" stop-opacity="1"/>
<stop offset="0.09" stop-color="rgb(12.94%, 52.16%, 89.02%)" stop-opacity="1"/>
<stop offset="0.1" stop-color="rgb(13.33%, 51.77%, 89.02%)" stop-opacity="1"/>
<stop offset="0.1" stop-color="rgb(13.33%, 51.37%, 89.02%)" stop-opacity="1"/>
<stop offset="0.11" stop-color="rgb(13.33%, 50.98%, 88.63%)" stop-opacity="1"/>
<stop offset="0.11" stop-color="rgb(13.73%, 50.59%, 88.63%)" stop-opacity="1"/>
<stop offset="0.11" stop-color="rgb(13.73%, 50.2%, 88.24%)" stop-opacity="1"/>
<stop offset="0.12" stop-color="rgb(13.73%, 49.8%, 88.24%)" stop-opacity="1"/>
<stop offset="0.12" stop-color="rgb(14.12%, 49.41%, 87.84%)" stop-opacity="1"/>
<stop offset="0.12" stop-color="rgb(14.12%, 49.41%, 87.84%)" stop-opacity="1"/>
<stop offset="0.13" stop-color="rgb(14.51%, 49.02%, 87.45%)" stop-opacity="1"/>
<stop offset="0.13" stop-color="rgb(14.51%, 48.63%, 87.45%)" stop-opacity="1"/>
<stop offset="0.14" stop-color="rgb(14.51%, 48.23%, 87.45%)" stop-opacity="1"/>
<stop offset="0.14" stop-color="rgb(14.9%, 47.84%, 87.06%)" stop-opacity="1"/>
<stop offset="0.14" stop-color="rgb(14.9%, 47.45%, 87.06%)" stop-opacity="1"/>
<stop offset="0.15" stop-color="rgb(14.9%, 47.06%, 86.67%)" stop-opacity="1"/>
<stop offset="0.15" stop-color="rgb(15.29%, 46.67%, 86.67%)" stop-opacity="1"/>
<stop offset="0.16" stop-color="rgb(15.29%, 46.27%, 86.27%)" stop-opacity="1"/>
<stop offset="0.16" stop-color="rgb(15.69%, 45.88%, 86.27%)" stop-opacity="1"/>
<stop offset="0.16" stop-color="rgb(15.69%, 45.49%, 86.27%)" stop-opacity="1"/>
<stop offset="0.17" stop-color="rgb(15.69%, 45.49%, 85.88%)" stop-opacity="1"/>
<stop offset="0.17" stop-color="rgb(16.08%, 45.1%, 85.88%)" stop-opacity="1"/>
<stop offset="0.18" stop-color="rgb(16.08%, 44.71%, 85.49%)" stop-opacity="1"/>
<stop offset="0.18" stop-color="rgb(16.47%, 44.31%, 85.49%)" stop-opacity="1"/>
<stop offset="0.18" stop-color="rgb(16.47%, 43.92%, 85.1%)" stop-opacity="1"/>
<stop offset="0.19" stop-color="rgb(16.47%, 43.53%, 85.1%)" stop-opacity="1"/>
<stop offset="0.19" stop-color="rgb(16.86%, 43.14%, 85.1%)" stop-opacity="1"/>
<stop offset="0.2" stop-color="rgb(16.86%, 42.74%, 84.71%)" stop-opacity="1"/>
<stop offset="0.2" stop-color="rgb(16.86%, 42.35%, 84.71%)" stop-opacity="1"/>
<stop offset="0.2" stop-color="rgb(17.25%, 41.96%, 84.31%)" stop-opacity="1"/>
<stop offset="0.21" stop-color="rgb(17.25%, 41.96%, 84.31%)" stop-opacity="1"/>
<stop offset="0.21" stop-color="rgb(17.65%, 41.57%, 83.92%)" stop-opacity="1"/>
<stop offset="0.21" stop-color="rgb(17.65%, 41.18%, 83.92%)" stop-opacity="1"/>
<stop offset="0.22" stop-color="rgb(17.65%, 40.78%, 83.92%)" stop-opacity="1"/>
<stop offset="0.22" stop-color="rgb(18.04%, 40.39%, 83.53%)" stop-opacity="1"/>
<stop offset="0.23" stop-color="rgb(18.04%, 40%, 83.53%)" stop-opacity="1"/>
<stop offset="0.23" stop-color="rgb(18.04%, 39.61%, 83.14%)" stop-opacity="1"/>
<stop offset="0.23" stop-color="rgb(18.43%, 39.22%, 83.14%)" stop-opacity="1"/>
<stop offset="0.24" stop-color="rgb(18.43%, 38.82%, 82.75%)" stop-opacity="1"/>
<stop offset="0.24" stop-color="rgb(18.82%, 38.43%, 82.75%)" stop-opacity="1"/>
<stop offset="0.25" stop-color="rgb(18.82%, 38.04%, 82.75%)" stop-opacity="1"/>
<stop offset="0.25" stop-color="rgb(18.82%, 38.04%, 82.35%)" stop-opacity="1"/>
<stop offset="0.25" stop-color="rgb(19.22%, 37.65%, 82.35%)" stop-opacity="1"/>
<stop offset="0.26" stop-color="rgb(19.22%, 37.25%, 81.96%)" stop-opacity="1"/>
<stop offset="0.26" stop-color="rgb(19.22%, 36.86%, 81.96%)" stop-opacity="1"/>
<stop offset="0.27" stop-color="rgb(19.61%, 36.47%, 81.57%)" stop-opacity="1"/>
<stop offset="0.27" stop-color="rgb(19.61%, 36.08%, 81.57%)" stop-opacity="1"/>
<stop offset="0.27" stop-color="rgb(20%, 35.69%, 81.57%)" stop-opacity="1"/>
<stop offset="0.28" stop-color="rgb(20%, 35.29%, 81.18%)" stop-opacity="1"/>
<stop offset="0.29" stop-color="rgb(20.39%, 35.29%, 81.18%)" stop-opacity="1"/>
<stop offset="0.29" stop-color="rgb(20.39%, 34.9%, 80.78%)" stop-opacity="1"/>
<stop offset="0.3" stop-color="rgb(20.78%, 34.9%, 80.78%)" stop-opacity="1"/>
<stop offset="0.31" stop-color="rgb(20.78%, 34.51%, 80.78%)" stop-opacity="1"/>
<stop offset="0.32" stop-color="rgb(21.18%, 34.51%, 80.39%)" stop-opacity="1"/>
<stop offset="0.32" stop-color="rgb(21.18%, 34.12%, 80.39%)" stop-opacity="1"/>
<stop offset="0.33" stop-color="rgb(21.57%, 34.12%, 80.39%)" stop-opacity="1"/>
<stop offset="0.34" stop-color="rgb(21.96%, 34.12%, 80%)" stop-opacity="1"/>
<stop offset="0.35" stop-color="rgb(21.96%, 33.72%, 80%)" stop-opacity="1"/>
<stop offset="0.36" stop-color="rgb(22.35%, 33.72%, 80%)" stop-opacity="1"/>
<stop offset="0.36" stop-color="rgb(22.35%, 33.33%, 79.61%)" stop-opacity="1"/>
<stop offset="0.37" stop-color="rgb(22.74%, 33.33%, 79.61%)" stop-opacity="1"/>
<stop offset="0.38" stop-color="rgb(22.74%, 33.33%, 79.61%)" stop-opacity="1"/>
<stop offset="0.39" stop-color="rgb(23.14%, 32.94%, 79.22%)" stop-opacity="1"/>
<stop offset="0.39" stop-color="rgb(23.53%, 32.94%, 79.22%)" stop-opacity="1"/>
<stop offset="0.4" stop-color="rgb(23.53%, 32.55%, 79.22%)" stop-opacity="1"/>
<stop offset="0.41" stop-color="rgb(23.92%, 32.55%, 78.82%)" stop-opacity="1"/>
<stop offset="0.42" stop-color="rgb(23.92%, 32.55%, 78.82%)" stop-opacity="1"/>
<stop offset="0.43" stop-color="rgb(24.31%, 32.16%, 78.43%)" stop-opacity="1"/>
<stop offset="0.43" stop-color="rgb(24.31%, 32.16%, 78.43%)" stop-opacity="1"/>
<stop offset="0.44" stop-color="rgb(24.71%, 31.76%, 78.43%)" stop-opacity="1"/>
<stop offset="0.45" stop-color="rgb(24.71%, 31.76%, 78.04%)" stop-opacity="1"/>
<stop offset="0.46" stop-color="rgb(25.1%, 31.37%, 78.04%)" stop-opacity="1"/>
<stop offset="0.46" stop-color="rgb(25.49%, 31.37%, 78.04%)" stop-opacity="1"/>
<stop offset="0.47" stop-color="rgb(25.49%, 31.37%, 77.65%)" stop-opacity="1"/>
<stop offset="0.48" stop-color="rgb(25.88%, 30.98%, 77.65%)" stop-opacity="1"/>
<stop offset="0.49" stop-color="rgb(25.88%, 30.98%, 77.65%)" stop-opacity="1"/>
<stop offset="0.5" stop-color="rgb(26.27%, 30.59%, 77.26%)" stop-opacity="1"/>
<stop offset="0.5" stop-color="rgb(26.67%, 30.59%, 77.26%)" stop-opacity="1"/>
<stop offset="0.52" stop-color="rgb(26.67%, 30.2%, 76.86%)" stop-opacity="1"/>
<stop offset="0.53" stop-color="rgb(27.06%, 30.2%, 76.86%)" stop-opacity="1"/>
<stop offset="0.54" stop-color="rgb(27.45%, 29.8%, 76.47%)" stop-opacity="1"/>
<stop offset="0.55" stop-color="rgb(27.84%, 29.41%, 76.47%)" stop-opacity="1"/>
<stop offset="0.56" stop-color="rgb(28.23%, 29.41%, 76.08%)" stop-opacity="1"/>
<stop offset="0.57" stop-color="rgb(28.63%, 29.02%, 76.08%)" stop-opacity="1"/>
<stop offset="0.59" stop-color="rgb(28.63%, 29.02%, 75.69%)" stop-opacity="1"/>
<stop offset="0.6" stop-color="rgb(29.02%, 28.63%, 75.69%)" stop-opacity="1"/>
<stop offset="0.61" stop-color="rgb(29.41%, 28.23%, 75.29%)" stop-opacity="1"/>
<stop offset="0.62" stop-color="rgb(29.8%, 28.23%, 75.29%)" stop-opacity="1"/>
<stop offset="0.63" stop-color="rgb(30.2%, 27.84%, 74.9%)" stop-opacity="1"/>
<stop offset="0.64" stop-color="rgb(30.2%, 27.84%, 74.9%)" stop-opacity="1"/>
<stop offset="0.65" stop-color="rgb(30.59%, 27.45%, 74.9%)" stop-opacity="1"/>
<stop offset="0.66" stop-color="rgb(30.59%, 27.45%, 74.51%)" stop-opacity="1"/>
<stop offset="0.66" stop-color="rgb(30.98%, 27.45%, 74.51%)" stop-opacity="1"/>
<stop offset="0.67" stop-color="rgb(31.37%, 27.06%, 74.51%)" stop-opacity="1"/>
<stop offset="0.68" stop-color="rgb(31.37%, 27.06%, 74.12%)" stop-opacity="1"/>
<stop offset="0.69" stop-color="rgb(31.76%, 26.67%, 74.12%)" stop-opacity="1"/>
<stop offset="0.7" stop-color="rgb(31.76%, 26.67%, 74.12%)" stop-opacity="1"/>
<stop offset="0.7" stop-color="rgb(32.16%, 26.27%, 73.73%)" stop-opacity="1"/>
<stop offset="0.71" stop-color="rgb(32.16%, 26.27%, 73.73%)" stop-opacity="1"/>
<stop offset="0.72" stop-color="rgb(32.55%, 26.27%, 73.73%)" stop-opacity="1"/>
<stop offset="0.73" stop-color="rgb(32.55%, 25.88%, 73.33%)" stop-opacity="1"/>
<stop offset="0.73" stop-color="rgb(32.94%, 25.88%, 73.33%)" stop-opacity="1"/>
<stop offset="0.74" stop-color="rgb(33.33%, 25.49%, 73.33%)" stop-opacity="1"/>
<stop offset="0.75" stop-color="rgb(33.33%, 25.49%, 72.94%)" stop-opacity="1"/>
<stop offset="0.76" stop-color="rgb(33.72%, 25.1%, 72.94%)" stop-opacity="1"/>
<stop offset="0.77" stop-color="rgb(34.12%, 25.1%, 72.55%)" stop-opacity="1"/>
<stop offset="0.78" stop-color="rgb(34.51%, 24.71%, 72.55%)" stop-opacity="1"/>
<stop offset="0.79" stop-color="rgb(34.51%, 24.71%, 72.16%)" stop-opacity="1"/>
<stop offset="0.8" stop-color="rgb(34.9%, 24.31%, 72.16%)" stop-opacity="1"/>
<stop offset="0.82" stop-color="rgb(35.29%, 23.92%, 71.77%)" stop-opacity="1"/>
<stop offset="0.82" stop-color="rgb(35.29%, 23.92%, 71.77%)" stop-opacity="1"/>
<stop offset="0.83" stop-color="rgb(35.69%, 23.92%, 71.77%)" stop-opacity="1"/>
<stop offset="0.84" stop-color="rgb(36.08%, 23.53%, 71.37%)" stop-opacity="1"/>
<stop offset="0.85" stop-color="rgb(36.08%, 23.53%, 71.37%)" stop-opacity="1"/>
<stop offset="0.85" stop-color="rgb(36.08%, 23.14%, 71.37%)" stop-opacity="1"/>
<stop offset="0.86" stop-color="rgb(36.47%, 22.74%, 70.98%)" stop-opacity="1"/>
<stop offset="0.86" stop-color="rgb(36.47%, 22.35%, 70.59%)" stop-opacity="1"/>
<stop offset="0.86" stop-color="rgb(36.47%, 21.96%, 70.59%)" stop-opacity="1"/>
<stop offset="0.87" stop-color="rgb(36.86%, 21.57%, 70.2%)" stop-opacity="1"/>
<stop offset="0.87" stop-color="rgb(36.86%, 20.78%, 70.2%)" stop-opacity="1"/>
<stop offset="0.88" stop-color="rgb(36.86%, 20.39%, 69.8%)" stop-opacity="1"/>
<stop offset="0.88" stop-color="rgb(37.25%, 20%, 69.8%)" stop-opacity="1"/>
<stop offset="0.88" stop-color="rgb(37.25%, 19.61%, 69.41%)" stop-opacity="1"/>
<stop offset="0.89" stop-color="rgb(37.25%, 19.22%, 69.02%)" stop-opacity="1"/>
<stop offset="0.89" stop-color="rgb(37.25%, 18.82%, 69.02%)" stop-opacity="1"/>
<stop offset="0.89" stop-color="rgb(37.65%, 18.43%, 68.63%)" stop-opacity="1"/>
<stop offset="0.9" stop-color="rgb(37.65%, 18.04%, 68.63%)" stop-opacity="1"/>
<stop offset="0.9" stop-color="rgb(37.65%, 17.65%, 68.24%)" stop-opacity="1"/>
<stop offset="0.91" stop-color="rgb(38.04%, 17.25%, 67.84%)" stop-opacity="1"/>
<stop offset="0.91" stop-color="rgb(38.04%, 16.86%, 67.84%)" stop-opacity="1"/>
<stop offset="0.91" stop-color="rgb(38.04%, 16.47%, 67.45%)" stop-opacity="1"/>
<stop offset="0.92" stop-color="rgb(38.43%, 15.69%, 67.45%)" stop-opacity="1"/>
<stop offset="0.92" stop-color="rgb(38.43%, 15.29%, 67.06%)" stop-opacity="1"/>
<stop offset="0.93" stop-color="rgb(38.43%, 14.9%, 67.06%)" stop-opacity="1"/>
<stop offset="0.93" stop-color="rgb(38.82%, 14.51%, 66.67%)" stop-opacity="1"/>
<stop offset="0.93" stop-color="rgb(38.82%, 14.12%, 66.28%)" stop-opacity="1"/>
<stop offset="0.94" stop-color="rgb(38.82%, 13.73%, 66.28%)" stop-opacity="1"/>
<stop offset="0.94" stop-color="rgb(39.22%, 13.33%, 65.88%)" stop-opacity="1"/>
<stop offset="0.95" stop-color="rgb(39.22%, 12.94%, 65.88%)" stop-opacity="1"/>
<stop offset="0.95" stop-color="rgb(39.22%, 12.55%, 65.49%)" stop-opacity="1"/>
<stop offset="0.95" stop-color="rgb(39.22%, 12.16%, 65.49%)" stop-opacity="1"/>
<stop offset="0.96" stop-color="rgb(39.61%, 11.76%, 65.1%)" stop-opacity="1"/>
<stop offset="0.96" stop-color="rgb(39.61%, 10.98%, 64.71%)" stop-opacity="1"/>
<stop offset="0.96" stop-color="rgb(39.61%, 10.59%, 64.71%)" stop-opacity="1"/>
<stop offset="0.97" stop-color="rgb(40%, 10.2%, 64.31%)" stop-opacity="1"/>
<stop offset="0.97" stop-color="rgb(40%, 9.8%, 64.31%)" stop-opacity="1"/>
<stop offset="0.98" stop-color="rgb(40%, 9.41%, 63.92%)" stop-opacity="1"/>
<stop offset="0.98" stop-color="rgb(40.39%, 9.02%, 63.53%)" stop-opacity="1"/>
<stop offset="0.98" stop-color="rgb(40.39%, 8.63%, 63.53%)" stop-opacity="1"/>
<stop offset="0.99" stop-color="rgb(40.39%, 8.24%, 63.14%)" stop-opacity="1"/>
<stop offset="0.99" stop-color="rgb(40.78%, 7.84%, 63.14%)" stop-opacity="1"/>
<stop offset="1" stop-color="rgb(40.78%, 7.45%, 62.75%)" stop-opacity="1"/>
<stop offset="1" stop-color="rgb(40.78%, 7.06%, 62.75%)" stop-opacity="1"/>
</radialGradient>
</defs>
<g clip-path="url(#clip-0)">
<g clip-path="url(#clip-1)">
<path fill-rule="nonzero" fill="url(#radial-pattern-0)" d="M 0.9 191.8 L 0.9 1 L 175.23 1 L 175.23 191.8 Z M 0.9 191.8 "/>
</g>
</g>
</svg>
