<svg width="44" height="44" viewBox="0 0 44 44" fill="none" xmlns="http://www.w3.org/2000/svg">
<g clip-path="url(#clip0_10343_3437)">
<path d="M39.9183 31.4799C39.2465 31.4661 38.6067 31.1898 38.1361 30.7102C37.6654 30.2307 37.4012 29.5859 37.4 28.9139V28.1806C37.3986 27.1113 36.9733 26.0862 36.2172 25.3301C35.4611 24.574 34.436 24.1486 33.3667 24.1473H32.0687C32.0951 24.1018 32.1149 24.0578 32.142 24.0123C33.1271 22.356 33.9056 20.5853 34.4601 18.7397L34.7607 17.7937C35.482 15.5276 35.2927 13.0697 34.2329 10.9408C33.1732 8.81195 31.3261 7.17931 29.0833 6.38886C28.8647 6.3114 28.6307 6.28755 28.401 6.31933C28.1713 6.35111 27.9526 6.43757 27.7633 6.57146C27.5697 6.70689 27.4115 6.8868 27.3018 7.09607C27.1922 7.30535 27.1344 7.53788 27.1333 7.77412V11.7341C27.1333 12.5121 26.8243 13.2582 26.2742 13.8083C25.7241 14.3584 24.978 14.6675 24.2 14.6675H19.8C19.022 14.6675 18.2759 14.3584 17.7258 13.8083C17.1757 13.2582 16.8667 12.5121 16.8667 11.7341V7.77412C16.8664 7.5377 16.8094 7.3048 16.7005 7.095C16.5915 6.8852 16.4337 6.70464 16.2404 6.56852C16.0511 6.43464 15.8324 6.34817 15.6026 6.3164C15.3729 6.28462 15.139 6.30846 14.9204 6.38592C12.6761 7.17547 10.8276 8.80829 9.76715 10.938C8.70667 13.0677 8.51758 15.5268 9.24 17.7937L9.5414 18.7419C10.0961 20.5874 10.8746 22.3581 11.8595 24.0145C11.8873 24.0593 11.9071 24.1025 11.9328 24.1473H10.6333C9.56404 24.1486 8.53894 24.574 7.78284 25.3301C7.02673 26.0862 6.60136 27.1113 6.6 28.1806V28.9139C6.58803 29.6036 6.30372 30.2606 5.80912 30.7415C5.31452 31.2224 4.64979 31.4881 3.96 31.4806C2.90348 31.5011 1.89709 31.9349 1.15676 32.689C0.416431 33.443 0.00114374 34.4572 0 35.5139L0 41.0411C0 41.819 0.309047 42.5651 0.859154 43.1152C1.40926 43.6653 2.15536 43.9744 2.93333 43.9744H41.0667C41.8446 43.9744 42.5907 43.6653 43.1408 43.1152C43.691 42.5651 44 41.819 44 41.0411V35.5139C43.9913 34.4385 43.5569 33.4102 42.792 32.6542C42.027 31.8982 40.9938 31.4759 39.9183 31.4799ZM10.9362 18.2953L10.6355 17.3493C10.029 15.447 10.1872 13.3834 11.0767 11.5958C11.9661 9.80832 13.5169 8.43752 15.4 7.77412V11.7341C15.4012 12.9007 15.8651 14.0192 16.69 14.8441C17.5149 15.669 18.6334 16.133 19.8 16.1341H24.2C25.3666 16.133 26.4851 15.669 27.31 14.8441C28.1349 14.0192 28.5988 12.9007 28.6 11.7341L28.589 7.76972C30.4743 8.43221 32.0276 9.80286 32.9194 11.5911C33.8113 13.3794 33.9717 15.4447 33.3667 17.3493L33.0667 18.2931C32.548 20.025 31.8196 21.6871 30.8975 23.2423C30.3911 23.9913 30.1033 24.8667 30.0667 25.7701C30.0667 32.5542 28.9667 39.5715 27.1333 39.5715C25.5435 39.5715 24.2 36.7115 24.2 33.3308V30.4195C24.2 29.7441 24.0937 26.3715 22 26.3715C19.9063 26.3715 19.8 29.7448 19.8 30.4195V33.3308C19.8 36.7129 18.4565 39.5715 16.8667 39.5715C15.0333 39.5715 13.9333 32.5542 13.9333 25.7701C13.897 24.8687 13.6103 23.9951 13.1054 23.2475C12.1834 21.6912 11.4549 20.0282 10.9362 18.2953ZM42.5333 41.0411C42.5333 41.43 42.3788 41.8031 42.1038 42.0781C41.8287 42.3532 41.4557 42.5077 41.0667 42.5077H2.93333C2.54435 42.5077 2.1713 42.3532 1.89624 42.0781C1.62119 41.8031 1.46667 41.43 1.46667 41.0411V35.5139C1.46805 34.842 1.7323 34.1972 2.20291 33.7176C2.67351 33.2379 3.31312 32.9614 3.98493 32.9473C5.06025 32.951 6.09329 32.5288 6.85818 31.773C7.62306 31.0171 8.05756 29.9892 8.06667 28.9139V28.1806C8.06667 27.4999 8.33708 26.847 8.81843 26.3657C9.29977 25.8843 9.95261 25.6139 10.6333 25.6139H12.4513C12.4557 25.6653 12.4667 25.7203 12.4667 25.7701C12.4667 30.3601 12.8957 41.0381 16.8667 41.0381C19.7267 41.0381 21.2667 37.0671 21.2667 33.3308V30.4202C21.2667 29.1413 21.6392 27.8381 22 27.8381C22.3608 27.8381 22.7333 29.1413 22.7333 30.4195V33.3308C22.7333 37.0671 24.2733 41.0381 27.1333 41.0381C31.1043 41.0381 31.5333 30.3601 31.5333 25.7701C31.5333 25.7203 31.5451 25.6653 31.5487 25.6139H33.3667C34.0474 25.6139 34.7002 25.8843 35.1816 26.3657C35.6629 26.847 35.9333 27.4999 35.9333 28.1806V28.9139C35.9343 29.9707 36.3495 30.985 37.0899 31.7391C37.8303 32.4931 38.8368 32.9269 39.8933 32.9473C40.5831 32.9398 41.2479 33.2055 41.7425 33.6864C42.2371 34.1672 42.5214 34.8242 42.5333 35.5139V41.0411Z" fill="#060C16"/>
<path d="M25.4578 5.83587C25.5262 5.85608 25.597 5.86645 25.6683 5.86667C25.8444 5.86671 26.0146 5.80338 26.1479 5.68826C26.2811 5.57314 26.3685 5.41392 26.394 5.23969C26.4196 5.06546 26.3816 4.88785 26.2869 4.73933C26.1923 4.59081 26.0474 4.4813 25.8787 4.4308L24.9349 4.14773V1.46667C24.9349 1.07768 24.7804 0.70463 24.5054 0.429577C24.2303 0.154523 23.8573 0 23.4683 0L20.5349 0C20.146 0 19.7729 0.154523 19.4979 0.429577C19.2228 0.70463 19.0683 1.07768 19.0683 1.46667V2.38773L18.5454 2.2308C18.3591 2.17498 18.1582 2.19546 17.987 2.28774C17.8158 2.38003 17.6882 2.53654 17.6324 2.72287C17.5766 2.90919 17.5971 3.11006 17.6894 3.28128C17.7816 3.4525 17.9382 3.58005 18.1245 3.63587L19.0683 3.91893V6.0544L18.5454 5.89747C18.4532 5.86983 18.3564 5.86063 18.2605 5.8704C18.1647 5.88017 18.0718 5.90872 17.987 5.95441C17.9022 6.0001 17.8273 6.06205 17.7664 6.13671C17.7056 6.21136 17.6601 6.29728 17.6324 6.38953C17.6048 6.48179 17.5956 6.57859 17.6053 6.6744C17.6151 6.77021 17.6437 6.86316 17.6894 6.94794C17.735 7.03272 17.797 7.10767 17.8717 7.16851C17.9463 7.22935 18.0322 7.27489 18.1245 7.30253L19.0683 7.5856V9.96307C19.0675 10.2521 19.124 10.5384 19.2347 10.8054C19.3453 11.0724 19.5079 11.3148 19.7129 11.5185L20.9647 12.7703C21.2397 13.0452 21.6127 13.1997 22.0016 13.1997C22.3905 13.1997 22.7635 13.0452 23.0385 12.7703L24.2903 11.5185C24.4954 11.3148 24.6579 11.0724 24.7686 10.8054C24.8792 10.5384 24.9358 10.2521 24.9349 9.96307V9.3456L25.4578 9.50253C25.5262 9.52274 25.597 9.53312 25.6683 9.53333C25.8444 9.53337 26.0146 9.47005 26.1479 9.35493C26.2811 9.23981 26.3685 9.08059 26.394 8.90635C26.4196 8.73212 26.3816 8.55452 26.2869 8.406C26.1923 8.25748 26.0474 8.14796 25.8787 8.09747L24.9349 7.8144V5.67893L25.4578 5.83587ZM20.5349 1.46667H23.4683V3.70773L20.5349 2.82773V1.46667ZM23.4683 9.96307C23.4682 10.1575 23.3909 10.344 23.2534 10.4815L22.0016 11.7333L20.7498 10.4815C20.6123 10.344 20.535 10.1575 20.5349 9.96307V8.0256L23.4683 8.9056V9.96307ZM23.4683 7.3744L20.5349 6.4944V4.35893L23.4683 5.23893V7.3744Z" fill="#060C16"/>
</g>
<defs>
<clipPath id="clip0_10343_3437">
<rect width="44" height="44" fill="white"/>
</clipPath>
</defs>
</svg>
