<svg width="44" height="44" viewBox="0 0 44 44" fill="none" xmlns="http://www.w3.org/2000/svg">
<g clip-path="url(#clip0_10343_3470)">
<path d="M39.9205 27.8666C39.2483 27.8529 38.6081 27.5767 38.137 27.097C37.666 26.6173 37.4014 25.9722 37.4 25.2999V24.5666C37.4013 24.2608 37.3129 23.9615 37.1456 23.7056C36.9784 23.4497 36.7397 23.2485 36.4591 23.127C36.1743 23.0012 35.8586 22.9625 35.5518 23.0158C35.2451 23.069 34.9609 23.2118 34.7351 23.4262C34.1929 23.9208 33.7772 24.5382 33.5229 25.2266C30.2962 33.9136 27.0857 38.3261 23.9697 38.34H23.9536C23.5768 38.3455 23.2014 38.2933 22.8404 38.1853C20.5165 37.4461 19.7318 35.3444 19.4832 33.712C19.4633 33.5808 19.4081 33.4575 19.3237 33.3552C19.2393 33.253 19.1286 33.1755 19.0037 33.1311C18.8787 33.0867 18.744 33.077 18.6139 33.1031C18.4839 33.1292 18.3633 33.1901 18.2651 33.2793C17.2538 34.2876 15.8961 34.8724 14.4687 34.9146C13.9686 34.914 13.4724 34.8269 13.002 34.6572C9.4952 33.4003 10.1009 28.4547 10.8629 24.8401C11.0535 23.911 11.2955 22.9158 11.6021 21.796C11.6428 21.6474 11.6486 21.4913 11.619 21.34C11.5893 21.1887 11.5251 21.0464 11.4313 20.9241C11.3374 20.8018 11.2166 20.7028 11.0782 20.635C10.9397 20.5672 10.7875 20.5324 10.6333 20.5332C9.56404 20.5346 8.53894 20.96 7.78284 21.7161C7.02673 22.4722 6.60136 23.4973 6.6 24.5666V25.2999C6.58784 25.9895 6.30347 26.6464 5.80891 27.1272C5.31435 27.6081 4.64973 27.8738 3.96 27.8666C2.9036 27.8875 1.89743 28.3214 1.15718 29.0754C0.416929 29.8293 0.00151935 30.8433 0 31.8999L0 41.0666C0 41.8445 0.309047 42.5906 0.859154 43.1407C1.40926 43.6908 2.15536 43.9999 2.93333 43.9999H41.0667C41.8446 43.9999 42.5907 43.6908 43.1408 43.1407C43.691 42.5906 44 41.8445 44 41.0666V31.8999C43.9903 30.8252 43.5559 29.7979 42.7917 29.0423C42.0274 28.2866 40.9952 27.864 39.9205 27.8666ZM42.5333 41.0666C42.5333 41.4555 42.3788 41.8286 42.1038 42.1036C41.8287 42.3787 41.4557 42.5332 41.0667 42.5332H2.93333C2.54435 42.5332 2.1713 42.3787 1.89624 42.1036C1.62119 41.8286 1.46667 41.4555 1.46667 41.0666V31.8999C1.46807 31.2273 1.73283 30.582 2.20422 30.1023C2.67561 29.6225 3.31614 29.3464 3.9886 29.3332C5.0631 29.3354 6.09487 28.9126 6.85884 28.157C7.62281 27.4014 8.05699 26.3743 8.06667 25.2999V24.5666C8.06739 23.995 8.25845 23.44 8.6097 22.9892C8.96094 22.5384 9.45235 22.2174 10.0063 22.0769C9.77387 22.962 9.58247 23.7731 9.4248 24.5402C8.921 26.9301 7.38833 34.204 12.5048 36.0374C13.1348 36.264 13.7992 36.3801 14.4687 36.3806C15.8426 36.3688 17.1789 35.9306 18.293 35.1266C18.5394 36.1576 19.0459 37.1083 19.7642 37.888C20.4824 38.6676 21.3885 39.2502 22.396 39.5801C22.9012 39.7326 23.4267 39.8068 23.9543 39.8001H23.9749C25.388 39.7935 29.6875 39.7737 34.9015 25.7304C35.0796 25.2522 35.371 24.8244 35.7507 24.4837C35.7656 24.4675 35.7854 24.4568 35.8071 24.4532C35.8288 24.4496 35.851 24.4534 35.8703 24.4639C35.8905 24.4719 35.9075 24.4862 35.9189 24.5047C35.9303 24.5232 35.9353 24.5449 35.9333 24.5666V25.2999C35.9349 26.3565 36.3503 27.3705 37.0905 28.1244C37.8308 28.8784 38.8369 29.3123 39.8933 29.3332C40.583 29.3261 41.2475 29.592 41.742 30.0727C42.2366 30.5535 42.521 31.2103 42.5333 31.8999V41.0666Z" fill="url(#paint0_linear_10343_3470)"/>
<path d="M21.6215 27.9979C20.3601 31.5179 20.4694 35.7771 23.1615 36.7429C23.3873 36.8243 23.6255 36.866 23.8655 36.8661C27.3913 36.8661 31.0067 27.9062 32.4616 23.8546C32.712 23.2762 33.1141 22.7762 33.6254 22.4077C35.1146 21.1827 36.4471 19.7787 37.5927 18.2277L38.1933 17.4379C39.2128 16.1046 39.844 14.5157 40.0174 12.8463C40.1908 11.177 39.8996 9.4922 39.176 7.97789C38.4755 6.45318 37.3608 5.15594 35.9588 4.23407C34.5568 3.3122 32.924 2.80278 31.2465 2.76389C30.3691 2.73588 29.5238 2.42747 28.8345 1.88389C27.5171 0.853919 25.9371 0.214394 24.2741 0.0380798C22.6112 -0.138235 20.9322 0.155741 19.4281 0.886559C17.9058 1.59502 16.609 2.71045 15.6808 4.10966C14.7527 5.50887 14.2293 7.1374 14.1686 8.81536L14.1305 9.81123C14.0285 11.7362 14.164 13.6665 14.5338 15.5584C14.6938 16.1677 14.6862 16.809 14.5118 17.4144C13.6116 19.9422 12.87 22.5236 12.2913 25.1438C11.2851 29.9632 11.6789 32.6238 13.4954 33.275C14.7611 33.7296 16.1867 33.261 17.5148 31.9616C18.7356 30.6894 19.6651 29.167 20.2391 27.5L21.2196 24.7632C21.6545 23.5612 22.4472 22.4524 22.7823 22.5815C23.1175 22.7106 23.0309 24.0548 22.6012 25.2582L21.6215 27.9979ZM23.281 21.2036C23.1017 21.1381 22.9124 21.1041 22.7215 21.1031C22.1282 21.1031 21.3941 21.4412 20.6454 22.6284C20.3253 23.1494 20.0566 23.7003 19.8431 24.2733L18.8612 27.0101C18.3623 28.4683 17.5529 29.8009 16.4889 30.9158C15.9645 31.4292 14.9489 32.2358 13.9911 31.897C13.6399 31.7709 12.5809 30.9334 13.7271 25.4437C14.2913 22.8901 15.0146 20.3743 15.8927 17.9109C16.1625 17.0499 16.1879 16.1308 15.966 15.2562C15.6211 13.4817 15.4958 11.6714 15.5927 9.86623L15.6338 8.87329C15.6745 7.46151 16.1102 6.08941 16.8915 4.91279C17.6727 3.73617 18.7682 2.80217 20.0536 2.21683C21.3195 1.6026 22.7326 1.35667 24.1316 1.50708C25.5306 1.6575 26.8591 2.19821 27.9656 3.06749C28.903 3.79197 30.0474 4.19794 31.2318 4.22616C32.6331 4.26339 33.9959 4.693 35.1652 5.46614C36.3345 6.23929 37.2635 7.32496 37.8465 8.59976C38.4665 9.86842 38.7182 11.2856 38.573 12.6901C38.4278 14.0947 37.8916 15.4304 37.0252 16.5454L36.4253 17.3352C35.3511 18.7913 34.1019 20.1097 32.7058 21.2608C31.9781 21.7954 31.4136 22.5221 31.0756 23.3596C28.7832 29.7454 25.3762 35.9832 23.6521 35.362C22.1561 34.8245 21.8576 31.6792 23.0001 28.4929L23.9828 25.7568C24.2138 25.121 25.2522 21.9112 23.281 21.2036Z" fill="url(#paint1_linear_10343_3470)"/>
<path d="M27.1831 5.23709C27.3009 5.08285 27.3528 4.88817 27.3274 4.69572C27.302 4.50326 27.2013 4.32875 27.0474 4.21042C25.9935 3.38796 24.6963 2.93887 23.3595 2.93369C21.7419 2.92475 20.1842 3.54543 19.0161 4.66442C17.848 5.78342 17.161 7.31294 17.1005 8.92942L17.0631 9.91062C17.0555 10.1049 17.1254 10.2942 17.2575 10.437C17.3895 10.5797 17.5728 10.6642 17.7671 10.6718H17.7964C17.986 10.672 18.1683 10.5986 18.3051 10.4672C18.4418 10.3358 18.5223 10.1566 18.5297 9.96709L18.5671 8.98369C18.6147 7.74708 19.1413 6.57745 20.0357 5.72211C20.93 4.86677 22.122 4.39278 23.3595 4.40036C24.3734 4.40514 25.3569 4.74726 26.1549 5.37276C26.3093 5.4911 26.5043 5.54329 26.6971 5.51784C26.8899 5.4924 27.0647 5.39141 27.1831 5.23709Z" fill="url(#paint2_linear_10343_3470)"/>
</g>
<defs>
<linearGradient id="paint0_linear_10343_3470" x1="0" y1="32.2665" x2="44" y2="32.2665" gradientUnits="userSpaceOnUse">
<stop stop-color="#0452FF"/>
<stop offset="1" stop-color="#4E8FFF"/>
</linearGradient>
<linearGradient id="paint1_linear_10343_3470" x1="11.75" y1="18.4272" x2="40.0662" y2="18.4272" gradientUnits="userSpaceOnUse">
<stop stop-color="#0452FF"/>
<stop offset="1" stop-color="#4E8FFF"/>
</linearGradient>
<linearGradient id="paint2_linear_10343_3470" x1="17.0625" y1="6.80271" x2="27.3337" y2="6.80271" gradientUnits="userSpaceOnUse">
<stop stop-color="#0452FF"/>
<stop offset="1" stop-color="#4E8FFF"/>
</linearGradient>
<clipPath id="clip0_10343_3470">
<rect width="44" height="44" fill="white"/>
</clipPath>
</defs>
</svg>
