<svg width="220" height="220" viewBox="0 0 220 220" fill="none" xmlns="http://www.w3.org/2000/svg">
<g opacity="0.2">
<path d="M183.328 65.9961C190.135 65.9961 196.663 63.2919 201.477 58.4785C206.29 53.6651 208.994 47.1367 208.994 40.3294C208.994 33.5222 206.29 26.9938 201.477 22.1804C196.663 17.3669 190.135 14.6628 183.328 14.6628H153.569C146.522 8.05015 137.818 3.46536 128.379 1.39346C118.94 -0.678443 109.116 -0.160403 99.9477 2.89277H99.8927L99.7277 2.96977C94.4907 4.71133 88.8305 4.71004 83.5943 2.9661L83.4367 2.92944L83.3743 2.89277C73.8476 -0.289018 63.6196 -0.735351 53.852 1.60447C44.0843 3.9443 35.1687 8.97649 28.1176 16.1294C20.5989 23.5131 15.2687 32.8323 12.7166 43.0566C10.1644 53.2809 10.4896 64.0118 13.6563 74.0628L15.5226 80.0321C18.8978 91.5846 23.6743 102.681 29.7457 113.072C32.0526 116.521 33.4015 120.521 33.6543 124.663C33.6543 125.616 34.901 219.996 62.6577 219.996C76.833 219.996 84.3277 203.514 84.3277 172.329V154.044C84.3277 153.593 84.5843 142.996 91.661 142.996C98.7377 142.996 98.9943 153.593 98.9943 153.996V172.329C98.9943 203.514 106.489 219.996 120.664 219.996C128.412 219.996 134.598 213.202 139.328 199.463V201.663C139.333 206.523 141.267 211.183 144.704 214.62C148.141 218.057 152.8 219.99 157.661 219.996H179.661C184.522 219.99 189.181 218.057 192.618 214.62C196.055 211.183 197.989 206.523 197.994 201.663V106.329C197.989 101.469 196.055 96.8091 192.618 93.3722C189.181 89.9353 184.522 88.0019 179.661 87.9961V65.9961H183.328ZM201.661 40.3294C201.655 45.19 199.722 49.8497 196.285 53.2866C192.848 56.7235 188.188 58.657 183.328 58.6628H135.661C134.689 58.6628 133.756 58.2765 133.068 57.5888C132.381 56.9012 131.994 55.9686 131.994 54.9961V25.6628C131.994 24.6903 132.381 23.7577 133.068 23.07C133.756 22.3824 134.689 21.9961 135.661 21.9961H183.328C188.188 22.0019 192.848 23.9353 196.285 27.3722C199.722 30.8092 201.655 35.4689 201.661 40.3294ZM120.664 212.663C111.688 212.663 106.328 197.585 106.328 172.329V153.959C106.262 147.631 103.116 135.663 91.661 135.663C80.2063 135.663 77.0603 147.631 76.9943 153.996V172.329C76.9943 197.585 71.6337 212.663 62.6577 212.663C47.43 212.663 40.9877 149.71 40.9877 124.663C40.7659 119.173 39.0492 113.848 36.023 109.263C30.2598 99.3738 25.7272 88.8174 22.526 77.8284L20.6523 71.8628C17.8959 63.0994 17.6154 53.7447 19.842 44.832C22.0686 35.9193 26.7154 27.7955 33.2693 21.3581C39.3689 15.1611 47.0839 10.7986 55.5382 8.76605C63.9926 6.73349 72.8474 7.11229 81.0973 9.85944L81.2587 9.91444H81.3136C88.0323 12.1401 95.2896 12.1401 102.008 9.91444H102.052L102.225 9.85577C108.73 7.68321 115.637 6.98739 122.444 7.8189C129.252 8.65041 135.788 10.9884 141.579 14.6628H135.661C133.394 14.6722 131.185 15.3817 129.337 16.6944C127.489 18.0071 126.091 19.8588 125.336 21.9961H117.328C115.383 21.9961 113.517 22.7687 112.142 24.144C110.767 25.5193 109.994 27.3845 109.994 29.3294H98.9943C96.0769 29.3294 93.279 30.4884 91.2161 32.5513C89.1532 34.6142 87.9943 37.4121 87.9943 40.3294C87.9943 43.2468 89.1532 46.0447 91.2161 48.1076C93.279 50.1705 96.0769 51.3294 98.9943 51.3294H109.994C109.994 53.2744 110.767 55.1396 112.142 56.5149C113.517 57.8902 115.383 58.6628 117.328 58.6628H125.336C126.091 60.8001 127.489 62.6518 129.337 63.9644C131.185 65.2771 133.394 65.9867 135.661 65.9961H157.661V87.9961C152.8 88.0019 148.141 89.9353 144.704 93.3722C141.267 96.8091 139.333 101.469 139.328 106.329V164.039C133.461 209.143 123.561 212.663 120.664 212.663ZM124.661 51.3294H117.328V29.3294H124.661V51.3294ZM109.994 43.9961H98.9943C98.0219 43.9961 97.0892 43.6098 96.4016 42.9222C95.714 42.2345 95.3277 41.3019 95.3277 40.3294C95.3277 39.357 95.714 38.4243 96.4016 37.7367C97.0892 37.0491 98.0219 36.6628 98.9943 36.6628H109.994V43.9961ZM190.661 106.329V201.663C190.661 204.58 189.502 207.378 187.439 209.441C185.376 211.504 182.578 212.663 179.661 212.663H157.661C154.744 212.663 151.946 211.504 149.883 209.441C147.82 207.378 146.661 204.58 146.661 201.663V106.329C146.661 103.412 147.82 100.614 149.883 98.5513C151.946 96.4884 154.744 95.3294 157.661 95.3294H179.661C182.578 95.3294 185.376 96.4884 187.439 98.5513C189.502 100.614 190.661 103.412 190.661 106.329ZM172.328 87.9961H164.994V65.9961H172.328V87.9961Z" fill="#060C16"/>
<path d="M179.661 150.332C178.689 150.332 177.756 150.718 177.069 151.406C176.381 152.094 175.995 153.026 175.995 153.999V197.999H164.995C164.022 197.999 163.09 198.385 162.402 199.073C161.714 199.76 161.328 200.693 161.328 201.665C161.328 202.638 161.714 203.57 162.402 204.258C163.09 204.946 164.022 205.332 164.995 205.332H175.995C177.94 205.332 179.805 204.559 181.18 203.184C182.556 201.809 183.328 199.944 183.328 197.999V153.999C183.328 153.026 182.942 152.094 182.254 151.406C181.567 150.718 180.634 150.332 179.661 150.332Z" fill="#060C16"/>
<path d="M66.9934 14.8047C60.5091 14.8892 54.1353 16.4945 48.3846 19.4915C42.6339 22.4885 37.6669 26.7934 33.8834 32.06C29.9398 37.3922 27.3238 43.5874 26.2519 50.1322C25.18 56.6771 25.6832 63.3831 27.7197 69.6947C28.0416 70.5838 28.6945 71.3142 29.5421 71.7334C30.3897 72.1526 31.3665 72.2281 32.2684 71.9441C33.1704 71.6602 33.9278 71.0388 34.3824 70.2097C34.8371 69.3806 34.9539 68.4079 34.7084 67.4947C33.0258 62.2813 32.6101 56.7419 33.4958 51.3358C34.3815 45.9297 36.5431 40.8126 39.8014 36.4087C42.9036 32.0719 46.9797 28.5231 51.7022 26.0473C56.4246 23.5714 61.6619 22.2375 66.9934 22.1527C67.9658 22.1527 68.8985 21.7664 69.5861 21.0787C70.2737 20.3911 70.66 19.4585 70.66 18.486C70.66 17.5136 70.2737 16.5809 69.5861 15.8933C68.8985 15.2057 67.9658 14.8194 66.9934 14.8194V14.8047Z" fill="#060C16"/>
<path d="M175.996 131.997V139.33C175.996 140.303 176.382 141.235 177.07 141.923C177.758 142.61 178.69 142.997 179.663 142.997C180.635 142.997 181.568 142.61 182.255 141.923C182.943 141.235 183.329 140.303 183.329 139.33V131.997C183.329 131.024 182.943 130.092 182.255 129.404C181.568 128.716 180.635 128.33 179.663 128.33C178.69 128.33 177.758 128.716 177.07 129.404C176.382 130.092 175.996 131.024 175.996 131.997Z" fill="#060C16"/>
</g>
</svg>
