<svg width="44" height="44" viewBox="0 0 44 44" fill="none" xmlns="http://www.w3.org/2000/svg">
<path d="M36.6655 13.1992C38.027 13.1992 39.3327 12.6584 40.2953 11.6957C41.258 10.733 41.7989 9.42733 41.7989 8.06589C41.7989 6.70444 41.258 5.39876 40.2953 4.43607C39.3327 3.47339 38.027 2.93255 36.6655 2.93255H30.7138C29.3044 1.61003 27.5637 0.693072 25.6758 0.278692C23.788 -0.135689 21.8233 -0.0320806 19.9895 0.578554H19.9785L19.9455 0.593954C18.8981 0.942266 17.7661 0.942009 16.7189 0.593221L16.6873 0.585888L16.6749 0.578554C14.7695 -0.0578037 12.7239 -0.14707 10.7704 0.320894C8.81687 0.788859 7.03373 1.7953 5.62353 3.22589C4.11978 4.70262 3.05375 6.56646 2.54331 8.61132C2.03287 10.6562 2.09792 12.8024 2.73126 14.8126L3.10453 16.0064C3.77956 18.3169 4.73486 20.5361 5.94913 22.6145C6.41052 23.3043 6.68031 24.1042 6.73086 24.9326C6.73086 25.1232 6.9802 43.9992 12.5315 43.9992C15.3666 43.9992 16.8655 40.7029 16.8655 34.4659V30.8088C16.8655 30.7186 16.9169 28.5992 18.3322 28.5992C19.7475 28.5992 19.7989 30.7186 19.7989 30.7992V34.4659C19.7989 40.7029 21.2978 43.9992 24.1329 43.9992C25.6824 43.9992 26.9195 42.6404 27.8655 39.8926V40.3326C27.8667 41.3047 28.2534 42.2366 28.9408 42.924C29.6281 43.6114 30.5601 43.9981 31.5322 43.9992H35.9322C36.9043 43.9981 37.8363 43.6114 38.5236 42.924C39.211 42.2366 39.5977 41.3047 39.5989 40.3326V21.2659C39.5977 20.2938 39.211 19.3618 38.5236 18.6744C37.8363 17.9871 36.9043 17.6004 35.9322 17.5992V13.1992H36.6655ZM40.3322 8.06589C40.331 9.03799 39.9444 9.96995 39.257 10.6573C38.5696 11.3447 37.6376 11.7314 36.6655 11.7326H27.1322C26.9377 11.7326 26.7512 11.6553 26.6137 11.5178C26.4761 11.3802 26.3989 11.1937 26.3989 10.9992V5.13255C26.3989 4.93806 26.4761 4.75154 26.6137 4.61401C26.7512 4.47648 26.9377 4.39922 27.1322 4.39922H36.6655C37.6376 4.40039 38.5696 4.78707 39.257 5.47445C39.9444 6.16183 40.331 7.09378 40.3322 8.06589ZM24.1329 42.5326C22.3377 42.5326 21.2655 39.5171 21.2655 34.4659V30.7919C21.2523 29.5262 20.6231 27.1326 18.3322 27.1326C16.0413 27.1326 15.4121 29.5262 15.3989 30.7992V34.4659C15.3989 39.5171 14.3267 42.5326 12.5315 42.5326C9.486 42.5326 8.19753 29.942 8.19753 24.9326C8.15317 23.8346 7.80985 22.7697 7.2046 21.8526C6.05196 19.8748 5.14543 17.7635 4.5052 15.5657L4.13046 14.3726C3.57918 12.6199 3.52309 10.7489 3.9684 8.96641C4.41371 7.18387 5.34309 5.55911 6.65386 4.27162C7.87377 3.03222 9.41677 2.15972 11.1076 1.75321C12.7985 1.3467 14.5695 1.42246 16.2195 1.97189L16.2517 1.98289H16.2627C17.6065 2.42803 19.0579 2.42803 20.4017 1.98289H20.4105L20.4449 1.97115C21.7459 1.53664 23.1273 1.39748 24.4888 1.56378C25.8503 1.73008 27.1577 2.19767 28.3158 2.93255H27.1322C26.6788 2.93443 26.2371 3.07635 25.8674 3.33889C25.4978 3.60142 25.2183 3.97175 25.0671 4.39922H23.4655C23.0765 4.39922 22.7035 4.55374 22.4284 4.8288C22.1534 5.10385 21.9989 5.4769 21.9989 5.86589H19.7989C19.2154 5.86589 18.6558 6.09767 18.2432 6.51025C17.8306 6.92283 17.5989 7.48241 17.5989 8.06589C17.5989 8.64936 17.8306 9.20894 18.2432 9.62152C18.6558 10.0341 19.2154 10.2659 19.7989 10.2659H21.9989C21.9989 10.6549 22.1534 11.0279 22.4284 11.303C22.7035 11.578 23.0765 11.7326 23.4655 11.7326H25.0671C25.2183 12.16 25.4978 12.5304 25.8674 12.7929C26.2371 13.0554 26.6788 13.1973 27.1322 13.1992H31.5322V17.5992C30.5601 17.6004 29.6281 17.9871 28.9408 18.6744C28.2534 19.3618 27.8667 20.2938 27.8655 21.2659V32.8078C26.6922 41.8286 24.7122 42.5326 24.1329 42.5326ZM24.9322 10.2659H23.4655V5.86589H24.9322V10.2659ZM21.9989 8.79922H19.7989C19.6044 8.79922 19.4178 8.72196 19.2803 8.58443C19.1428 8.44691 19.0655 8.26038 19.0655 8.06589C19.0655 7.8714 19.1428 7.68487 19.2803 7.54734C19.4178 7.40982 19.6044 7.33255 19.7989 7.33255H21.9989V8.79922ZM38.1322 21.2659V40.3326C38.1322 40.916 37.9004 41.4756 37.4878 41.8882C37.0753 42.3008 36.5157 42.5326 35.9322 42.5326H31.5322C30.9487 42.5326 30.3891 42.3008 29.9766 41.8882C29.564 41.4756 29.3322 40.916 29.3322 40.3326V21.2659C29.3322 20.6824 29.564 20.1228 29.9766 19.7103C30.3891 19.2977 30.9487 19.0659 31.5322 19.0659H35.9322C36.5157 19.0659 37.0753 19.2977 37.4878 19.7103C37.9004 20.1228 38.1322 20.6824 38.1322 21.2659ZM34.4655 17.5992H32.9989V13.1992H34.4655V17.5992Z" fill="#060C16"/>
<path d="M35.9323 30.0664C35.7378 30.0664 35.5513 30.1437 35.4137 30.2812C35.2762 30.4187 35.199 30.6052 35.199 30.7997V39.5997H32.999C32.8045 39.5997 32.6179 39.677 32.4804 39.8145C32.3429 39.9521 32.2656 40.1386 32.2656 40.3331C32.2656 40.5276 32.3429 40.7141 32.4804 40.8516C32.6179 40.9891 32.8045 41.0664 32.999 41.0664H35.199C35.5879 41.0664 35.961 40.9119 36.236 40.6368C36.5111 40.3618 36.6656 39.9887 36.6656 39.5997V30.7997C36.6656 30.6052 36.5884 30.4187 36.4508 30.2812C36.3133 30.1437 36.1268 30.0664 35.9323 30.0664Z" fill="#060C16"/>
<path d="M13.3987 2.96094C12.1018 2.97784 10.8271 3.2989 9.67692 3.8983C8.52678 4.49769 7.53339 5.35869 6.77667 6.412C5.98797 7.47844 5.46475 8.71748 5.25037 10.0264C5.036 11.3354 5.13663 12.6766 5.54394 13.9389C5.60831 14.1168 5.73889 14.2628 5.90841 14.3467C6.07794 14.4305 6.27329 14.4456 6.45369 14.3888C6.63408 14.332 6.78556 14.2078 6.87649 14.0419C6.96742 13.8761 6.99078 13.6816 6.94167 13.4989C6.60515 12.4563 6.52202 11.3484 6.69916 10.2672C6.8763 9.18594 7.30862 8.16252 7.96027 7.28174C8.58073 6.41439 9.39594 5.70462 10.3404 5.20945C11.2849 4.71428 12.3324 4.4475 13.3987 4.43054C13.5932 4.43054 13.7797 4.35328 13.9172 4.21575C14.0547 4.07822 14.132 3.8917 14.132 3.6972C14.132 3.50271 14.0547 3.31619 13.9172 3.17866C13.7797 3.04113 13.5932 2.96387 13.3987 2.96387V2.96094Z" fill="#060C16"/>
<path d="M35.1992 26.3993V27.866C35.1992 28.0605 35.2765 28.247 35.414 28.3846C35.5515 28.5221 35.7381 28.5993 35.9326 28.5993C36.127 28.5993 36.3136 28.5221 36.4511 28.3846C36.5886 28.247 36.6659 28.0605 36.6659 27.866V26.3993C36.6659 26.2049 36.5886 26.0183 36.4511 25.8808C36.3136 25.7433 36.127 25.666 35.9326 25.666C35.7381 25.666 35.5515 25.7433 35.414 25.8808C35.2765 26.0183 35.1992 26.2049 35.1992 26.3993Z" fill="#060C16"/>
</svg>
