<svg width="44" height="44" viewBox="0 0 44 44" fill="none" xmlns="http://www.w3.org/2000/svg">
<g clip-path="url(#clip0_10343_3466)">
<path d="M11.8548 17.0617C11.9773 17.0616 12.0978 17.0309 12.2053 16.9723C12.3128 16.9137 12.404 16.829 12.4704 16.7261C12.5368 16.6233 12.5764 16.5054 12.5856 16.3832C12.5948 16.2611 12.5732 16.1386 12.5229 16.027C12.1977 15.3437 11.9117 14.6425 11.6663 13.9267L11.3099 12.7754C10.9423 11.641 10.9001 10.4263 11.1883 9.26922C11.4765 8.11212 12.0834 7.05905 12.9401 6.22964C13.4962 5.66525 14.1581 5.21595 14.8879 4.90742C15.6177 4.59889 16.4011 4.43717 17.1935 4.43151C17.3879 4.43151 17.5745 4.35425 17.712 4.21672C17.8495 4.0792 17.9268 3.89267 17.9268 3.69818C17.9268 3.50368 17.8495 3.31716 17.712 3.17963C17.5745 3.04211 17.3879 2.96484 17.1935 2.96484C15.2072 2.97587 13.3066 3.7754 11.9098 5.18758C10.8597 6.20454 10.1158 7.49563 9.7627 8.91417C9.40959 10.3327 9.46138 11.8219 9.91219 13.2124L10.2686 14.3638C10.5306 15.1363 10.8375 15.8929 11.1875 16.6298C11.2454 16.7583 11.3392 16.8674 11.4575 16.944C11.5759 17.0206 11.7138 17.0615 11.8548 17.0617Z" fill="url(#paint0_linear_10343_3466)"/>
<path d="M2.93333 43.9998H41.0667C41.8446 43.9998 42.5907 43.6908 43.1408 43.1407C43.691 42.5905 44 41.8444 44 41.0665V32.6331C43.9905 31.558 43.5559 30.5303 42.7911 29.7745C42.0263 29.0188 40.9935 28.5965 39.9183 28.5998C39.2463 28.586 38.6065 28.3096 38.1358 27.8299C37.6651 27.3502 37.401 26.7052 37.4 26.0331V25.2998C37.3983 24.2879 37.0167 23.3136 36.3307 22.5697C35.6447 21.8259 34.7044 21.3668 33.6959 21.2833C33.7891 21.0956 33.8851 20.9167 33.9783 20.77C34.3735 20.1195 34.7849 19.3341 34.9954 18.9132C35.5464 19.0167 36.106 19.068 36.6667 19.0665C40.8613 19.0665 43.2667 16.5541 43.2667 12.1731C43.2667 5.76014 37.4066 0.412674 37.1573 0.188274C37.0226 0.0670675 36.8478 0 36.6667 0C36.4855 0 36.3107 0.0670675 36.1761 0.188274C35.3218 0.991825 34.5332 1.86238 33.8177 2.79161C32.4652 1.53724 30.8016 0.667748 28.9996 0.273407C27.1976 -0.120933 25.3229 -0.0257504 23.5701 0.549074L23.5444 0.557874L23.5209 0.565208C22.5342 0.89742 21.4658 0.89742 20.4791 0.565208L20.46 0.558608L20.4299 0.549074C18.6028 -0.0579061 16.642 -0.140399 14.7703 0.310964C12.8986 0.762327 11.191 1.72946 9.84133 3.10254C8.41802 4.50489 7.41 6.27333 6.92858 8.21257C6.44717 10.1518 6.51111 12.1864 7.11333 14.0915L7.46607 15.2319C7.76301 16.1197 8.1127 16.989 8.51327 17.8352C8.63353 18.1029 8.75233 18.3654 8.87993 18.658C8.9034 18.7071 9.47907 19.8702 10.0269 20.77C10.1193 20.9211 10.2153 21.0963 10.3085 21.2833C9.29894 21.3649 8.35705 21.8233 7.66998 22.5675C6.98291 23.3116 6.60094 24.287 6.6 25.2998V26.0331C6.58784 26.7228 6.30347 27.3797 5.80891 27.8605C5.31435 28.3413 4.64973 28.6071 3.96 28.5998C2.90342 28.6202 1.89692 29.0539 1.15655 29.808C0.416182 30.5621 0.000955747 31.5764 0 32.6331L0 41.0665C0 41.8444 0.309047 42.5905 0.859154 43.1407C1.40926 43.6908 2.15536 43.9998 2.93333 43.9998ZM36.6667 1.75981C38.0365 3.16194 41.8 7.44387 41.8 12.1731C41.8 16.6582 39.0082 17.5998 36.6667 17.5998C34.3251 17.5998 31.5333 16.6582 31.5333 12.1731C31.5333 7.44314 35.2968 3.16121 36.6667 1.75981ZM9.84647 17.2331C9.47094 16.4401 9.14233 15.6257 8.86233 14.7941L8.50667 13.6545C7.98608 12.0053 7.93166 10.2443 8.34942 8.56612C8.76718 6.88795 9.64086 5.35798 10.8739 4.14534C12.0317 2.96424 13.4976 2.13151 15.105 1.74171C16.7124 1.35192 18.3969 1.42069 19.9672 1.94021C19.9838 1.94645 20.0007 1.95184 20.0178 1.95634C21.3058 2.38908 22.7 2.38908 23.9881 1.95634L24.0284 1.94387C25.5601 1.44305 27.1993 1.36833 28.7702 1.72771C30.3412 2.08709 31.7848 2.86703 32.9465 3.98401C31.4791 6.13854 30.0667 9.02494 30.0667 12.1731C30.0667 15.3213 31.3133 17.4979 33.5705 18.4798C33.3579 18.8919 33.0337 19.5013 32.7272 20.0051C32.1437 20.8792 31.8137 21.8978 31.7739 22.948C31.7753 29.6624 30.58 39.5998 28.0207 39.5998C25.8991 39.5998 24.9333 35.6537 24.9333 31.9878V28.5118C24.9333 27.2739 24.3203 24.9331 22 24.9331C19.6797 24.9331 19.0667 27.2739 19.0667 28.5118V31.9878C19.0667 35.6545 18.1009 39.5998 15.9793 39.5998C13.4178 39.5998 12.2247 29.6624 12.2247 22.9458C12.1843 21.8964 11.8543 20.8786 11.2713 20.0051C10.7639 19.1721 10.2036 18.042 10.2021 18.042C10.0914 17.7765 9.97333 17.5074 9.84647 17.2331ZM1.46667 32.6331C1.46655 31.9607 1.73031 31.3151 2.20123 30.8351C2.67216 30.3552 3.31263 30.0792 3.98493 30.0665C5.06013 30.0698 6.09295 29.6475 6.85775 28.8917C7.62256 28.136 8.05718 27.1083 8.06667 26.0331V25.2998C8.06667 24.6191 8.33708 23.9662 8.81843 23.4849C9.29977 23.0036 9.95261 22.7331 10.6333 22.7331H10.7338C10.7397 22.8065 10.758 22.8747 10.758 22.9458C10.758 24.8004 10.9047 41.0665 15.9793 41.0665C19.3409 41.0665 20.5333 36.1759 20.5333 31.9878V28.5125C20.5333 28.2925 20.5832 26.3998 22 26.3998C23.4168 26.3998 23.4667 28.2962 23.4667 28.5118V31.9878C23.4667 36.1759 24.6591 41.0665 28.0207 41.0665C33.0953 41.0665 33.242 24.8004 33.242 22.9458C33.242 22.8725 33.2603 22.8043 33.2662 22.7331H33.3667C34.0474 22.7331 34.7002 23.0036 35.1816 23.4849C35.6629 23.9662 35.9333 24.6191 35.9333 25.2998V26.0331C35.9343 27.0899 36.3495 28.1042 37.0899 28.8583C37.8303 29.6124 38.8368 30.0461 39.8933 30.0665C40.5831 30.0592 41.2477 30.325 41.7422 30.8058C42.2368 31.2866 42.5212 31.9435 42.5333 32.6331V41.0665C42.5333 41.4555 42.3788 41.8285 42.1038 42.1036C41.8287 42.3786 41.4557 42.5331 41.0667 42.5331H2.93333C2.54435 42.5331 2.1713 42.3786 1.89624 42.1036C1.62119 41.8285 1.46667 41.4555 1.46667 41.0665V32.6331Z" fill="url(#paint1_linear_10343_3466)"/>
<path d="M36.6667 16.1328C36.8612 16.1328 37.0477 16.0555 37.1852 15.918C37.3227 15.7805 37.4 15.5939 37.4 15.3995C37.4 15.205 37.3227 15.0184 37.1852 14.8809C37.0477 14.7434 36.8612 14.6661 36.6667 14.6661C35.2983 14.6661 34.4667 14.4982 34.4667 12.1728C34.4667 11.9783 34.3894 11.7918 34.2519 11.6542C34.1144 11.5167 33.9278 11.4395 33.7333 11.4395C33.5388 11.4395 33.3523 11.5167 33.2148 11.6542C33.0773 11.7918 33 11.9783 33 12.1728C33 15.6825 34.9595 16.1328 36.6667 16.1328Z" fill="url(#paint2_linear_10343_3466)"/>
</g>
<defs>
<linearGradient id="paint0_linear_10343_3466" x1="9.53125" y1="10.0133" x2="17.9268" y2="10.0133" gradientUnits="userSpaceOnUse">
<stop stop-color="#0452FF"/>
<stop offset="1" stop-color="#4E8FFF"/>
</linearGradient>
<linearGradient id="paint1_linear_10343_3466" x1="0" y1="21.9999" x2="44" y2="21.9999" gradientUnits="userSpaceOnUse">
<stop stop-color="#0452FF"/>
<stop offset="1" stop-color="#4E8FFF"/>
</linearGradient>
<linearGradient id="paint2_linear_10343_3466" x1="33" y1="13.7861" x2="37.4" y2="13.7861" gradientUnits="userSpaceOnUse">
<stop stop-color="#0452FF"/>
<stop offset="1" stop-color="#4E8FFF"/>
</linearGradient>
<clipPath id="clip0_10343_3466">
<rect width="44" height="44" fill="white"/>
</clipPath>
</defs>
</svg>
