<svg width="220" height="220" viewBox="0 0 220 220" fill="none" xmlns="http://www.w3.org/2000/svg">
<g clip-path="url(#clip0_10344_3305)">
<path d="M37.8388 67.647C36.6732 64.1203 36.3752 60.3645 36.9701 56.6981C37.565 53.0317 39.0352 49.5629 41.2562 46.5857C43.4133 43.566 46.2497 41.0952 49.5366 39.3725C52.8235 37.6497 56.4692 36.7231 60.1798 36.6673C61.1523 36.6673 62.0849 36.281 62.7726 35.5934C63.4602 34.9057 63.8465 33.9731 63.8465 33.0007C63.8465 32.0282 63.4602 31.0956 62.7726 30.4079C62.0849 29.7203 61.1523 29.334 60.1798 29.334C55.3152 29.39 50.532 30.589 46.2161 32.8342C41.9003 35.0793 38.1728 38.3078 35.3345 42.259C32.4215 46.1626 30.4931 50.7113 29.7131 55.5191C28.9331 60.3269 29.3244 65.252 30.8538 69.8763C30.9935 70.343 31.2248 70.7771 31.5341 71.1534C31.8434 71.5296 32.2246 71.8405 32.6554 72.0678C33.0862 72.2951 33.558 72.4343 34.0432 72.4773C34.5284 72.5202 35.0173 72.4661 35.4814 72.318C35.9454 72.1699 36.3753 71.9308 36.7459 71.6147C37.1165 71.2986 37.4204 70.9118 37.6399 70.477C37.8594 70.0421 37.99 69.5679 38.0242 69.082C38.0583 68.5961 37.9953 68.1083 37.8388 67.647Z" fill="#060C16" fill-opacity="0.2"/>
<path d="M194.333 106.335H186.817C186.333 101.365 184.836 96.5462 182.417 92.1771C179.999 87.8081 176.711 83.9812 172.755 80.9327C168.8 77.8842 164.262 75.6789 159.421 74.4528C154.58 73.2267 149.539 73.006 144.61 73.8042C147.044 65.8585 147.258 57.3983 145.229 49.3396C143.201 41.2809 139.006 33.9306 133.1 28.0845C127.229 22.0966 119.795 17.8776 111.644 15.9082C103.493 13.9388 94.9523 14.2981 86.9953 16.9452C82.8201 18.2915 78.324 18.2696 74.162 16.8828C66.2248 14.2691 57.7137 13.9332 49.5952 15.9133C41.4767 17.8933 34.0759 22.11 28.2333 28.0845C22.2642 33.9893 18.0435 41.4292 16.0376 49.5823C14.0317 57.7353 14.3186 66.2843 16.8667 74.2845L18.3663 79.0512C21.1407 88.2827 25.0395 97.1381 29.975 105.418C30.173 105.734 30.316 106.038 30.492 106.35H25.6667C18.8618 106.357 12.3379 109.064 7.52617 113.876C2.71442 118.687 0.00776366 125.211 0 132.016L0 194.335C0.00776366 201.14 2.71442 207.664 7.52617 212.475C12.3379 217.287 18.8618 219.994 25.6667 220.002H194.333C201.138 219.994 207.662 217.287 212.474 212.475C217.286 207.664 219.992 201.14 220 194.335V132.002C219.992 125.197 217.286 118.673 212.474 113.861C207.662 109.049 201.138 106.343 194.333 106.335ZM25.3513 76.8145L23.848 72.0479C21.6588 65.338 21.3936 58.149 23.0825 51.296C24.7714 44.4431 28.3469 38.2006 33.4033 33.2765C38.3241 28.2473 44.5599 24.7031 51.3987 23.0485C58.2375 21.3939 65.4038 21.6956 72.0793 23.9192C77.7139 25.7541 83.7881 25.7361 89.4117 23.8678C96.0699 21.6804 103.208 21.4024 110.016 23.0654C116.824 24.7284 123.03 28.2658 127.93 33.2765C132.992 38.2003 136.572 44.4447 138.263 51.3006C139.955 58.1565 139.69 65.3493 137.5 72.0625L136.004 76.7889C133.414 85.4511 129.766 93.7612 125.143 101.532C122.615 105.279 121.181 109.657 121 114.174C121 148.102 115.5 183.196 106.333 183.196C98.384 183.196 91.6667 168.896 91.6667 151.97V137.432C91.6667 134.055 91.135 117.196 80.6667 117.196C70.1983 117.196 69.6667 134.062 69.6667 137.432V151.97C69.6667 168.896 62.9493 183.196 55 183.196C45.8333 183.196 40.3333 148.102 40.3333 114.174C40.1538 109.671 38.7256 105.306 36.2083 101.568C31.5883 93.7933 27.9419 85.4796 25.3513 76.8145ZM212.667 194.335C212.661 199.195 210.727 203.855 207.291 207.292C203.854 210.729 199.194 212.662 194.333 212.668H25.6667C20.8062 212.662 16.1464 210.729 12.7095 207.292C9.27257 203.855 7.33916 199.195 7.33333 194.335V132.002C7.33916 127.141 9.27257 122.481 12.7095 119.044C16.1464 115.607 20.8062 113.674 25.6667 113.668H32.9523C32.9523 113.833 33 114.013 33 114.174C33 137.131 35.1413 190.529 55 190.529C69.3 190.529 77 170.663 77 151.97V137.436C77 131.041 78.8627 124.529 80.6667 124.529C82.4707 124.529 84.3333 131.041 84.3333 137.432V151.97C84.3333 170.67 92.0333 190.529 106.333 190.529C126.192 190.529 128.333 137.131 128.333 114.174C128.536 111.029 129.583 107.996 131.366 105.396C135.803 97.9969 139.378 90.1135 142.021 81.9002C144.717 81.0856 147.517 80.6705 150.333 80.6682C158.11 80.6769 165.566 83.7702 171.065 89.2694C176.565 94.7686 179.658 102.225 179.667 110.002C179.667 110.974 180.053 111.907 180.741 112.594C181.428 113.282 182.361 113.668 183.333 113.668H194.333C199.194 113.674 203.854 115.607 207.291 119.044C210.727 122.481 212.661 127.141 212.667 132.002V194.335Z" fill="#060C16" fill-opacity="0.2"/>
<path d="M150.333 88C149.36 88 148.428 88.3863 147.74 89.0739C147.052 89.7616 146.666 90.6942 146.666 91.6667C146.666 92.6391 147.052 93.5718 147.74 94.2594C148.428 94.947 149.36 95.3333 150.333 95.3333C154.223 95.3333 157.953 96.8786 160.704 99.6291C163.454 102.38 164.999 106.11 164.999 110C164.999 110.972 165.386 111.905 166.073 112.593C166.761 113.28 167.694 113.667 168.666 113.667C169.638 113.667 170.571 113.28 171.259 112.593C171.946 111.905 172.333 110.972 172.333 110C172.327 104.167 170.007 98.5746 165.883 94.4501C161.758 90.3255 156.166 88.0058 150.333 88Z" fill="#060C16" fill-opacity="0.2"/>
<path d="M198.001 91.666C197.028 91.666 196.096 92.0523 195.408 92.74C194.72 93.4276 194.334 94.3602 194.334 95.3327C194.334 96.3051 194.72 97.2378 195.408 97.9254C196.096 98.613 197.028 98.9993 198.001 98.9993H209.001C209.973 98.9993 210.906 98.613 211.593 97.9254C212.281 97.2378 212.667 96.3051 212.667 95.3327C212.667 94.3602 212.281 93.4276 211.593 92.74C210.906 92.0523 209.973 91.666 209.001 91.666H198.001Z" fill="#060C16" fill-opacity="0.2"/>
<path d="M183.333 78.564C183.913 78.5646 184.484 78.4281 185 78.1655C185.516 77.9029 185.963 77.5218 186.303 77.0533L192.771 68.158C193.069 67.7696 193.285 67.3257 193.408 66.8525C193.531 66.3792 193.558 65.8861 193.487 65.4023C193.417 64.9184 193.251 64.4535 192.998 64.0349C192.745 63.6164 192.411 63.2526 192.016 62.965C191.62 62.6774 191.171 62.4718 190.695 62.3603C190.219 62.2488 189.726 62.2336 189.243 62.3157C188.761 62.3978 188.301 62.5755 187.888 62.8383C187.476 63.1011 187.12 63.4437 186.842 63.846L180.371 72.7413C179.973 73.2881 179.735 73.9342 179.681 74.6081C179.628 75.282 179.762 75.9576 180.069 76.5601C180.375 77.1626 180.842 77.6687 181.419 78.0223C181.995 78.3759 182.657 78.5634 183.333 78.564Z" fill="#060C16" fill-opacity="0.2"/>
<path d="M158.824 50.7702L156.14 61.4365C156.023 61.9036 155.998 62.3892 156.068 62.8658C156.139 63.3423 156.302 63.8003 156.549 64.2137C156.796 64.627 157.123 64.9876 157.509 65.2749C157.896 65.5622 158.335 65.7704 158.802 65.8878C159.096 65.9603 159.398 65.9972 159.701 65.9978C160.516 65.9964 161.308 65.723 161.951 65.221C162.594 64.7189 163.051 64.0168 163.25 63.2258L165.934 52.5595C166.064 52.0885 166.099 51.5963 166.036 51.1117C165.973 50.6271 165.814 50.1599 165.568 49.7376C165.323 49.3154 164.995 48.9465 164.604 48.6527C164.214 48.3589 163.769 48.1462 163.295 48.0269C162.821 47.9076 162.328 47.8843 161.845 47.9582C161.362 48.0322 160.899 48.2019 160.482 48.4575C160.066 48.7131 159.704 49.0493 159.42 49.4465C159.135 49.8436 158.933 50.2937 158.824 50.7702Z" fill="#060C16" fill-opacity="0.2"/>
</g>
<defs>
<clipPath id="clip0_10344_3305">
<rect width="220" height="220" fill="white"/>
</clipPath>
</defs>
</svg>
