<svg width="44" height="44" viewBox="0 0 44 44" fill="none" xmlns="http://www.w3.org/2000/svg">
<path d="M31.6633 4.242C29.2336 2.35962 26.0161 2.25237 23.4683 3.978C23.0076 4.29012 22.5456 4.6215 22.0781 4.95562L21.9998 5.012C21.9571 4.98175 21.9131 4.9515 21.8719 4.92125C21.4209 4.5995 20.9754 4.27912 20.5299 3.978C17.9806 2.25375 14.7631 2.35825 12.3349 4.242C9.92314 6.112 9.02664 9.1755 10.0524 12.0451C10.0524 12.0451 14.8539 25.4885 14.858 25.5023C15.3035 26.7507 16.541 27.5771 17.8665 27.4946C19.2333 27.4135 20.3154 26.4991 20.6234 25.1626L21.9998 19.1594L23.3775 25.1654C23.6828 26.4977 24.7649 27.4107 26.133 27.4905C27.4956 27.5799 28.6823 26.7906 29.1415 25.5023L33.9471 12.0451C34.9729 9.1755 34.0764 6.112 31.6633 4.242ZM32.6533 11.5831L27.8476 25.0402C27.5451 25.8872 26.7875 26.1375 26.2141 26.1182C25.6215 26.0839 24.9203 25.7346 24.7181 24.8587L23.1176 17.8792C22.998 17.3554 22.5388 16.9896 22.0011 16.9896C21.4635 16.9896 21.0029 17.3554 20.8833 17.8792L19.2841 24.8546C19.082 25.7374 18.378 26.0866 17.7868 26.1224C17.1776 26.1402 16.4571 25.89 16.1533 25.0402L11.3463 11.5831C10.3494 8.79187 11.6391 6.52175 13.1778 5.32825C15.0918 3.84325 17.7565 3.76075 19.7599 5.1165C22.3174 6.84625 24.8103 9.0545 28.0333 9.28825C28.9146 9.35287 29.0205 7.982 28.1323 7.916C26.3393 7.78675 24.7291 6.893 23.1905 5.84937C23.5411 5.59775 23.8904 5.35162 24.2383 5.1165C26.2856 3.73187 28.8679 3.8185 30.8204 5.32825C32.3604 6.52175 33.6501 8.79187 32.6533 11.5831Z" fill="#060C16"/>
<path d="M13.2463 7.06618C12.9149 6.88055 12.4983 6.9933 12.3085 7.32605C11.6142 8.5553 11.4877 10.0252 11.9648 11.3617C12.0638 11.6422 12.3305 11.8182 12.6124 11.8182C12.6894 11.8182 12.7664 11.8058 12.8434 11.7783C13.2009 11.6504 13.3879 11.2572 13.26 10.8997C12.919 9.93993 13.007 8.88393 13.5062 8.00255C13.6932 7.67255 13.5763 7.25318 13.2463 7.06618Z" fill="#060C16"/>
<path d="M14.447 5.30461C14.2037 5.42699 13.974 5.56449 13.7582 5.71849C13.4488 5.93849 13.3773 6.36886 13.5973 6.67686C13.732 6.86524 13.9424 6.96561 14.1569 6.96561C14.2958 6.96561 14.4347 6.92436 14.5557 6.83774C14.7124 6.72499 14.8802 6.62461 15.0589 6.53661C15.3985 6.36749 15.5374 5.95361 15.3697 5.61399C15.2005 5.27436 14.7839 5.13961 14.447 5.30461Z" fill="#060C16"/>
<path d="M6.97538 41.25C6.96575 41.25 6.85575 41.2486 6.8475 41.2486C4.554 41.184 2.75 39.3291 2.75 37.0246V27.6004C2.75 25.2711 4.66125 23.375 7.00975 23.375C10.1365 23.375 12.0725 25.9256 13.2564 28.5244C13.7747 29.6601 14.1721 30.8413 14.5915 32.0155C15.103 33.4469 16.4161 34.375 17.9355 34.375H26.0645C27.5825 34.375 28.897 33.4469 29.4099 32.0114C30.3146 29.4071 31.2675 26.4413 33.4813 24.6331C34.4781 23.8191 35.7019 23.375 36.9902 23.375C39.3387 23.375 41.25 25.2711 41.25 27.6004V37.0246C41.25 39.3291 39.446 41.184 37.1442 41.2486L6.97538 41.25ZM7.00975 24.75C5.44638 24.75 4.125 26.0549 4.125 27.6004V37.0246C4.125 38.5784 5.34188 39.831 6.89425 39.8736L6.97675 40.5625V39.875H37.026C38.6581 39.831 39.875 38.5784 39.875 37.0246V27.6004C39.875 26.0549 38.5536 24.75 36.9902 24.75C33.858 24.75 32.3029 28.149 31.3582 30.6405C31.1286 31.2455 30.9182 31.8574 30.7038 32.4693C29.9929 34.463 28.171 35.75 26.0645 35.75H17.9355C15.829 35.75 14.0071 34.463 13.2963 32.4734C12.4039 29.9365 11.4373 26.5485 8.86188 25.2024C8.28988 24.904 7.65462 24.75 7.00975 24.75Z" fill="#060C16"/>
<path d="M39.1873 21.9999H36.4373C36.0578 21.9999 35.7498 21.6919 35.7498 21.3124V16.4999H35.0623C34.8079 16.4999 34.5755 16.3597 34.4573 16.1369C34.3363 15.9128 34.35 15.6419 34.4903 15.4302L37.2403 11.3052C37.496 10.9243 38.1285 10.9243 38.3843 11.3052L41.1343 15.4302C41.2759 15.6406 41.2883 15.9128 41.1673 16.1369C41.049 16.3597 40.8166 16.4999 40.5623 16.4999H39.8748V21.3124C39.8748 21.6919 39.5668 21.9999 39.1873 21.9999ZM37.1248 20.6249H38.4998V15.8124C38.4998 15.4329 38.8078 15.1249 39.1873 15.1249H39.2766L37.8123 12.9263L36.3479 15.1249H36.4373C36.8168 15.1249 37.1248 15.4329 37.1248 15.8124V20.6249Z" fill="#060C16"/>
<path d="M7.56225 21.9999H4.81225C4.43275 21.9999 4.12475 21.6919 4.12475 21.3124V16.4999H3.43725C3.18288 16.4999 2.9505 16.3597 2.83225 16.1369C2.71125 15.9128 2.725 15.6419 2.86525 15.4302L5.61525 11.3052C5.871 10.9243 6.5035 10.9243 6.75925 11.3052L9.50925 15.4302C9.65088 15.6406 9.66325 15.9128 9.54225 16.1369C9.424 16.3597 9.19163 16.4999 8.93725 16.4999H8.24975V21.3124C8.24975 21.6919 7.94175 21.9999 7.56225 21.9999ZM5.49975 20.6249H6.87475V15.8124C6.87475 15.4329 7.18275 15.1249 7.56225 15.1249H7.65163L6.18725 12.9263L4.72288 15.1249H4.81225C5.19175 15.1249 5.49975 15.4329 5.49975 15.8124V20.6249Z" fill="#060C16"/>
</svg>
