<svg width="220" height="220" viewBox="0 0 220 220" fill="none" xmlns="http://www.w3.org/2000/svg">
<g opacity="0.2" clip-path="url(#clip0_10344_3301)">
<path d="M59.2642 85.3085C59.8765 85.3082 60.4791 85.1544 61.0167 84.8613C61.5544 84.5683 62.0101 84.1452 62.3423 83.6307C62.6744 83.1163 62.8724 82.5268 62.9182 81.9162C62.9641 81.3055 62.8562 80.6931 62.6045 80.1349C60.9788 76.7185 59.549 73.2124 58.3218 69.6335L56.5398 63.8769C54.7015 58.2052 54.4908 52.1316 55.9317 46.3461C57.3725 40.5606 60.4072 35.2953 64.6908 31.1482C67.4714 28.3262 70.7807 26.0798 74.4297 24.5371C78.0787 22.9945 81.9959 22.1859 85.9575 22.1576C86.93 22.1576 87.8626 21.7712 88.5502 21.0836C89.2379 20.396 89.6242 19.4633 89.6242 18.4909C89.6242 17.5184 89.2379 16.5858 88.5502 15.8982C87.8626 15.2105 86.93 14.8242 85.9575 14.8242C76.0262 14.8794 66.5234 18.877 59.5392 25.9379C54.2886 31.0227 50.5693 37.4781 48.8037 44.5709C47.0382 51.6636 47.2971 59.1093 49.5512 66.0622L51.3332 71.8189C52.6435 75.6815 54.1775 79.4646 55.9275 83.1489C56.2172 83.7915 56.6861 84.337 57.2778 84.72C57.8696 85.1031 58.5593 85.3074 59.2642 85.3085Z" fill="#060C16"/>
<path d="M14.6667 219.999H205.333C209.223 219.999 212.954 218.454 215.704 215.703C218.455 212.953 220 209.222 220 205.332V163.166C219.953 157.79 217.779 152.651 213.955 148.873C210.131 145.094 204.967 142.982 199.591 142.999C196.232 142.93 193.033 141.548 190.679 139.15C188.326 136.751 187.005 133.526 187 130.166V126.499C186.992 121.44 185.083 116.568 181.653 112.849C178.223 109.13 173.522 106.834 168.48 106.417C168.945 105.478 169.426 104.583 169.891 103.85C171.868 100.598 173.925 96.6707 174.977 94.566C177.732 95.0834 180.53 95.34 183.333 95.3324C204.307 95.3324 216.333 82.7704 216.333 60.8657C216.333 28.8007 187.033 2.06337 185.786 0.941371C185.113 0.335338 184.239 0 183.333 0C182.427 0 181.554 0.335338 180.88 0.941371C176.609 4.95913 172.666 9.31188 169.088 13.958C162.326 7.68618 154.008 3.33874 144.998 1.36704C135.988 -0.604666 126.614 -0.128752 117.85 2.74537L117.722 2.78937L117.605 2.82604C112.671 4.4871 107.329 4.4871 102.395 2.82604L102.3 2.79304L102.15 2.74537C93.0138 -0.289531 83.2101 -0.701993 73.8516 1.55482C64.4932 3.81164 55.955 8.6473 49.2067 15.5127C42.0901 22.5244 37.05 31.3667 34.6429 41.0628C32.2359 50.759 32.5555 60.9318 35.5667 70.4577L37.3303 76.1594C38.815 80.5986 40.5635 84.9452 42.5663 89.176C43.1677 90.5144 43.7617 91.827 44.3997 93.29C44.517 93.5357 47.3953 99.351 50.1343 103.85C50.5963 104.605 51.0767 105.482 51.5423 106.417C46.4947 106.825 41.7852 109.117 38.3499 112.837C34.9145 116.558 33.0047 121.435 33 126.499V130.166C32.9392 133.614 31.5174 136.898 29.0446 139.303C26.5718 141.707 23.2486 143.035 19.8 142.999C14.5171 143.101 9.4846 145.27 5.78275 149.04C2.08091 152.81 0.00477874 157.882 0 163.166L0 205.332C0 209.222 1.54523 212.953 4.29577 215.703C7.0463 218.454 10.7768 219.999 14.6667 219.999ZM183.333 8.79904C190.183 15.8097 209 37.2194 209 60.8657C209 83.291 195.041 87.999 183.333 87.999C171.626 87.999 157.667 83.291 157.667 60.8657C157.667 37.2157 176.484 15.806 183.333 8.79904ZM49.2323 86.1657C47.3547 82.2005 45.7116 78.1283 44.3117 73.9704L42.5333 68.2724C39.9304 60.0265 39.6583 51.2215 41.7471 42.8306C43.8359 34.4397 48.2043 26.7899 54.3693 20.7267C60.1587 14.8212 67.4881 10.6575 75.5251 8.70857C83.5621 6.7596 91.9846 7.10344 99.836 9.70104C99.9189 9.73227 100.003 9.7592 100.089 9.7817C106.529 11.9454 113.5 11.9454 119.94 9.7817L120.142 9.71937C127.801 7.21527 135.996 6.84165 143.851 8.63855C151.706 10.4354 158.924 14.3352 164.732 19.92C157.395 30.6927 150.333 45.1247 150.333 60.8657C150.333 76.6067 156.567 87.4894 167.853 92.399C166.789 94.4597 165.169 97.5067 163.636 100.026C160.718 104.396 159.068 109.489 158.869 114.74C158.877 148.312 152.9 197.999 140.103 197.999C129.496 197.999 124.667 178.269 124.667 159.939V142.559C124.667 136.37 121.601 124.666 110 124.666C98.3987 124.666 95.3333 136.37 95.3333 142.559V159.939C95.3333 178.272 90.5043 197.999 79.8967 197.999C67.089 197.999 61.1233 148.312 61.1233 114.729C60.9214 109.482 59.2717 104.393 56.3567 100.026C53.8193 95.8604 51.018 90.21 51.0107 90.21C50.457 88.8827 49.8667 87.537 49.2323 86.1657ZM7.33333 163.166C7.33274 159.804 8.65155 156.576 11.0062 154.176C13.3608 151.776 16.5632 150.396 19.9247 150.332C25.3007 150.349 30.4647 148.237 34.2888 144.459C38.1128 140.68 40.2859 135.542 40.3333 130.166V126.499C40.3333 123.095 41.6854 119.831 44.0921 117.425C46.4988 115.018 49.7631 113.666 53.1667 113.666H53.669C53.6983 114.032 53.79 114.373 53.79 114.729C53.79 124.002 54.5233 205.332 79.8967 205.332C96.7047 205.332 102.667 180.879 102.667 159.939V142.563C102.667 141.463 102.916 131.999 110 131.999C117.084 131.999 117.333 141.481 117.333 142.559V159.939C117.333 180.879 123.295 205.332 140.103 205.332C165.477 205.332 166.21 124.002 166.21 114.729C166.21 114.362 166.302 114.021 166.331 113.666H166.833C170.237 113.666 173.501 115.018 175.908 117.425C178.315 119.831 179.667 123.095 179.667 126.499V130.166C179.671 135.45 181.748 140.521 185.449 144.291C189.151 148.062 194.184 150.231 199.467 150.332C202.915 150.296 206.238 151.625 208.711 154.029C211.184 156.433 212.606 159.717 212.667 163.166V205.332C212.667 207.277 211.894 209.143 210.519 210.518C209.144 211.893 207.278 212.666 205.333 212.666H14.6667C12.7217 212.666 10.8565 211.893 9.48122 210.518C8.10595 209.143 7.33333 207.277 7.33333 205.332V163.166Z" fill="#060C16"/>
<path d="M183.333 80.6659C184.306 80.6659 185.238 80.2796 185.926 79.5919C186.614 78.9043 187 77.9717 187 76.9992C187 76.0268 186.614 75.0941 185.926 74.4065C185.238 73.7189 184.306 73.3326 183.333 73.3326C176.491 73.3326 172.333 72.4929 172.333 60.8659C172.333 59.8934 171.947 58.9608 171.259 58.2732C170.572 57.5855 169.639 57.1992 168.667 57.1992C167.694 57.1992 166.762 57.5855 166.074 58.2732C165.386 58.9608 165 59.8934 165 60.8659C165 78.4146 174.797 80.6659 183.333 80.6659Z" fill="#060C16"/>
</g>
<defs>
<clipPath id="clip0_10344_3301">
<rect width="220" height="220" fill="white"/>
</clipPath>
</defs>
</svg>
