<svg width="220" height="220" viewBox="0 0 220 220" fill="none" xmlns="http://www.w3.org/2000/svg">
<g opacity="0.2" clip-path="url(#clip0_276_3436)">
<path d="M199.591 157.399C196.232 157.33 193.034 155.949 190.68 153.551C188.327 151.153 187.006 147.929 187 144.57V140.903C186.993 135.557 184.866 130.431 181.086 126.65C177.305 122.87 172.18 120.743 166.833 120.736H160.343C160.475 120.509 160.574 120.289 160.71 120.062C165.635 111.78 169.528 102.926 172.3 93.6983L173.804 88.9683C177.41 77.638 176.464 65.3486 171.165 54.7042C165.866 44.0597 156.631 35.8965 145.416 31.9443C144.323 31.557 143.154 31.4378 142.005 31.5966C140.857 31.7555 139.763 32.1879 138.816 32.8573C137.848 33.5344 137.057 34.434 136.509 35.4804C135.961 36.5268 135.672 37.6894 135.667 38.8706V58.6706C135.667 62.5605 134.121 66.291 131.371 69.0415C128.62 71.792 124.89 73.3373 121 73.3373H99C95.1102 73.3373 91.3796 71.792 88.6291 69.0415C85.8786 66.291 84.3333 62.5605 84.3333 58.6706V38.8706C84.3322 37.6885 84.0472 36.524 83.5023 35.475C82.9574 34.426 82.1685 33.5232 81.202 32.8426C80.2553 32.1732 79.1618 31.7409 78.0132 31.582C76.8647 31.4231 75.6949 31.5423 74.602 31.9296C63.3804 35.8774 54.1382 44.0415 48.8357 54.6901C43.5333 65.3387 42.5879 77.6342 46.2 88.9683L47.707 93.7093C50.4805 102.937 54.3729 111.791 59.2973 120.073C59.4367 120.296 59.5357 120.513 59.664 120.736H53.1667C47.8202 120.743 42.6947 122.87 38.9142 126.65C35.1337 130.431 33.0068 135.557 33 140.903V144.57C32.9402 148.018 31.5186 151.303 29.0456 153.707C26.5726 156.112 23.2489 157.44 19.8 157.403C14.5174 157.506 9.48545 159.675 5.7838 163.445C2.08215 167.215 0.00571869 172.286 0 177.57L0 205.205C0 209.095 1.54523 212.826 4.29577 215.576C7.0463 218.327 10.7768 219.872 14.6667 219.872H205.333C209.223 219.872 212.954 218.327 215.704 215.576C218.455 212.826 220 209.095 220 205.205V177.57C219.956 172.192 217.785 167.051 213.96 163.271C210.135 159.491 204.969 157.38 199.591 157.399ZM54.681 91.4763L53.1777 86.7463C50.145 77.2351 50.9362 66.9168 55.3835 57.9792C59.8307 49.0416 67.5843 42.1876 77 38.8706V58.6706C77.0058 64.5036 79.3255 70.096 83.4501 74.2205C87.5746 78.3451 93.167 80.6648 99 80.6706H121C126.833 80.6648 132.425 78.3451 136.55 74.2205C140.674 70.096 142.994 64.5036 143 58.6706L142.945 38.8486C152.372 42.161 160.138 49.0143 164.597 57.9557C169.057 66.8971 169.859 77.2236 166.833 86.7463L165.334 91.4653C162.74 100.125 159.098 108.436 154.488 116.212C151.955 119.957 150.517 124.333 150.333 128.851C150.333 162.771 144.833 197.857 135.667 197.857C127.717 197.857 121 183.557 121 166.654V152.097C121 148.72 120.468 131.857 110 131.857C99.5317 131.857 99 148.724 99 152.097V166.654C99 183.565 92.2827 197.857 84.3333 197.857C75.1667 197.857 69.6667 162.771 69.6667 128.851C69.4851 124.343 68.0516 119.976 65.527 116.237C60.9168 108.456 57.2745 100.141 54.681 91.4763ZM212.667 205.205C212.667 207.15 211.894 209.015 210.519 210.391C209.144 211.766 207.278 212.539 205.333 212.539H14.6667C12.7217 212.539 10.8565 211.766 9.48122 210.391C8.10595 209.015 7.33333 207.15 7.33333 205.205V177.57C7.34025 174.21 8.6615 170.986 11.0145 168.588C13.3676 166.19 16.5656 164.807 19.9247 164.736C25.3012 164.755 30.4664 162.644 34.2909 158.865C38.1153 155.086 40.2878 149.946 40.3333 144.57V140.903C40.3333 137.499 41.6854 134.235 44.0921 131.828C46.4988 129.422 49.7631 128.07 53.1667 128.07H62.2563C62.2783 128.326 62.3333 128.601 62.3333 128.851C62.3333 151.8 64.4783 205.191 84.3333 205.191C98.6333 205.191 106.333 185.336 106.333 166.654V152.101C106.333 145.706 108.196 139.191 110 139.191C111.804 139.191 113.667 145.706 113.667 152.097V166.654C113.667 185.336 121.367 205.191 135.667 205.191C155.522 205.191 157.667 151.8 157.667 128.851C157.667 128.601 157.725 128.326 157.744 128.07H166.833C170.237 128.07 173.501 129.422 175.908 131.828C178.315 134.235 179.667 137.499 179.667 140.903V144.57C179.671 149.854 181.748 154.925 185.449 158.695C189.151 162.466 194.184 164.635 199.467 164.736C202.916 164.699 206.239 166.027 208.712 168.432C211.185 170.836 212.607 174.121 212.667 177.57V205.205Z" fill="#060C16"/>
<path d="M127.289 29.1793C127.631 29.2804 127.985 29.3322 128.341 29.3333C129.222 29.3335 130.073 29.0169 130.739 28.4413C131.406 27.8657 131.842 27.0696 131.97 26.1984C132.098 25.3273 131.908 24.4393 131.435 23.6967C130.962 22.9541 130.237 22.4065 129.394 22.154L124.675 20.7387V7.33333C124.675 5.38841 123.902 3.52315 122.527 2.14788C121.152 0.772617 119.286 0 117.341 0L102.675 0C100.73 0 98.8645 0.772617 97.4893 2.14788C96.114 3.52315 95.3414 5.38841 95.3414 7.33333V11.9387L92.7271 11.154C91.7954 10.8749 90.7911 10.9773 89.935 11.4387C89.0789 11.9001 88.4412 12.6827 88.1621 13.6143C87.883 14.546 87.9854 15.5503 88.4468 16.4064C88.9082 17.2625 89.6908 17.9002 90.6224 18.1793L95.3414 19.5947V30.272L92.7271 29.4873C92.2658 29.3491 91.7818 29.3032 91.3027 29.352C90.8237 29.4009 90.3589 29.5436 89.935 29.7721C89.5111 30.0005 89.1364 30.3102 88.8322 30.6835C88.528 31.0568 88.3003 31.4864 88.1621 31.9477C88.0239 32.409 87.9779 32.893 88.0267 33.372C88.0756 33.8511 88.2183 34.3158 88.4468 34.7397C88.6752 35.1636 88.985 35.5384 89.3583 35.8426C89.7316 36.1468 90.1611 36.3745 90.6224 36.5127L95.3414 37.928V49.8153C95.3373 51.2604 95.62 52.6919 96.1733 54.0269C96.7266 55.3619 97.5393 56.5738 98.5644 57.5923L104.823 63.8513C106.199 65.2261 108.064 65.9984 110.008 65.9984C111.953 65.9984 113.818 65.2261 115.193 63.8513L121.452 57.5923C122.477 56.5738 123.29 55.3619 123.843 54.0269C124.396 52.6919 124.679 51.2604 124.675 49.8153V46.728L127.289 47.5127C127.631 47.6137 127.985 47.6656 128.341 47.6667C129.222 47.6669 130.073 47.3502 130.739 46.7747C131.406 46.1991 131.842 45.4029 131.97 44.5318C132.098 43.6606 131.908 42.7726 131.435 42.03C130.962 41.2874 130.237 40.7398 129.394 40.4873L124.675 39.072V28.3947L127.289 29.1793ZM102.675 7.33333H117.341V18.5387L102.675 14.1387V7.33333ZM117.341 49.8153C117.341 50.7877 116.955 51.7202 116.267 52.4077L110.008 58.6667L103.749 52.4077C103.061 51.7202 102.675 50.7877 102.675 49.8153V40.128L117.341 44.528V49.8153ZM117.341 36.872L102.675 32.472V21.7947L117.341 26.1947V36.872Z" fill="#060C16"/>
</g>
<defs>
<clipPath id="clip0_276_3436">
<rect width="220" height="220" fill="white"/>
</clipPath>
</defs>
</svg>
